<?xml version="1.0" encoding="UTF-8" standalone="no"?>
<svg id="Andorra" xmlns:rdf="http://www.w3.org/1999/02/22-rdf-syntax-ns#" xmlns="http://www.w3.org/2000/svg" viewBox="0 0 640 480" version="1.1" xmlns:cc="http://creativecommons.org/ns#" xmlns:xlink="http://www.w3.org/1999/xlink" xmlns:dc="http://purl.org/dc/elements/1.1/">
 <g id="flag">
  <g id="Background">
   <rect style="fill:#d0103a" height="480" width="640" y="0" x="0"/>
   <rect style="fill:#fedf00" height="480" width="435.2" y="0" x="0"/>
   <rect style="fill:#0018a8" height="480" width="204.8" y="0" x="0"/>
  </g>
  <g id="Coat_of_Arms">
   <path d="m300.4 136.63c-2.839 0-4.856 0.538-6.506 2.844-1.606 2.24-1.906 3.914-1.906 6.673 0 3.483 0.747 5.366 2.127 8.566 0.769 1.798 1.851 2.848 1.851 4.805 0 4.207-5.146 5.928-9.352 5.928-4.592 0-7.72-0.713-11.316-3.586 1.108-0.362 1.933-0.226 2.804-0.994 1.097-0.961 1.448-2.014 1.448-3.484 0-2.714-1.946-4.433-4.524-5.293-0.577-0.192-1.019-0.06-1.539-0.361-0.938-0.543-1.069-1.315-1.984-1.893-0.973-0.621-1.611-1.002-2.765-1.002-1.198 0-1.764 0.377-2.748 1.044-0.327 0.215-0.422 0.621-0.829 0.621-1.108 0-1.835-0.621-2.944-0.621-0.972 0-1.325 0.163-2.196 0.581-0.667 0.316-1.228 0.911-1.435 1.16-0.08 0.09-0.693-0.399-1.021-0.524-0.96-0.382-1.545-0.388-2.585-0.388-2.07 0-3.248 0.765-4.559 2.347-0.453 0.543-0.59 1.072-1.178 1.479-1.176 0.814-2.11 0.536-3.173 1.463-0.644 0.566-1.055 0.882-1.519 1.617-0.293 0.475-0.241 1.073-0.705 1.367-0.543 0.348-1.287 0.02-1.841 0.348-1.912 1.141-2.985 2.657-2.985 4.885 0 7.463 5.834 10.19 10.493 16.014 2.137 2.68 3.981 4.432 3.981 7.87 0 0.927-0.248 1.471-0.723 2.262-0.735-1.3-1.346-2.624-2.85-2.624-2.081 0-3.574 1.9-3.574 3.98 0 0.521 0.272 0.793 0.272 1.313 0 0.453-0.701-0.193-1.085-0.408-1.007-0.565-1.743-0.667-2.897-0.814-0.746-0.09-1.187-0.09-1.945-0.09-2.51 0-3.889 0.724-6.196 1.719-2.714 1.176-3.958 2.589-5.79 4.885-3.087 3.868-3.97 6.945-4.615 11.853-0.08 0.622-0.09 0.995-0.09 1.629 0 2.431 0.396 3.821 1.086 6.151 0.577 1.934 0.871 3.109 1.991 4.795 1.719 2.578 2.634 4.32 5.247 5.971 1.718 1.085 3.064 1.198 4.614 2.532-1.934 0.894-2.985 2.476-2.985 4.614 0 2.872 2.194 5.338 5.066 5.338 1.436 0 2.431-0.351 3.437-1.357 1.108 1.108 1.311 2.126 1.809 3.619 0.69 2.081 0.905 3.37 0.905 5.564 0 3.144-0.735 5.032-2.353 7.735-0.972 1.628-1.447 2.917-3.166 3.708-0.904-1.515-2.035-2.442-3.799-2.442-2.058 0-3.179 1.494-4.072 3.348-0.271 0.577-0.802 0.689-1.085 1.266-0.43 0.859-0.159 1.515-0.362 2.442-0.158 0.701-0.824 0.826-1.175 1.448-0.498 0.882-0.544 1.561-0.544 2.578 0 2.748 1.855 4.535 4.434 5.474 1.029 0.373 1.741 0.02 2.804 0.272-4.128 4.128-6.423 7.689-6.423 13.525 0 0.972-0.02 1.526 0.09 2.487 1.334 11.207 7.861 17.755 18.095 22.528 2.974 1.38 4.895 1.549 8.141 2.08 4.298 0.712 6.706 1.153 11.037 1.447 5.451 0.363 8.562 0.373 14.025 0.724 7.068 0.452 11.998 1.324 17.008 6.334-2.612 1.209-4.434 3.041-4.434 5.925 0 3.29 1.957 5.529 4.976 6.83 0.803 0.339 1.426 0.17 2.172 0.633 0.713 0.441 0.824 1.097 1.537 1.538 1.357 0.859 2.375 1.086 3.98 1.086 2.613 0 3.994-1.096 6.244-2.442 1.538 1.775 2.544 2.69 4.433 4.069 1.187 0.871 1.865 1.81 3.347 1.81 0.938 0 1.357-0.633 2.172-1.086 2.476-1.402 3.222-3.053 5.427-4.885 1.9 1.9 3.732 2.534 6.423 2.534 1.527 0 2.523-0.181 3.801-0.995 0.724-0.452 0.69-1.325 1.447-1.72 0.633-0.336 1.132-0.135 1.81-0.361 2.907-0.961 4.795-3.145 4.795-6.198 0-2.974-1.662-4.703-4.071-6.467 5.1-5.1 10.087-6.12 17.279-6.605 5.485-0.363 8.617-0.373 14.113-0.724 4.298-0.271 6.718-0.633 10.948-1.447 6.593-1.278 10.561-2.409 16.012-6.333 3.495-2.51 5.134-4.648 7.057-8.504 2.013-4.025 2.715-6.717 2.715-11.217 0-0.668-0.01-1.064-0.09-1.72-0.43-3.506-0.905-5.62-2.805-8.594-1.312-2.058-2.623-2.805-4.342-4.524 0.904-0.09 1.403 0.272 2.308 0.272 3.008 0 5.744-2.149 5.744-5.157 0-1.074-0.113-1.742-0.543-2.715-0.272-0.633-0.893-0.723-1.175-1.356-0.44-0.973 0.06-1.775-0.453-2.714-0.327-0.61-0.859-0.746-1.176-1.357-0.246-0.475-0.06-0.871-0.273-1.357-0.723-1.606-2.215-2.172-3.98-2.172-1.82 0-2.883 1.109-3.89 2.624-1.9-1.64-2.658-2.975-3.71-5.248-0.995-2.148-1.446-3.549-1.446-5.924 0-3.969 0.542-6.831 3.346-9.636 1.006 1.007 2.002 1.358 3.439 1.358 2.51 0 4.433-2.148 4.433-4.659 0-2.307-1.698-4.185-4.192-5.235 13.489-3.807 12.964-13.356 13.799-18.634 0.376-2.375-0.457-10.926-7.336-16.769-2.248-1.91-5.953-3.799-9.31-3.882-0.746-0.02-1.171 0-1.907 0.08-1.356 0.159-2.847 0.663-3.978 1.409 0.208-0.497 0.389-1.336 0.331-1.822-0.283-2.081-1.905-3.679-4.005-3.565-1.533 0.08-2.197 1.865-1.948 3.316-0.407-0.622-1.327-1.988-1.327-2.735 0-3.087 1.518-5.01 3.44-7.419 4.524-5.653 9.004-7.742 10.886-14.323 0.173-0.603 0.461-1.486 0.48-2.119 0.06-1.888-1.185-3.835-2.801-4.871-0.708-0.455-1.159-0.415-1.698-0.622-0.461-0.177-0.86-1.197-1.12-1.616-0.373-0.588-0.589-0.818-1.074-1.305-1.131-1.131-2.946-1.638-3.733-1.638-0.391 0-0.638-0.915-1.022-1.367-1.426-1.673-2.602-2.473-4.808-2.473-1.063 0-3.096 0.829-3.481 0.829-0.769 0-0.753-1.151-1.432-1.502-0.815-0.418-1.38-0.543-2.307-0.543-1.142 0-1.708 0.723-2.85 0.723-0.543 0-0.705-0.392-1.146-0.709-0.837-0.599-1.447-0.745-2.487-0.745-1.594 0-2.403 0.621-3.647 1.617-0.543 0.43-0.257 1.116-0.867 1.433-0.43 0.226-1.239-0.194-1.714-0.06-2.499 0.757-4.342 2.534-4.342 5.157 0 2.319 2.594 4.114 4.912 4.215-4.272 4.326-11.217 4.212-12.043 4.199-3.787-0.06-9.357-1.464-9.357-5.557 0-1.708 0.63-2.643 1.297-4.203 1.402-3.246 1.907-4.775 2.728-8.29 0.432-1.854-0.384-5.086-1.368-6.736-1.741-2.918-3.828-3.946-7.232-3.946-3.325 0-5.173 0.872-8.068 2.512-4.149 2.341-6.926 3.896-11.687 3.896-7.712 0-10.866-6.616-18.579-6.616z" style="fill:#c7b37f"/>
   <path d="m385.49 187.79 0.348-1.692 0.747-1.568 0.97-1.567 1.667-2.14 1.318-1.467 2.14-2.165 1.841-1.866 1.169-1.343 1.543-1.866 1.368-2.065 0.821-1.692 0.448-2.189 0.136-2.715-0.248-0.787" style="stroke:#703d29;stroke-width:.56384;fill:none"/>
   <path style="stroke-linejoin:round;stroke:#703d29;stroke-linecap:round;stroke-width:.64;fill:none" d="m381.04 273.59c-0.378 2.792-0.823 4.399-2.089 6.916-1.236 2.455-2.223 3.744-4.18 5.673-1.974 1.946-3.343 2.838-5.821 4.08-2.415 1.21-3.935 1.594-6.569 2.19-2.632 0.594-4.171 0.723-6.866 0.845-2.472 0.112-3.874 0-6.343-0.162-2.641-0.184-4.107-0.552-6.744-0.783-2.179-0.192-3.409-0.368-5.596-0.362-2.247 0-3.536 0.02-5.749 0.412-2.063 0.365-3.233 0.656-5.175 1.443-2.686 1.088-5.722 2.985-6.369 3.831-0.647-0.846-3.683-2.743-6.369-3.831-1.942-0.787-3.112-1.078-5.175-1.443-2.213-0.392-3.501-0.407-5.749-0.412-2.187 0-3.417 0.17-5.596 0.362-2.637 0.231-4.103 0.599-6.744 0.783-2.469 0.17-3.87 0.274-6.342 0.162-2.696-0.121-4.235-0.251-6.867-0.845-2.633-0.596-4.154-0.98-6.568-2.19-2.479-1.242-3.847-2.134-5.822-4.08-1.957-1.929-2.944-3.218-4.179-5.673-1.267-2.517-1.712-4.123-2.09-6.916-0.13-0.96-0.136-2.476-0.136-2.488v-101.77h123.23l0.02 101.78c0.02 0 0.02 1.522-0.114 2.481zm-1.464 6.504c-0.105 0.224-0.219 0.455-0.339 0.694-1.235 2.454-2.223 3.743-4.18 5.672-1.974 1.946-3.343 2.838-5.821 4.081-2.414 1.209-3.935 1.594-6.569 2.189-2.631 0.594-4.171 0.723-6.866 0.846-2.472 0.112-3.874 0-6.342-0.163-2.642-0.183-4.107-0.551-6.744-0.783-2.179-0.191-3.41-0.367-5.596-0.362-2.248 0-3.536 0.02-5.75 0.412-2.062 0.365-3.233 0.656-5.175 1.443-2.686 1.089-5.721 2.986-6.368 3.832-0.647-0.846-3.683-2.743-6.37-3.832-1.941-0.787-3.111-1.078-5.175-1.443-2.213-0.392-3.501-0.406-5.749-0.412-2.187 0-3.417 0.171-5.595 0.362-2.638 0.232-4.103 0.6-6.745 0.783-2.468 0.17-3.87 0.275-6.342 0.163-2.696-0.122-4.235-0.25-6.867-0.846-2.632-0.597-4.152-0.981-6.568-2.189-2.48-1.24-3.847-2.135-5.821-4.081-1.035-1.019-1.797-1.859-2.469-2.787m117.39-2.606c-1.236 2.454-2.223 3.743-4.18 5.672-1.975 1.946-3.344 2.839-5.822 4.08-2.414 1.21-3.934 1.595-6.568 2.19-2.632 0.594-4.172 0.723-6.867 0.846-2.471 0.112-3.874 0-6.342-0.163-2.641-0.183-4.107-0.551-6.744-0.783-2.179-0.191-3.409-0.367-5.596-0.362-2.248 0-3.536 0.02-5.749 0.412-2.063 0.365-3.233 0.656-5.175 1.443-2.687 1.089-5.722 2.986-6.369 3.832-0.647-0.846-3.683-2.743-6.37-3.832-1.941-0.787-3.111-1.078-5.174-1.443-2.214-0.392-3.501-0.406-5.75-0.412-2.187 0-3.417 0.171-5.595 0.362-2.638 0.232-4.103 0.6-6.745 0.783-2.468 0.17-3.87 0.275-6.341 0.163-2.696-0.122-4.236-0.251-6.867-0.846-2.634-0.596-4.153-0.982-6.568-2.19-2.48-1.239-3.847-2.134-5.822-4.08-0.213-0.21-0.415-0.413-0.607-0.61m118.86-80.697c-1.144 0.796-1.547 1.691-1.592 3.244-0.04 1.301 0.189 2.745 1.41 4.015 1.902 1.978 5.623 3.701 9.229 3.747 1.956 0.03 3.987-0.385 6.03-1.751 2.184-1.461 3.334-3.433 3.831-5.374m-19.093 3.376c-3.488 3.797-0.28 10.315 2.327 11.788 0.887 0.479 1.272 0.568 2.01 0.752m-4.453-19.612c0.316 0.926 0.836 1.248 1.493 1.934 1.426 1.495 3.517 2.781 6.159 3.523 2.44 0.687 4.639 0.171 6.316-0.875m-9.193 26.221c-4.08 5.076-6.245 8.088-6.37 14.132-0.116 5.672 1.693 9.553 5.076 13.634m-49.087 51.985c-4.849 2.15-8.403 3.759-11.417 8.518-0.945 1.493-1.194 3.633-1.194 4.876 0 2.687 1.094 5.723 3.333 7.613 2.079 1.755 4.13 2.289 6.668 2.041 1.924-0.189 3.732-1.593 4.031-2.588m1.837-8.211c1.045 2.14-0.144 3.216-1.593 3.384-2.139 0.248-3.284-1.443-3.433-2.985-0.242-2.502 1.866-4.768 4.379-4.727 2.263 0.04 4.105 1.496 4.969 3.505 0.314 0.73 0.46 1.533 0.504 2.366 0.09 1.579-0.47 3.035-1.422 4.143-1.279 1.489-3.273 2.389-5.395 2.474-4.224 0.17-7.513-3.781-7.513-7.811 0-7.713 11.438-11.919 15.972-13.001 5.573-1.33 8.964-1.828 17.913-2.325 3.583-0.199 6.207-0.1 10.151-0.507 3.53-0.366 5.374-0.538 9.006-1.383 4.533-1.056 8.758-2.937 12.539-6.37 2.913-2.643 4.578-4.528 5.926-8.16 1.163-3.134 1.698-9.341-1.248-13.932-2.604-4.057-6.22-6.165-10.35-6.762-3.731-0.54-7.003 1.07-8.957 4.772-0.945 1.791-0.654 4.787 0.09 6.17 0.647 1.194 2.494 2.956 4.782 2.986 3.781 0.05 4.68-2.597 4.777-3.185 0.448-2.737-1.145-3.832-1.991-4.13-0.649-0.229-2.759-0.17-3.207 1.322-0.15 0.498-0.176 1.365 0.222 2.012m12.83-10.406c-3.276-2.15-9.496-4.968-15.119-2.194-2.086 1.029-3.483 2.302-4.272 4.378-1.421 3.737 0.167 7.856 1.784 9.567 0.846 0.895 2.688 2.608 4.976 2.638 3.781 0.05 4.681-2.597 4.777-3.185 0.448-2.737-1.145-3.832-1.991-4.13-0.649-0.229-2.759-0.17-3.207 1.322-0.15 0.498-0.176 1.365 0.222 2.012m7.851-26.869c1.308 1.941 2.89 4.098 6.234 5.912m7.705 0c0.04-0.233 0.07-0.474 0.07-0.72 0-2.157-1.749-3.906-3.907-3.906-2.157 0-3.906 1.749-3.906 3.906 0 1.241 0.58 2.347 1.482 3.063m-20.808 19.304c0.174 0.423 0.597 0.836 0.597 0.836 0.647 1.08 3.162 2.979 5.449 3.009 3.782 0.05 4.68-2.597 4.777-3.184 0.478-2.886-0.509-3.676-1.99-4.489 0 0-0.871-0.451-1.916-0.277m18.632-21.424c-0.294-1.773-1.8-3.124-3.615-3.124-2.025 0-3.666 1.682-3.666 3.757 0 1.016 0.393 1.939 1.033 2.615m4.744 5.699c-1.045 0.402-1.617 0.348-2.916-0.229-0.534-0.237-1.145-0.604-1.861-1.01-2.547-1.447-5.573-3.728-8.409-9.052-0.838-1.574-1.359-3.035-1.71-4.475-0.271-1.111-0.458-2.208-0.499-3.335-0.07-1.92 0.138-3.925 0.617-6.222 0.792-3.792 1.744-5.851 4.081-9.056 1.148-1.576 2.139-2.537 4.279-2.587m0.793 26.82c-3.334-2.388-6.191-6.948-6.22-12.335-0.03-4.144 1.642-8.359 3.582-10.002m-55.935 85.211 1.791-1.643 1.244-0.945 2.339-1.443 2.189-1.045 1.543-0.398 3.084-0.697 3.583-0.547m42.768-56.175c-0.435-0.355-0.9-0.656-1.307-1.082-2.449-2.562-4.291-6.351-4.315-10.673-0.03-4.143 1.642-8.36 3.582-10.001m0.12 0.13c1.006 1.316 2.904 1.657 4.405 1.265 1.133-0.296 1.963-1.01 2.492-1.94 0.599-1.05 0.78-2.419 0.391-3.727-0.176-0.593-0.424-1.093-0.848-1.652-0.426-0.561-0.955-1.159-1.365-1.427-0.108-0.07-0.217-0.167-0.331-0.245m-0.924 41.909c0.501 0.192 0.999 0.366 1.436 0.491 1.432 0.409 2.776 0.44 3.942 0.09 2.83-0.849 4.647-3.493 3.174-6.93-0.342-0.797-0.996-1.561-1.739-2.134m-4.201 10.902c2.136 1.993 3.638 4.419 4.792 7.75 0.487 1.404 0.89 3.523 0.834 5.773-0.09 3.587-1 7.507-1.978 9.403-0.854 1.654-3.085 8.956-15.326 13.995-7.143 2.941-18.112 3.619-25.675 3.918-10.255 0.404-19.727 0.785-25.333 7.37m44.868-38.686c-0.298-1.094-0.02-2.144 0.846-3.334 1.161-1.591 3.632-2.139 5.871-0.895 0.749 0.416 1.689 0.964 2.538 2.09 0.321 0.425 0.865 1.113 1.144 1.592 0.678 1.159 0.956 2.107 1.09 2.488 2.462 6.993-1.449 14.573-6.563 17.614-3.972 2.362-8.709 3.415-14.38 4.08-2.549 0.299-4.005 0.279-6.568 0.398-2.063 0.1-3.846 0.06-5.524 0.04-1.38-0.02-2.691-0.01-4.03-0.04-2.185-0.05-4.447-0.101-7.215 0.1-2.911 0.211-5.102 0.286-7.564 0.697-1.607 0.267-3.491 0.526-5.467 0.969-0.592 0.133-1.193 0.241-1.797 0.424-0.406 0.122-0.807 0.246-1.204 0.367-3.566 1.088-7.031 2.413-9.765 4.174-0.844 0.544-1.799 1.088-2.481 1.733-0.425 0.401-0.942 0.804-1.359 1.214-1.914 1.883-3.87 3.921-4.328 6.681-0.08 0.509-0.08 1.042-0.08 1.604 0 1.791 1.458 4.229 5.388 5.026m58.854-58.785c1.118-1.316 3.684-3.29 6.619-3.65 2.979-0.366 5.567 0.501 8.21 1.923 5.158 2.774 8.035 5.756 9.951 11.29 0.487 1.405 0.891 3.524 0.835 5.773-0.09 3.587-1 7.508-1.979 9.403-0.854 1.654-3.085 8.957-15.325 13.996-7.143 2.94-18.112 3.618-25.676 3.917-10.404 0.41-20.003 0.796-25.576 7.663m60.169-88.158c-1.194-2.886-4.279-1.593-4.469 0-0.437 3.668 2.778 4.777 5.066 4.18 1.134-0.296 1.963-1.01 2.494-1.941 0.598-1.05 0.779-2.418 0.39-3.727-0.176-0.593-0.424-1.092-0.848-1.652-0.426-0.561-0.867-0.946-1.28-1.21-0.88-0.562-1.839-0.617-3.343-0.617-5.573 0-10.449 6.585-12.087 13.426-0.539 2.252-1.281 7.277-0.254 12.041 1.095 5.075 3.289 8.589 5.863 11.255 1.393 1.442 3.293 2.727 5.753 4.118 0.759 0.429 2.765 1.319 4.158 1.717 1.431 0.409 2.752 0.349 3.942 0.09 3.301-0.717 4.837-3.788 3.173-6.931-1.362-2.572-5.373-3.98-7.264-0.697-0.16 0.279-0.41 0.886-0.402 1.543 0.01 0.876 0.374 1.931 0.999 2.329 1.437 0.915 3.736 0.656 3.63-1.881m-21.683-43.927c-2.078 0.789-3.642 4.104-3.642 7.403 0 3.781 1.841 6.12 3.98 7.463m11.722-40.769c6.949 1.544 9.389 7.806 9.389 13.781 0 4.874-0.483 11.534-9.968 13.876m-3.479-26.095c0.776-3.491 3.767-3.816 6.181-3.781 6.59 0.1 11.147 7.913 11.223 15.474 0.1 9.551-4.054 15.175-11.034 15.474-1.806 0.08-4.918-0.781-4.972-2.986m1.092-21.749c-1.443 1.044-3.284-0.642-2.488-2.434 0.55-1.237 2.19-2.786 4.677-1.095 2.748 1.869 1.991 7.763-3.283 7.862-4.705 0.09-7.883-6.59-3.384-11.579 4.106-4.555 11.721-3.663 16.498 0.137 2.032 1.617 6.122 6.058 6.999 11.886 1.061 7.053 0.925 15.728-6.36 21.07-2.929 2.148-6.987 3.125-10.57 2.968-4.677-0.205-7.364-3.483-6.867-7.364 0.483-3.764 4.107-5.356 6.768-3.882 2.764 1.531 2.281 5.418-0.697 5.772-1.751 0.208-3.184-1.642-1.99-2.886m0.396-63.636c2.538 0.199 4.578 2.497 4.578 5.175 0 3.831-1.069 5.493-4.13 9.305-2.637 3.284-10.548 9.056-10.35 14.579 0.08 2.088 1.836 4.056 3.355 4.166m-4.774 2.647c0.561 0.555 1.242 1.014 2.052 1.38 1.447 0.653 3.073 0.317 4.259-0.284m7.212 70.718c-1.584-1.459-3.223-3.481-4.805-6.449-0.838-1.574-1.359-3.035-1.71-4.476-0.271-1.11-0.458-2.208-0.499-3.335-0.07-1.92 0.138-3.924 0.617-6.221 0.791-3.792 2.203-6.726 4.081-9.056 0.639-0.795 1.378-1.786 2.08-2.232m-13.159-39.943c-1.779 1.512-2.638 3.384-2.638 5.723 0 3.098 2.592 8.16 8.961 9.951 2.441 0.686 4.773 0.621 6.234-0.267m-6.983-55.772c3.346 0.409 6.262 3.602 6.262 7.035 0 4.429-1.492 6.078-3.824 9.246-2.495 3.39-10.648 9.603-10.648 16.669 0 4.279 1.194 7.015 4.279 8.409 1.989 0.898 4.315-0.08 5.374-1.031 2.587-2.339 1.553-6.44-1.144-6.93-3.285-0.597-3.902 4.572-0.697 4.229m9.313-0.366c8.156-0.354 16.571 5.649 16.942 20.631 0.289 11.705-8.011 17.014-11.995 18.076m-6.188-38.707c4.729-0.1 18.469 3.609 18.567 19.761 0.1 15.952-9.845 18.558-13.828 19.62m5.488 30.52c-0.04-1.864-1.572-3.197-3.463-3.529m5.076 7.504c0.04-0.234 0.06-0.475 0.06-0.721 0-1.159-0.484-2.219-1.285-2.935-0.274-0.243-0.539-0.622-0.87-0.789m-4.15 8.732c0.09 0.09 0.371 0.139 0.472 0.2 1.418 0.846 4.21-0.209 3.389-2.399m-42.79-110.86c0.306-1.652 2.297-1.971 3.045-0.995 1.152 1.502 0.391 4.084-1.952 4.816-0.797 0.249-2.638 0.149-3.832-1.393-0.968-1.251-0.894-2.799-0.533-4.03 0.235-0.796 0.873-1.491 1.727-2.14 2.721-2.069 7.116-1.592 8.558 1.891 1.862 4.493-2.189 7.862-5.921 10.399-4.698 3.195-10.051 3.776-14.082 3.732-9.156-0.1-16.122-4.478-20.65-6.966-1.054-0.579-2.14-0.461-2.686 0.199-0.617 0.745-0.606 1.948 0.249 2.737m-82.009 33.209c-1.936-1.892-6.035-2.385-10.111 0.193-0.524 0.332-1.048 0.757-1.567 1.19-0.56 0.467-1.008 1.004-1.44 1.589-0.47 0.635-1.047 1.715-1.396 2.432-0.48 0.988-0.679 1.637-0.944 2.65-0.744 2.852-0.741 5.501-0.653 6.257 0.113 0.968 0.205 1.858 0.364 2.677 0.54 2.797 1.368 4.761 2.224 6.179 0.9 1.494 3.139 4.922 7.717 5.375 1.799 0.177 4.871-0.648 4.971-2.986m121.9-64.487c-4.031 4.379-8.061 5.777-14.082 5.971-1.881 0.06-5.474-0.597-7.564-2.086-1.343-0.955-2.836-2.592-1.89-5.427 0.631-1.896 3.677-7.215 3.826-10.898 0.228-5.625-1.936-8.708-5.32-9.902-6.255-2.208-12.97 3.975-17.017 5.324-2.115 0.705-3.193 0.789-5.125 0.796-1.931 0-3.048-0.09-5.163-0.796-4.047-1.349-10.762-7.532-17.018-5.324-3.383 1.194-5.547 4.277-5.319 9.902 0.149 3.682 3.194 9.001 3.827 10.898 0.945 2.835-0.549 4.472-1.891 5.427-2.09 1.489-5.684 2.146-7.564 2.086-6.02-0.194-10.051-1.592-14.082-5.971m2.842-2.432c-0.306-1.652-2.237-1.991-2.985-1.015-1.152 1.503-0.311 4.004 2.032 4.736 0.797 0.249 2.638 0.15 3.832-1.393 0.968-1.25 0.893-2.799 0.533-4.029-0.235-0.797-0.874-1.491-1.727-2.14-2.721-2.07-7.116-1.593-8.559 1.89-1.862 4.493 2.19 7.862 5.921 10.4 4.699 3.194 10.052 3.776 14.082 3.731 9.156-0.1 16.122-4.478 20.65-6.965 1.055-0.58 2.141-0.461 2.687 0.199 0.616 0.745 0.606 1.947-0.249 2.736m-16.997 3.677c5.495-1.147 9.974-3.608 13.36-5.502m-13.079 5.784c5.496-1.147 9.975-3.609 13.36-5.502m-29.104-5.717c0 1.719-1.266 2.804-2.985 3.166m-3.105-1.171s0.626 0.987 1.949 1.401c0.796 0.248 2.637 0.149 3.831-1.393 0.969-1.251 0.894-2.8 0.533-4.03-0.234-0.797-0.877-1.566-1.726-2.22m-4.199-1.757c-0.105-0.156-0.222-0.328-0.35-0.518-1.693-2.488-4.68-3.143-6.867-1.493-2.637 1.991-3.304 5.378-2.587 8.957 0.447 2.239 1.966 4.104 4.047 5.453m-2.403-13.615c-2.588-1.194-4.718-0.964-6.32 0.941-1.841 2.19-1.911 5.41-1.542 7.219 0.547 2.687 1.323 3.803 3.46 5.753m-16.648-5.599c-2.537 0.199-5.035 2.383-5.035 5.061 0 3.831 1.527 5.607 4.587 9.418 2.638 3.284 10.088 8.942 9.889 14.466-0.07 2.088-1.479 4.641-2.873 4.343m-0.942-37.679c-3.346 0.409-6.016 3.245-6.016 6.678 0 4.428 1.09 6.219 3.577 9.603 2.494 3.391 10.649 9.603 10.649 16.669 0 4.279-1.195 7.015-4.279 8.409-1.99 0.898-4.315-0.08-5.374-1.031-2.588-2.339-1.553-6.44 1.144-6.93 3.284-0.597 3.901 4.572 0.697 4.229m8.504-40.353c-3.085-2.04-6.426-1.174-8.26 1.542-1.343 1.991-1.687 3.656-1.592 6.121 0.163 4.224 2.806 7.572 5.722 9.205m-10.692 33.43c1.443 1.044 3.296-0.72 2.579-2.592-0.485-1.264-2.281-2.628-4.769-0.937-2.747 1.869-1.99 7.763 3.285 7.862 4.703 0.09 7.563-6.767 3.383-11.579-4.021-4.63-11.345-3.547-16.122 0.253-2.032 1.617-5.871 5.853-7.065 11.625-0.372 1.797-0.612 3.272-0.584 5.075 0.02 1.189 0.129 2.52 0.484 4.18 0.719 3.354 1.9 5.811 3.076 7.517 0.45 0.654 0.862 1.197 1.303 1.638 0.819 0.819 1.064 1.253 1.891 1.941 2.703 2.249 6.185 4.013 10.449 3.831 4.677-0.199 7.365-3.482 6.867-7.364-0.483-3.763-4.282-5.635-6.768-3.881-1.692 1.194-2.293 4.892 0.697 5.771 1.692 0.498 3.184-1.641 1.99-2.885m13.377-19.547c-0.885 2.928-3.526 6.548-8.622 7.839-2.435 0.617-5.57-0.154-6.64-1.065m12.862-14.729c1.108 0.942 1.958 2.142 2.367 3.389m-2.546-3.549c1.779 1.512 2.638 3.384 2.638 5.723 0 3.098-2.592 8.16-8.962 9.951-2.441 0.686-4.856 0.132-6.317-0.756m-1.644-10.739c-0.68 0.171-1.543 0.422-2.447 0.854-1.212 0.577-2.498 1.475-3.524 2.928-1.188 1.683-1.88 4.023-2.309 6.07-0.188 0.896-0.412 3.733 0.161 6.662 0.423 2.164 1.317 4.178 2.305 5.637 0.354 0.523 0.676 0.974 1.037 1.336 1.294 1.293 2.489 2.089 4.478 1.691m-0.277-24.288c-1.522 0.508-3.423 1.457-4.832 3.453-1.188 1.683-1.88 4.023-2.309 6.07-0.188 0.896-0.411 3.733 0.161 6.663 0.424 2.163 1.317 4.177 2.306 5.636 0.354 0.522 0.675 0.874 1.037 1.236 0.331 0.332 0.801 0.624 1.135 0.879m19.968-4.66c-0.491 1.702-1.604 2.991-3.37 4.603m3.376-13.55c-0.309 0.762-0.843 1.584-1.555 2.379-1.919 2.142-5.173 3.961-8.778 4.007-1.957 0.02-3.987-0.385-6.03-1.751-2.185-1.461-3.609-3.538-4.081-5.578m18.774 2.716c1.297 1.191 1.695 2.683 1.695 4.562 0 2.745-1.115 4.864-3.68 7.109-0.573 0.501-1.219 0.972-1.941 1.393m4.028-19.74c1.145 0.796 1.593 1.691 1.593 3.245 0 1.065-0.689 2.446-1.861 3.754-1.919 2.142-5.172 3.962-8.778 4.007-1.957 0.03-3.987-0.384-6.03-1.751-2.184-1.46-3.334-3.433-3.832-5.374m16.899 14.833c1.868 1.46 2.994 2.97 3.52 4.78m-16.314 2.183c4.93 0.92 9.676 6.867 11.23 13.354 0.539 2.252 1.281 7.277 0.253 12.041-1.094 5.076-3.288 8.589-5.862 11.255-0.61 0.631-1.318 1.234-2.127 1.827l-1.052 0.712m-5.853-34.363c1.194-2.886 4.279-1.593 4.469 0 0.437 3.668-2.778 4.777-5.066 4.18-1.134-0.296-1.964-1.01-2.494-1.941-0.597-1.05-0.779-2.418-0.39-3.727 0.176-0.593 0.424-1.092 0.849-1.652 0.426-0.561 0.866-0.946 1.279-1.21 0.88-0.562 1.839-0.617 3.343-0.617 5.573 0 10.45 6.585 12.087 13.426 0.54 2.252 1.281 7.277 0.254 12.041-1.095 5.075-3.289 8.589-5.863 11.255-1.393 1.442-3.293 2.727-5.753 4.118-0.759 0.429-2.764 1.319-4.158 1.717-1.431 0.409-2.775 0.44-3.941 0.09-2.83-0.849-4.647-3.494-3.174-6.931 1.147-2.675 5.374-3.98 7.264-0.697 0.161 0.279 0.411 0.886 0.402 1.543-0.01 0.876-0.373 1.931-0.999 2.329-1.437 0.915-3.736 0.656-3.629-1.881m10.429-36.518c4.204-0.505 6.574-3.638 6.104-7.302-0.358-2.793-2.92-4.94-4.662-5.064m-1.737 16.334c0.284 0.285 0.375 0.709 0.418 1.069 0.437 3.668-2.777 4.737-5.066 4.14-1.133-0.296-2.484-1.348-3.015-2.278-0.382-0.671-0.614-1.472-0.616-2.304m19.588-12.115c2.737 2.14 3.881 4.215 3.881 7.514 0 3.781-1.841 6.12-3.981 7.463m3.883-4.385c-0.649 2.194-2.045 3.693-3.597 4.668m-19.552 21.316c2.11 0 4.116 2.033 4.116 4.19 0 1.241-0.578 2.347-1.481 3.063m-1.266-9.608c2.025 0 3.798 1.94 3.798 4.015 0 1.016-0.394 1.938-1.034 2.614m-6.527-3.531c0.295-1.773 1.8-3.124 3.615-3.124 2.025 0 3.666 1.682 3.666 3.757 0 1.016-0.393 1.939-1.033 2.615m-4.705-0.458c1.239-0.03 2.476 0.815 3.285 2.219 0.16 0.279 0.41 0.886 0.402 1.543-0.01 0.876-0.395 1.812-1.02 2.21-1.437 0.914-3.988 0.521-3.882-2.016m12.095-8.782c-1.308 1.941-2.891 4.098-6.234 5.912m0.941-4.075c3.333-2.388 6.19-6.948 6.219-12.335 0.03-4.144-1.641-8.359-3.582-10.002m-11.284 26.42c-0.04-0.233-0.07-0.474-0.07-0.72 0-2.157 1.749-3.906 3.906-3.906 2.158 0 3.906 1.749 3.906 3.906 0 1.241-0.578 2.347-1.481 3.063m-3.237 2.72c1.045 0.402 1.616 0.348 2.916-0.229 0.534-0.237 1.145-0.604 1.86-1.01 2.548-1.447 5.574-3.728 8.409-9.052 0.839-1.574 1.36-3.035 1.711-4.475 0.27-1.111 0.458-2.208 0.499-3.335 0.07-1.92-0.138-3.925-0.617-6.222-0.791-3.792-1.744-5.851-4.081-9.056-1.149-1.576-2.139-2.537-4.279-2.587m17.55 21.271c-0.32 1.438-0.806 2.768-1.449 4.046-0.815 1.62-2.235 3.423-3.554 4.642m1.259-24.899c1.937 2.6 3.216 4.839 3.81 7.725m-6.274-10.791c4.08 5.076 6.245 8.088 6.369 14.132 0.116 5.672-1.692 9.553-5.076 13.634m45.83 64.235c-1.045 2.139 0.143 3.215 1.592 3.383 2.14 0.248 3.284-1.443 3.433-2.985 0.243-2.502-1.866-4.768-4.379-4.727-2.262 0.04-4.105 1.496-4.969 3.505-0.314 0.73-0.459 1.533-0.504 2.366-0.08 1.579 0.47 3.035 1.423 4.143 1.278 1.489 3.272 2.389 5.394 2.474 4.224 0.17 7.514-3.781 7.514-7.811 0-7.713-11.439-11.919-15.973-13.001-5.573-1.33-8.964-1.828-17.913-2.325-3.582-0.199-6.206-0.1-10.151-0.507-3.53-0.366-5.374-0.538-9.006-1.383-4.534-1.056-8.758-2.937-12.539-6.37-2.912-2.643-4.578-4.528-5.927-8.16-1.163-3.134-1.697-9.341 1.249-13.932 2.604-4.057 6.22-6.165 10.35-6.762 3.731-0.54 7.003 1.07 8.957 4.772 0.946 1.791 0.654 4.787-0.1 6.17-0.647 1.194-2.494 2.956-4.781 2.986-3.782 0.05-4.681-2.597-4.777-3.185-0.448-2.737 1.144-3.832 1.99-4.13 0.649-0.229 2.76-0.17 3.208 1.322 0.149 0.498 0.176 1.365-0.222 2.012m0.199-0.55c0.299-1.094 0.146-2.244-0.846-3.334-0.995-1.094-3.632-2.139-5.871-0.895-0.749 0.416-1.688 0.964-2.538 2.09-0.321 0.425-0.864 1.113-1.144 1.592-0.678 1.159-0.956 2.107-1.091 2.488-2.46 6.994 1.545 14.42 6.564 17.614 4.379 2.786 8.857 3.582 14.38 4.08 2.557 0.23 4.005 0.279 6.569 0.398 2.063 0.1 3.845 0.06 5.523 0.04 1.381-0.02 2.691-0.01 4.03-0.04 2.186-0.05 4.448-0.101 7.215 0.1 2.912 0.211 5.103 0.286 7.564 0.697 1.608 0.267 3.492 0.526 5.467 0.969 0.593 0.133 1.194 0.241 1.798 0.424 0.406 0.122 0.807 0.246 1.204 0.367 3.565 1.088 7.03 2.413 9.764 4.174 0.845 0.544 1.818 1.069 2.482 1.733 0.509 0.509 0.942 0.804 1.358 1.214 1.915 1.883 3.871 3.921 4.329 6.681 0.08 0.509 0.08 1.042 0.08 1.604 0 1.791-1.458 4.229-5.389 5.026m-74.51-56.9c3.277-2.15 9.496-4.968 15.119-2.194 2.086 1.029 3.483 2.302 4.272 4.378 1.421 3.737-0.167 7.856-1.784 9.567-0.845 0.895-2.688 2.608-4.976 2.638-3.781 0.05-4.68-2.597-4.776-3.185-0.448-2.737 1.144-3.832 1.99-4.13 0.649-0.229 2.76-0.17 3.207 1.322 0.15 0.498 0.176 1.365-0.222 2.012m2.088-12.597c-0.927-2.181-2.77-3.19-5.772-3.511-2.984-0.318-5.567 0.502-8.21 1.923-5.158 2.775-8.034 5.757-9.952 11.291-0.486 1.405-0.89 3.524-0.834 5.773 0.09 3.587 1.001 7.507 1.979 9.403 0.853 1.654 3.085 8.956 15.325 13.996 7.143 2.94 18.112 3.618 25.676 3.916 10.403 0.411 20.003 0.797 25.575 7.663m-38.263-43.65c0.426 3.163-0.905 6.272-2.255 7.702-0.846 0.896-2.688 2.608-4.976 2.637-3.781 0.05-4.91-2.551-5.139-3.184m3.264-0.214c0.671 0.124 1.194 0.373 1.865-0.523 0.829-1.104 0.384-2.821-0.478-3.902-0.922-1.157-3.592-2.179-5.831-0.935-0.75 0.416-1.689 0.963-2.538 2.089-0.321 0.426-0.865 1.113-1.144 1.593-0.678 1.159-0.956 2.106-1.091 2.487-2.048 5.823 0.384 11.945 4.153 15.676m52.634 24.504c-1.02 2.274 0.433 3.504 1.881 3.672 2.14 0.249 3.344-1.443 3.493-2.985 0.163-1.678-0.732-3.31-2.097-4.151m-4.192 11.086c0.983 0.492 2.098 0.779 3.251 0.825 4.224 0.17 7.514-3.781 7.514-7.811 0-2.795-1.521-5.149-3.652-7.04m-7.44-7.599c0.798 0.312 0.194-0.189 5.245 2.05 4.849 2.15 8.29 4.032 11.304 8.791 0.946 1.492 1.194 3.632 1.194 4.876 0 0.802-0.1 1.635-0.293 2.459m-77.834-58.24c-1.335 0.342-2.589 0.35-3.684 0.02-2.831-0.849-5.125-3.561-3.956-6.93m83.128 69.65c-0.217 0.232-0.449 0.453-0.693 0.659-2.077 1.755-4.13 2.289-6.668 2.04-1.924-0.189-3.781-1.631-4.278-2.576m-63.97-31.163c2.248 2.36 5.649 4.923 10.873 7.073 7.143 2.941 18.112 3.619 25.676 3.917 10.057 0.398 19.323 0.811 24.966 7.039m3.56-7.904c4.848 2.15 8.403 3.759 11.417 8.518 0.945 1.493 1.194 3.633 1.194 4.876 0 2.687-1.095 5.723-3.334 7.613-2.077 1.755-4.13 2.289-6.667 2.041-1.925-0.189-3.732-1.593-4.031-2.588m-55.149-129.74 2.156-0.568 1.276-0.964 0.823-1.163 0.709-1.816 0.284-1.475m-0.729-12.798c1.823-0.07 2.86 1.589 2.844 2.985m-12.656 11.46c0.267 2.636 2.032 4.613 5.377 4.677 4.704 0.09 7.563-6.768 3.384-11.58m9.031-2.979c-0.64 1.849-1.81 3.17-3.663 4.006-1.847 0.835-3.985 0.06-5.129-0.826m52.696-34.284c0.243-0.756 0.491-1.326 0.455-2.569-0.124-4.201-3.239-6.107-4.483-9.988-0.741-2.311-1.036-4.32 0.656-5.962 1.477-1.433 3.188-1.411 5.116-0.656 3.851 1.51 8.517 5.848 16.66 5.969-8.143-0.121-12.809-4.459-16.66-5.969-1.928-0.755-3.799-0.976-5.275 0.457-1.692 1.642-1.238 3.85-0.497 6.161 1.244 3.881 4.2 5.787 4.323 9.988 0.04 1.243-0.291 1.813-0.533 2.569m18.248 167.54c-0.371 1.657-1.923 3.551-5.299 4.235 0 0-0.4 0.08-0.656 0.136m-60.76-143.68c-0.349 1.285-1.04 2.876-3.055 2.702m-20.535 33.017c0.687 0.862 1.495 1.639 2.323 2.327 1.677 1.396 3.656 2.625 5.934 3.298m18.866-25.331c0.531 0.369 0.912 0.84 1.168 1.307m-1.27 5.445c0.573 0.527 0.97 1.112 1.236 1.765m37.733 119.96c0.09 0.127 0.19 0.25 0.293 0.369 1.208 1.407 3.115 2.289 5.106 2.454m14.864-17.12c1.662 1.635 3.358 3.388 4.074 5.63m-64.164-46.789c0.702 0.693 1.325 1.539 1.851 2.538 0.946 1.791 0.655 4.787-0.09 6.17-0.08 0.152-0.185 0.313-0.304 0.479m-13.261-85.667c1.531 0.802 3.084-0.374 2.766-2.365-0.15-0.933-1.156-2.112-2.517-2.197m10.228 26.252c-0.722 0.646-1.44 1.043-2.09 1.298m5.571-33.689-0.448 1.294-0.547 0.946-0.746 1.044-1.045 0.945-1.244 0.598-1.045 0.248-0.647-0.05m-3.257 28.365-0.348 2.165-0.423 0.945-0.871 1.194-1.169 0.896-1.195 0.597-2.313 0.572m0.374 5.618-0.2 1.394-0.323 0.622-0.473 0.597-0.647 0.497-0.721 0.323-0.945 0.15-0.647 0.05m-5.324 33.486 1.194 0.1 1.542-0.125 1.543-0.547m2.441-73.828c-1.901 1.177-3.317 1.455-4.795 3.166-1.472 2.915-2.05 4.48-2.624 6.816m26.945 71.637-0.149 1.792-0.299 1.244-0.895 2.14-1.394 1.841-1.493 1.193-1.094 0.548-1.543 0.348m-4.877-9.304-2.04 0.746-2.09 1.593-0.896 1.244-1.144 1.99-0.498 1.493-0.398 1.841-0.199 1.393m65.633 48.017s0.684-0.03 1.018-0.1c0.64-0.133 1.268-0.34 1.868-0.602 0.592-0.257 1.172-0.561 1.692-0.945 0.396-0.292 0.768-0.631 1.067-1.021 0.962-1.253 1.752-2.665 2.278-4.154 0.241-0.683 0.384-2.138 0.384-2.138m1.951-165.59c-0.09 1.538-1.328 3.488-2.866 4.121m0.736-9.202c1.538 1.176 2.623 2.623 2.443 4.976-0.197 2.551-0.815 3.166-2.805 4.523m16.279-6.735c0.822 1.488 1.275 2.393 0.796 3.931-0.542 1.743-1.778 2.787-3.533 2.787-3.981 0-6.322-4.713-4.528-7.713 3.185-5.324 9.305-2.334 14.977 0.304-0.274-1.366-0.751-1.81-0.701-3.502 0.123-4.201 3.239-6.107 4.483-9.987 0.741-2.312 1.036-4.32-0.656-5.962-1.477-1.433-3.188-1.411-5.116-0.656-3.852 1.51-8.477 5.848-16.621 5.968-8.143-0.12-12.808-4.458-16.659-5.968-1.928-0.755-3.639-0.777-5.116 0.656-1.692 1.642-1.397 3.65-0.656 5.962 1.244 3.881 4.359 5.786 4.483 9.987 0.05 1.692-0.428 2.136-0.701 3.502 5.672-2.638 12.03-5.896 14.977-0.304 1.641 3.116-0.547 7.713-4.528 7.713-1.755 0-2.987-1.119-3.533-2.787-0.486-1.486 0-2.786 0.796-3.931m64.709-12.326c2.638 1.99 3.422 5.433 2.548 8.977-0.624 2.532-2.217 4.05-4.202 5.259m8.278-13.129c0.222 0.19 0.436 0.406 0.64 0.649 1.842 2.19 1.984 5.426 1.543 7.22-0.663 2.696-1.554 3.859-3.742 5.471m7.876-13.34c1.092 0.506 2.051 1.362 2.782 2.444 1.343 1.991 1.685 3.656 1.591 6.121-0.159 4.224-3.198 7.149-5.917 8.934m-18.91-16.83c0.104-0.156 0.221-0.328 0.35-0.518 1.692-2.488 4.679-3.143 6.866-1.493 2.638 1.991 3.304 5.378 2.588 8.957-0.448 2.239-1.967 4.104-4.048 5.453m8.925-12.418c3.085-2.04 6.426-1.174 8.26 1.542 1.343 1.991 1.687 3.656 1.592 6.121-0.162 4.224-2.805 7.572-5.722 9.205m-10.645-18.065c2.699-1.466 4.78-1.195 6.319 0.941 1.673 2.321 1.911 5.41 1.543 7.219-0.548 2.687-1.324 3.803-3.461 5.753m-31.102-18.284-0.132 2.115-0.573 2.16-1.102 2.952-0.837 1.895-0.881 1.894-0.44 1.323-0.177 0.969 0.133 0.926m2.582 3.27c-0.472-0.237-0.98-0.582-1.32-0.962-0.887-0.992-1.479-2.336-0.795-4.386 0.631-1.897 3.677-7.216 3.826-10.898 0.229-5.625-1.935-8.945-5.319-10.24m26.597 15.414c0.85 0.579 1.716 1.466 2.185 2.599 1.861 4.494-2.189 7.862-5.921 10.4-2.676 1.819-5.564 2.791-8.299 3.282m-27.095 0.148c0.742-0.487 1.287-1.267 1.598-2.231 0.482-1.488 0.492-2.757-0.303-3.901 0.982 1.286 1.072 2.371 0.795 3.931-0.175 0.993-0.809 1.516-1.598 2.23m65.409-10.103c2.538 0.199 4.889 2.931 4.858 5.609-0.05 3.89-1.35 5.497-4.41 9.309-2.638 3.284-10.549 9.056-10.35 14.579 0.03 0.981 0.564 1.994 1.154 2.809m-66.785-43.48c8.011-0.423 14.877-5.806 17.092-6.245 1.975-0.391 3.078-0.215 4.526 1.102-1.449-1.317-3.099-1.276-4.973-0.541-3.851 1.51-8.477 5.848-16.621 5.969m72.328 45.148c0.776-2.641-0.171-5.429-2.73-5.354m-24.131-32.636c0.971 0.04 1.23 0.424 1.528 0.811 1.152 1.503 0.31 4.085-2.033 4.817m-22.02 164.11c0.916 0.702 1.815 1.766 2.303 2.902 0.314 0.73 0.46 1.533 0.504 2.366 0.08 1.58-0.47 3.035-1.422 4.144-1.279 1.488-3.272 2.389-5.394 2.474h-0.471m0.461-0.513-0.742 1.195-1.131 0.936-1.711 0.71-1.55 0.06m-6.194-2.49c-1.294 1.99-4.379 4.975-7.613 6.169-3.234-1.194-6.319-4.179-7.613-6.169-0.105-0.162-0.206-0.316-0.302-0.466m28.155-8.629c0.455 0.31 0.746 0.956 0.746 0.956 0.126 0.299 0.289 0.583 0.334 0.848 0.258 1.523-0.74 2.472-1.973 2.615-1.695 0.197-2.967-0.81-3.509-2.029m54.16-175.55c3.212 0 6.012 3.574 6.012 7.243 0 4.227-2.248 6.814-3.895 8.771-1.326 1.575-2.763 2.984-4.469 4.703m-6.051-6.394v15.799m16.934 14.947c1.719 2.354 0.594 6.996-4.082 7.084-1.827 0.03-3.475-0.977-4.441-2.511m-140.69-41.36c0.999 2.613 2.946 4.656 5.031 5.823m110.15-7.347c-0.905 0-1.981-0.267-3.149-1.497-0.27-0.283-0.585-0.658-0.708-0.994m-21.98 177.8c-2.03 0.08-3.843-0.788-5.179-2.16m-5.823 2.333c0.231 0.251 0.478 0.488 0.74 0.71 2.077 1.754 4.13 2.288 6.667 2.039 1.925-0.188 3.453-1.474 4.071-2.587 0 0 0.346-0.372 0.443-0.727m41.73-126.55v4.977m0.282-4.279v3.436m-0.282 4.577v10.921m0.282-9.878v8.858m0 6.169v11.817m-0.282-12.962v14.529m0 5.868v17.422h0.04c0 0.01 0 1.529-0.136 2.488-0.135 1-0.279 1.848-0.466 2.64m0.839-20.995v16.154h0.05c0 0.01 0 1.529-0.136 2.488-0.08 0.629-0.174 1.197-0.275 1.729m-41.112 51.942c0.408 0.426 0.646 0.796 0.646 0.796 0.126 0.3 0.229 0.584 0.274 0.85 0.258 1.522-0.74 2.47-1.973 2.614-1.694 0.197-2.828-0.801-3.371-2.02m2.702 6.855 1.808-0.172 1.722-0.689 1.205-0.732 1.636-1.938 0.344-0.732 0.259-1.678 0.09-0.775m35.858-140v8.907m0.282-7.467v6.518m-0.282 4.253v4.975m0.282-4.105v3.532m-75.04-43.16c0.833-0.462 1.606-0.9 2.319-1.292 1.055-0.58 2.323-0.458 2.869 0.202 0.616 0.745 0.711 2.037-0.144 2.827m15.436 171.08c-1.294 1.991-4.379 4.976-7.613 6.17-3.235-1.194-6.319-4.179-7.613-6.17m15.507 0.282c-1.294 1.99-4.379 4.976-7.613 6.17-3.235-1.194-6.319-4.18-7.613-6.17m75.278-45.926 1.617-0.324 1.219-0.647 0.671-0.672 0.473-0.771 0.324-1.243 0.03-0.871m-139.39-95.818 0.03 0.995m135.04 91.357c0.76-1.037 3.531-2.351 5.77-1.106 0.737 0.408 1.611 0.926 2.377 2.074m-1.824-35.394 0.126-1.601 0.533-2.543 0.754-1.978 0.848-1.633 1.098-1.319m7.784-3.399-0.125 1.567-0.448 1.07-0.697 1.021-0.796 0.597-1.218 0.447-1.07 0.07-0.797-0.125"/>
   <path style="fill:#c7b37f" d="m271.94 157.96c-0.107-1.018 0.505-1.918 1.367-2.008s1.648 0.663 1.757 1.681c0.107 1.019-0.505 1.919-1.368 2.009-0.862 0.09-1.648-0.663-1.756-1.682zm-30.63 65.633c0-1.016 0.763-1.839 1.706-1.839 0.942 0 1.705 0.823 1.705 1.839 0 1.015-0.763 1.838-1.705 1.838-0.943 0-1.706-0.823-1.706-1.838zm6.63 62.054c0-1.381 1.12-2.501 2.501-2.501s2.5 1.12 2.5 2.501-1.119 2.5-2.5 2.5-2.501-1.119-2.501-2.5zm-15.35-17.67c0-1.236 0.791-2.239 1.766-2.239s1.767 1.003 1.767 2.239c0 1.237-0.792 2.24-1.767 2.24s-1.766-1.003-1.766-2.24z"/>
   <path d="m243.91 272.98c-0.592 0.272-0.942 0.392-1.517 0.697-0.438 0.232-0.675 0.38-1.095 0.642-0.496 0.309-0.773 0.49-1.244 0.836-0.491 0.36-0.743 0.595-1.219 0.975" style="stroke:#c7b37f;stroke-width:.63168;stroke-linecap:round;fill:none"/>
   <path style="stroke:#c7b37f;stroke-width:.63168;stroke-linecap:round;fill:none" d="m263.03 159.75c0.248 0.601 0.325 0.971 0.637 1.542 0.276 0.504 0.467 0.773 0.831 1.219 0.464 0.568 0.766 0.865 1.344 1.319 0.671 0.527 1.147 0.682 1.881 1.119m-10.952-5.129c0.25 0.669 0.322 1.078 0.642 1.716 0.434 0.868 0.77 1.323 1.423 2.041 0.905 0.994 1.673 1.275 2.741 2.089m-6.412 4.029c-0.798-0.466-1.286-0.669-2.046-1.194-0.772-0.534-1.199-0.861-1.871-1.518-0.484-0.473-0.755-0.749-1.159-1.294-0.36-0.485-0.498-0.804-0.816-1.318m-7.324 44.876c0.485 0.26 0.735 0.456 1.244 0.667 0.46 0.191 0.732 0.271 1.218 0.383 0.658 0.151 1.043 0.188 1.717 0.204 0.73 0.02 0.946 0 1.867-0.149m-10.552-1.918c0.163 0.581 0.198 0.927 0.418 1.488 0.276 0.706 0.506 1.076 0.925 1.707 0.437 0.657 0.711 1.02 1.275 1.572 0.494 0.485 0.808 0.73 1.388 1.11 0.55 0.361 0.907 0.486 1.488 0.796m11.255 9.833c-0.476 0.212-0.725 0.379-1.219 0.543-0.567 0.186-0.951 0.283-1.498 0.308m2.326 12.448c-0.32-0.33-0.494-0.523-0.821-0.845-0.342-0.338-0.528-0.537-0.895-0.846-0.357-0.301-0.583-0.438-0.956-0.717m-8.713 27.464c0.347-0.421 0.557-0.648 0.89-1.08 0.278-0.359 0.443-0.557 0.687-0.94 0.22-0.345 0.318-0.555 0.512-0.916 0.274-0.508 0.411-0.804 0.672-1.318m-5.865-25.096c-0.368 0.16-0.571 0.292-0.846 0.582-0.264 0.277-0.318 0.378-0.523 0.831-0.149 0.331-0.188 0.715-0.243 1.189"/>
   <path style="stroke:#703d29;stroke-width:.17703;fill:#703d29" d="m333.3 151.62c-0.05-1.695-1.721-1.871-2.361-1.871-1.847 0-2.347 1.152-4.65 2.389-2.888 1.55-4.131 1.895-6.698 1.918-2.567-0.02-3.844-0.368-6.731-1.918-2.304-1.237-2.691-2.352-4.538-2.352-1.003 0-2.298 0.866-2.249 2.453 0 0-0.02 0.514 0.06 0.862 0.03 0.13 0.189 0.09 0.239 0.205-0.02-0.77 0.133-1.168 0.512-1.686 0.487-0.664 1.296-0.84 1.625-0.84 1.847 0 2.531 1.185 4.835 2.422 2.887 1.551 4.13 1.896 6.697 1.919 2.566-0.03 3.844-0.368 6.732-1.919 2.303-1.237 2.966-2.52 4.813-2.52 0.639 0 1.091 0.414 1.3 1.066 0.129 0.402 0.06 0.669 0.09 0.828 0.01 0.08 0.111 0.07 0.132 0.154 0.06-0.299 0.213-0.406 0.192-1.11z"/>
   <path style="fill:#703d29" d="m264.4 294.03c0.518-0.558 0.91-0.348 1.006-0.606 0.07-0.19-0.08-0.209-0.293-0.288-0.283-0.105-0.581-0.166-0.862-0.271-0.293-0.109-0.558-0.259-0.85-0.369-0.121-0.04-0.4-0.187-0.48 0.03-0.146 0.392 1.026 0.358 0.633 1.409-0.07 0.179-0.234 0.563-0.816 1.2l-2.65 2.884c-0.06 0.07-0.159 0.209-0.219 0.186-0.06-0.02-0.05-0.198-0.05-0.288l0.04-4.09c0-0.777 0.07-1.351 0.195-1.687 0.176-0.47 0.717-0.08 0.83-0.378 0.07-0.19 0.02-0.198-0.305-0.318-0.162-0.06-0.47-0.125-1.115-0.366-0.342-0.128-0.667-0.3-0.999-0.425-0.151-0.06-0.43-0.262-0.53 0-0.03 0.08 0.08 0.194 0.102 0.217 0.371 0.266 0.466 0.441 0.474 0.942l0.07 7.446c0 0.538 0.06 0.687 0.165 0.725 0.111 0.04 0.186 0 0.405-0.257l5.251-5.698z"/>
   <path style="fill:#703d29" d="m267.49 295.18c0.341-1.082 0.98-0.43 1.103-0.817 0.04-0.137-0.001-0.176-0.309-0.272-0.584-0.185-0.968-0.255-1.336-0.372-0.359-0.113-0.744-0.284-1.144-0.41-0.09-0.03-0.338-0.144-0.399 0.05-0.126 0.398 1.133 0.445 0.806 1.481l-1.723 5.467c-0.341 1.081-0.986 0.553-1.111 0.951-0.02 0.06-0.03 0.143 0.07 0.172 0.267 0.08 0.722 0.178 1.163 0.317 0.799 0.252 1.164 0.417 1.543 0.537 0.236 0.07 0.342 0.06 0.382-0.07 0.115-0.364-1.198-0.203-0.757-1.603l1.713-5.432z"/>
   <path style="fill:#703d29" d="m271.19 296.27c0.204-0.686 0.523-0.592 0.904-0.479 1.041 0.308 1.367 1.326 1.035 2.449-0.201 0.675-0.452 1.298-2.018 0.833-0.309-0.09-0.691-0.204-0.606-0.49l0.685-2.313zm-2.838 4.926c-0.427 1.442-1.15 0.817-1.258 1.184-0.07 0.229 0.159 0.258 0.272 0.292 0.515 0.153 1.044 0.259 1.6 0.425 0.433 0.128 0.698 0.256 0.873 0.307 0.237 0.07 0.34 0.03 0.371-0.08 0.121-0.413-1.038-0.246-0.675-1.47l0.587-1.981c0.118-0.401 0.08-0.499 0.627-0.338 0.515 0.153 0.67 0.311 0.757 0.885l0.33 2.065c0.123 0.759 0.239 1.578 1.053 1.819 0.412 0.122 1.167 0.07 1.272-0.283 0.03-0.09-0.01-0.179-0.108-0.207-0.102-0.03-0.225 0-0.328-0.02-0.08-0.03-0.279-0.08-0.317-0.293-0.315-1.662-0.699-3.582-0.679-3.651 0.03-0.114 0.364-0.128 0.74-0.304 0.38-0.186 0.805-0.521 1.022-1.254 0.156-0.526 0.428-2.202-1.828-2.87-0.691-0.205-1.405-0.366-2.096-0.571-0.649-0.192-0.718-0.262-1.191-0.402-0.124-0.04-0.244-0.01-0.278 0.104-0.122 0.412 1.126 0.321 0.747 1.603l-1.493 5.038z"/>
   <path style="fill:#703d29" d="m276.78 303.67c-0.331 1.382-1.378 0.541-1.487 0.994-0.06 0.256 0.119 0.286 0.307 0.332 0.418 0.1 0.774 0.136 1.474 0.304 0.7 0.169 1.034 0.298 1.452 0.398 0.303 0.07 0.504 0.158 0.57-0.12 0.08-0.326-1.34-0.31-0.997-1.739l1.26-5.248c0.134-0.557 0.253-0.59 0.681-0.487l0.888 0.213c1.213 0.242 0.569 1.451 0.987 1.551 0.272 0.06 0.266-0.415 0.278-0.559l0.142-1.096c0.02-0.118 0.06-0.282-0.101-0.319-0.971-0.233-1.683-0.355-3.209-0.721-1.525-0.367-2.214-0.581-3.185-0.814-0.157-0.04-0.196 0.125-0.235 0.238l-0.535 1.493c-0.06 0.145-0.181 0.386 0.04 0.439 0.47 0.112 0.522-1.484 1.703-1.2l0.878 0.21c0.428 0.103 0.518 0.186 0.384 0.744l-1.293 5.387z"/>
   <path style="fill:#703d29" d="m289.47 300.43c0.413-0.64 0.836-0.501 0.886-0.771 0.04-0.199-0.117-0.192-0.34-0.233-0.295-0.06-0.6-0.06-0.896-0.117-0.306-0.06-0.593-0.159-0.899-0.216-0.127-0.03-0.427-0.115-0.469 0.107-0.08 0.412 1.072 0.175 0.867 1.279-0.03 0.188-0.131 0.595-0.594 1.322l-2.11 3.302c-0.04 0.08-0.119 0.233-0.183 0.22-0.06-0.01-0.09-0.185-0.102-0.274l-0.673-4.035c-0.132-0.765-0.167-1.342-0.101-1.694 0.09-0.493 0.693-0.2 0.752-0.517 0.04-0.2-0.02-0.198-0.357-0.26-0.169-0.03-0.484-0.04-1.16-0.167-0.359-0.07-0.71-0.18-1.059-0.244-0.159-0.03-0.468-0.185-0.521 0.1-0.01 0.08 0.11 0.179 0.139 0.196 0.411 0.198 0.535 0.354 0.63 0.845l1.364 7.321c0.1 0.529 0.183 0.666 0.289 0.686 0.116 0.02 0.182-0.04 0.355-0.324l4.182-6.523z"/>
   <path style="fill:#703d29" d="m290.07 307.15c0 0.292-0.02 0.384 0.232 0.499 0.59 0.257 1.083 0.63 1.73 0.737 1.388 0.232 2.539-0.652 2.797-2.195 0.25-1.496-0.365-2.119-1.407-2.862-1.303-0.933-1.861-1.184-1.729-1.973s0.684-1.156 1.384-1.039c1.823 0.305 1.615 2.522 1.859 2.563 0.233 0.04 0.289-0.1 0.311-0.36l0.147-1.598c0.03-0.274 0.09-0.446-0.07-0.472-0.138-0.03-0.435 0.121-0.572 0.1-0.318-0.05-0.687-0.587-1.556-0.732-1.24-0.208-2.253 0.639-2.48 1.994-0.207 1.237 0.341 1.8 1.178 2.4 1.567 1.122 2.209 1.387 2.042 2.388-0.159 0.942-0.889 1.401-1.716 1.263-1.176-0.197-1.654-1.379-1.804-2.566-0.02-0.16-0.02-0.27-0.19-0.298-0.265-0.04-0.216 0.315-0.212 0.485l0.06 1.668z"/>
   <path style="fill:#703d29" d="m305.89 302.69c0.344-0.679 0.779-0.585 0.801-0.859 0.01-0.202-0.137-0.179-0.363-0.196-0.299-0.02-0.603 0-0.903-0.02-0.311-0.03-0.607-0.1-0.917-0.121-0.129-0.01-0.437-0.07-0.455 0.156-0.03 0.416 1.084 0.06 0.996 1.181-0.01 0.19-0.07 0.605-0.453 1.377l-1.753 3.503c-0.04 0.08-0.09 0.244-0.159 0.24-0.06 0-0.105-0.176-0.13-0.262l-1.091-3.943c-0.211-0.747-0.307-1.318-0.278-1.675 0.04-0.5 0.668-0.271 0.693-0.592 0.01-0.202-0.04-0.195-0.381-0.222-0.172-0.01-0.486 0.01-1.172-0.04-0.364-0.03-0.724-0.105-1.078-0.134-0.16-0.01-0.485-0.133-0.508 0.152 0 0.08 0.128 0.166 0.158 0.181 0.43 0.153 0.57 0.296 0.716 0.775l2.122 7.138c0.154 0.515 0.252 0.642 0.358 0.65 0.118 0 0.178-0.06 0.32-0.358l3.477-6.925z"/>
   <path style="fill:#703d29" d="m307.58 308.48c-0.01 1.218-1.041 0.994-1.045 1.471 0 0.204 0.214 0.146 0.333 0.147 0.29 0 0.58-0.04 0.924-0.04 0.376 0 0.741 0.05 1.268 0.06 0.139 0 0.408 0.01 0.409-0.151 0-0.562-1.378 0.238-1.358-2.054l0.04-4.06c0-0.107 0.03-0.191 0.09-0.19 0.05 0 0.117 0.06 0.192 0.156l5.115 6.254c0.07 0.1 0.127 0.169 0.278 0.17 0.129 0 0.13-0.09 0.132-0.357l0.06-6.698c0-1.253 0.922-0.959 0.925-1.317 0-0.04 0-0.156-0.203-0.157-0.1 0-0.473 0.05-1.15 0.04-0.742 0-1.053-0.06-1.225-0.06-0.139 0-0.173 0.117-0.173 0.2 0 0.395 1.309 0.191 1.3 1.278l-0.03 3.976c0 0.298-0.03 0.442-0.09 0.441-0.06 0-0.192-0.145-0.33-0.313l-4.274-5.304c-0.191-0.229-0.06-0.311-0.406-0.314-0.569 0-0.849 0.04-1.129 0.04-0.204 0-0.397-0.05-0.601-0.05-0.129 0-0.183 0.09-0.184 0.201 0 0.573 1.205-0.193 1.185 2.1l-0.04 4.538z"/>
   <path style="fill:#703d29" d="m317.99 303.1c0.01-1.134 0.812-0.697 0.816-1.103 0-0.144-0.05-0.168-0.375-0.171-0.612 0-0.999 0.04-1.386 0.04-0.376 0-0.795-0.06-1.214-0.06-0.1 0-0.365-0.04-0.367 0.164 0 0.418 1.154 0.09 1.145 1.181v5.731c0 1.134-0.781 0.817-0.784 1.235 0 0.06 0.02 0.144 0.116 0.144 0.28 0 0.743-0.04 1.205-0.04 0.838 0 1.235 0.06 1.633 0.06 0.247 0 0.344-0.05 0.345-0.176 0-0.382-1.205 0.157-1.192-1.312l0.05-5.695z"/>
   <path style="fill:#703d29" d="m322.5 308.65c0.01 1.421-1.207 0.858-1.203 1.324 0 0.262 0.185 0.249 0.379 0.247 0.429 0 0.784-0.06 1.504-0.06s1.075 0.04 1.504 0.03c0.312 0 0.528 0.03 0.525-0.255 0-0.334-1.375 0.03-1.389-1.445l-0.05-5.397c0-0.573 0.102-0.633 0.543-0.637h0.913c1.236-0.06 0.903 1.27 1.334 1.266 0.279 0 0.156-0.467 0.134-0.61l-0.128-1.097c-0.01-0.12-0.01-0.287-0.175-0.286-0.999 0-1.719 0.06-3.287 0.08-1.57 0.01-2.29-0.03-3.289-0.02-0.162 0-0.16 0.168-0.17 0.288l-0.158 1.577c-0.02 0.156-0.08 0.419 0.143 0.417 0.484 0 0.148-1.565 1.362-1.576h0.903c0.441 0 0.549 0.06 0.554 0.628l0.04 5.54z"/>
   <path style="fill:#703d29" d="m328.76 306.39c-0.193 0.01-0.342 0.04-0.351-0.08-0.01-0.167 0.04-0.303 0.08-0.45l0.659-2.172c0.05-0.135 0.09-0.151 0.106-0.152 0.05 0 0.02 0 0.09 0.09l1.048 2.086c0.06 0.138 0.139 0.264 0.152 0.431 0 0.119-0.141 0.119-0.334 0.134l-1.457 0.115zm1.839 0.501c0.28-0.02 0.342 0.09 0.769 0.994 0.143 0.313 0.235 0.521 0.255 0.782 0.06 0.727-0.713 0.656-0.686 1.001 0.01 0.167 0.151 0.132 0.343 0.117 0.311-0.03 0.704-0.103 1.175-0.141 0.707-0.06 1-0.03 1.386-0.06 0.289-0.02 0.387 0 0.371-0.209-0.03-0.393-0.573 0.118-0.982-0.701l-3.466-7.058c-0.167-0.346-0.19-0.368-0.287-0.36-0.139 0.01-0.175 0.241-0.235 0.438l-2.337 7.43c-0.215 0.687-0.767 0.659-0.745 0.933 0.01 0.155 0.182 0.117 0.331 0.106 0.311-0.03 0.618-0.1 0.939-0.123 0.343-0.02 0.668 0 1.011-0.03 0.225-0.02 0.564 0.04 0.544-0.21-0.02-0.321-1.167-0.04-1.235-0.897-0.02-0.286 0.1-0.714 0.151-0.958 0.185-0.805 0.406-0.87 0.588-0.884l2.111-0.167z"/>
   <path style="fill:#703d29" d="m338.9 301.94c-0.107-0.817-0.07-0.835 1.223-1.004 2.056-0.271 1.408 1.223 1.908 1.157 0.245-0.03 0.141-0.415 0.109-0.568l-0.196-1.166c-0.01-0.107-0.104-0.215-0.243-0.197-0.938 0.123-1.667 0.267-2.423 0.367-1.63 0.215-2.403 0.268-2.841 0.326-0.149 0.02-0.222 0.125-0.208 0.232 0.06 0.473 1.217-0.06 1.357 1.001l0.73 5.541c0.19 1.444-0.704 0.912-0.633 1.456 0.01 0.07 0.08 0.122 0.22 0.104 0.586-0.08 1.028-0.184 1.358-0.227 0.469-0.06 0.869-0.07 1.274-0.119 0.267-0.04 0.496-0.02 0.465-0.254-0.05-0.32-1.206 0.134-1.38-1.18l-0.23-1.752c-0.09-0.687-0.152-0.823 0.338-0.888l0.788-0.104c1.109-0.145 0.975 1.149 1.316 1.104 0.256-0.03 0.136-0.451 0.105-0.604l-0.352-2.098c-0.05-0.318-0.166-0.279-0.241-0.268-0.213 0.03-0.102 1.121-1.019 1.241l-0.67 0.09c-0.459 0.06-0.469-0.03-0.537-0.532l-0.218-1.657z"/>
   <path style="fill:#703d29" d="m342.83 304.66c0.441 2.384 2.162 3.704 4.286 3.31 3.371-0.624 3.482-3.62 3.177-5.264-0.461-2.489-2.316-3.712-4.373-3.306-2.521 0.491-3.567 2.689-3.09 5.26zm1.175-0.91c-0.315-1.702-0.09-3.421 1.692-3.787 1.359-0.276 2.9 0.847 3.381 3.442 0.362 1.949 0.06 3.632-1.75 4.004-1.885 0.386-3.005-1.945-3.323-3.659z"/>
   <path style="fill:#703d29" d="m352.34 299.59c-0.167-0.696 0.157-0.774 0.543-0.867 1.056-0.253 1.848 0.466 2.121 1.603 0.164 0.685 0.258 1.351-1.331 1.732-0.313 0.07-0.7 0.168-0.77-0.122l-0.563-2.346zm0 5.685c0.351 1.463-0.587 1.283-0.498 1.654 0.06 0.233 0.267 0.145 0.382 0.117 0.523-0.125 1.034-0.297 1.598-0.432 0.439-0.106 0.732-0.127 0.91-0.17 0.24-0.06 0.307-0.147 0.282-0.251-0.1-0.419-1.021 0.306-1.319-0.937l-0.482-2.008c-0.1-0.406-0.18-0.473 0.374-0.606 0.522-0.125 0.736-0.07 1.099 0.387l1.317 1.624c0.486 0.596 0.996 1.247 1.822 1.049 0.418-0.101 1.046-0.522 0.96-0.881-0.03-0.09-0.102-0.148-0.196-0.125-0.104 0.03-0.192 0.119-0.297 0.144-0.08 0.02-0.281 0.07-0.42-0.09-1.104-1.283-2.397-2.753-2.413-2.822-0.03-0.116 0.25-0.293 0.489-0.633 0.236-0.352 0.436-0.854 0.258-1.597-0.129-0.534-0.731-2.121-3.019-1.572-0.7 0.168-1.4 0.385-2.1 0.553-0.658 0.158-0.753 0.132-1.234 0.247-0.125 0.03-0.216 0.113-0.188 0.23 0.1 0.418 1.137-0.286 1.449 1.015l1.226 5.109z"/>
   <path style="fill:#703d29" d="m360.97 303.35c0.356 1.376-0.963 1.125-0.846 1.576 0.06 0.255 0.239 0.197 0.426 0.148 0.416-0.107 0.748-0.242 1.445-0.423 0.697-0.179 1.053-0.222 1.469-0.33 0.301-0.08 0.518-0.1 0.446-0.374-0.08-0.324-1.328 0.356-1.696-1.066l-1.351-5.225c-0.144-0.555-0.06-0.64 0.372-0.751l0.884-0.229c1.185-0.355 1.183 1.014 1.6 0.907 0.27-0.07 0.04-0.491-0.02-0.625l-0.39-1.034c-0.04-0.113-0.08-0.275-0.238-0.235-0.968 0.251-1.652 0.477-3.172 0.87-1.518 0.393-2.228 0.527-3.195 0.778-0.156 0.04-0.115 0.201-0.09 0.32l0.228 1.569c0.02 0.156 0.02 0.426 0.24 0.369 0.468-0.121-0.236-1.554 0.94-1.858l0.874-0.226c0.426-0.11 0.546-0.08 0.689 0.475l1.387 5.364z"/>
   <path style="fill:#703d29" d="m366.46 296.01c-0.303-1.093 0.588-0.894 0.48-1.286-0.04-0.137-0.1-0.146-0.407-0.06-0.591 0.164-0.951 0.314-1.324 0.417-0.362 0.1-0.779 0.166-1.182 0.278-0.09 0.03-0.362 0.06-0.308 0.259 0.112 0.403 1.193-0.244 1.483 0.803l1.532 5.523c0.303 1.093-0.526 1.001-0.414 1.404 0.01 0.06 0.06 0.132 0.152 0.107 0.27-0.07 0.702-0.245 1.148-0.368 0.807-0.224 1.203-0.285 1.586-0.391 0.238-0.07 0.319-0.138 0.284-0.264-0.103-0.369-1.115 0.482-1.508-0.933l-1.522-5.485z"/>
   <path style="fill:#703d29" d="m368.76 298.68c0.769 2.299 2.657 3.367 4.705 2.681 3.251-1.087 2.944-4.069 2.414-5.655-0.803-2.4-2.81-3.353-4.791-2.666-2.427 0.838-3.157 3.16-2.328 5.64zm1.038-1.065c-0.55-1.642-0.563-3.375 1.148-3.986 1.307-0.462 2.99 0.436 3.828 2.938 0.628 1.88 0.565 3.588-1.176 4.209-1.813 0.644-3.247-1.508-3.8-3.161z"/>
   <path style="fill:#703d29" d="m377.42 292.2c-0.263-0.666 0.04-0.788 0.417-0.934 1.01-0.398 1.894 0.204 2.323 1.292 0.258 0.656 0.443 1.302-1.077 1.9-0.3 0.119-0.67 0.264-0.779-0.01l-0.884-2.244zm0.797 5.629c0.551 1.399-0.404 1.352-0.264 1.708 0.09 0.222 0.285 0.106 0.395 0.06 0.5-0.197 0.982-0.439 1.522-0.651 0.42-0.166 0.707-0.227 0.877-0.294 0.23-0.09 0.284-0.189 0.245-0.29-0.158-0.4-0.968 0.446-1.437-0.743l-0.757-1.922c-0.153-0.389-0.244-0.443 0.286-0.651 0.5-0.197 0.72-0.169 1.142 0.23l1.532 1.424c0.563 0.522 1.159 1.097 1.949 0.785 0.4-0.157 0.964-0.661 0.828-1.006-0.03-0.09-0.121-0.131-0.211-0.1-0.1 0.04-0.174 0.145-0.274 0.185-0.08 0.03-0.27 0.106-0.43-0.04-1.271-1.116-2.756-2.392-2.782-2.459-0.04-0.111 0.207-0.325 0.396-0.695 0.185-0.381 0.313-0.906 0.03-1.617-0.201-0.511-1.019-1.999-3.208-1.137-0.67 0.265-1.333 0.576-2.003 0.841-0.63 0.248-0.727 0.235-1.187 0.416-0.12 0.04-0.198 0.142-0.154 0.253 0.157 0.4 1.085-0.44 1.575 0.804l1.926 4.888z"/>
   <path d="m264.1 175.52h52.595v52.495h-52.595z" style="fill:#d52b1e"/>
   <path id="mits" style="fill:#ffffff" d="m288.77 216.85s-0.03 1.876-0.547 3.384c-0.597 1.741-0.602 1.741-1.15 2.587-0.737 1.14-1.636 1.973-2.437 2.488-1.254 0.805-2.528 1.208-3.808 1.095-3.514-0.311-5.144-4.122-5.941-7.215-0.845-3.284-3.247-5.071-4.776-3.881-0.896 0.697-0.947 1.865-0.199 2.985 0.796 1.195 2.623 1.792 2.623 1.792l-1.877 2.388s-4.033-0.525-4.822-4.731c-0.299-1.593 0.474-4.566 3.13-5.454 3.39-1.136 5.559 1.282 6.603 3.322 1.438 2.806 2.055 7.958 6.035 7.162 2.166-0.434 3.185-3.583 3.185-5.026l1.579-1.692 2.339 0.747 0.06 0.05z"/>
   <path d="m295.12 194.53 6.886-7.451s1.039-0.839 1.031-2.177l-1.421 0.221-0.318-0.731-0.07-0.734 1.908-0.403c0.03-0.31 0-0.544 0.06-0.886 0.05-0.316 0.122-0.486 0.199-0.796l-2.089 0.139c0.106-0.365 0.08-0.56 0.199-0.9 0.1-0.286 0.126-0.395 0.322-0.706 0.388-0.06 0.741-0.146 1.22-0.194 0.466-0.04 0.732-0.03 1.199-0.05 1.14-2.126 5.882-4.079 9.25-0.579 2.439 2.533 1.913 7.18-1.248 8.409-1.791 0.696-3.234 0.285-4.391-0.71l1.261-2.475c1.742 1.04 3.184-0.253 3.085-1.596-0.126-1.699-1.228-2.75-2.787-2.887-1.442-0.126-2.478 0.7-3.134 1.991-0.401 0.787-0.215 1.365-0.348 2.239-0.145 0.949-0.06 1.479-0.344 2.438-0.204 0.697-0.739 1.558-1.517 2.299l-7.059 7.639-27.482 29.724-2.066-1.909 27.655-29.911z" style="fill:#fedf00"/>
   <path d="m274.89 197.14s1.728 8.558 7.6 21.396c2.985-1.095 4.748-1.792 7.911-1.792 3.164 0 4.926 0.597 7.912 1.792 5.871-12.838 7.599-21.396 7.599-21.396l-15.511-19.954-15.511 19.954z" style="fill:#ffffff"/>
   <path d="m291.92 183.94 10.765 13.847s-1.436 6.733-5.81 16.867c-1.694-0.386-3.147-0.722-4.95-0.845v-29.869z" style="fill:#fedf00"/>
   <path d="m288.88 183.94-10.765 13.847s1.436 6.733 5.81 16.867c1.694-0.386 3.146-0.722 4.949-0.845v-29.869z" style="fill:#fedf00"/>
   <path d="m322.3 175.52h52.594v52.495h-52.594z" style="fill:#fedf00"/>
   <path d="m359.73 175.52h7.842v52.495h-7.842zm-15.027 0h7.841v52.495h-7.841zm-15.028 0h7.842v52.495h-7.842z" style="fill:#d52b1e"/>
   <path d="m264.3 273.54c0.149 0.945 0.485 2.567 1.384 4.229 0.945 1.493 0.597 1.452 2.737 3.841 1.052 1.176 2.696 2.182 3.985 2.876 1.293 0.697 2.251 1.039 4.379 1.598 4.171 1.094 7.098 1.162 10.607 1.022 2.738-0.109 4.828-0.446 6.56-0.679 2.468-0.332 4.307-0.53 7.115-0.647 1.365-0.06 2.655-0.07 3.931 0 1.539 0.09 3.06 0.323 4.677 0.647 3.483 0.696 7.016 2.04 7.016 2.04v-54.819l-52.603-0.01v37.467s0.107 1.831 0.203 2.439z" style="fill:#fedf00"/>
   <path d="m287.95 233.63v53.332c-0.06 0-3.905 0.202-5.871 0v-53.321zm23.353 0h-5.832v52.084c1.9 0.205 3.855 0.545 5.844 1.077l-0.01-53.161zm-11.673 51.898v-51.904h-5.851v52.734s4.004-0.513 5.843-0.633zm-29.223-2.375 2.466 1.435 3.378 1.215v-52.177h-5.841z" style="stroke:#d52b1e;stroke-width:.32832;fill:#d52b1e"/>
   <path d="m374.71 273.53c-0.149 0.945-0.486 2.567-1.384 4.229-0.945 1.493-0.597 1.453-2.736 3.84-1.054 1.176-2.698 2.183-3.986 2.877-1.294 0.697-2.25 1.039-4.378 1.598-4.172 1.094-7.099 1.163-10.608 1.022-2.738-0.109-4.828-0.446-6.559-0.679-2.469-0.332-4.308-0.53-7.116-0.647-1.365-0.06-2.655-0.07-3.93 0-1.54 0.08-3.061 0.324-4.678 0.647-3.483 0.697-7.061 2.04-7.061 2.04l0.04-54.819 52.604-0.01v37.468s-0.108 1.83-0.204 2.438z" style="fill:#fedf00"/>
   <g id="cow" transform="matrix(.64 0 0 .64 .00093245 15.999)">
    <path d="m524.62 346.91s-0.366 0.175-0.594 0.281c-0.298 0.328-0.447 0.519-0.781 0.813-0.443 0.389-0.769 0.503-1.25 0.844-0.23 0.163-0.419 0.215-0.594 0.437-0.252 0.321-0.08 0.629-0.25 1-0.186 0.405-0.369 0.597-0.656 0.938-0.366 0.434-0.648 0.609-1.062 1-0.418 0.395-0.586 0.726-1.092 1-0.134 0.07-0.201 0.142-0.346 0.187-0.216 0.07-0.348 0-0.562 0.06-0.388 0.134-0.511 0.562-0.782 0.718 0.112 0.218 0.107 0.372 0.219 0.594 0.158 0.323 0.706 1.216 0.813 1.438 0.21 0.305 0.272 0.7 0.533 0.781 0.537 0.168 0.856 0.154 1.31 0.125 0.792 0.182 1.282 0.158 2.032 0.469 0.613 0.254 0.862 0.574 1.468 0.843 0.474 0.21 0.773 0.34 1.282 0.438 0.387 0.07 0.608 0.132 1 0.09 0.25-0.02 0.377-0.119 0.625-0.156 0.05-0.01 0.08 0 0.125 0l-0.03 0.375v0.03 0.06h0.06l2.06 0.907c-0.07 0.118-0.149 0.257-0.185 0.375-0.1 0.321-0.115 0.688-0.06 0.843 0.629 1.888 1.159 3.069 1.469 3.188 0.615 0.236 0.806 0.864 1.156 1.5-0.123 0.132-0.226 0.2-0.343 0.312-0.614 0.59-1.153 1.009-1.657 1.813-0.745 1.188-1.248 1.203-0.312 2.781 0.549 0.925 0.814 1.099 1.531 2.406 0.362 0.659 0.562 1.173 0.781 1.969 0.207 0.752 0.278 1.189 0.313 1.969l0.08 0.03c0.359-0.492 0.513-0.809 0.922-1.262 0.444-0.491 0.787-0.696 1.277-1.121v-0.02c-0.239-0.203-0.308-0.473-0.25-0.781 0.07-0.368 0.516-0.291 0.721-0.625 0.283-0.461-0.333-0.735-0.658-1.094-0.605-0.67-1.43-0.833-1.625-1.844-0.05-0.273 0.08-0.427 0.375-0.719 0.856-0.84 1.129-0.973 1.968-1.812 0.242 0.142 0.611 0.193 0.969 0.125 0.279-0.05 0.529 0.125 1.406 0.375 0.61 0.173 0.873 0.09 1.219 0.03l0.375-0.09c0.05 0.211 0.111 0.416 0.125 0.688 0.05 1.061-0.155 2.995 0.156 3.5 0.131 0.213 0.187 0.331 0.282 0.562 0.1 0.24 0.213 0.397 0.218 0.657 0.01 0.696 0.05 1.14 0 1.875-0.04 0.691-0.102 1.042-0.218 1.75-0.07 0.451-0.166 0.713-0.438 1.062-0.283 0.364-0.595 0.418-0.969 0.688v0.02c0.02 0 0.03-0.02 0.05-0.02 0.573 0.21 0.921 0.269 1.469 0.537 0.611 0.299 0.896 0.577 1.469 0.945 0.001 0 0 0.01 0 0.02 0-0.254 0.04-0.399 0.157-0.625 0.128-0.247 0.231-0.44 0.468-0.532 0.363-0.143 0.761 0.129 0.907-0.09 0.16-0.242 0.06-0.338 0.03-0.75-0.05-0.661-0.185-0.988-0.283-1.656-0.164-1.11-0.21-1.686-0.157-2.75 0.03-0.616 0.04-0.956 0.157-1.562 0.172-0.883 0.485-1.311 0.687-2.188 0.225-0.977 0.265-1.606 0.375-2.468 3.169 0.451 5.809 0.396 9.346-0.376 0.169-0.04 0.75-0.25 0.75-0.25 0.799 0.69 1.705 1.263 2.717 1.626 0 0.1-0.01 0.845 0 0.968 0.04 0.288-0.04 0.482 0.125 0.719 0.106 0.151 0.197 0.24 0.375 0.281 0.263 0.06 0.456 0.02 0.658-0.156 0.226-0.201 0.184-0.454 0.25-0.75 0.03-0.141 0-0.563 0-0.688 0.366 0.06 0.491 0.06 0.875 0.06 0.357 0 0.529 0.01 0.875-0.03 0 0.08 0.02 0.368 0.03 0.467 0.03 0.245-0.08 0.436 0.03 0.658 0.111 0.229 0.25 0.357 0.5 0.404 0.206 0.04 0.355 0.02 0.532-0.09 0.296-0.185 0.263-0.498 0.312-0.844 0.01-0.11 0.01-0.692 0-0.781 0.212-0.07 0.827-0.292 1.031-0.375 0 0.243-0.04 0.518-0.09 0.813-0.07 0.376-0.119 0.578-0.25 0.937-0.206 0.568-0.441 0.856-0.75 1.375-0.376 0.634-0.573 0.986-1.032 1.563-0.211 0.266-0.355 0.387-0.56 0.658-0.256 0.337-0.344 0.564-0.596 0.904-0.324 0.438-0.509 0.725-0.937 1.063-0.693 0.55-1.148 0.109-2.092 0.843 0.541 0.195 0.891 0.264 1.422 0.524 0.612 0.299 0.894 0.575 1.466 0.943 0 0.03 0.02 0.07 0.03 0.106l0.02-0.01c-0.01-0.301 0.03-0.514 0.219-0.75 0.213-0.27 0.441-0.352 0.781-0.408 0.361-0.06 0.748 0.03 1.032-0.217 0.35-0.311 0.349-0.916 0.625-1.471 0.859-1.724 1.621-2.561 3-3.904 0.613-0.597 1.139-0.76 1.658-1.44 0.246-0.322 0.517-0.469 0.529-0.875 0-0.283-0.144-0.413-0.219-0.685-0.104-0.377-0.185-1-0.185-1 1.521 0.744 0.97 0.644 1.25 1.404 0.225 0.615-0.03 1.04 0.06 1.688 0.111 0.756 0.467 1.114 0.532 1.875 0.08 0.905-0.144 1.42-0.313 2.312-0.149 0.785-0.13 1.277-0.469 2-0.322 0.689-0.571 1.078-1.156 1.563-0.196 0.162-0.352 0.243-0.553 0.379 0.564 0.205 0.912 0.267 1.455 0.533 0.611 0.3 0.895 0.575 1.467 0.943 0 0.02 0.01 0.05 0.02 0.07l0.02-0.02c0.164-0.655-0.05-1.619 0.407-1.69 0.406-0.06 0.694 0 0.783-0.31 0.04-0.132 0.06-0.326 0.09-0.625 0.221-1.886 0.422-3.646 0.625-4.5 0.23-0.968 0.214-1.179 0.406-1.908 0.175-0.664-0.09-0.283 0.406-1.688 0.734-2.097-0.207-2.373-1.062-3.654-0.462-0.693-0.623-0.945-0.688-1.5-0.1-0.817 0.164-1.495 0.125-2.75-0.04-1.32-0.02-2.159 0-2.875 0.115-0.05 0.222-0.123 0.344-0.19 1.17-0.642 1.636-0.835 2.375-2.468 0.223-0.495 0.319-0.992 0.312-1.467 0-0.332-0.06-0.653-0.09-1.033-0.03-0.399-0.192-0.638-0.313-0.938-0.13-0.318-0.324-0.559-0.562-0.844-0.772-0.924-1.78-1.131-2.719-1.468-1.484-0.531-2.505-0.435-4.125-0.563-1.673-0.132-2.606-0.156-4.281-0.06-2.006 0.114-3.128 0.519-5.125 0.75-1.915 0.222-2.978 0.37-4.907 0.406-2.26 0.04-4.421-0.462-5.781-0.346-2.451 0.21-2.492 0.764-6.187 1.065-1.927 0.157-3.844 0.185-3.844 0.185l-2.156-0.685c0.857-0.306 1.066-0.489 1.468-1.032 0.272-0.366 0.233-0.678 0.563-1.062 0.266-0.312 0.443-0.624 0.781-0.971-0.31-0.249-0.642-0.374-0.937-0.435-0.363-0.08-0.574-0.04-0.938 0-0.494 0.06-0.773 0.123-1.219 0.343-0.359 0.177-0.623 0.356-0.843 0.592 0 0-1.286-0.827-2.188-1.217-1.119-0.485-1.601-0.713-3-0.908zm1.971 11.906h0.06l-0.03 0.03-0.03-0.03z" style="fill:#d52b1e"/>
    <g style="stroke:#fedf00;stroke-width:.987;stroke-linecap:round;fill:none">
     <path d="m560.12 369.78 0.384-0.249c1.014-0.415 1.926-1.027 2.686-1.79" style="stroke-linecap:butt"/>
     <path d="m555.97 363.61c0.299-0.01 0.585-0.03 0.829-0.07 1.468-0.21 1.704 0.687 2.726 1.258 1.857 1.038 2.098 2.307 4.299 3.356 0.117 0.06 0.224 0.107 0.322 0.155l0.847 0.429m-12.62-0.72c2.786-0.226 5.107-2.471 7.579-2.869m-28.18-0.98c0.79 0.176 0.544 3.36 1.789 4.09m10.471-5.55s-0.219 0.812-0.354 1.332c-0.352 1.354-0.676 2.088-0.944 3.461-0.04 0.23-0.08 0.442-0.103 0.644m-6.599-4.357s0.264 0.48 0.407 0.799c0.248 0.555 0.376 0.879 0.524 1.468 0.2 0.799 0.114 1.284 0.241 2.098 0.02 0.143 0.05 0.263 0.08 0.376m30.715-8.767c-0.867 0.402-1.578 0.418-2.6 0.496-2.644 0.202-4.272-1.057-6.998-0.847-1.404 0.108-2.025 1.19-3.46 1.548-0.652 0.162-1.031 0.225-1.701 0.282l0.512-1.034s-1.284 0.262-2.115 0.264c-0.596 0.001-0.936-0.03-1.523-0.13l1.018-0.951s-0.814-0.132-1.294-0.335c-0.442-0.187-0.683-0.33-1.06-0.629 0.663-0.114 1.036-0.192 1.689-0.354 1.557-0.385 2.04-1.147 3.891-1.325 1.149-0.111 3.032-0.05 7.643 0.717 3.036 0.502 4.382 0.267 5.536-0.258 0.76-0.345 1.01-1.01 1.103-1.788 0.09-0.776-0.404-1.404-0.874-1.81-0.123-0.106-0.444-0.335-1.113-0.363"/>
     <path style="stroke-width:.513;stroke-linecap:butt;fill:#fcd900" d="m517.7 354.53c0.268 0.07 0.432 0.08 0.707 0.05 0.332-0.03 0.484-0.238 0.817-0.249 0.271-0.01 0.462-0.03 0.684 0.125 0.141 0.1 0.2 0.189 0.28 0.342 0.09 0.166 0.163 0.282 0.124 0.466-0.06 0.284-0.324 0.417-0.614 0.42-0.237 0-0.434-0.06-0.544-0.272-0.07-0.135-0.08-0.243-0.04-0.389-0.284 0.107-0.49 0.111-0.777 0.02-0.304-0.1-0.475-0.238-0.638-0.513zm7.1-3.92c-0.53-0.07-0.884 0.01-1.34 0.291-0.48 0.296-0.541 0.697-0.888 1.142 0.445 0.1 0.699 0.361 1.142 0.254 0.347-0.08 0.527-0.238 0.761-0.507 0.316-0.363 0.432-0.676 0.428-1.156l-0.103-0.02z"/>
    </g>
    <g style="fill:#0065bd">
     <path d="m527.85 349.51c-0.613-0.278-1.049-1.045-0.661-1.594 0.156-0.22 0.413-0.174 0.566-0.395 0.189-0.273 0.142-0.508 0.136-0.839 0-0.377-0.143-0.573-0.209-0.944-0.07-0.405-0.139-0.636-0.136-1.048 0-0.628-0.04-1.076 0.345-1.573 0.245-0.317 0.661-0.592 0.825-0.612 0.147 0.136-0.06 0.502-0.03 0.822 0.04 0.462 0.131 0.717 0.288 1.153 0.202 0.563 0.479 0.809 0.703 1.363 0.208 0.516 0.4 0.808 0.419 1.363 0.02 0.457-0.02 0.736-0.209 1.154-0.165 0.369-0.3 0.579-0.61 0.839-0.269 0.225-0.458 0.325-0.796 0.419-0.248 0.02-0.402-0.01-0.628-0.108zm8.98 29.8c0.573 0.21 0.921 0.27 1.469 0.538 0.611 0.299 0.895 0.576 1.468 0.944 0.03 0.154 0.103 0.319 0.06 0.482-0.532 0.123-0.928 0.208-1.531 0.252-0.49 0.04-0.769 0.03-1.258 0-0.411-0.02-0.659 0.02-1.049-0.105-0.261-0.09-0.384-0.191-0.629-0.314 0.572-0.695 0.88-1.636 1.467-1.797zm17.34-2.13c0.573 0.21 0.92 0.27 1.468 0.538 0.612 0.299 0.896 0.576 1.468 0.944 0.03 0.154 0.104 0.319 0.06 0.482-0.531 0.123-0.927 0.208-1.531 0.252-0.489 0.04-0.768 0.03-1.258 0-0.41-0.02-0.658 0.02-1.048-0.105-0.261-0.09-0.384-0.192-0.63-0.314 0.573-0.696 0.88-1.637 1.468-1.797zm9.76 2.04c0.573 0.21 0.921 0.27 1.469 0.538 0.611 0.3 0.895 0.576 1.467 0.944 0.03 0.154 0.104 0.319 0.06 0.483-0.531 0.122-0.927 0.207-1.53 0.251-0.49 0.04-0.769 0.03-1.259 0-0.41-0.02-0.658 0.02-1.048-0.105-0.261-0.09-0.384-0.192-0.629-0.314 0.572-0.696 0.88-1.637 1.467-1.797zm-33.01-1.85c0.36-0.493 0.513-0.811 0.922-1.264 0.456-0.505 0.8-0.702 1.312-1.151 0.155 0.02 0.335-0.01 0.481 0.07-0.03 0.545-0.06 0.949-0.18 1.541-0.101 0.481-0.187 0.746-0.347 1.21-0.135 0.388-0.159 0.639-0.39 0.979-0.154 0.226-0.29 0.316-0.476 0.518-0.51-0.742-1.33-1.297-1.322-1.906zm-4.94-18.12 2.231 1.031c1.148-0.635 2.473-1.924 3.496-3.919 0.881-1.718 1.021-2.651 1.364-4.313l-1.789-0.581-0.357 0.07c-0.552 1.723-0.693 2.704-1.618 4.192-0.802 1.291-1.718 2.305-2.649 3.034l-0.678 0.483zm-3.6-10.64s-0.09-0.06-0.144-0.104c-0.383-0.309-0.419-0.653-0.601-1.111-0.172-0.433-0.257-0.69-0.315-1.153-0.05-0.406 0-0.64 0-1.048 0-0.369 0.04-0.578 0-0.944-0.04-0.375-0.03-0.612-0.21-0.944-0.1-0.18-0.394-0.337-0.314-0.419 0.09-0.1 0.257-0.02 0.419 0 0.4 0.05 0.631 0.165 0.944 0.419 0.377 0.306 0.526 0.571 0.672 1.049 0.166 0.548 0.248 0.898 0.407 1.468 0.08 0.295 0.129 0.469 0.284 0.734 0.161 0.275 0.32 0.383 0.524 0.629l-0.01 0.02c-0.298 0.327-0.444 0.539-0.777 0.834-0.305 0.27-0.56 0.403-0.846 0.573l-0.03-0.01zm1.76 16.51c0-0.347 0.271-0.634 0.618-0.64 0.347-0.01 0.634 0.271 0.64 0.618 0 0.348-0.271 0.634-0.618 0.64-0.347 0.01-0.634-0.27-0.64-0.618zm0.99-0.95c-0.797-0.238-1.966-0.826-1.966-0.826 0.323-0.251 0.587-0.265 0.863-0.555 0.389-0.408 0.373-0.788 0.593-1.319 0.215-0.52 0.184-0.954 0.671-1.343 0.29-0.231 0.762-0.269 1.118-0.165 0.353 0.113 0.759 0.401 0.848 0.766 0.137 0.561-0.16 0.886-0.246 1.454-0.09 0.568-0.293 0.894-0.195 1.46 0.07 0.375 0.227 0.519 0.354 0.907 0 0-1.264-0.148-2.04-0.379z"/>
    </g>
   </g>
   <use xlink:href="#cow" height="100%" width="100%" y="36.5908" x="0"/>
   <path d="m264.1 175.52h52.595v52.495h-52.595z" style="stroke:#703d29;stroke-width:.51008;fill:none"/>
   <path d="m322.3 175.52h52.594v52.495h-52.594z" style="stroke:#703d29;stroke-width:.51008;fill:none"/>
   <path d="m264.3 273.54c0.149 0.945 0.485 2.567 1.384 4.229 0.945 1.493 0.597 1.452 2.737 3.841 1.052 1.176 2.696 2.182 3.985 2.876 1.293 0.697 2.251 1.039 4.379 1.598 4.171 1.094 7.098 1.162 10.607 1.022 2.738-0.109 4.828-0.446 6.56-0.679 2.468-0.332 4.307-0.53 7.115-0.647 1.365-0.06 2.655-0.07 3.931 0 1.539 0.09 3.06 0.323 4.677 0.647 3.483 0.696 7.016 2.04 7.016 2.04v-54.819l-52.603-0.01v37.467s0.107 1.831 0.203 2.439z" style="stroke:#703d29;stroke-width:.51008;fill:none"/>
   <path d="m374.71 273.53c-0.149 0.945-0.486 2.567-1.384 4.229-0.945 1.493-0.597 1.453-2.736 3.84-1.054 1.176-2.698 2.183-3.986 2.877-1.294 0.697-2.25 1.039-4.378 1.598-4.172 1.094-7.099 1.163-10.608 1.022-2.738-0.109-4.828-0.446-6.559-0.679-2.469-0.332-4.308-0.53-7.116-0.647-1.365-0.06-2.655-0.07-3.93 0-1.54 0.08-3.061 0.324-4.678 0.647-3.483 0.697-7.061 2.04-7.061 2.04l0.04-54.819 52.604-0.01v37.468s-0.108 1.83-0.204 2.438z" style="stroke:#703d29;stroke-width:.51008;fill:none"/>
   <use xlink:href="#mits" transform="matrix(-1 0 0 1 580.88 0)" height="100%" width="100%" y="0" x="0"/>
  </g>
 </g>
</svg>
