<?xml version="1.0" encoding="UTF-8" standalone="no"?>
<svg xmlns:rdf="http://www.w3.org/1999/02/22-rdf-syntax-ns#" xmlns="http://www.w3.org/2000/svg" version="1.1" xmlns:cc="http://creativecommons.org/ns#" xmlns:xlink="http://www.w3.org/1999/xlink" viewBox="0 0 640 480" xmlns:dc="http://purl.org/dc/elements/1.1/">
 <g id="flag">
  <rect style="fill:#009900" height="480" width="640" y="5.6843e-14" x="0"/>
  <rect style="fill:#bf0000" height="480" width="426.67" y="5.6843e-14" x="0"/>
  <rect y="5.6843e-14" x="0" width="213.33" height="480"/>
  <g style="fill-rule:evenodd;stroke:#bd6b00;stroke-width:.5;fill:#ffffff" transform="matrix(1.0667 0 0 1.0667 -.001 26.669)">
   <path d="m319.5 225.84h8.354c0.03 3.157 1.881 6.549 4.48 8.493h-16.008c2.505-2.271 3.19-4.963 3.174-8.494z"/>
   <path d="m266.71 178.53 4.574 5.04 56.934 0.09 4.668-5.04-14.56-0.186-7.094-4.947-22.868-0.09-6.627 5.133h-15.027z"/>
   <path d="m290.02 172.74 19.66-0.02c2.662-1.408 3.492-5.902 3.479-8.416-0.04-7.429-5.233-10.991-10.447-11.18-0.781-0.04-1.688-0.648-1.895-1.36-0.514-1.613-0.381-2.641-0.944-2.584-0.5 0-0.353 0.94-0.799 2.453-0.245 0.752-1.091 1.494-1.934 1.537-6.49 0.324-10.676 5.062-10.513 11.134 0.11 4.015 0.577 6.413 3.393 8.437z"/>
   <path d="m257.66 242.83h84.469l-7.561-6.161h-69.348l-7.559 6.161z"/>
   <path d="m296.39 219.69 1.54 4.62h3.499l-2.799-4.621h-2.24zm-1.959 4.62 0.886 4.573 4.106 0.05-1.493-4.621h-3.499zm6.952 0.05 2.847 4.527h5.834l-4.573-4.575-4.107 0.05zm-34.441 10.36c3.096-2.878 5.072-5.335 5.087-8.866h7.56c0.01 1.976 0.731 3.157 1.82 3.079l7.654-0.05-0.05-4.527h-5.554v-24.688c-0.202-8.726 10.609-13.813 15.028-13.767l-26.275-0.05v-0.793h55.255l0.05 0.793-26.647 0.05c7.902 0.02 15.524 7.499 15.587 13.815v7h-1.028l-0.05-6.906c0-6.908-8.7-13.363-15.681-13.161-6.037 0.173-15.4 5.927-15.307 13.115v2.146l14.327 0.09-0.14 2.472 2.249 1.436 4.487 1.43-0.06 3.71 3.213 0.947 0.03 3.706 3.855 1.654v3.836l2.445 1.507-0.112 3.895 3.314 2.333h-7.84l4.9 5.461h-7.234l-3.594-5.461h-4.76l2.147 5.413-5.085-0.05-1.215-5.367h-6.206l0.05 5.786h-22.214zm22.168-14.981v4.573h5.321l-1.075-4.573h-4.246z"/>
   <rect style="fill:none" height="7.6068" width="3.3134" y="211.66" x="289.39"/>
   <path d="m284.71 219.8h3.234l-0.02-5.597c-0.04-2.433 2.142-4.885 3.187-4.967 1.159-0.04 2.867 2.297 2.924 4.776l0.05 5.806h3.431v-14.411l-12.803 0.07v14.332z" style="fill:none"/>
   <rect style="fill:none" height="3.1268" width="4.0135" y="223.14" x="310.3"/>
   <rect style="fill:none" height="3.1268" width="4.0135" y="217.77" x="307.92"/>
   <rect style="fill:none" height="3.1268" width="4.0135" y="212.4" x="304.05"/>
   <rect style="fill:none" height="3.1268" width="4.0135" y="207.88" x="300.74"/>
   <path d="m298.08 219.82 4.106 0.14 7.326 6.487v-3.827l-2.472-1.773v-3.034l-3.594-2.052v-3.268l-3.5-1.166v-4.434l-1.774-1.447-0.09 14.374z" style="fill:none"/>
   <rect y="210.35" width=".98004" x="315.43" height="7.0468"/>
   <g id="c">
    <path d="m257.32 186.53c-1.234-1.982-2.712 2.749-7.788 6.271-2.363 1.608-4.009 5.893-4.025 8.712-0.08 1.936 0.216 3.868 0 5.741-0.136 1.185-1.371 3.816-0.526 4.489 2.234 1.66 5.126 5.43 6.467 6.731 1.16 1.017 2.165-5.248 3.036-8.051 0.933-3.005 0.515-6.596 3.102-9.372 1.834-1.875 6.46-3.719 5.94-4.554l-6.205-9.967z"/>
    <path d="m257.06 201.88c-0.385-0.886-0.958-1.802-1.656-2.594-0.699-0.792-1.525-1.457-2.438-1.781-0.881-0.325-1.779-0.751-2.406-1.531-0.313-0.39-0.584-0.882-0.719-1.469-0.124-0.544-0.123-1.21-0.03-1.969-0.11 0.08-0.168 0.172-0.281 0.25-2.363 1.608-4.016 5.9-4.031 8.719-0.03 0.779-0.03 1.539 0 2.312 0.175 0.486 0.343 0.956 0.593 1.25 0.326 0.384 0.714 0.637 1.125 0.813 0.824 0.352 1.775 0.425 2.657 0.75 0.912 0.324 1.851 1.058 2.656 1.937 0.767 0.839 1.357 1.801 1.75 2.657 0.07-0.243 0.154-0.604 0.219-0.813 0.845-2.721 0.697-5.889 2.562-8.531z" style="fill:#bf0000"/>
    <path d="m249.82 192.39c-0.484 3.356 1.385 4.473 3.148 5.123 1.825 0.648 3.322 2.606 4.093 4.378" style="fill:none"/>
    <path d="m245.3 203.44c0.771 2.893 2.798 2.531 4.561 3.181 1.826 0.649 3.745 2.957 4.516 4.729" style="fill:none"/>
    <path d="m255.61 184.48 0.925-0.594 17.752 29.898-0.924 0.594-17.753-29.898z"/>
    <path d="m257.52 183.29a2.046 2.046 0 1 1 -4.092 0 2.046 2.046 0 1 1 4.092 0z"/>
    <rect y="159.27" width="7.1937" x="272.7" height="1.6499"/>
    <rect y="162.4" width="7.1937" x="272.7" height="13.784"/>
    <path d="m272.26 157.39 7.98 0.05c0.312-2.706-2.389-5.63-3.966-5.6-1.559 0.08-4.076 2.956-4.014 5.553z"/>
    <path d="m292.62 155.76c-1.521 0.64-2.688 2.377-3.406 4.375-0.719 1.998-0.992 4.267-0.656 6.094v0.03c0.127 0.63 0.3 1.083 0.5 1.406 0.199 0.324 0.422 0.514 0.687 0.563 0.265 0.05 0.514-0.09 0.656-0.313 0.143-0.219 0.212-0.509 0.188-0.844-0.144-1.878-0.135-3.732 0.312-5.406 0.448-1.674 1.338-3.164 2.969-4.375 0.295-0.216 0.464-0.463 0.5-0.719 0.04-0.255-0.1-0.474-0.281-0.625-0.364-0.301-0.938-0.407-1.469-0.187zm0.156 0.437c0.371-0.153 0.842-0.06 1.031 0.09 0.09 0.08 0.106 0.133 0.09 0.219-0.01 0.09-0.08 0.234-0.312 0.406-1.713 1.272-2.657 2.871-3.125 4.625-0.469 1.754-0.459 3.66-0.313 5.563 0.02 0.257-0.06 0.455-0.125 0.562-0.07 0.108-0.107 0.14-0.187 0.125-0.08-0.01-0.248-0.117-0.407-0.375-0.158-0.257-0.317-0.656-0.437-1.25-0.315-1.714-0.04-3.947 0.656-5.875 0.694-1.927 1.803-3.538 3.125-4.094z" style="fill:#bd6b00"/>
    <path d="m295.19 157.73c-1.519 0.639-2.501 2.292-3.031 4.187-0.53 1.896-0.614 4.066-0.281 5.875 0.26 1.284 0.934 1.962 1.593 2.063 0.33 0.05 0.648-0.08 0.844-0.344s0.26-0.619 0.156-1.062c-0.372-1.498-0.515-3.366-0.25-5.063 0.266-1.696 0.941-3.211 2.219-4.125 0.296-0.215 0.464-0.463 0.5-0.719 0.04-0.255-0.1-0.505-0.281-0.656-0.364-0.302-0.937-0.376-1.469-0.156zm0.187 0.437c0.371-0.153 0.811-0.06 1 0.09 0.09 0.08 0.138 0.134 0.125 0.219-0.01 0.09-0.108 0.235-0.343 0.406-1.412 1.009-2.129 2.664-2.406 4.438-0.278 1.773-0.105 3.664 0.281 5.218 0.08 0.354 0 0.592-0.09 0.719-0.09 0.128-0.214 0.186-0.406 0.156-0.384-0.06-0.983-0.554-1.219-1.718-0.318-1.732-0.227-3.868 0.281-5.688 0.509-1.819 1.457-3.287 2.781-3.844z" style="fill:#bd6b00"/>
    <rect y="187.39" width="8.0268" x="272.31" height="11.107"/>
    <rect y="204.85" width="7.7468" x="272.78" height="2.3334"/>
    <rect y="208.95" width="7.9335" x="272.59" height="8.6802"/>
    <rect y="219.41" width="8.6802" x="272.03" height="4.8534"/>
    <path d="m273.1 202.76h6.995l1.387-2.309h-9.636l1.254 2.309z"/>
    <path d="m282.53 194.25 0.07-6.071h4.818c-1.893 1.561-3.652 3.454-4.884 6.071z"/>
    <path d="m273.56 196.74c0.05 1.299 1.518 0.719 1.518 0.07 0-2.004 0.03-4.17-0.05-5.588-0.01-1.045 2.49-0.783 2.476-0.139 0.01 1.691 0.03 4.011 0.04 5.991-0.02 0.964 1.615 0.88 1.593 0-0.01-2.212-0.01-5.425 0-7.052 0.01-2.096-5.502-2.05-5.545-0.05 0 1.645-0.03 4.59-0.03 6.769z" style="fill:none"/>
    <rect style="fill:none" height="7.0935" width="5.6935" y="209.98" x="273.57"/>
    <rect y="212.92" width="2.0067" x="277.21" height="1.1667"/>
    <rect y="212.92" width="1.96" x="273.71" height="1.1667"/>
    <rect y="210.07" width="1.54" x="275.67" height="2.8934"/>
    <rect y="214.04" width="1.54" x="275.67" height="3.0801"/>
    <path d="m243.99 138.97c0.356 5.567-1.371 8.623-4.32 8.158-0.812-3.088 1.036-5.16 4.32-8.158z"/>
    <path d="m237.52 151.31c-2.621-1.333-0.73-11.513 0.276-15.78 0.744 5.496 1.989 13.309-0.276 15.78z"/>
    <path d="m238.45 151.79c4.406 1.533 7.894-3.212 9.073-8.708-3.636 5.019-9.554 5.025-9.073 8.708z"/>
    <path d="m235.11 156.93c-3.445-0.91-1.37-11.71-0.744-16.03 0.757 4.462 3.132 14.552 0.744 16.03z"/>
    <path d="m236.29 156.59c0.192-3.725 3.905-2.649 6.468-4.636-0.418 1.861-1.994 5.159-6.468 4.636z"/>
    <path d="m232.07 161.58c-3.414-0.921-1.362-12.544-1.555-17.329 1.001 4.135 4.17 16.209 1.555 17.329z"/>
    <path d="m233.66 161.08c2.797 0.909 6.501-0.908 6.793-4.239-2.409 1.635-6.254 0.385-6.793 4.239z"/>
    <path d="m229.52 166.71c-3.265 0.26-1.804-9.638-1.802-18.857 1.2 8.617 4.467 16.505 1.802 18.857z"/>
    <path d="m230.65 166.26c2.205 1.106 6.156-0.662 7.284-4.387-3.984 1.732-6.648 0.04-7.284 4.387z"/>
    <path d="m256.28 144.13c-0.581 4.829-2.554 7.638-5.503 7.174-0.812-3.088 1.579-5.062 5.503-7.174z"/>
    <path d="m248.48 156.52c4.898 0.695 6.662-3.064 9.96-7.87-4.621 3.344-10.146 4.039-9.96 7.87z"/>
    <path d="m247.09 155.97c-2.67-3.204-0.09-7.228 1.951-10.657-0.439 5.102 1.3 7.941-1.951 10.657z"/>
    <path d="m245.91 161.26c-0.301-3.134 5.038-3.83 7.452-5.572-0.812 1.811-2.043 6.686-7.452 5.572z"/>
    <path d="m244.79 161.33c-3.691-0.418-2.159-6.686 0.487-10.17-1.114 4.807 1.95 8.15-0.487 10.17z"/>
    <path d="m242.01 166.55c-4.202-1.858-1.509-7.127 0.07-10.238-0.673 4.086 2.693 7.196-0.07 10.238z"/>
    <path d="m242.84 166.06c2.205 2.879 6.501-0.859 7.383-5.224-3.738 3.112-6.5 2.601-7.383 5.224z"/>
    <path d="m233.24 186.32c-0.432-4.288 2.793-12.084 0.504-16.24-0.312-0.571 0.685-2.087 1.329-1.167 1.007 1.468 2.041 5.652 2.474 4.107 0.459-1.68 0.529-4.651 2.017-5.228 0.949-0.338 2.29-0.559 1.924 0.934-0.363 1.436-1.177 3.419-0.275 3.547 0.523 0.08 2.03-1.954 3.299-2.893 1.023-0.838 2.549 0.473 1.054 1.726-4.861 4.037-9.571 5.854-12.326 15.214z"/>
    <path d="m224.51 250.85c-0.57-0.109-1.352-0.303-0.641 0.584 5.679 6.996 7.322 8.924 15.603 7.94 8.365-1.102 10.357-3.364 16.214-6.651 3.129-1.835 7.703-2.242 11.17-1.105 1.614 0.528 2.591 0.56 1.434-0.599-1.158-1.157-2.525-2.731-3.949-3.815-3.118-2.394-8.407-3.432-12.723-2.662-6.104 0.958-11.148 4.845-17.176 6.313-3.167 0.723-6.64 0.614-9.931 0z"/>
    <path d="m272.3 263.35c1.056 0.131 1.725 2.177 2.245 0.792 0.881-2.242 0.264-4.026-0.727-3.829-1.169 0.312-3.147 2.934-1.518 3.037z"/>
    <path d="m220.6 182.92c-1.215-1.269-0.864-1.754 0.933-1.774 1.425-0.09 4.249 0.873 5.321 0.09 0.982-0.713 0.591-3.738 1.027-5.133 0.19-0.778 0.735-1.999 1.959-0.09 3.623 5.804 8.147 12.773 10.08 19.6 1.058 3.826 0.06 9.799-3.453 13.814 0.124-3.423-1.152-5.725-2.707-8.587-1.921-3.762-9.057-13.951-13.16-17.919z"/>
    <path d="m235.53 213.44c3.983 0.02 4.667-5.32 4.667-6.813-1.96 0.373-5.414 3.64-4.667 6.813z"/>
    <path d="m269.95 265.26c2.833 0.645 2.794-6.178-0.1-9.07 1.275 4.382-2.128 8.388 0.1 9.07z"/>
    <path d="m268.85 265.2c0.187 3.243-7.959-0.424-10.052-2.946 4.812 2.044 9.814 0.352 10.052 2.946z"/>
    <path d="m265.28 260.57c0.291 3.141-7.064 0.379-9.238-2.074 4.83 1.56 8.917-0.511 9.238 2.074z"/>
    <path d="m266.63 261.01c2.833 0.645 2.374-6.412-0.379-8.837 1.321 4.709-1.849 8.155 0.379 8.837z"/>
    <path d="m263.65 256.72c2.833 0.645 1.207-5.431-0.893-7.857 0.341 4.429-1.055 7.502 0.893 7.857z"/>
    <path d="m262.15 256.7c0.292 3.235-5.43 0.751-7.651-2.309 4.783 1.561 7.33-0.276 7.651 2.309z"/>
    <path d="m260.59 254.24c1.856-1.334-0.113-4.863-3.645-4.645 0.346 2.132 1.566 5.88 3.645 4.645z"/>
    <path d="m274.54 268.87c0.187 3.243-7.959 1.63-10.519-1.825 5.139 0.971 10.281-0.769 10.519 1.825z"/>
    <path d="m242.18 263.07c0.292 3.235-8.602-0.322-10.823-3.383 4.783 1.561 10.502 0.798 10.823 3.383z"/>
    <path d="m247.63 264.45c1.856-1.334-1.933-4.77-4.951-5.578 0.346 2.131 2.872 6.813 4.951 5.578z"/>
    <path d="m248.2 266.69c0.199 2.908-9.537 1.313-12.084-1.374 8.377 1.514 11.81-1.117 12.084 1.374z"/>
    <path d="m252.76 268.63c1.081 2.701-8.264 2.042-11.545 0.471 5.301-0.05 10.802-2.353 11.545-0.471z"/>
    <path d="m257.13 270.6c1.034 2.421-7.61 2.369-11.824 1.03 5.581-0.05 10.801-3.426 11.824-1.03z"/>
    <path d="m263.42 271.9c1.531 2.865-7.588 3.143-10.547 1.733 5.273-0.725 9.242-3.988 10.547-1.733z"/>
    <path d="m252.74 267c-2.901 1.829-2.746-3.564-5.053-7.3 3.625 3.302 7.019 5.556 5.053 7.3z"/>
    <path d="m257.88 268.94c-2.434 2.156-4.379-5.246-6.594-9.399 3.58 3.954 8.839 7.608 6.594 9.399z"/>
    <path d="m264.68 271c-2.061 2.389-8.02-7.018-10.187-11.919 3.299 3.815 11.826 9.895 10.187 11.919z"/>
    <path d="m258.88 278.18c-1.028 3.632-16.192-3.423-17.885-7.079 8.677 4.598 18.092 3.636 17.885 7.079z"/>
    <path d="m210.15 204.38c-0.355-0.46-1.374 0.01-1.119 1.121 0.236 1.5 2.449 9.203 6.251 11.853 2.712 1.954 16.965 5.102 23.427 6.439 3.556 0.715 6.535 2.489 8.868 5.32-0.965-3.702-1.741-6.445-2.987-9.799-1.211-2.948-4.421-6.174-7.746-6.347-6.175-0.222-14.167-0.748-19.974-3.268-2.997-1.252-4.792-2.943-6.72-5.319z"/>
    <path d="m245.54 234.87c1.947 1.434 4.096-3.704 1.622-8.588-0.08 4.701-3.814 6.279-1.622 8.588z"/>
    <path d="m247.41 239.58c2.693 0.827 3.536-3.937 1.763-7.747 0.295 4.093-4.234 6.559-1.763 7.747z"/>
    <path d="m249.46 243.36c2.601 1.295 3.585-3.518 1.716-7.092 0.204 4.56-3.72 5.904-1.716 7.092z"/>
    <path d="m248.39 243.65c-1.03 3.08-7.007-2.655-8.014-5.775 3.709 3.685 8.757 3.278 8.014 5.775z"/>
    <path d="m245.68 238.94c-1.171 3.08-8.687-4.85-10.348-8.668 3.709 3.685 11.184 6.498 10.348 8.668z"/>
    <path d="m244.19 234.32c-1.171 3.5-9.34-5.829-11.654-9.135 3.897 3.639 12.537 6.592 11.654 9.135z"/>
    <path d="m243.93 230.86c2.876-0.559-0.163-2.955-3.689-6.849-0.165 4.1 0.508 6.966 3.689 6.849z"/>
    <path d="m239.08 228.53c1.242-1.353-1.191-1.929-4.203-5.31-0.444 2.28 2.794 6.454 4.203 5.31z"/>
    <path d="m253 243.73c1.574 0.921 2.652-2.305 0.69-5.225-0.449 3.159-2.133 4.037-0.69 5.225z"/>
    <path d="m218.81 223.38c-3.342 2.004-8.652-5.992-10.068-9.282 2.933 3.776 10.699 7.224 10.068 9.282z"/>
    <path d="m221.65 228.04c-1.85 2.051-7.671-3.519-9.694-6.341 3.12 2.702 10.512 3.023 9.694 6.341z"/>
    <path d="m224.82 232.22c-0.61 2.801-9.106-3.495-11.092-6.476 3.663 3.452 11.649 3.14 11.092 6.476z"/>
    <path d="m223.52 235.25c-1.311 2.522-8.221-3.727-9.879-6.987 4.222 3.685 10.949 4.493 9.879 6.987z"/>
    <path d="m219.97 222.97c2.18-2.299 1.252-3.376-0.338-6.999-0.869 3.72-2.179 5.205 0.338 6.999z"/>
    <path d="m222.86 227.31c3.954 0.174 0.04-4.638-0.897-8.679 0.344 4.606-1.014 8.237 0.897 8.679z"/>
    <path d="m225.38 231.13c2.74-0.619 1.95-4.497-0.151-9.193 0.437 5.073-2.32 8.005 0.151 9.193z"/>
    <path d="m224.45 238.8c-1.03 3.08-8.827-4.055-10.067-6.755 3.943 3.311 10.763 4.445 10.067 6.755z"/>
    <path d="m229.12 243.61c-1.17 3.082-9.339-3.167-11.839-6.568 4.922 3.872 12.443 3.513 11.839 6.568z"/>
    <path d="m233.88 248.46c-1.31 4.294-9.853-2.561-12.399-5.915 5.436 4.151 13.096 2.859 12.399 5.915z"/>
    <path d="m225.85 237.43c2.321 1.201 3.258-5.384 1.949-10.033 0.02 5.074-4.654 8.845-1.949 10.033z"/>
    <path d="m229.81 242.66c2.788 0.828 1.904-6.269-0.478-10.873-0.309 4.561-2.366 8.892 0.478 10.873z"/>
    <path d="m234.76 247.56c3.114 0.174 0.971-6.084-1.597-9.613 0.437 4.607-1.013 9.079 1.597 9.613z"/>
    <path d="m229.3 250.23c-0.936 1.586-3.226-1.348-6.986-3.489 3.382 0.885 7.402 2.019 6.986 3.489z"/>
    <path d="m227.52 197.49c2.906-2.15 0.689-6.173 0-9.998-0.935 3.628-3.398 8.389 0 9.998z"/>
    <path d="m227.42 202.85c-4.366-0.524-3.709-6.172-3.841-9.751 1.313 4.859 4.892 5.68 3.841 9.751z"/>
    <path d="m228.11 202.12c3.694-0.214 3.498-4.417 3.695-8.668-1.872 3.907-4.089 4.514-3.695 8.668z"/>
    <path d="m227.96 207.34c-2.873 0.229-4.366-2.594-5.023-6.993 2.725 4.054 5.203 2.79 5.023 6.993z"/>
    <path d="m228.99 206.99c3.694 0.475 3.104-3.825 2.955-6.995-1.132 3.022-4.137 3.974-2.955 6.995z"/>
    <path d="m223.23 205.17c0.295 2.807 2.069 7.634 4.925 6.55 1.182-3.448-2.512-4.137-4.925-6.55z"/>
    <path d="m229.04 212.02c-1.281-2.462 2.905-3.695 3.792-6.895 0.509 4.58 0.08 7.584-3.792 6.895z"/>
    <path d="m217.13 182.84c2.3-2.476 0.269-6.406-0.421-10.231-0.935 3.628-2.556 8.435 0.421 10.231z"/>
    <path d="m217.06 187.45c-4.039 0.41-5.016-7.805-5.427-11.337 1.313 4.859 5.965 7.079 5.427 11.337z"/>
    <path d="m217.89 187.37c2.854-1.474 2.191-4.649 3.088-7.035-1.919 2.928-3.669 3.347-3.088 7.035z"/>
    <path d="m217.09 192.75c-4.225 0.362-6.743-8.739-6.874-12.318 1.313 4.859 7.366 7.5 6.874 12.318z"/>
    <path d="m217.9 192.61c3.973-0.914 3.498-3.483 2.902-7.642-1.265 4.188-3.483 3.301-2.902 7.642z"/>
    <path d="m217.04 198c-4.646 0.788-4.32-6.561-8.009-11.893 3.191 3.96 8.936 8.95 8.009 11.893z"/>
    <path d="m218.09 197.75c3.507 0.102 3.85-5.179 3.656-7.321-0.807 2.134-4.931 4.16-3.656 7.321z"/>
    <path d="m209.78 192.34c1.742 5.654 4.216 11.32 7.259 10.89 1.461-3.215-2.887-3.625-7.259-10.89z"/>
    <path d="m218.14 202.4c-1.281-2.462 2.905-3.695 3.792-6.895 0.509 4.58 0.08 7.584-3.792 6.895z"/>
    <path d="m210.98 198.8c2.487 5.094 3.609 10.948 7.024 10.097 1.275-3.961-3.771-4.791-7.024-10.097z"/>
    <path d="m218.71 207.93c-1.467-2.695 2.719-3.648 3.745-7.363 0.556 4.861 0.04 8.332-3.745 7.363z"/>
    <path d="m225.87 173.45c2.451 0.663 5.022-2.089 4.131-6.209-2.801 0.698-4.087 3.242-4.131 6.209z"/>
    <path d="m218.03 171.39c0.214 1.159 1.623 1.264 1.214-0.373-0.342-1.328-0.401-2.327 0-3.407 0.548-1.353 0.365-3.658-0.05-4.619-0.416-1.016-1.793-0.421-1.214 0.374 0.638 0.921 0.672 2.837 0.233 3.732-0.577 1.321-0.42 3.074-0.186 4.293z"/>
    <path d="m240.9 187.31c-0.947 1.393-2.881 0.541-1.408-1.372 1.207-1.549 2.928-2.814 3.055-4.414 0.101-2.029 1.291-5.107 2.373-6.145 1.118-1.106 2.409 0.45 1.214 1.188-1.342 0.872-2.214 4.456-2.185 5.836-0.05 2.001-2.041 3.447-3.049 4.907z"/>
    <path d="m237.92 185.07c-0.947 1.393-2.457 0.585-1.601-1.652 0.722-1.549 0.799-3.468 1.604-4.6 1.125-1.717 3.031-3.147 4.112-4.186 1.118-1.106 2.046-0.04 1.021 0.908-1.244 1.245-2.595 2.795-3.345 3.969-1.399 2.281-0.783 4.101-1.791 5.561z"/>
    <path d="m222.18 177.86c-0.112 1.967 1.471 2.443 1.4-0.409-0.07-2.978-2.179-5.702-0.886-10.235 0.679-2.217 0.691-6.281 0.279-8.441-0.362-2.142-1.886-0.743-1.307 0.925 0.638 1.935-0.119 5.645-0.607 7.511-1.463 5.434 1.207 8.08 1.121 10.649z"/>
    <path d="m226.5 166.98c-0.232 1.81-1.764 1.974-1.319-0.582 0.371-2.075 0.435-3.635 0-5.321-0.596-2.114-0.397-5.714 0.05-7.216 0.451-1.585 1.948-0.656 1.319 0.584-0.694 1.439-0.73 4.432-0.254 5.829 0.627 2.064 0.457 4.803 0.203 6.706z"/>
    <path d="m210.94 204c0.758 0.902 2.036 0.298 0.871-0.923-0.952-0.987-0.639-1.298-1.22-2.5-0.574-1.343-0.544-2.084-1.237-3.044-0.613-0.91-1.535 0.02-0.917 0.785 0.775 0.906 0.561 1.574 1.035 2.45 0.877 1.5 0.663 2.288 1.468 3.232z"/>
    <path d="m231.34 228.61c2.439 1.199 4.291 4.196 4.413 6.636 0.207 2.809 0.612 5.18 1.873 7.176-2.008-0.559-2.97-3.759-3.255-6.825-0.289-3.173-1.999-4.549-3.031-6.987z"/>
    <path d="m236.42 234.49c1.688 3.116 4.049 4.304 4.169 6.617 0.205 2.661 0.407 2.796 1.128 5.413-1.987-0.529-2.487-0.703-3.024-4.684-0.331-2.798-2.571-4.772-2.273-7.346z"/>
    <path style="fill:#ffffff" d="m298.8 258.47c0.07-0.546-0.22-1.069-0.621-1.213-0.781-0.327-1.559-0.407-2.38-0.374-0.912-0.01-1.141 0.192-1.144 0.654 0 0.769-0.04 1.516 0 2.099 0.05 0.726 0.03 0.78 0.444 0.888 0.659 0.124 1.784 0.157 2.447 0.653 0.525 0.361 1.124 0.07 1.153-0.606-0.01-0.513 0.03-1.526 0.101-2.101zm-10.63 0c-0.08-0.546 0.297-1.023 0.747-1.166 0.874-0.327 1.745-0.594 2.612-0.84 0.986-0.233 1.538 0.471 1.541 0.933 0 0.77 0.04 1.423 0 2.006-0.05 0.726-0.192 0.78-0.653 0.888-0.738 0.124-1.685 0.25-2.426 0.746-0.588 0.361-1.153 0.08-1.447-0.559-0.19-0.485-0.294-1.433-0.374-2.008zm-9.14-7.24c2.769 2.21 5.379 4.719 6.161 7.84 0.814 2.908 1.307 5.134 3.174 8.027-2.925-1.867-4.086-4.688-4.947-7.748-0.756-3.007-2.49-5.256-4.388-8.119zm-3.18 0.01c2.583 2.116 4.259 4.531 5.04 7.653 0.815 2.907 1.96 5.226 3.641 7.84-2.738-1.867-4.459-4.407-5.321-7.467-0.756-3.009-1.648-5.257-3.36-8.026zm16.06 12.69c3.835 1.572 7.147 1.184 7.56 3.595-3.598 0.388-4.914-1.09-7.56-3.595zm-2.94-0.61c0.949 1.788 2.038 4.511 4.013 4.013 0.03-1.369-2.131-2.318-4.013-4.013z"/>
   </g>
   <use xlink:href="#c" transform="scale(-1,1)" height="100%" width="100%" y="0" x="-600"/>
   <g>
    <path d="m328.54 286.65c0.05 1.181 0.188 2.131 0.888 3.08-4.076-1.633-9.831-0.759-13.767 1.074-1.756 0.838-3.881-0.958-1.821-2.661 2.929-2.373 9.706-1.027 14.7-1.493zm-57.505-0.06c0.06 1.113-0.07 2.133-0.481 3.106 4.43-1.835 9.187-0.311 13.664 1.494 3.077 1.273 3.325-0.93 2.782-1.692-0.934-1.353-2.742-2.838-5.028-2.87-1.522-0.02-7.382-0.07-10.937-0.04zm3.74-21.642c-1.236-0.533-2.672-0.02-3.96 1.335-4.327 4.24-9.404 8.371-13.502 11.584-1.529 1.329-3.091 3.712 3.431 6.094 0.237 0.09 4.991 1.852 8.004 1.964 1.231-0.03 1.227 1.803 0.999 2.293-0.52 0.978-0.143 1.352-1.193 2.293-1.095 0.924 0.117 2.12 0.977 1.307 3.672-3.188 9.627-1.148 15.366 0.718 1.356 0.375 3.837 0.27 3.815-1.6 0.02-2.038 1.501-3.479 2.404-3.532 2.343 0.406 13.919 0.535 17.485 0.102 2.079-0.27 2.204 2.848 3.316 4.077 0.767 0.815 3.719 1.031 5.743 0.137 4.001-1.858 10.097-1.858 12.582-0.08 1.021 0.778 1.828 0.147 1.247-0.643-0.748-1.08-0.731-1.58-1.103-2.433-0.933-1.898-0.188-2.363 0.79-2.5 11.054-1.426 14.582-5.197 11.202-8.272-4.364-3.828-9.222-7.676-13.408-12.198-1.135-1.199-1.885-1.681-4.247-0.699-7.221 3.289-16.388 5.687-25.358 5.862-8.347 0.07-19.824-3.789-24.589-5.807z"/>
    <path d="m326.62 265.54c-0.58 0.06-1.197 0.238-1.656 0.406-8.921 3.134-17.117 5.328-25.656 5.313-8.335-0.02-17.066-2.309-24.906-5.531-0.446-0.191-0.96-0.161-1.469-0.03-0.509 0.13-1.013 0.366-1.344 0.688-3.641 3.626-7.582 7.148-11.812 10.344-0.639 0.488-0.535 1.731 0.5 2.156h0.03c8.305 2.979 16.412 8.532 39.625 8.313 23.433-0.222 31.746-5.64 39.188-8.125 0.525-0.2 1.065-0.5 1.313-0.969 0.124-0.235 0.158-0.526 0.06-0.813-0.09-0.286-0.283-0.554-0.625-0.843h-0.03c-4.223-3.453-8.749-6.207-11.719-10.406-0.334-0.479-0.92-0.558-1.5-0.5zm0.03 0.438c0.507-0.05 0.895 0.03 1.094 0.312 3.041 4.301 7.621 7.074 11.812 10.5 0.3 0.254 0.442 0.48 0.5 0.656 0.06 0.176 0.04 0.296-0.03 0.438-0.15 0.284-0.59 0.57-1.063 0.75-7.534 2.515-15.668 7.904-39.031 8.125-23.115 0.218-31.094-5.303-39.469-8.313-0.754-0.31-0.687-1.16-0.406-1.375 4.242-3.206 8.227-6.741 11.875-10.375 0.251-0.243 0.653-0.45 1.094-0.562 0.441-0.113 0.912-0.131 1.219 0 7.879 3.238 16.613 5.578 25.031 5.594 8.618 0.01 16.903-2.204 25.844-5.344 0.445-0.163 1.024-0.356 1.531-0.406z" style="fill:#bd6b00"/>
    <path d="m269.71 114.56c-0.07-1.379 2.069-1.484 1.824 0.412-0.313 2.362 4.458 8.342 4.854 12.029 0.265 2.473-1.453 4.637-3.154 5.984-2.086 1.616-5.293 1.394-6.794 0.467-0.908-0.731-1.735-3.234-1.056-4.224 0.241-0.334 1.328 3.673 3.722 3.657 3.257-0.02 5.896-2.468 5.993-4.651 0.167-3.801-5.329-9.809-5.389-13.675z"/>
    <path d="m279.24 123.95c0.539-0.385 1.399 1.296 0.792 1.716-0.505 0.337-1.492-1.249-0.792-1.716z"/>
    <path d="m280.69 120.54c-0.272 0.132-0.814-0.06-0.652-0.287 0.762-1.089 2.387-2.728 3.565-3.3 0.362-0.176 0.995 0.463 0.776 0.776-0.705 1.007-2.42 2.195-3.689 2.811z"/>
    <path d="m293.28 110.55c0.302-0.631 2.117-1.344 2.579-1.771 0.428-0.438 0.632 0.371 0.449 0.752-0.302 0.631-1.868 1.696-2.555 1.724-0.369 0.02-0.656-0.324-0.473-0.705z"/>
    <path d="m297.59 110.75c0.393-1.107 1.66-2.786 2.533-3.339 0.448-0.283 1.252-0.06 1.101 0.364-0.333 0.94-1.884 2.581-2.927 3.355-0.316 0.282-0.798-0.123-0.707-0.38z"/>
    <path d="m293.9 113.52c-0.263 0.132-0.121 0.691 0.133 0.776 0.538 0.179 1.519 0.214 1.964-0.03 0.645-0.397 0.351-2.844-0.513-1.537-0.579 0.806-1.002 0.547-1.584 0.792z"/>
    <path d="m286.61 119.14c-1.318-1.026 0.355-2.464 1.732-1.46 2.683 2.024-4.003 9.778-7.641 13.403-0.665 0.71-1.249-1.078-0.396-1.848 2.608-2.212 5.049-4.855 6.747-7.586 0.327-0.525 0.64-1.658-0.442-2.509z"/>
    <path d="m301.88 112.47c0.164-0.982-1.589 0.02-1.621-1.281-0.02-0.689 1.915-1.173 2.722-0.38 1.365 1.384 0.345 3.718-1.924 3.865-1.891 0.08-5.046 2.685-4.566 3.232 0.546 0.675 5.45 1.121 8.302 0.675 1.765-0.248 1.395 1.331-0.414 1.545-1.747 0.201-3.171 0.02-4.805 0.528-1.922 0.549-2.76 3.129-3.828 4.092-0.238 0.167-0.88-0.846-0.636-1.227 0.769-1.203 1.996-3.045 3.346-3.572 0.852-0.345-2.348-0.454-3.37-0.745-0.81-0.244-0.574-1.274-0.264-1.848 0.412-0.895 3.429-3.916 4.645-3.867 1.142 0.05 2.3-0.284 2.413-1.017z"/>
    <path d="m306.96 112.73c0.567-0.501 0.858-1.338 1.453-1.848 0.326-0.327 0.847 0.06 0.759 0.853-0.07 0.621-0.906 1.156-1.467 1.623-0.456 0.342-0.986-0.396-0.745-0.628z"/>
    <path d="m313.43 110.43c0.845-0.09 1.055 1.537 0.131 1.801-0.56 0.187-1.05-1.705-0.131-1.801z"/>
    <path d="m311.3 115.47c-0.01 1.404 0.68 1.275 2.002 1.227 1.283-0.05 2.412 0.03 2.407-1.235 0-1.314-0.727-2.464-0.939-1.569-0.186 0.84-0.334 2.215-0.823 1.616-0.461-0.515-0.278-0.628-1.071 0.217-0.44 0.466-0.49-0.226-0.754-0.66-0.184-0.257-0.821 0.208-0.822 0.404z"/>
    <path d="m302.08 122.63c-0.315 1.858-0.03 4.459 0.925 4.488 1.175 0.04 3.607-4.061 4.759-6.188 0.691-1.187 1.877-1.394 1.382-0.156-0.749 1.91-0.682 5.998-0.02 7.199 0.354 0.647 2.964-0.593 3.386-1.515 0.767-1.675 0.143-4.762 0.412-6.647 0.13-1.237 1.263-1.496 1.203-0.349-0.112 2.052-0.307 5.815-0.162 7.524 0.09 0.982 2.894 2.432 3.346-0.543 0.238-1.872 1.202-3.719-0.05-5.793-0.774-1.297 1.136-1.134 2.166 0.637 0.72 1.206-0.607 3.202-0.56 4.744 0.119 2.374-1.726 3.722-3.066 3.75-1.197 0.02-1.977-1.446-2.957-1.467-1.089-0.07-2.207 1.693-3.106 1.631-3.486-0.239-1.641-5.334-2.703-5.396-1.181-0.07-2.574 4.994-4.029 4.813-1.435-0.172-2.92-4.127-2.323-5.8 0.54-1.557 1.558-1.922 1.398-0.932z"/>
    <path d="m318.96 114.6c-1.701-1.038 0.108-3.736 0.939-2.788 1.606 1.923 3.224 6.487 4.356 6.864 0.716 0.239 0.683-3.374 1.188-5.016 0.326-1.213 1.793-0.817 1.513 0.737-0.1 0.519-1.917 6.422-1.777 6.655 1.262 2.522 2.51 5.081 3.3 7.788 0.326 1.167-1.075 0.381-1.243 0.139-0.894-1.338-2.461-6.452-2.461-6.219-0.72 3.598-0.89 4.66-1.654 7.717-0.233 0.98-1.675 0.802-1.35-0.924 0.313-1.418 2.375-8.392 2.259-8.594-1.621-2.862-3.104-5.125-5.07-6.359z"/>
    <path d="m322.03 131.2c-0.474-0.05-1.21 1.055 1.152 1.491 3.156 0.571 6.611-0.492 7.669-3.587 1.213-3.687 2.014-7.177 2.647-8.493 0.791-1.535 1.803-1.411 1.056-3.651-0.526-1.612-1.51-1.126-1.716-0.264-0.552 2.35-2.646 9.952-3.3 11.352-1.233 2.555-3.718 3.565-7.508 3.152z"/>
    <path d="m328.35 119.07c-0.338-0.725-1.127-0.164-0.986 0.629 0.08 0.717 0.666 1.107 1.25 1.087 0.692-0.02 2.155 0.02 2.159-1.125 0-0.807-0.632-1.481-1.103-0.591-0.45 0.806-1.03 0.722-1.32 0z"/>
    <path d="m329.14 116.03c-0.243 0.168-0.02 1.066 0.264 1.056 1.031-0.03 2.492-0.363 3.275-0.908 0.229-0.159 0.133-0.702-0.193-0.691-0.994 0.03-2.575 0-3.346 0.543z"/>
    <path d="m337.9 118.29c0.747-1.167 2.806-1.285 2.065 0.38-0.524 1.148-5.651 11.055-6.351 12.315-0.764 1.417-1.389 0.715-0.846-0.388 0.73-1.42 4.898-11.962 5.132-12.307z"/>
    <path d="m330.18 133.04c-0.219-0.788-1.442-1.954-1.305 0.155 0.244 3.828 5.504 2.618 7.097 1.257 1.445-1.281 0.191 4.323 2.112 4.922 1.058 0.339 3.051-1.105 4.03-2.376 2.717-3.525 4.446-8.578 7.058-12.058 0.987-1.361-0.54-2.332-1.157-1.249-2.273 3.81-5.094 11.585-8.176 13.604-2.513 1.608-1.768-2.071-1.856-3.176-0.109-0.81-1.097-2.003-2.415-0.908-0.921 0.72-2.352 1.305-3.648 1.188-0.752-0.04-1.386-0.03-1.74-1.359z"/>
    <path d="m339.57 125.93c0.03-0.216-1.112-0.314-1.056 0.792 0.04 0.819 1.019 1.041 1.187 0.924 1.542-1.121-0.327-0.562-0.131-1.716z"/>
    <path d="m337.33 130.42c-0.303 0.07-0.582 1.04 0.133 1.095 0.653 0.05 3.213-0.229 3.92-0.187 0.458-0.02 0.632-0.892-0.348-0.845-1.19 0.06-2.754-0.239-3.705-0.06z"/>
    <path d="m275.37 113.76c0.406 0.02 1.52 1.462 1.447 1.913-0.05 0.213-1.191-0.03-1.54-0.326-0.258-0.219-0.154-1.599 0.09-1.587zm-5.369 10.452c-1.018 0.555 0.162 1.651 0.924 1.188 2.861-1.853 7.154-3.798 8.052-7.468 0.287-1.243 1.443-3.148 2.539-3.573 1.06-0.411 2.599 1.917 3.603 0.09 0.589-1.047 2.654 0.687 3.152-0.433 0.607-1.354 0.318-2.099 0.343-3.395-0.04-0.849-0.693-1.103-1.164 0.272-0.245 0.623 0.04 1.251-0.156 1.576-0.152 0.247-0.625 0.486-0.9 0.28-0.253-0.19-0.08-0.72-0.685-0.955-0.235-0.118-0.612-0.216-0.776 0.09-0.72 1.284-1.119 2.482-2.128 1.117-0.898-1.176-1.353-3.209-2.011-0.427-0.237 0.982-1.729 2.407-2.61 2.407-1.099 0-0.823-2.894-3.237-2.453-1.241 0.264-1.155 2.639-0.97 3.517 0.305 1.22 3.931 0.344 3.751 1.141-0.62 2.771-4.467 5.406-7.727 7.035z"/>
    <path d="m247.3 137.42c-0.154 0.464 0.462 1.723 1.101 1.816 0.628 0.05 0.948-1.36 0.746-1.816-0.149-0.336-1.737-0.329-1.847 0z"/>
    <path d="m250.63 142.3c-0.403-0.434-1.589 0.73-0.63 1.553 0.539 0.436 2.513 1.069 3.053 0.148 0.731-1.185-0.721-5.488-0.08-6.057 0.502-0.444 2.828 2.875 3.976 3.114 2.697 0.373 2.05-4.619 4.956-4.28 1.981 0.264 2.198-2.211 1.922-3.756-0.221-1.483-2.622-3.624-3.726-4.582-1.452-1.209-2.1 0.892-1.188 1.584 1.173 0.94 3.236 2.837 3.565 4.093 0.155 0.592-1.434 1.77-2.019 1.451-1.351-0.737-2.608-3.898-3.79-4.62-0.402-0.246-1.393 0.31-0.916 1.296 0.536 1.057 2.905 2.693 3.044 3.821 0.125 1.029-1.056 3.253-1.831 3.253-0.853 0-3.028-2.688-3.706-3.953-0.339-0.606-1.515-0.547-1.638 0.289-0.195 1.256 0.182 3.913 0.481 5.559 0.238 1.559-0.878 1.638-1.475 1.087z"/>
    <path d="m246.56 133.73c-0.339 0.384 0.792 1.134 1.017 0.939 0.436-0.377 2.128-2.307 1.802-2.982-0.29-0.601-2.618-1.918-2.997-1.266-0.702 1.128 2.194 1.634 1.741 1.965-0.224 0.128-1.021 0.679-1.563 1.344z"/>
    <path d="m250.73 125.27s0.728 2.489 1.32 1.452c0.479-0.719-1.32-1.452-1.32-1.452z"/>
    <path d="m251.92 129.23c-0.266 0.146-1.017 0.74-0.528 1.056 0.773 0.457 2.875 0.819 2.421-0.676-0.275-0.881 3.171 0.02 2.331-2.36-0.22-0.66-1.259-1.612-1.77-1.747-0.325-0.08-1.429 0.52-0.739 0.854 0.505 0.261 2.025 1.154 1.46 1.74-0.641 0.612-1.088-0.275-1.886-0.132-0.401 0.08-0.14 1.218-0.366 1.529-0.126 0.173-0.706-0.382-0.923-0.264z"/>
    <path d="m257.4 119.77c-0.435 0.217-1.214 1.396-1.242 1.941-0.02 0.291 0.303 0.691 0.552 0.567 0.456-0.228 1.161-1.344 1.187-1.856 0.02-0.324-0.227-0.787-0.497-0.652z"/>
    <path d="m260.24 119.46c-0.84-1.027 0.891-2.551 1.67-0.496 0.471 1.289 5.488 7.892 6.514 10.132 0.727 1.516-0.03 2.142-0.924 1.056-2.541-3.242-4.626-7.283-7.26-10.692z"/>
    <path d="m265.39 119.6c0.895-0.969 2.721-2.949 2.229-4.053-0.377-0.95-1.487-0.856-1.677-0.636-1.086 1.296 0.772 0.97 0.504 1.413-0.553 1.038-1.104 1.61-1.389 2.608-0.07 0.234 0.172 0.843 0.333 0.668z"/>
    <path d="m343.17 122.84c-0.643-0.521 0.632-3.044 1.495-2.053 2.367 2.74 3.468 11.636 4.152 18.294 0 0-1.064 0.887-1.073 0.746 0-3.547-1.425-14.397-4.574-16.987z"/>
    <path d="m290.07 114.18c-0.766-1.76 1.149-2.412 1.436-1.157 1.331 5.783 4.517 10.161 6.942 14.093 0.73 1.229 0.145 1.962-1.631 0.83-1.229-0.842-2.477-3.916-3.082-4.037-1.094-0.204-3.713 4.993-9.069 3.509-1.386-0.387-1.294-4.507-1.321-6.328-0.06-0.853 0.885-1.078 0.917 0.09 0.05 1.678 0 5.164 2.144 5.281 1.75 0.1 5.627-2.376 6.444-4.311 0.728-1.988-1.952-5.941-2.78-7.966z"/>
    <path d="m344.61 138.38c0.428-1.191 6.114-10.735 6.861-12.835 0.382-1.013 2.014 1.737 0.42 3.22-1.4 1.26-5.531 8.034-6.301 10.408-0.355 1.072-1.432 0.562-0.98-0.793z"/>
    <path d="m354.28 129.28c1.05-3.935 3.593 0.607 1.353 2.847-3.458 3.387-4.5 9.854-9.987 10.827-1.479 0.318-4.082-0.666-4.853-1.214-0.301-0.214 0.194-1.618 1.119-0.933 1.337 1.044 4.098 1.28 5.555 0.09 3.118-3.06 5.657-7.113 6.813-11.621z"/>
    <path d="m297.27 142.02c-0.247 0.284-1.004 0.238-1.072 0.637-0.297 1.48 0 2.23-0.326 3.655-0.312 1.365-1.259 1.416-1.194 0.304 0.09-1.442 1.274-3.478 0.434-3.618-0.559-0.131-0.99-0.879-0.412-1.248 1.092-0.757 1.679-0.641 2.429-0.413 0.262 0.08 0.329 0.464 0.141 0.683z"/>
    <path d="m296.5 140.09c-1.448 1.266-2.791 1.784-4.123 3.384-0.544 0.656-0.529 1.57-0.854 2.406-0.326 0.888-1.375 1.062-1.7 0.877-0.543-0.357-0.465-2.003-1.071-1.117-0.515 0.816-0.847 1.94-1.608 1.926-0.689-0.01-1.987-1.422-1.329-1.49 2.252-0.23 2.225-2.033 3.068-2.151 0.946-0.127 1.008 1.488 1.592 1.165 0.459-0.236 0.675-2.117 1.173-2.625 1.527-1.56 2.735-2.385 4.293-3.531 0.788-0.629 1.351 0.505 0.559 1.156z"/>
    <path d="m301.78 144.94c-1.159 0.234-0.962 1.724-0.621 1.909 0.561 0.262 1.43 0.372 1.755-1.342 0.151-0.703 0.289 3.498 1.831 1.88 0.888-0.981 3.087 0.178 4.008-1.056 0.66-0.822 0.863-1.396 0.349-2.61-0.149-0.369-1.053-0.187-1.001 0.709 0.05 0.755-0.535 1.687-1.29 1.528-0.367-0.07 0.206-1.847-0.162-2.33-0.203-0.265-0.511-0.236-0.713 0.04-0.283 0.384 0.284 2.09-0.646 2.315-1.174 0.271-0.559-1.141-1.056-1.399-1.599-0.807-1.753 0.209-2.454 0.357z"/>
    <path d="m310.83 142.08c0.849-0.239 0.584-0.24 1.921-1.334 0.521-0.395 0.624 0.759 0.569 1.216-0.1 0.775-1.018 0.228-1.304 0.91-0.418 0.886-0.248 2.948-0.388 3.788-0.1 0.431-0.787 0.394-0.853 0.05-0.198-1.024 0.14-2.026 0.108-3.307-0.01-0.435-0.634-1.117-0.05-1.327z"/>
    <path d="m305.83 139.46c-0.205 0.927-0.19 1.69-0.19 2.326 0.05 0.513 0.986 0.182 0.982 0.117-0.05-0.814 0.139-1.939-0.102-2.253-0.13-0.169-0.642-0.365-0.69-0.19z"/>
    <path d="m299.54 130.19-1.458 5.594-2.029-3.75v3.844l-4.375-5.188 1.521 5.563-3.931-3.344 2.093 3.781-6.975-4.5 4.438 5.187-5.579-2.75 3.994 3.375-9.13-3.437 8.813 4.344c3.223-1.588 7.641-2.563 12.554-2.563 4.896 0 9.335 0.985 12.554 2.563h0.06l8.75-4.344-9.004 3.469 3.931-3.406-5.516 2.718 4.375-5.156-6.975 4.5 2.092-3.781-3.931 3.344 1.522-5.563-4.375 5.219 0.06-3.875-2.029 3.75-1.458-5.594z"/>
   </g>
  </g>
  <path style="fill:#ffffff" d="m331.32 295.14-0.257 2.596c-0.509-0.356-0.979-1-1.412-1.932-0.451-0.975-0.908-2.357-1.37-4.144-0.394 1.721-0.72 2.983-0.977 3.787-0.251 0.799-0.501 1.365-0.748 1.697-0.167 0.224-0.434 0.451-0.799 0.678l0.05-2.482c0.471-0.642 0.802-1.132 0.992-1.469 0.28-0.499 0.511-1.083 0.692-1.748 0.185-0.67 0.351-1.567 0.499-2.69h0.471c0.29 1.128 0.57 2.024 0.841 2.69 0.252 0.628 0.548 1.181 0.885 1.661 0.238 0.339 0.613 0.79 1.127 1.356m-6.741 0.534-0.513 2.139c-0.325-0.1-0.588-0.344-0.793-0.762-0.17-0.348-0.294-0.788-0.371-1.321-0.07-0.532-0.107-1.084-0.107-1.654-0.433 0.114-0.775 0.171-1.027 0.171-0.499 0-0.913-0.131-1.24-0.392-0.325-0.267-0.486-0.602-0.486-1.006 0-0.87 0.223-1.652 0.67-2.347 0.452-0.699 0.961-1.048 1.528-1.048 0.437 0 0.741 0.123 0.913 0.37 0.19 0.272 0.306 0.58 0.348 0.928 0.04 0.347 0.06 1.017 0.06 2.012 0 0.888 0.07 1.516 0.215 1.882 0.114 0.286 0.381 0.629 0.799 1.028m-1.927-3.553c-0.08-0.542-0.37-0.813-0.855-0.813-0.209 0-0.402 0.05-0.578 0.171-0.176 0.114-0.264 0.214-0.264 0.3 0 0.285 0.343 0.428 1.028 0.428 0.218 0 0.441-0.03 0.669-0.09m-4.441-1.269c0 0.666-0.126 1.165-0.378 1.498-0.253 0.333-0.682 0.57-1.292 0.713 0.176 0.619 0.293 1.101 0.35 1.449 0.06 0.347 0.1 0.734 0.1 1.163 0 0.275-0.02 0.57-0.05 0.884-0.03 0.313-0.08 0.737-0.164 1.269h-0.399c0-0.476-0.03-0.884-0.07-1.226-0.05-0.348-0.121-0.674-0.221-0.978-0.02-0.07-0.15-0.411-0.378-1.005-0.223-0.6-0.447-1.097-0.67-1.492-0.219-0.399-0.578-0.948-1.078-1.648l0.685-2.054c0.362 0.518 0.678 0.878 0.949 1.077 0.27 0.195 0.592 0.293 0.963 0.293 0.808 0 1.213-0.438 1.213-1.312h0.413c0 0.285 0 0.522 0.02 0.713 0.01 0.186 0.02 0.404 0.02 0.656m-6.933 4.224c0 0.633-0.1 1.546-0.285 2.739h-0.443c0-0.812-0.04-1.439-0.114-1.876-0.07-0.437-0.214-0.958-0.428-1.561-0.176-0.509-0.369-0.942-0.578-1.299-0.209-0.361-0.544-0.842-1.006-1.441l0.885-2.183c0.409 0.524 0.699 0.926 0.87 1.206 0.195 0.323 0.379 0.73 0.549 1.219 0.176 0.49 0.312 1.004 0.407 1.541 0.1 0.537 0.143 1.089 0.143 1.655"/>
  <path d="m350.91 319.63c0.347 0.406 0.59 0.805 0.731 1.196 0.136 0.386 0.234 0.938 0.295 1.656l-0.773 0.06c-0.33-0.645-0.65-1.15-0.962-1.516-0.237-0.278-0.621-0.674-1.151-1.188-0.53-0.513-1.072-1.013-1.626-1.501-0.557-0.491-1.267-1.059-2.129-1.704-0.303-0.225-0.495-0.386-0.577-0.481-0.12-0.142-0.215-0.422-0.286-0.838-0.07-0.42-0.12-0.944-0.138-1.569l2.7 2.198c1.02 0.838 1.863 1.579 2.53 2.222 0.516 0.496 0.976 0.983 1.386 1.462m-9.581-5.773-0.162 1.986-3.181-0.08 0.239-2.027 3.104 0.127m8.368 8.892-7.579 2.309-1.395-1.927 6.553-1.997c-0.298-0.411-0.528-0.698-0.691-0.862-0.253-0.252-0.542-0.449-0.867-0.592-0.02 0.365-0.172 0.684-0.453 0.96-0.28 0.275-0.643 0.481-1.087 0.617-0.582 0.177-1.164 0.201-1.746 0.07-0.581-0.129-1.009-0.381-1.282-0.759-0.403-0.558-0.62-1.299-0.65-2.224-0.03-1.016 0.245-1.614 0.835-1.793 0.764-0.234 1.798-0.02 3.1 0.638 1.303 0.658 2.303 1.469 3.001 2.432l2.261 3.125m-5.821-4.047c-0.357-0.162-0.643-0.262-0.857-0.301-0.211-0.04-0.403-0.04-0.578 0.01-0.219 0.06-0.369 0.19-0.451 0.371-0.09 0.18-0.06 0.356 0.06 0.526 0.07 0.109 0.211 0.181 0.396 0.217 0.19 0.03 0.39 0.01 0.601-0.05 0.167-0.05 0.313-0.132 0.436-0.245 0.127-0.12 0.257-0.294 0.393-0.526m-8.12-1.551-0.464 1.966-3.153-0.29 0.479-1.986 3.138 0.31m7.471 7.676-1.683 0.386c-0.598 0.138-1.169 0.18-1.71 0.127-0.541-0.05-1.046-0.222-1.517-0.507-0.278 0.507-0.768 0.931-1.467 1.275-0.466 0.228-1.004 0.413-1.619 0.554l-1.194 0.274-1.094-2.008 1.194-0.274c0.63-0.144 1.059-0.264 1.287-0.362 0.234-0.106 0.527-0.278 0.879-0.524-0.386-0.239-0.697-0.402-0.933-0.492-0.288-0.107-0.542-0.133-0.762-0.08-0.09 0.02-0.152 0.05-0.206 0.114-0.05 0.05-0.1 0.137-0.127 0.261l-0.524 0.07c-0.485-0.891-0.596-1.579-0.333-2.066 0.269-0.493 0.915-0.858 1.938-1.093 1.055-0.241 1.955-0.295 2.701-0.163 0.752 0.127 1.254 0.424 1.509 0.892 0.137 0.251 0.189 0.51 0.156 0.777-0.03 0.264-0.166 0.643-0.392 1.136 0.157 0.06 0.341 0.11 0.553 0.123 0.211 0.01 0.4 0 0.568-0.04l1.683-0.386 1.093 2.008m-8.046 1.872-1.642 0.258c-0.915 0.143-1.665 0-2.254-0.42-0.654-0.466-1.217-1.337-1.692-2.609l-0.808-2.169c-0.183-0.493-0.432-0.859-0.745-1.1-0.151-0.116-0.456-0.268-0.915-0.459l0.556-2.102c0.605 0.335 1.071 0.686 1.399 1.053 0.383 0.429 0.707 1.001 0.974 1.716l0.559 1.499c0.394 1.06 0.778 1.778 1.15 2.155 0.295 0.303 0.63 0.425 1.005 0.366l1.642-0.258 0.771 2.07m-7.016-7.536-1.061 1.866-2.999-0.692 1.069-1.884 2.991 0.71m1.745 8.45-7.48 0.677-0.454-2.109 6.285-0.569c-0.164-0.344-0.386-0.626-0.669-0.848-0.149-0.124-0.478-0.331-0.987-0.622l0.559-1.932c0.691 0.385 1.197 0.809 1.516 1.27 0.326 0.46 0.591 1.163 0.795 2.109l0.435 2.024m-6.006 0.957c-0.899-0.03-1.642-0.1-2.23-0.2-0.589-0.106-1.164-0.256-1.728-0.457-0.483 0.198-0.912 0.325-1.286 0.38-0.367 0.05-0.917 0.07-1.647 0.04l-1.964-0.06c-0.538-0.02-0.957-0.123-1.256-0.316-0.298-0.193-0.555-0.504-0.772-0.935-0.476 0.423-0.994 0.72-1.555 0.89-0.479 0.145-1.043 0.208-1.694 0.186l-1.724-0.05 0.169-2.127 1.723 0.05c0.843 0.03 1.558-0.106 2.145-0.391 0.762-0.377 1.176-0.974 1.24-1.793l0.79 0.106c-0.03 0.166-0.06 0.356-0.1 0.569-0.03 0.213-0.06 0.45-0.09 0.71-0.02 0.267 0.107 0.493 0.37 0.679 0.267 0.186 0.582 0.286 0.943 0.298l1.482 0.05c0.98 0.03 1.685-0.03 2.117-0.197 0.523-0.197 0.808-0.586 0.854-1.171 0-0.125 0.07-0.234 0.208-0.329 0.07-0.05 0.231-0.137 0.466-0.244l0.475-0.219v0.407c0 0.168 0 0.278-0.01 0.33-0.02 0.286-0.117 0.664-0.283 1.135 0.29 0.106 0.617 0.195 0.981 0.275 0.364 0.07 0.749 0.145 1.157 0.195 0.01-0.177-0.06-0.409-0.248-0.697-0.178-0.288-0.263-0.483-0.256-0.582 0.01-0.135 0.04-0.238 0.109-0.309 0.02-0.02 0.113-0.107 0.285-0.234l1.094-0.865c0.191 0.336 0.32 0.64 0.387 0.914 0.07 0.269 0.1 0.605 0.06 1.006l-0.232 2.955m-11.355-8.737-1.89 1.337-1.424-0.879-1.403 1.046-1.874-1.131 1.789-1.272 1.514 0.844 1.46-1.068 1.828 1.123m-2.97 8.144-7.323-1.2 0.803-2.064 6.153 1.008c0.05-0.359 0-0.674-0.128-0.95-0.06-0.15-0.25-0.423-0.553-0.817l1.638-1.653c0.419 0.526 0.64 1.042 0.668 1.547 0.03 0.506-0.128 1.222-0.488 2.148l-0.77 1.981m-6.165-0.956-1.584-0.381c-0.882-0.212-1.385-0.6-1.509-1.165-0.141-0.624 0.14-1.549 0.841-2.777l1.196-2.092c0.271-0.475 0.381-0.869 0.328-1.182-0.02-0.151-0.146-0.389-0.364-0.713l2.27-1.542c0.214 0.497 0.298 0.957 0.254 1.381-0.05 0.493-0.273 1.085-0.668 1.776l-0.827 1.446c-0.584 1.023-0.884 1.758-0.899 2.205-0.01 0.357 0.157 0.58 0.52 0.668l1.582 0.38-1.14 1.996m-3.75-7.925-2.571 1.085-1.765-1.719 2.593-1.094 1.743 1.728m-1.094 6.64c-0.534 0.631-1.059 1.105-1.574 1.422-0.512 0.311-1.085 0.505-1.719 0.583-0.629 0.08-1.423 0.04-2.387-0.109-0.958-0.146-1.883-0.376-2.771-0.693-1.713-0.611-2.863-1.285-3.448-2.025-0.583-0.731-0.558-1.469 0.07-2.215 0.539-0.636 1.179-1.164 1.92-1.584 0.816-0.466 2.09-0.994 3.82-1.586l0.391 0.514c-1.352 0.525-2.285 0.922-2.798 1.191-0.506 0.272-0.916 0.593-1.229 0.964-0.407 0.481-0.345 1.014 0.185 1.603 0.541 0.585 1.456 1.108 2.746 1.568 1.269 0.452 2.47 0.675 3.605 0.669 1.134 0 1.895-0.239 2.283-0.697 0.24-0.283 0.4-0.592 0.481-0.926 0.08-0.332 0.142-0.894 0.16-1.685l2.499-1.521c0 0.757-0.03 1.265-0.106 1.525-0.126 0.474-0.448 1.017-0.968 1.629l-1.161 1.373" style="fill:#bf0000"/>
 </g>
</svg>
