<?xml version="1.0" encoding="UTF-8" standalone="no"?>
<svg id="Argentina" xmlns:rdf="http://www.w3.org/1999/02/22-rdf-syntax-ns#" xmlns="http://www.w3.org/2000/svg" viewBox="0 0 640 480" version="1.0" xmlns:cc="http://creativecommons.org/ns#" xmlns:xlink="http://www.w3.org/1999/xlink" xmlns:dc="http://purl.org/dc/elements/1.1/">
 <g id="flag">
  <rect style="fill:#74acdf" height="480" width="640" y="0" x="0"/>
  <rect style="fill:#ffffff" height="160" width="640" y="160" x="0"/>
  <g>
   <path id="b" style="stroke:#85340a;stroke-width:1.0891;fill:#f6b40e" d="m332.78 263.66a27.778 26.667 0 0 1 -4.404 1.729l16.916 35.378s0.489 1.136 1.279 0.823c0.79-0.314 0.299-1.452 0.299-1.452l-14.09-36.478zm-5.013 1.922a27.778 26.667 0 0 1 -4.94 0.914c1.206 6.374 4.961 10.907 4.342 17.512-0.757 8.083 3.866 12.652 4.939 15.795s-1.159 5.022-0.197 5.469c0.963 0.448 3.07-2.033 2.383-6.502s-4.221-5.796-3.391-15.668c0.705-8.381-2.807-11.317-3.136-17.52z"/>
   <use xlink:href="#b" transform="matrix(.92388 .36738 -.39863 .92388 120.03 -99.291)" height="100%" width="100%" y="0" x="0"/>
   <use xlink:href="#b" transform="matrix(.70711 .67882 -.73657 .70711 270.5 -146.93)" height="100%" width="100%" y="0" x="0"/>
   <use xlink:href="#b" transform="matrix(.38268 .88692 -.96238 .38268 428.51 -135.66)" height="100%" width="100%" y="0" x="0"/>
   <path id="a" style="fill:#85340a" d="m331.23 264.36a27.778 26.667 0 0 1 -1.282 0.537l7.961 16.698-6.679-17.235zm-5.096 1.619a27.778 26.667 0 0 1 -1.485 0.313c1.236 6.785 5.133 10.612 4.243 17.608 2.008-5.684-2.189-10.22-2.758-17.921z"/>
   <use xlink:href="#a" transform="matrix(.92388 .36738 -.39863 .92388 120.03 -99.291)" height="100%" width="100%" y="0" x="0"/>
   <use xlink:href="#a" transform="matrix(.70711 .67882 -.73657 .70711 270.5 -146.93)" height="100%" width="100%" y="0" x="0"/>
   <use xlink:href="#a" transform="matrix(.38268 .88692 -.96238 .38268 428.51 -135.66)" height="100%" width="100%" y="0" x="0"/>
   <path style="stroke:#85340a;stroke-width:1.0891;fill:#f6b40e" d="m292.4 242.72c-6.64 1.158-11.362 4.762-18.242 4.168-8.42-0.727-13.179 3.711-16.453 4.742-3.274 1.03-5.231-1.113-5.697-0.19-0.466 0.925 2.118 2.948 6.773 2.288 4.655-0.659 6.038-4.052 16.321-3.255 8.73 0.677 11.788-2.695 18.25-3.011a27.778 26.667 0 0 1 -0.952 -4.742zm1.153 5.327-36.852 16.239s-1.183 0.47-0.857 1.228c0.327 0.758 1.512 0.287 1.512 0.287l37.998-13.526a27.778 26.667 0 0 1 -1.801 -4.228z"/>
   <use xlink:href="#b" transform="matrix(-.38268 .88692 -.96238 -.38268 673.43 48.028)" height="100%" width="100%" y="0" x="0"/>
   <use xlink:href="#b" transform="matrix(-.70711 .67882 -.73657 -.70711 723.05 192.48)" height="100%" width="100%" y="0" x="0"/>
   <use xlink:href="#b" transform="matrix(-.92388 .36738 -.39863 -.92388 711.31 344.17)" height="100%" width="100%" y="0" x="0"/>
   <path style="fill:#85340a" d="m292.62 244.46c-7.068 1.187-11.054 4.928-18.342 4.073 5.921 1.928 10.646-2.101 18.668-2.647a27.778 26.667 0 0 1 -0.326 -1.426zm1.453 5.087-17.394 7.643 17.953-6.412a27.778 26.667 0 0 1 -0.559 -1.231z"/>
   <use xlink:href="#a" transform="matrix(-.38268 .88692 -.96238 -.38268 673.43 48.028)" height="100%" width="100%" y="0" x="0"/>
   <use xlink:href="#a" transform="matrix(-.70711 .67882 -.73657 -.70711 723.05 192.48)" height="100%" width="100%" y="0" x="0"/>
   <use xlink:href="#a" transform="matrix(-.92388 .36738 -.39863 -.92388 711.31 344.17)" height="100%" width="100%" y="0" x="0"/>
   <path style="stroke:#85340a;stroke-width:1.0891;fill:#f6b40e" d="m307.89 174.67c-1.023-0.08-2.834 2.363-2.19 6.553 0.687 4.469 4.221 5.796 3.391 15.668-0.705 8.381 2.807 11.317 3.136 17.52a27.778 26.667 0 0 1 4.94 -0.914c-1.206-6.374-4.961-10.907-4.342-17.512 0.757-8.083-3.866-12.652-4.939-15.795s1.159-5.022 0.197-5.469c-0.06-0.03-0.125-0.05-0.193-0.05zm-14.186 3.679c-0.09 0-0.182 0.02-0.281 0.06-0.79 0.314-0.299 1.452-0.299 1.452l14.09 36.478a27.778 26.667 0 0 1 4.404 -1.729l-16.916-35.378s-0.375-0.869-0.998-0.877z"/>
   <use xlink:href="#b" transform="matrix(-.92388 -.36738 .39863 -.92388 519.97 579.29)" height="100%" width="100%" y="0" x="0"/>
   <use xlink:href="#b" transform="matrix(-.70711 -.67882 .73657 -.70711 369.5 626.93)" height="100%" width="100%" y="0" x="0"/>
   <use xlink:href="#b" transform="matrix(-.38268 -.88692 .96238 -.38268 211.49 615.66)" height="100%" width="100%" y="0" x="0"/>
   <path style="fill:#85340a" d="m311.11 196.1c-2.008 5.684 2.189 10.22 2.758 17.921a27.778 26.667 0 0 1 1.485 -0.313c-1.236-6.785-5.133-10.612-4.243-17.608zm-9.017 2.305 6.679 17.235a27.778 26.667 0 0 1 1.282 -0.537l-7.961-16.698z"/>
   <use xlink:href="#a" transform="matrix(-.92388 -.36738 .39863 -.92388 519.97 579.29)" height="100%" width="100%" y="0" x="0"/>
   <use xlink:href="#a" transform="matrix(-.70711 -.67882 .73657 -.70711 369.5 626.93)" height="100%" width="100%" y="0" x="0"/>
   <use xlink:href="#a" transform="matrix(-.38268 -.88692 .96238 -.38268 211.49 615.66)" height="100%" width="100%" y="0" x="0"/>
   <path style="stroke:#85340a;stroke-width:1.0891;fill:#f6b40e" d="m383.28 214.06c-0.337 0.02-0.635 0.141-0.635 0.141l-37.998 13.526a27.778 26.667 0 0 1 1.801 4.228l36.852-16.239s1.183-0.47 0.857-1.228c-0.163-0.379-0.54-0.451-0.877-0.428zm-0.414 12.084c-0.515 0-1.064 0.05-1.646 0.13-4.655 0.659-6.038 4.052-16.321 3.255-8.73-0.677-11.788 2.695-18.25 3.011a27.778 26.667 0 0 1 0.952 4.742c6.64-1.158 11.362-4.762 18.242-4.168 8.42 0.727 13.179-3.711 16.453-4.742 3.274-1.03 5.231 1.113 5.697 0.19 0.408-0.81-1.52-2.459-5.127-2.418z"/>
   <use xlink:href="#b" transform="matrix(.38268 -.88692 .96238 .38268 -33.428 431.97)" height="100%" width="100%" y="0" x="0"/>
   <use xlink:href="#b" transform="matrix(.70711 -.67882 .73657 .70711 -83.05 287.52)" height="100%" width="100%" y="0" x="0"/>
   <use xlink:href="#b" transform="matrix(.92388 -.36738 .39863 .92388 -71.313 135.83)" height="100%" width="100%" y="0" x="0"/>
   <path style="fill:#85340a" d="m363.32 222.81-17.953 6.412a27.778 26.667 0 0 1 0.559 1.231l17.394-7.643zm-1.156 8.143c-4.454 0.107-8.747 2.727-15.111 3.161a27.778 26.667 0 0 1 0.326 1.426c7.068-1.187 11.054-4.928 18.342-4.073-1.224-0.399-2.397-0.542-3.557-0.514z"/>
   <use xlink:href="#a" transform="matrix(.38268 -.88692 .96238 .38268 -33.428 431.97)" height="100%" width="100%" y="0" x="0"/>
   <use xlink:href="#a" transform="matrix(.70711 -.67882 .73657 .70711 -83.05 287.52)" height="100%" width="100%" y="0" x="0"/>
   <use xlink:href="#a" transform="matrix(.92388 -.36738 .39863 .92388 -71.313 135.83)" height="100%" width="100%" y="0" x="0"/>
   <ellipse style="stroke:#85340a;stroke-width:1.4697;fill:#f6b40e" rx="27.778" ry="26.667" cy="240" cx="320"/>
   <path id="loweyecontour" d="m329.47 234.3c-1.897 0-3.713 0.789-4.781 2.429 2.137 1.846 6.856 2.047 10.062-0.21-1.389-1.435-3.385-2.219-5.281-2.219zm-0.03 0.419c1.846-0.03 3.572 0.783 3.812 1.591-2.136 2.256-5.55 2.06-7.687 0.419 0.935-1.435 2.439-1.984 3.875-2.01z" style="fill:#843511"/>
   <path style="fill:#85340a" d="m329.83 233.03c-2.777 0-3.419 0.617-4.701 1.642-1.283 1.025-1.923 0.82-2.136 1.025-0.213 0.207 0 0.82 0.426 0.615 0.427-0.206 1.283-0.615 2.564-1.64 1.283-1.027 2.563-1.026 3.846-1.026 3.846 0 5.983 3.077 6.409 2.871 0.427-0.205-2.137-3.487-6.409-3.487z"/>
   <path style="fill:#85340a" d="m337.52 234.26c-4.915-4.102-11.11-4.718-14.53-1.64-0.837 1.076-1.373 2.226-1.593 3.427-0.431 2.335 0.33 4.859 2.236 7.446-0.215 0-0.643 0.203-0.856 0.409-1.697-3.114-2.297-6.313-1.74-9.356 0.145-0.795 0.373-1.577 0.669-2.338 4.701-3.691 11.11-4.101 15.811 2.052z"/>
   <path style="fill:#85340a" d="m331.32 236.3a1.923 1.8461 0 0 1 -1.923 1.846 1.923 1.8461 0 0 1 -1.923 -1.846 1.923 1.8461 0 0 1 1.923 -1.846 1.923 1.8461 0 0 1 1.923 1.846z"/>
   <use xlink:href="#lowpalpebra" transform="matrix(-1,0,0,1,640.25,0)" height="100%" width="100%" y="0" x="0"/>
   <path style="fill:#85340a" d="m315.75 243.69c-0.913 0.161-1.562 0.938-1.562 1.83 0 1.019 0.877 1.83 1.937 1.83 0.627 0 1.202-0.284 1.563-0.78 0.739 0.534 1.764 0.591 2.312 0.6h0.25c0.548 0 1.573-0.07 2.312-0.6 0.361 0.496 0.936 0.78 1.563 0.78 1.06 0 1.937-0.811 1.937-1.83 0-0.892-0.649-1.67-1.562-1.83 0.513 0.174 0.844 0.649 0.844 1.171 0 0.678-0.572 1.229-1.282 1.229-0.68 0-1.241-0.518-1.281-1.17-0.208 0.4-1.034 1.589-2.656 1.65-1.622-0.06-2.448-1.25-2.656-1.65-0.04 0.652-0.601 1.17-1.281 1.17-0.711 0-1.282-0.551-1.282-1.229 0-0.522 0.331-0.997 0.844-1.171zm2.09 5.462c-2.138 0-2.983 1.859-4.906 3.09 1.068-0.409 1.909-1.218 3.406-2.04 1.496-0.82 2.772 0.181 3.625 0.181h0.03c0.853 0 2.129-1.001 3.625-0.181 1.497 0.822 2.369 1.631 3.438 2.04-1.924-1.231-2.8-3.09-4.938-3.09-0.427 0-1.272 0.222-2.125 0.631h-0.03c-0.853-0.41-1.698-0.631-2.125-0.631zm4.994 2.415c-1.405-0.07-2.039 0.256-2.84 0.256h-0.03c-0.801 0-1.437-0.301-2.844-0.24-0.828 0.04-1.924 0.194-3.478 0.637-0.22 0-0.449 0-0.703 0.03 4.487 0.411 2.33 2.88 7.031 2.88h0.03c4.701 0 2.574-2.469 7.062-2.88-0.295-0.03-0.566-0.04-0.816-0.05-1.513-0.425-2.599-0.599-3.412-0.636zm-6.893 0.394c1.942 0 2.739 0.702 4.022 0.702h0.03c1.674 0 2.541-1.176 6.184-0.458-3.631-0.01-2.596 2.291-6.178 2.291h-0.03c-3.608 0-2.496-2.325-6.219-2.28h-0.05c0.888-0.18 1.626-0.258 2.236-0.257zm4.063 3.224c-2.123 0-3.846 1.655-3.846 3.693 0.423-1.71 2.016-2.918 3.846-2.918 1.833 0 3.423 1.208 3.846 2.918 0-2.038-1.723-3.693-3.846-3.693z"/>
   <use xlink:href="#loweyecontour" transform="translate(-19.181)" height="100%" width="100%" y="0" x="0"/>
   <path id="lowpalpebra" d="m305.29 237.54c3.633 2.667 7.265 2.462 9.402 1.231 2.136-1.231 2.136-1.641 1.71-1.641-0.427 0-0.854 0.41-2.564 1.23-1.71 0.822-4.273 0.822-8.546-0.82zm7.173-1.238a1.923 1.8461 0 0 1 -1.923 1.846 1.923 1.8461 0 0 1 -1.923 -1.846 1.923 1.8461 0 0 1 1.923 -1.846 1.923 1.8461 0 0 1 1.923 1.846zm-2.043-3.274c2.777 0 3.419 0.617 4.701 1.642 1.283 1.025 1.923 0.82 2.136 1.025 0.213 0.207 0 0.82-0.426 0.615-0.427-0.206-1.283-0.615-2.564-1.64-1.283-1.027-2.563-1.026-3.846-1.026-3.846 0-5.983 3.077-6.409 2.871-0.427-0.205 2.137-3.487 6.409-3.487zm-7.69 1.229c4.915-4.102 11.11-4.718 14.53-1.64 0.837 1.076 1.373 2.226 1.593 3.427 0.431 2.335-0.33 4.859-2.236 7.446 0.215 0 0.643 0.203 0.856 0.409 1.697-3.114 2.297-6.313 1.74-9.356-0.145-0.795-0.373-1.577-0.669-2.338-4.701-3.691-11.11-4.101-15.811 2.052z" style="fill:#85340a"/>
  </g>
 </g>
</svg>
