<?xml version="1.0" encoding="UTF-8" standalone="no"?>
<svg id="American_Samoa" xmlns:rdf="http://www.w3.org/1999/02/22-rdf-syntax-ns#" xmlns="http://www.w3.org/2000/svg" viewBox="0 0 640 480" version="1.1" xmlns:cc="http://creativecommons.org/ns#" xmlns:dc="http://purl.org/dc/elements/1.1/">
 <g id="flag">
  <path style="fill:#000066" d="m0 0v480h640v-480h-640z"/>
  <path style="fill:#bd1021" d="m586 0-586 146.5v187l586 146.5h54v-480h-54z"/>
  <path style="fill:#ffffff" d="m640 13.93-640 160v132.14l640 160v-452.14z"/>
  <g>
   <path style="stroke-linejoin:round;fill-rule:evenodd;stroke:#000000;stroke-width:1.7609;fill:#9c3900" d="m478 297.4s-6.393-5.23 1.162-13.657c-4.068-3.486-0.29-10.169-0.29-10.169s-6.975-2.616 0.29-13.367c-5.231-3.487-2.906-11.333-2.906-11.333s-17.144-6.393-0.871-12.494c-13.367 5.811-25.862-7.847-25.862-7.847l-19.468 0.582c-3.302-16.172-28.126-17.606-9.888-48.52-4.94-0.872-10.461-2.324-15.982 1.744-5.522 4.067-21.212 12.784-30.511 4.067s6.101-21.212 6.393-21.502c0.29-0.29 20.63-10.751 23.536-17.725-0.29-5.231-6.682-9.298-0.872-20.631 6.683-10.752 47.651-20.922 66.26-24.409 9.007-4.068 13.076-11.914 13.076-11.914l2.034 7.555s41.262-12.204 43.296-18.016c2.034-5.8116 0.872 5.2303 0.872 5.2303 16.272-1.4529 36.903-15.4 39.809-9.0079 13.657-2.6151 39.81-14.238 39.81-14.238s9.007-0.2905 2.614 9.5891c4.068 6.3927-1.162 11.914-1.452 11.914-0.292 0 1.742 6.3927-3.488 9.8796 1.745 5.521-3.197 9.8793-3.197 9.8793s2.326 6.684-6.973 10.171c0.872 5.811-5.23 6.974-5.23 6.974s0.872 6.102-3.196 8.717c0 4.649-4.649 6.974-4.649 6.974s2.905 1.743-1.164 4.649c-4.067 2.906-46.201 28.767-46.201 28.477 0-0.291 30.801 5.521 32.835 6.683 2.035 1.163 25.281 16.564 25.281 16.564l-23.538 29.057s-26.151-2.905-27.313-1.452c-1.162 1.452 5.52 2.034 6.973 4.358 1.454 2.325 3.778 7.847 8.427 7.265 4.65-0.582-8.717 8.427-17.434 9.299 0 3.196 11.041 3.486 13.947 0.872 2.906-2.616-6.974 7.555-8.137 9.007-1.162 1.452 13.077-2.034 13.077-2.034s-2.325 9.589-14.819 12.495c4.939 8.137 2.905 13.367 2.614 13.367-0.29 0-8.136-8.137-15.691-6.684 2.034 7.846 8.137 15.11 9.881 16.273 1.742 1.162-13.658 0.871-15.692-3.488-2.034-4.358-3.778 10.461 1.743 15.111-6.392 0.29-11.914-3.488-11.914-3.488s-3.776 8.717-1.162 13.077c2.616 4.359-9.007-8.718-9.007-8.718l-22.084 9.299-4.941-8.427z"/>
   <path style="fill-rule:evenodd;stroke:#000000;stroke-width:1.4087pt;fill:#ffc221" d="m307.32 280.1c0.518 0 32.082-0.519 46.572-8.798 7.244 11.384 17.076 19.146 17.076 19.146l4.658-16.558s11.384 0.517 12.418 3.105c-1.552 3.103-2.069 7.243-2.069 7.243s7.761 0.519 8.279 1.553c0.517 1.035-2.07 9.831-2.07 9.831l33.117 7.762s2.587-12.936 5.175-11.384c2.587 1.553 13.972 17.594 30.012 18.629 16.041 1.035 17.077-13.455 17.077-13.455l3.621 2.071s6.727-14.488 7.762-14.488c1.036 0 2.588 2.069 11.384 2.069 2.588 3.105 3.623 10.348 3.623 10.348s-9.832 9.833-6.728 17.595c3.105 7.762 3.623 5.691 3.623 5.691l71.409 17.076s3.623 5.693-2.586 8.798c0 0.517-71.927-16.559-71.927-16.559s-6.728 7.761-11.902 6.209c-5.175-1.552-1.553 3.105-1.553 3.105l77.618 6.209s5.693 7.245 1.553 9.315c-5.175 0.517-83.828-5.174-83.828-5.174s-4.657 9.831-9.831 1.552c-3.622 5.691-7.762-1.552-7.762-1.552s-6.727 5.174-7.762-0.519c-5.693 4.14-9.314-2.586-9.314-2.586l-33.118-2.071-2.07 3.105s5.692 1.552-3.105 5.175c-8.796 3.622 52.78 2.07 54.332 2.587 1.552 0.518-4.139 5.175-4.139 5.175s31.565 2.07 37.256-4.657c5.693-6.728-2.069 8.796-2.069 8.796s24.838-1.034 24.838-2.069c0-1.036-0.518 7.762-17.593 6.726 10.348 6.728 23.284 10.867 23.284 10.867s-12.936 3.105-27.941-0.517c2.586 6.727 13.971 12.936 13.971 12.936s-8.28 7.245-26.909-10.35c5.176 9.315 1.035 12.938 0.518 11.902-0.518-1.035-9.314-13.971-30.012-18.628 12.936 8.279 7.244 11.902 7.244 11.902s-6.727-11.902-17.594 0c-4.14-10.867-20.18-17.076-39.843-18.112-6.209-7.243-9.831-5.174-24.32-9.314-8.279-9.313-20.181-19.663-20.181-19.663s0.518-13.971 14.489-12.419c1.552 4.657 1.552 3.105 1.552 3.105s15.524-5.693 20.181 2.069c6.727-11.902 16.041-1.779 17.594 2.36 4.458 0.654 26.907 1.262 26.907 1.262s-2.588-4.657-1.036-4.139c1.553 0.517 13.972-4.657 13.455-6.209-0.519-1.553-1.036-6.727 1.034-6.21s-17.594-2.588-28.46 5.693c-3.622-3.623-1.035-13.455-1.035-13.455l-32.081-6.726-1.553 8.279s-9.314 1.552-8.796-0.517c0.517-2.071-2.07 7.243-2.07 7.243s-12.419-3.105-12.419-3.622 3.622-18.628 3.622-18.111c0 0.518-10.349 1.035-24.838 11.902-4.14-12.936-36.739-30.012-36.739-30.529z"/>
   <path style="fill-rule:evenodd;stroke:#000000;stroke-miterlimit:2;stroke-width:1.761;fill:#ffc221" d="m347.69 237.67s-21.734 18.627 0 29.493c1.034-7.244 2.587-8.278 2.587-8.278s18.11 6.726 28.977-9.315l-12.937-4.139s-17.076 0-18.628-7.761z"/>
   <path style="stroke:#000000;stroke-width:1.4087pt;fill:none" d="m365.8 245.95-15.01 12.94"/>
   <path style="stroke:#000000;stroke-width:1.4087pt;fill:none" d="m455.91 338.36s0.582-5.23-1.162-5.23c-1.742 0-9.589 7.265-9.879 13.657m19.465-6.976c0-0.29-2.034-5.811-2.034-5.811s-5.811 3.197-6.392 5.521c-0.581 2.325-0.872 8.717-2.325 9.299m18.894-8.713c-0.291-0.58-3.197-6.101-3.197-6.101l-4.94 6.101s-0.58 8.719-2.324 9.591m17.434-0.575-0.581-9.589-2.324-3.196-4.068 4.068s-0.582 9.589-2.325 10.461m-13.072-24.706c-0.291 0-6.102 0.292-6.102 0.292m33.416-12.491s5.813-4.65 7.555 1.452c1.744 6.103-4.649 19.76-7.265 20.05m-8.136-24.122s6.392-3.777 7.264 2.325c0.871 6.101-5.23 17.434-9.589 19.178-4.359 1.743-9.298-0.291-8.718-3.196m7.267-21.505s3.487 1.162 2.616 3.778c-0.872 2.614 0.871 10.169-9.298 17.434-10.753 2.324-9.589-9.007-9.589-9.007m9.58-10.458s0.29 10.461-8.427 10.17-5.812 0.291-5.812 0.291m-59.137 24.432c-0.518-1.035-20.698-7.245-20.698-10.35 4.657 1.553 11.384 3.622 17.593 2.07m-1.035 15c-0.518 0-11.385-4.139-16.041-5.176 4.139 4.14 7.244 9.833 17.593 11.902m30.531 0.528s-16.558 0.517-18.11-1.035c-1.553-1.552 16.04 11.384 19.145 10.35m32.086 2.589s-16.042-10.348-18.629-9.314c-2.587 1.035 16.041-0.517 17.594-2.07m30.012 7.749c-0.517 0-16.558 2.07-18.629 1.553-2.069-0.517 25.356 8.279 25.356 11.901m-103.5-95.722-6.727 30.013m32.763 21.025s3.459 3.813 0.354 8.47m80.154-28.854s2.907-1.453 4.939 0.29m2.359 5.274-2.07 9.313m-72.445-26.386-3.105 9.314m-30.014-17.076-2.069 9.831m93.108 30.359c-1.162 0.29-6.102 0.58-7.845-3.196m-37.135 3.365 10.349 1.552m36.223 1.561-5.691 0.519"/>
   <path style="stroke-linejoin:round;fill-rule:evenodd;stroke:#000000;stroke-width:1.4087pt;fill:#ffffff" d="m348.4 237.82s2.905-2.906 3.777-6.392c0.872-3.487-1.162-7.265 2.325-10.461 3.487-3.197 49.397-22.665 53.176-26.443 3.777-3.777 10.751-11.913 11.623-13.657 0.871-1.743 3.487 8.717-4.359 13.367 8.427-2.325 13.948-4.94 17.434-3.778-3.487 4.94-12.785 13.077-17.144 13.077 10.171-3.778 19.469-6.975 22.085-4.941 2.614 2.035-12.496 12.205-18.598 12.786 10.17-2.615 23.828-6.683 25.571-2.325-5.521 1.744-3.778 3.195-15.11 9.589-1.453 1.164-8.717 1.453-8.717 1.453 8.717-0.872 20.631-4.359 21.793 2.034-6.973 2.615-9.589 6.102-15.401 7.555-5.811 1.454-19.178 4.068-27.315 7.265-8.136 3.196-20.05 12.495-20.05 12.495l-25.86 0.58z"/>
   <path style="stroke:#000000;stroke-width:1.2233pt;fill:none" d="m373.39 230.42c0 2.647-2.146 4.794-4.794 4.794s-4.795-2.147-4.795-4.794c0-2.648 2.147-4.794 4.795-4.794s4.794 2.146 4.794 4.794zm-7.554-3.345s6.393 2.326 4.94 7.265m-10.171 1.455s0.291-5.811 2.906-7.845 15.692-6.975 18.598-11.333c2.905-4.359-4.359 7.555-3.197 10.751"/>
   <path style="fill-rule:evenodd;stroke:#000000;stroke-width:1.4087pt;fill:#ffffff" d="m570.12 220.1 50.269 9.589s5.522-6.393 2.616-9.879c7.555-1.743 5.521-11.623 5.521-11.623s8.717-3.777 1.452-12.496c4.942-4.939-1.162-8.717-1.162-8.717s2.034-8.717-4.359-9.589c1.744-6.973-11.041-9.298-11.041-9.298s-26.443 7.264-45.04 7.846c6.102 6.102-2.325 9.879-2.325 9.879s4.941 3.487 3.487 6.393c-1.453 2.906 0.872 6.102-5.521 8.137 8.427 3.778-0.872 10.169-0.872 10.169s9.299 6.393 6.975 9.589z"/>
   <path style="stroke:#000000;stroke-width:1.76;fill:none" d="m567.5 185.23s57.244-9.007 57.825-7.555m-55.796 14.82s58.988-6.393 59.57-5.521m-61.303 18.307s58.697-3.487 62.765-9.59m-63.061 11.04 61.893 1.453m-64.217 1.168s44.459 5.23 46.493 5.23 9.879 2.616 11.333 5.231"/>
   <path style="stroke:#000000;stroke-width:1.76;fill:none" d="m524.85 168.28s2.444 3.056-12.833 11m4.888-8.556s-7.639 5.806-14.056 8.556m9.478-11.917s-13.445 11-16.5 10.389m12.217-14.667c0 0.305-18.945 11.306-18.945 11.306m11.606-18.029-21.695 13.445m16.201-18.638c0 0.611-28.723 16.5-28.723 16.5m22.919-22.917s6.417-0.306 5.501 6.722c7.334-2.444 5.805 4.584 5.805 4.584s8.555-3.362 7.028 7.333c5.5-1.222 4.583 4.278 4.583 4.278s4.89-0.306 4.89 2.444c3.361-3.055 7.028-1.527 7.028-1.527s2.444-3.362 5.954-2.597c0 0 5.343 1.68 0.454 6.569-2.444 3.361-9.472 2.445-13.751 8.556m-36.057-44.001c0.612-0.306 11.918-0.612 7.945 8.25-5.803 4.278-30.861 16.806-30.861 16.806m-8.554-5.195c0.306 0 22.305-14.362 29.639-16.195 3.973-5.5 1.834-11.305-4.888-10.083m-37.894 20.778s27.195-14.056 31.473-15.583c4.277-1.528 14.055-13.75-0.611-13.75m-53.162 19.555s7.639 3.973 13.75 0c6.113-3.972 35.446-18.944 43.085-21.389 7.638-2.445 11.917-16.5 13.445-22.611m56.827 56.528c-0.917 0-22.305 7.945-27.806 12.834m10.395-55.002c0 0.306 5.195 4.583 3.361 9.472 4.584 3.362 3.667 7.028 3.667 7.028s6.416 3.667 5.501 8.862c6.416 1.528 6.11 5.194 6.11 5.194l-2.139 3.361s6.416-0.305 0.917 7.945c3.361 1.833 1.834 3.972 1.834 3.972m24.756-17.722s3.361 2.139-0.915 5.195c-4.89 2.444-24.14 12.528-24.14 12.528l-12.529 8.25m41.247-34.528s3.055 3.667-3.667 7.945c-7.334 3.972-23.222 10.083-23.222 10.083m25.058-26.279c2.139 0.917 7.945 1.834 0.917 7.334-8.25 3.666-28.417 11.611-28.417 11.611l-1.834 3.361-32.083 13.75m59.585-44.307s7.334 2.139 0.917 8.25c-7.639 4.584-32.084 12.834-32.084 12.834s-2.444 3.056-6.417 4.278c-3.972 1.222-29.333 11.611-29.333 11.611m65.086-45.222s7.028 3.056 0 8.25c-7.945 4.584-35.751 13.139-35.751 13.139s-0.306 2.445-1.527 3.362c-1.223 0.916-37.89 13.139-37.89 13.139m73.027-47.362s6.418 1.5277 1.528 9.778c-12.834 4.889-38.807 12.833-38.807 12.833s-1.221 2.139-4.582 3.973c-3.361 1.833-40.334 12.222-40.334 12.222m79.138-48.28c0 0.3055 6.112 3.6667 2.445 9.1668-6.75 3.993-38.53 11.633-38.53 11.633m-49.509 18.945 47.671-15.89s3.972-8.25-1.833-9.472m4.58-5.4994s42.778-4.2778 42.778-20.167m-89.829 37.584 42.78-12.528s7.028-5.8059 7.333-16.5m32.691 63.862s1.528 0.611 1.222 2.445m19.866-15.585-12.222 5.805m16.194-12.833c-0.611 0-13.75 5.805-13.75 5.805m17.723-14.36-15.89 6.417m21.384-14.057c-0.917 0-25.667 7.639-25.667 7.639m32.091-17.416-34.529 10.389m37.881-20.167-39.111 11.917m42.478-22.001-44.918 12.528m-2.442-7.9456s44.917-12.222 49.196-16.806m-75.483 150.45s6.393-1.742 7.265-0.87m-15.69-37.48s37.486 1.453 39.228 3.487m-27.606 4.94s26.733-1.743 30.221 3.778m-20.628 4.943c0.29 0 15.692 0.582 15.692 0.582m-24.116 4.349s22.375 4.648 23.828 6.102m-67.12 4.07s7.264 6.102 22.376-2.033m-33.702 0.3s14.819 7.845 27.023-12.495m-47.942 6.099s12.203 18.016 30.219-1.452m-74.971-34.582s5.811 8.426 8.136 9.298 22.667 2.034 23.829 10.752c1.162 5.52-4.359 3.777-3.487 7.845 1.453 5.23 15.11 11.913 29.93 4.068m1.853 81.254 3.624 2.186m-4.187-12.624 4.188 2.872m-4.498-16.509s2.624 2.625 4.874 2.25m1.874-16.492c-0.375 0.375-6.749 4.874-8.999 3.75m11.436 20.142s-5.521 9.009 1.163 15.11m1.739-27.887s-6.973 9.299-1.453 13.948m5.82-28.768s-7.845 13.368-1.743 17.436m-24.699-34.579c0.292 0 14.82 1.162 18.598 5.52 3.777 4.359 8.427 13.076 11.041 14.53 2.616 1.452 3.197-0.582 3.197-0.582m0 36.894c0 0.29-0.58 6.392-0.29 6.974m8.714-17.723s-3.196 13.658 4.94 22.084m0-26.732s2.034 10.459 9.299 14.237m0-20.041s6.683 4.94 6.973 7.555m-2.62-11.345s9.589 6.393 15.982 5.229m-19.18-12.483s9.589 4.358 20.922 1.742m-25.57-13.956s8.426 7.265 19.179 4.068m-135.69-92.71s18.016 19.76 16.272 33.126m28.77 47.07 15.692-0.872s5.81-2.324 1.742-6.101"/>
  </g>
 </g>
</svg>
