<?xml version="1.0" encoding="UTF-8" standalone="no"?>
<svg id="Azerbaijan" xmlns:rdf="http://www.w3.org/1999/02/22-rdf-syntax-ns#" xmlns="http://www.w3.org/2000/svg" height="480" width="640" version="1.0" y="0" x="0" xmlns:cc="http://creativecommons.org/ns#" xmlns:dc="http://purl.org/dc/elements/1.1/">
 <g id="flag" stroke-width="1pt">
  <rect fill-rule="evenodd" height="160" width="640" y="160" x="0" fill="#cc3333"/>
  <rect fill-rule="evenodd" height="160" width="640" y="0" x="0" fill="#0099cc"/>
  <rect fill-rule="evenodd" height="160" width="640" y="320" x="0" fill="#009933"/>
  <path d="m307.96 365.94c-69.89 0.141-126.65-56.525-126.71-126.42-0.169-69.89 56.412-126.7 126.3-126.81 69.89-0.225 126.75 56.318 126.83 126.41 0.09 70.092-56.535 126.81-126.42 126.81z" fill="#ffffff"/>
  <path d="m337.48 343.43c-57.465 0.141-104.14-46.472-104.19-103.94-0.141-57.465 46.389-104.18 103.85-104.27 57.465-0.183 104.21 46.306 104.28 103.94 0.07 57.631-46.486 104.27-103.95 104.27z" fill="#cc3333"/>
  <polygon fill-rule="evenodd" transform="matrix(14.068,0,0,14.068,-494.02,-182.71)" points="69.31 30.957 70.536 33.536 67.957 32.31 67 35 66.043 32.31 63.464 33.536 64.69 30.957 62 30 64.69 29.043 63.464 26.464 66.043 27.69 67 25 67.957 27.69 70.536 26.464 69.31 29.043 72 30" fill="#ffffff"/>
 </g>
</svg>
