<?xml version="1.0" encoding="UTF-8" standalone="no"?>
<svg xmlns:rdf="http://www.w3.org/1999/02/22-rdf-syntax-ns#" xmlns="http://www.w3.org/2000/svg" version="1.0" xmlns:cc="http://creativecommons.org/ns#" xmlns:xlink="http://www.w3.org/1999/xlink" viewBox="0 0 640 480" xmlns:dc="http://purl.org/dc/elements/1.1/">
 <defs>
  <linearGradient id="a">
   <stop stop-color="#d5dfff" offset="0"/>
   <stop stop-color="#fff" offset="1"/>
  </linearGradient>
  <linearGradient id="f" x1="109.34" gradientUnits="userSpaceOnUse" y1="218.47" gradientTransform="matrix(1.2996 0 0 .56097 372.14 11.706)" x2="110.94" y2="173.45">
   <stop stop-color="#474747" offset="0"/>
   <stop stop-color="#f50" offset="1"/>
  </linearGradient>
  <linearGradient id="e" x1="125.91" gradientUnits="userSpaceOnUse" y1="316.38" gradientTransform="matrix(1.0598 0 0 .68785 372.14 11.706)" x2="126.02" y2="337.23">
   <stop stop-color="#b50000" offset="0"/>
   <stop stop-color="#ffc500" offset="1"/>
  </linearGradient>
  <linearGradient id="d" x1="407.87" xlink:href="#a" gradientUnits="userSpaceOnUse" y1="149.38" gradientTransform="matrix(.48110 0 0 1.5152 372.14 11.706)" x2="456.4" y2="147.35"/>
  <linearGradient id="c" x1="117.6" xlink:href="#a" gradientUnits="userSpaceOnUse" y1="1040.4" gradientTransform="matrix(2.2054 0 0 .33054 372.14 11.706)" x2="78.221" y2="1003.7"/>
  <linearGradient id="b" x1="264.72" xlink:href="#a" gradientUnits="userSpaceOnUse" y1="245.98" gradientTransform="matrix(.76278 0 0 .95568 372.14 11.706)" x2="255.03" y2="226.38"/>
 </defs>
 <g id="flag">
  <rect style="stroke-width:1pt;fill:#000066" height="480" width="640" y="0" x="0"/>
  <g>
   <path style="stroke-width:1pt;fill:#ffffff" d="m0 0v32.946l403.22 261.74h50.755v-32.945l-403.22-261.74-50.76 0.00098227zm453.98 0v32.945l-403.22 261.74h-50.76v-32.94l403.22-261.74h50.76z"/>
   <path style="stroke-width:1pt;fill:#ffffff" d="m189.16 0v294.68h75.663v-294.68h-75.66zm-189.16 98.227v98.227h453.98v-98.227h-453.98z"/>
   <path style="stroke-width:1pt;fill:#cc0000" d="m0 117.87v58.937h453.98v-58.937h-453.98zm204.29-117.87v294.68h45.398v-294.68h-45.398z"/>
   <path style="stroke-width:1pt;fill:#cc0000" d="m0 294.68 151.33-98.227h33.836l-151.33 98.23h-33.84zm0-294.68 151.33 98.227h-33.84l-117.49-76.263v-21.964zm268.82 98.227 151.32-98.227h33.836l-151.33 98.227h-33.836zm185.16 196.45-151.33-98.227h33.836l117.49 76.263v21.964z"/>
  </g>
  <g>
   <path style="fill-rule:evenodd;stroke:#000000;stroke-width:.86059pt;fill:#6a4c2d" d="m463.75 349.95s-2.88 7.61-4.524 7.61c-1.646 0-7.61-3.291-7.61-3.291s-4.319 6.992-6.58 7.403c-2.263 0.412-8.227-1.028-8.227-1.028s-5.758 0-5.964-0.822c-0.205-0.823 0.206-2.468 0.206-2.468s-8.227 6.581-10.078 6.17c-1.851-0.412-8.02-8.227-8.02-8.227l-1.031 4.122-11.722-0.413-10.284-6.583s-5.758 9.46-5.964 9.255c-0.205-0.206-10.077 2.262-10.077 2.262l-0.617-1.851-6.581-3.907s5.141-7.198 5.141-7.404c0-0.205-2.467-1.028-2.467-1.028l-3.702 3.085-7.61 4.935-7.609-3.496 3.291-6.17 0.411-4.524 5.964-9.049 73.008-70.951 35.99 66.427-5.347 19.948z"/>
   <path style="fill-rule:evenodd;stroke:#000000;stroke-width:.86059pt;fill:#ffffff" d="m515.62 354.25 19.004-0.682-8.089-3.996 72.41-2.729-10.233-3.897-9.064-12.28-37.52-2.826s-2.827-2.145-7.408-1.073c-0.194-2.923-3.703-6.724-3.703-6.724l-23.097-1.754-14.424 9.843 9.746 24.949 12.377 1.169z"/>
   <path style="fill-rule:evenodd;stroke:#000000;stroke-width:.86059pt;fill:url(#f)" d="m441.68 141.44 1.914-6.508s3.349-5.646 3.349-8.135c0-2.487 2.488-5.454 2.488-5.454s7.656-2.201 9.282 2.488c8.23-12.441 17.896-0.574 17.896-0.574l2.679-3.158 5.455-6.698s7.751 7.273 7.848 8.516c0.09 1.244 1.339 0.383 1.339 0.383l8.421-0.67s3.997 3.129 3.158 9.092c2.968 1.75 5.646 12.057 5.646 12.057l-69.476-1.339z"/>
   <path style="fill-rule:evenodd;stroke:#000000;stroke-width:.86059pt;fill:#656263" d="m515.63 218.86c1.451-0.893 6.028-2.344 5.469-9.04-0.557-6.697-6.362-7.479-9.599-7.255-3.236 0.223-6.138 3.014-6.138 3.014l-10.715-6.809s5.357-33.82 11.049-35.94c5.407-3.896 6.363-5.581 6.363-6.474s-2.01-3.125-2.01-3.125l-34.935-4.129-33.038 3.906s-2.567 3.906-2.233 5.469c0.335 1.563 0.447 3.237 6.363 7.813 6.545 5.034 11.05 33.932 11.05 33.932s-9.265 4.575-9.822 4.018c-0.558-0.559-3.349-1.117-4.8-0.894-1.451 0.224-6.25 2.679-6.25 9.041s4.799 10.046 4.799 10.046 31.587-3.684 36.275 5.023c4.576-10.492 34.601-6.809 38.172-8.595z"/>
   <path style="stroke-linejoin:round;fill-rule:evenodd;stroke:#474747;stroke-width:1.0757;fill:#474747" d="m471.2 150.64c-1.581 0-9.483 0.915-11.479 2.08-1.997 1.165 3.244 2.994 2.578 4.575-0.665 1.58-0.748 4.741-3.244 4.076-2.495-0.665-10.896-4.825-11.146-6.238-0.25-1.414-1.997-1.498-1.997-1.498s24.124-3.244 25.289-2.995zm31.196 4.329s-8.817-3.744-8.817-0.499c0 3.244 0.249 3.576 1.663 5.657 1.414 2.079-1.081 3.41-1.081 3.41s-0.333-0.915-0.832-2.33c-0.499-1.414-5.24-2.412-5.656-4.075-0.416-1.664 0.998-4.326-1.83-4.659-2.829-0.333-5.574 1.165-6.156 4.409-0.582 3.245-4.243 10.814-4.243 10.814l0.5-17.219c6.21 0.444 17.746 1.802 26.618 2.829-2.661-0.417 0.999 0.166 0.915 1.08-0.249 0.749-1.164 0.833-1.081 0.583zm-1.385 11.102s-11.273 14.845-9.934 31.028c-2.325-7.749-0.447-20.537-0.447-20.537l-2.455 1.563s-2.567 10.938-5.804 12.613c-0.546-1.303-0.446-1.786-0.446-1.786s-3.461 4.464-4.13 4.911c-0.67 0.446 0.223 15.068 0.223 15.068s1.162 10.597 2.501 10.486c-1.523 0.747-3.394 1.906-3.394 1.906l-1.389-28.298 3.175-3.18s4.241-5.134 4.577-10.156c-1.842 1.561-3.908 2.008-3.908 2.008s-0.557 7.144-2.232 8.148c-1.674 1.005-1.719 2.868-1.719 2.868l-0.399-9.336 25.78-17.306zm-52.935 0.602c1.088 1.374 9.744 11.9 11.307 20.606s-0.893-11.943-0.893-11.943 10.715 5.246 11.05 8.594c0.336 3.349 5.123-0.226 5.352-0.798l-31.023-20.15 4.207 3.691z"/>
   <path style="stroke-linejoin:round;stroke:#000000;stroke-width:1.0757;stroke-opacity:.97854;fill-rule:evenodd" d="m549.66 183.71s0.35-3.671 2.972-5.419 20.102-2.622 24.298 0c4.195 2.622 5.768 15.558 5.768 15.558s2.622 4.545 2.797 7.866 0.524 5.593 0.524 5.593 13.985 18.18 14.159 34.612c1.574 11.187 1.224 41.078-3.146 52.44-0.175 14.159-6.118 23.424-6.118 23.424s1.399 2.447 1.224 5.069c-0.176 2.622-1.574 5.07-1.574 5.07l20.452 10.138-7.517-2.797s7.692 6.468 7.517 6.293-8.565-4.021-8.565-4.021l5.069 5.07c-0.175-0.176-12.411-5.594-12.411-5.594s5.768 5.419 5.419 5.244c-0.35-0.175-9.264-4.37-9.264-4.37s5.593 5.943 5.419 5.594c-0.175-0.35-8.042-3.496-8.042-3.496l0.35 2.971s-6.293-0.349-6.293-5.069c-3.146-1.748-5.244-4.196-5.244-4.196l-14.508-2.446-16.432-49.12 3.846-83.032 1.049-4.195-1.749-11.187z"/>
   <path style="fill-rule:evenodd;stroke:#000000;stroke-width:.85476pt;fill:#ffbb00" d="m538.67 449.05s-8.416-17.71-12.613-17.958c-3.787-7.218 13.159-66.233 45.939-69.597 18.022 1.485 1.482 20.776-10.367 14.839 1.48 5.194 7.405 12.614 7.405 12.614s-23.453 10.14-30.364 60.102z"/>
   <path style="fill-rule:evenodd;stroke:#000000;stroke-width:.86059pt;fill:#ffbb00" d="m425.83 451.64s6.966-20.152 11.196-20.401c4.229-0.248-11.196-67.171-44.781-67.669-18.161 1.493-1.493 20.898 10.449 14.927-1.492 5.225-7.463 12.688-7.463 12.688s23.634 10.2 30.6 60.455z"/>
   <path style="fill-rule:evenodd;stroke:#000000;stroke-width:.86059pt;fill:#00713d" d="m456.64 325.76c-0.08-0.162-8.335 2.59-2.994 11.573 0.405-3.48 4.128-5.584 4.128-5.584s-5.665 6.717 0.323 12.382c0.728-5.341 4.128-7.04 4.128-7.04s-4.208 12.382 0.08 14.89c0.486-4.937 3.642-7.122 3.642-7.122s-3.804 11.088-0.404 13.597c0.404-4.209 3.236-6.07 3.236-6.07s-1.699 11.492 2.753 12.301c0.08-4.045 3.317-8.012 3.317-8.012s-1.457 9.388 5.504 9.793c0.08-3.561 1.376-7.608 1.376-7.608s3.156 9.955 7.768 8.336c-0.08-2.913 0.08-8.417 0-8.417s2.914 9.469 8.417 7.689c-0.809-2.671 0.324-5.827 0.324-5.827s2.913 5.908 8.174 3.965c0.89-1.78-0.243-5.26-0.243-5.26s7.688 7.932 10.035 3.156c2.348-4.774-6.151-6.393-6.151-6.393h5.747s-1.862-4.856-9.631-5.908c2.671-1.214 5.422-0.324 5.422-0.324s-1.619-6.069-9.55-6.717c3.076-1.052 6.475-0.324 6.475-0.324s-1.052-5.745-9.792-7.364c1.376-1.538 5.098-1.053 5.098-1.053s-3.48-5.421-7.445-5.098c-3.966 0.324-39.818-3.642-39.737-3.561z"/>
   <path style="stroke:#3ec26d;stroke-width:1.0757;stroke-linecap:round;fill:none" d="m471.21 355.21s1.862 1.942 1.781 2.347m-0.08-5.178s1.942 1.861 1.78 2.913m1.455-3.395s2.105 2.428 2.024 4.37m1.944-4.207s1.861 3.237 1.213 4.856m2.513-3.16s0.566 2.913 0 3.398m14.725-18.209s-1.7 1.295-0.81 2.914m-1.944-5.504s-0.972 3.803-0.567 5.341m-3.96-6.064s2.591 3.075 1.619 6.474m-5.104-5.106s2.994 1.7 2.67 4.937m-4.847-2.829s2.346 0.891 2.185 3.157m2.505 3.315c0 0.08 0.08 4.775 0.08 4.775m-3.153-6.393s0.972 4.128 0.243 5.422m-5.019-5.826c0.08 0 2.509 4.289 2.104 5.664m-7.044-4.287s3.722 0.242 4.128 4.208m-6.227-1.781s3.56 0.809 4.046 3.48m-2.515-10.684s1.376 2.185 0.162 2.913m-2.184-3.963s1.133 2.186 0.08 3.4m-4.366-5.663s2.509 3.48 1.7 5.908m-6.399-3.077s1.781 1.699 1.377 2.833m-1.136-5.75s3.804 2.428 3.481 5.827m36.425 11.574c0.243 2.751-0.244 2.994-0.244 2.994m-3-4.853s1.618 3.481 1.051 4.128m-6.473-5.427s3.237 2.023 3.399 5.18m-6.953-3.717s4.046 2.832 3.965 4.936m-5.833-2.432s3.156 1.538 3.075 2.914"/>
   <path style="fill-rule:evenodd;stroke:#000000;stroke-width:.86059pt;fill:#ffffff" d="m430.95 222.36c8.922-0.159 17.844-0.318 26.767-0.477 0 0 17.686 0 19.598 5.735 3.345-7.648 18.641-7.169 18.641-7.169 9.241-0.319 18.482-0.638 27.723-0.956 0.159 22.306 0.32 44.612 0.479 66.918-5.418 25.971-24.219 44.294-44.932 52.101-24.695-7.967-40.311-28.839-45.409-52.579-0.956-21.191-1.911-42.382-2.867-63.573z"/>
   <path style="fill-rule:evenodd;stroke:#000000;stroke-width:.86059pt;fill:#006b00" d="m440.49 222.11 38.991 103.91 35.224-106.17c-10.926 0.705-34.371-1.719-37.283 8.251-4.507-8.924-29.17-5.326-36.932-5.986z"/>
   <path style="fill-rule:evenodd;stroke:#006b00;stroke-width:.59310;stroke-linecap:round;fill:#ffc900" d="m467.03 278.36c1.499 0.785 1.458-28.199 3.427-29.099 0.563-2.4 0.846-3.451 1.549-6-1.689-3.001-9.286-2.85-12.1-0.3 1.266 4.05 1.829 5.4 1.829 5.4 3.799 6.15 3.044 30.653 5.295 29.999z"/>
   <path style="stroke-linejoin:round;fill-rule:evenodd;stroke:#000000;stroke-width:.94570;fill:#cdad56" d="m439.4 54.342s-2.339-3.4741-2.446-4.1577c-0.106-0.6835-11.51 0.8639-16.907-13.045-3.509-6.6077 0-2.7342 0-2.7342l0.213-3.1898s-3.734-4.5683-2.139-6.9608c1.594-2.3924 0.938 3.076 2.989 3.0872 2.552-0.1139 1.17-5.9241 1.17-5.9241s0.212-0.6836 0.957-1.0253c1.063 0.1139 1.496 3.5416 2.454 3.7695 0.956 0.228 2.933-4.0338 3.559-4.9101 0.876-0.1253 0.843-3.5304 2.226 3.6469-0.744 7.633-7.069 6.152-7.069 11.164 0 5.0128 4.041 8.8865 5.21 9.0001 1.17 0.1139 0.744-4.2152 0.744-4.2152s0.638-2.0508 1.063-2.0508c0.426 0-3.715 0.7964-3.291-4.8998 0.958-5.3332 3.079 0.3428 4.78 0 1.702-0.3418-0.199-5.64 0.288-6.4487 0.114-0.8088 2.622-4.2828 3.59 3.384 0.32 3.5318 2.247-3.0398 2.991-2.8119 1.276 2.8481-0.565 6.6515-2.372 9.272-2.657 2.6204-3.859 5.491-3.752 6.8581 0.106 1.3671 0.737 3.0659 2.651 3.0659s0.645-2.3823 0.752-3.6355c0.106-1.2532 3.296-5.3094 3.296-5.3094 0.625-1.0016 0.105-2.8719 0.768-3.737 1.039 0.011 1.465-1.4348 2.529 2.5526 1.063 3.9875 2.338-2.6202 2.338-2.6202s1.488 4.8987-1.701 7.8608c2.446-0.3418 2.658 0.6836 2.658 0.6836 0 1.3672-1.167 1.9366-1.593 4.3291s1.274 3.7597 1.274 3.7597-1.595 2.3923-6.061-2.2786c-0.106 2.9621 1.702 5.0127 1.702 5.0127-1.489 0.7216-2.658 0.6455-2.871 2.5064zm17.177 0s2.755-3.13 2.88-3.8812c0.125-0.7513 12.52-1.252 19.907-15.024 4.132-7.2617 0-3.0048 0-3.0048l-0.251-3.5056s5.134-4.8829 3.256-7.5122c-1.878-2.6291-1.252 3.3805-4.257 3.2553s-1.377-6.5104-1.377-6.5104-0.25-0.7512-1.127-1.1268c-1.252 0.1252-0.877 2.3787-2.003 2.6292-1.127 0.2504-2.128-5.2585-2.128-5.2585s-1.878-2.504-3.506 5.3837c0.876 8.3884 6.259 6.7609 6.259 12.269 0 5.5088-4.757 9.766-6.134 9.8908-1.378 0.1252-0.877-4.6324-0.877-4.6324s-0.75-2.2537-1.251-2.2537 2.754-0.5007 2.254-6.7608c-1.128-7.5121-2.004 1.7527-4.007 1.3771-2.004-0.3756-0.501-6.886 0.25-7.6372 0.752-0.7512-0.877-3.8812-5.259 4.1317-0.375 3.8812-0.876-1.0018-1.752-0.7513-1.502 3.1301-1.252 5.3837 0.876 8.2633 3.13 2.8796 5.134 5.7593 5.008 7.2616-0.125 1.5025-1.752 4.8829-4.006 4.8829s0.125-4.1316 0-5.5089c-0.126-1.3772-3.881-6.3851-3.881-6.3851s-2.629-4.257-2.379-4.3821c0.25-0.1252-0.25-0.7512-1.503 3.6308-1.252 4.382-2.754-2.8796-2.754-2.8796s-1.752 5.3836 2.003 8.6386c-2.879-0.3756-3.13 0.7513-3.13 0.7513 0 1.5024 3.881 2.1282 4.382 4.7575s-4.006 4.1318-4.006 4.1318 1.878 2.6292 7.136-2.5041c0.126 3.2552-2.003 5.5088-2.003 5.5088 1.753 0.793 3.13 0.7094 3.38 2.7544z"/>
   <path style="fill-rule:evenodd;stroke-width:1pt;fill:#ffc900" d="m448.24 238.63c2.332-2.117 2.609-0.269 3.757-0.741 0.561-0.237 1.002-0.763 1.491-1.241 0.425-0.437 0.929-0.618 1.491-0.855 0.213 0.628 0.425 1.254 0.637 1.881 0.213 0.626-0.591 1.664-0.572 2.605 0.158 1.398 0.728 2.555 2.482 3.035-0.5-0.991-0.783-1.04-0.631-2.249 0.08-0.605 1.766-1.676 1.558-2.249-0.31-0.918-0.839-1.982-0.448-2.901 0.721 0.492 1.66 0.235 2.381 0.533 0.605 0.271 0.646 1.395 1.488 1.864 0.862 0.404 2.765 0.204 4.352-0.698-0.971-0.736-1.773-0.24-2.743-0.976-0.486-0.369-0.463-1.945-0.949-2.314-0.486-0.368-1.648-0.76-2.134-1.129 0.437-0.496 0.414-1.284 0.85-1.781 0.438-0.497 2.373-0.39 2.809-0.887 0.874-0.994 0.708-2.303 1.58-3.297-2.259 0.811-1.931 1.912-2.499 1.828-1.069-0.512-2.138-0.615-2.7-0.378-0.561 0.236-1.63 1.633-2.192 1.869-0.213-0.626-0.522-1.423-0.733-2.049-0.213-0.627 0.953-1.713 0.741-2.339-0.425-1.254-1.478-2.362-1.902-3.615-0.153 1.209-0.353 2.224-0.505 3.433-0.08 0.604-1.266 0.919-1.342 1.524-0.08 0.605 0.621 2.006 0.546 2.611-0.649-0.13-1.588-0.04-2.237-0.171-0.648-0.13-1.079-1.637-1.729-1.767-1.298-0.259-2.232-0.179-3.554 0.07 0.97 0.906 1.724 0.844 2.333 1.678 0.485 0.368-0.19 1.582 1.214 2.434 0.527 0.306 1.914-0.06 2.399 0.307-0.437 0.497-0.873 0.994-1.309 1.492-0.437 0.496-2.397 0.728-2.834 1.225-0.873 0.994-1.335 2.182-1.096 3.249zm59.957-1.024c-2.332-2.116-2.609-0.268-3.756-0.741-0.562-0.236-1.003-0.763-1.491-1.241-0.426-0.436-0.931-0.617-1.493-0.854-0.211 0.627-0.424 1.253-0.636 1.881-0.212 0.626 0.591 1.664 0.573 2.605-0.16 1.398-0.729 2.555-2.483 3.034 0.5-0.991 0.784-1.04 0.631-2.249-0.08-0.604-1.766-1.676-1.558-2.248 0.311-0.919 0.839-1.983 0.448-2.901-0.721 0.491-1.66 0.234-2.381 0.533-0.604 0.27-0.645 1.395-1.487 1.863-0.862 0.404-2.765 0.204-4.353-0.698 0.971-0.735 1.773-0.239 2.744-0.976 0.485-0.368 0.463-1.944 0.948-2.313 0.485-0.368 1.648-0.761 2.133-1.129-0.436-0.497-0.413-1.285-0.849-1.781-0.437-0.498-2.373-0.39-2.81-0.888-0.872-0.994-0.706-2.303-1.58-3.297 2.26 0.811 1.932 1.913 2.499 1.829 1.071-0.513 2.14-0.615 2.701-0.379 0.562 0.236 1.631 1.633 2.193 1.87 0.211-0.627 0.52-1.423 0.733-2.049 0.212-0.628-0.954-1.714-0.741-2.34 0.424-1.253 1.477-2.362 1.902-3.616 0.152 1.21 0.353 2.226 0.505 3.435 0.08 0.604 1.264 0.918 1.341 1.523 0.08 0.604-0.622 2.007-0.545 2.611 0.649-0.129 1.588-0.04 2.236-0.171 0.649-0.129 1.08-1.637 1.729-1.766 1.297-0.259 2.232-0.18 3.554 0.07-0.971 0.905-1.724 0.844-2.332 1.677-0.486 0.369 0.189 1.583-1.215 2.435-0.527 0.305-1.914-0.06-2.399 0.306 0.436 0.498 0.874 0.994 1.31 1.492 0.436 0.497 2.397 0.728 2.833 1.225 0.873 0.995 1.336 2.183 1.096 3.249z"/>
   <path style="stroke-linejoin:round;fill-rule:evenodd;stroke:#006b00;stroke-linecap:round;stroke-width:.59310;fill:#ffc900" d="m506.11 244.3c-2.111 1.65-15.758 5.099-15.898 16.95-0.141 11.849 2.392 14.55-0.141 14.85-4.925 0-5.628-13.2-5.487-19.05 0.14-5.85 0.281-4.95 0.281-4.95s3.376 0.899 3.095 3.75c-0.281 2.85 3.376-7.05 2.111-9.75 2.251 2.25 5.205 1.35 5.205 1.199 0-0.149-1.687-1.949-2.391-3.299-0.703-1.35 2.532 0.749 2.532 0.749s0.141-2.249-2.674-2.099c-3.657 0 0.564-1.2 0.564-1.2s2.11 1.949 3.517-0.151c-1.548-1.649-3.798-2.55-3.798-2.55s-1.97-3.749-4.643-4.499c-3.096-0.75-2.674 1.35-6.191 1.05-0.703 1.35-0.703 1.5 0.704 1.949-2.392 1.651-1.126 4.951-1.126 4.951s3.799-1.65 3.658 1.049c-0.141 2.701-2.252 2.251-3.658 0.601-1.266-0.75-1.688 0.75-1.688 0.75l1.969 2.1s-3.799-0.15-4.784 2.4c2.112-0.15 3.237 0.45 3.237 0.45s-4.362 1.95-4.785 3c-0.421 1.05-0.562-1.201-0.703-1.201-0.14 0-4.22-1.499-4.22-1.499l-1.409 6.486s2.816 2.814 4.363 1.914c1.548-0.901 4.362-3.6 6.05-2.851-4.924 3.751-9.848 9.15-12.521 9.901-0.704-0.6-3.096-3-4.08-1.801-0.986 1.201-0.283 2.701 0.984 2.55 1.266-0.15-4.08 1.201-2.954 3.45 1.125 2.251 0.984 2.1 1.97 1.501 0.984-0.601-0.845-0.75 2.813-1.8s3.517-2.101 3.517-2.101-0.703 1.651-2.672 2.101c-1.97 0.45-3.518 0.45-3.096 1.05 0.422 0.599 1.265 1.649 0.985 2.25-0.282 0.599 4.08-3.151 5.206-0.151 2.955-0.149 4.924-3.749 3.517-5.849 0.141 2.25 1.547 2.999 0.703 4.049s6.613-3.45 2.954-6.15c0.987 2.251 1.126 4.05 1.126 4.05s1.688-0.149 2.111-0.749c0.422-0.601-0.844 1.649-0.281 2.1 0.562 0.45 3.235 3 2.11 4.8-0.703-1.05-0.844-2.701-1.688-2.551-0.845 0.151-4.362 2.701-6.472 2.85-2.111 0.15 2.532 7.801 2.532 7.801s-3.236-0.45-3.657-0.151c-0.423 0.301-2.533-2.699-2.955-0.899-0.704 2.249 0.703 1.349 0.703 1.349s-1.829-0.9-2.814 0.151c-0.984 1.05-1.969 2.1-1.266 2.549 0.704 0.45 3.799 0.45 4.221 0.3 0.422-0.149-3.517 0.301-3.799 0.751-0.282 0.449-0.844 2.1 0 2.699 0.844 0.6 2.955-0.3 3.095-0.749 0.141-0.451 0.282 1.65 0.282 1.65s3.658 0.299 3.658-3.451c0-3.749 0.282 2.7 0.282 2.7s3.657 0.6 3.798-3.15c0.14-3.749 0.421 2.55 0.421 2.55s2.393-0.75 2.393-1.349c0-0.601-0.141 7.499-1.829 9.75-2.674-1.801-4.362 1.199-4.362 1.199s0.141 4.35-0.141 5.4c-0.28 1.05 1.829-0.6 1.97-1.05s2.673-1.65 2.815-1.95c0.14-0.3 0.843-1.8 0.843-1.8s-0.563 2.1-1.547 2.4c-0.985 0.301-1.97 1.35-1.549 2.251 0.423 0.899 1.971 1.5 2.533 2.399 0.563 0.9 2.533-5.25 2.533-5.25l0.14 1.35s2.533-0.599 2.814-1.8c0.282-1.199-2.673-2.249-0.281-4.2 2.391-1.949 0 1.8 0 1.8s0.844 2.85 1.407 2.85 1.969-5.4 0.563-6.75c-1.407-1.349 2.11 1.651 2.11 1.651s1.971-5.55-0.14-6.301c-2.111-0.749-3.096-1.05-3.096-1.05s1.126-1.5 0.563-1.65c-0.563-0.149 2.954 3.301 3.517 2.401 0.563-0.901 1.407-3.601-2.672-5.1-4.081-1.5-0.141-5.701-0.141-5.701s2.533 3 4.361 1.35c1.829-1.649-0.141-1.649-0.141-1.649s5.206-3.3 5.346-4.95c-0.984-0.151-2.673 0.149-2.673 0.149s2.955-1.949 2.252-5.099c-1.126 1.649-2.674 1.65-2.674 1.65s2.533-2.551 2.111-4.95c-1.548 1.2-1.407 2.099-2.392 1.8-0.984-0.3-2.673-9.75 1.266-10.351 3.94-0.599 1.829 4.651 1.97 4.651 0.14 0 5.91-2.4 0-6.301 1.407-0.45 4.361 2.251 4.361 2.251s-1.266-6.601-7.597-2.55c1.548-1.65 2.533-2.701 3.799-2.4 1.266 0.3 5.769-0.15 5.769-1.5-1.126-0.9-3.518 0.45-4.785 0-1.266-0.45 9.005-1.201 8.161-6.3z"/>
   <path style="fill-rule:evenodd;stroke:#006b00;stroke-width:.5931;stroke-linecap:round;fill:#e80000" d="m478.95 297.4s-1.829 2.1-4.08 2.25"/>
   <path style="stroke:#006b00;stroke-width:.5931;stroke-linecap:round;fill:none" d="m475.29 252.85s-2.251 2.1-1.407 4.95m8.305 16.646s0.422 4.799-5.206 2.999m3.515 6s-1.407 3.6-7.598 2.4m8.163 1.951s-1.126-6-0.422-7.5c0.422-1.95 2.251-2.7 3.658-5.25m-2.676-15.45s0.423 3 1.267 3-1.407 0.75-2.251 0.15c0.984 1.35 1.547 3.75 0 4.65m-4.64-6.149s5.205 0.45 8.582-5.1m-12.382-1.2c-0.141 0-1.97 1.95-2.392 1.95m-8.302-8.701s5.628-3.15 8.442 0.75"/>
   <path style="fill-rule:evenodd;stroke-width:1.25;stroke-linecap:round;fill:#006b00" d="m483.73 247.6s2.954-1.2 3.517-1.8 1.548-1.8 1.829-2.7c0.282-0.9-1.969-2.25-0.844-4.2 0.703-0.9 1.688-1.05 3.376 0 1.689 1.05-1.547-3.3-3.235-3.45-1.689-0.15-2.814 1.2-3.236 0.9-0.423-0.3 0.14 1.2-0.563 1.2-0.704 0 1.407 1.2 1.266 1.95s2.251 3.3 2.11 3.9c-0.14 0.6-3.517 4.05-4.22 4.2z"/>
   <path style="stroke-linejoin:round;fill-rule:evenodd;stroke:#ffc900;stroke-linecap:round;stroke-width:.5931;fill:#ffc900" d="m485.85 237.7c1.283-0.312 1.49 0.03 1.266 1.2-0.602-0.324-0.823-0.596-1.266-1.2z"/>
   <path style="stroke-linejoin:round;fill-rule:evenodd;stroke:#006b00;stroke-width:.47448pt;fill:#ffc900" d="m461.2 251.65c-0.646 0.769 0.798 2.451 2.318 2.208 0.38-1.823-1.938-2.775-2.318-2.208z"/>
   <path style="stroke-linejoin:round;stroke-width:1pt;fill:none" d="m461.18 248.13c-0.317 0.857 0.943 2.059 1.671 1.722 0.298-0.878-1.342-2.404-1.671-1.722z"/>
   <path style="stroke-linejoin:round;fill-rule:evenodd;stroke:#006b00;stroke-width:.47448pt;fill:#e80000" d="m463.75 254.43s0.722 0.831 2.147-0.871c-0.646 0.203-1.786-0.405-1.786-0.405s0 1.175-0.361 1.276zm-0.873-4.174s0.285 1.439 1.596 1.054c-0.209-1.114-1.121-1.945-1.121-1.945-0.06 0.324 0.19 0.831-0.475 0.891zm0.928 20.964s-1.805 0.892-1.216 1.864c0.589-0.669 1.235-0.466 1.235-0.486s0-1.358-0.02-1.378zm-4.366 1.46s0.08-2.046 0.988-2.876c0.513 0.303 0.665 0.789 1.007 1.397-0.684 0.162-1.596 0.203-1.995 1.479zm3.171-9.093c-0.02 0-1.653-0.668-2.337 0.547 1.084 0.142 1.464 0.547 1.957 0.952-0.133-0.506-0.361-1.276 0.38-1.499zm1.825 24.143c0.04-0.02 1.329-1.236 1.823-0.425 0.494 0.81-0.398 0.769-0.398 0.769s-0.457-0.222-1.425-0.344zm0.206-4.336c0.04-0.02 2.11-1.357 2.319-0.08-0.438 0.466-0.628 0.77-0.97 0.872-0.266-0.001-0.798-0.872-1.349-0.791zm2.491-2.67s1.007 0.406 1.292 1.499c0.797-0.526 1.178-2.856-1.292-1.499zm7.109 17.691s-1.678-0.284-1.91 0.955c1.158-0.157 1.504-0.29 1.888-0.03 0.111-0.265 0-0.863 0.02-0.925zm0 2.244c-1.064-0.162-2.863 0.779-2.346 1.916 0.865-0.794 1.666 0.07 2.271-0.744 0.185-0.222 0.133-0.888 0.07-1.172zm2.61 3.865s-0.475 3.14 0.684 3.403c-0.06-1.215 0.248-2.046 0.533-2.369-0.248-0.122-1.159-1.013-1.217-1.034z"/>
   <path style="stroke-linejoin:round;fill-rule:evenodd;stroke:#006b00;stroke-width:.47448pt;fill:#ffc900" d="m461.12 248.35c-0.646 0.769 0.268 1.843 1.788 1.6 0.38-1.823-1.408-2.167-1.788-1.6z"/>
   <path style="fill-rule:evenodd;fill:url(#e)" d="m461.73 241.15s6.055-1.731 9.269 0.864c3.213 2.596 3.213 0.247 3.213 0.247s4.697 1.731 6.056 1.36c1.36-0.371-0.988 0.124 0.866-0.989 1.854-1.112-3.708 0.248-4.202-2.1-0.866-1.484 0.123-3.338-1.854-2.72-1.36-1.731 0.865-2.965 0.37-4.82-1.359 0.989-2.101-0.371-3.213 2.102-2.595-0.495-0.371-4.08-3.214-4.451 0 2.596-2.101 2.72-2.224 4.203-1.236 0.865-6.674 4.079-5.067 6.304z"/>
   <path style="fill-rule:evenodd;stroke:#000000;stroke-width:.86059pt;fill:#c01500" d="m392.02 438.19c3.93-0.948 25.221 4.701 33.429 13.502-1.742-15.674-6.085-27.682-6.085-27.682s-12.687-3.619-14.429-1.877c-2.555 2.691-10.227 10.751-12.915 16.057z"/>
   <path style="fill-rule:evenodd;stroke:#000000;stroke-width:.86059pt;fill:#c01500" d="m385.53 365.8c-1.493 0.249-2.986 1.245-4.478 3.732-1.742 4.229-2.986 14.927-5.474 17.415s-4.727 2.736-4.727 4.976c0 2.238 0.249 7.463 6.966 9.453 6.718 0.249 17.415-10.698 17.415-10.698s5.474-5.97 7.713-12.439c-12.937 4.479-22.142-7.464-17.415-12.439z"/>
   <path style="fill-rule:evenodd;stroke:#000000;stroke-width:.85476pt;fill:#c01500" d="m572.63 435.7c-3.9-0.943-25.436 4.673-33.58 13.423 1.728-15.582 6.037-27.52 6.037-27.52 1.504-0.409 12.453-3.597 14.182-1.866 2.535 2.675 10.694 10.688 13.361 15.963z"/>
   <path style="fill-rule:evenodd;stroke:#000000;stroke-width:.85476pt;fill:#c01500" d="m578.66 363.72c1.482 0.247 2.006 2.194 3.215 4.666 1.727 4.204 3.508 10.33 5.977 12.803 2.469 2.474 4.691 6.137 4.691 8.364 0 2.224-0.521 5.233-7.186 7.211-6.666 0.247-16.324-8.311-16.324-8.311s-5.431-5.937-7.653-12.367c12.837 4.453 21.151-7.01 17.28-12.366z"/>
   <path style="fill-rule:evenodd;stroke:#000000;stroke-width:.86059pt;fill:#ffbb00" d="m378.07 424.52s13.433 9.205 13.683 13.434c36.074-53.488 128.12-70.157 180.62-3.731 6.965-9.205 14.18-12.191 14.18-12.191-55.232-72.151-165.2-63.193-208.49 2.488z"/>
   <path style="fill-rule:evenodd;stroke:#000000;stroke-width:.86059pt;fill:#1e5aa6" d="m465.85 289.84-8.264 11.018 29.548 34.179c5.217-2.629 9.307-5.633 13.772-9.264l-15.4-17.779 6.26-18.405 9.015 10.392-28.17 35.933c-4.716-2.003-9.933-5.133-14.649-9.015l14.899-18.905-7.011-18.154zm-26.042-67.608-5.633 0.125 10.516 11.393-11.143 13.898 23.162 25.165-19.156 25.666c2.296 5.634 5.593 11.894 9.14 16.526l11.393-14.398-23.412-26.042 17.152-21.784-12.019-30.549zm75.121-2.375 5.258-0.125-9.389 11.893 11.268 13.146-22.161 27.921 20.909 25.165c-2.295 5.634-4.967 10.768-8.514 15.399l-12.019-13.271 21.785-27.169-17.904-20.282 10.767-32.677z"/>
   <path style="fill-rule:evenodd;stroke:#000000;stroke-width:.86059pt;fill:#1e5aa6" d="m456.71 272.69 5.384 6.761-3.505-9.14-1.879 2.379z"/>
   <path style="fill-rule:evenodd;stroke:#000000;stroke-width:.83347pt;fill:#1e5aa6" d="m495.27 278.67c0.118-0.125 4.345-5.76 4.345-5.76l-1.644-2.253-2.701 8.013z"/>
   <g font-size="14px" font-weight="bold">
    <text transform="rotate(-49.557)" style="font-size:12.048px;font-weight:bold;line-height:100%;font-family:Timmons;fill:#000000" y="576.14581" x="-72.690453" line-height="100%">
     <tspan y="576.14581" x="-72.690453">L</tspan>
    </text>
    <text transform="rotate(-45.392)" style="font-size:12.048px;font-weight:bold;line-height:100%;font-family:Timmons;fill:#000000" y="579.02478" x="-23.062235" line-height="100%">
     <tspan y="579.02478" x="-23.062235">E</tspan>
    </text>
    <text transform="matrix(.81107 -.57911 .60362 .80195 0 0)" style="font-size:11.331px;font-weight:bold;line-height:100%;font-family:Timmons;fill:#000000" y="570.38239" x="69.340195" line-height="100%">
     <tspan y="570.38239" x="69.340195">O</tspan>
    </text>
    <text transform="matrix(.82844 -.56007 .56007 .82844 0 0)" style="font-size:12.048px;font-weight:bold;line-height:100%;font-family:Timmons;fill:#000000" y="568.60516" x="110.61263" line-height="100%">
     <tspan y="568.60516" x="110.61263">T</tspan>
    </text>
    <text transform="rotate(-25.549)" style="font-size:12.048px;font-weight:bold;line-height:100%;font-family:Timmons;fill:#000000" y="544.55396" x="199.90958" line-height="100%">
     <tspan y="544.55396" x="199.90958">E</tspan>
    </text>
    <text transform="matrix(.91363 -.40654 .40654 .91363 0 0)" style="font-size:12.048px;font-weight:bold;line-height:100%;font-family:Timmons;fill:#000000" y="537.69293" x="222.39236" line-height="100%">
     <tspan y="537.69293" x="222.39236">R</tspan>
    </text>
    <text transform="rotate(-21.911)" style="font-size:12.048px;font-weight:bold;line-height:100%;font-family:Timmons;fill:#000000" y="528.2666" x="249.70172" line-height="100%">
     <tspan y="528.2666" x="249.70172">R</tspan>
    </text>
    <text transform="rotate(-4.7626)" style="font-size:12.048px;font-weight:bold;line-height:100%;font-family:Timmons;fill:#000000" y="423.19843" x="431.5336" line-height="100%">
     <tspan y="423.19843" x="431.5336">R</tspan>
    </text>
    <text transform="rotate(.85649)" style="font-size:12.048px;font-weight:bold;line-height:100%;font-family:Timmons;fill:#000000" y="377.3941" x="492.50735" line-height="100%">
     <tspan y="377.3941" x="492.50735">R</tspan>
    </text>
    <text transform="rotate(29.645)" style="font-size:12.048px;font-weight:bold;line-height:100%;font-family:Timmons;fill:#000000" y="80.196854" x="655.84906" line-height="100%">
     <tspan y="80.196854" x="655.84906">R</tspan>
    </text>
    <text transform="rotate(39.802)" style="font-size:12.048px;font-weight:bold;line-height:100%;font-family:Timmons;fill:#000000" y="-40.772373" x="683.02209" line-height="100%">
     <tspan y="-40.772373" x="683.02209">E</tspan>
    </text>
    <text transform="matrix(.99105 .18629 -.15974 .979 0 0)" style="font-size:11.714px;font-weight:bold;line-height:100%;font-family:Timmons;fill:#000000" y="295.19064" x="590.69812" line-height="100%">
     <tspan y="295.19064" x="590.69812">O</tspan>
    </text>
    <text transform="matrix(.95210 -.13893 .14408 1.0293 0 0)" style="font-size:11.413px;font-weight:bold;line-height:100%;font-family:Timmons;fill:#000000" y="432.39465" x="431.10538" line-height="100%">
     <tspan y="432.39465" x="431.10538">O</tspan>
    </text>
    <text transform="rotate(-20.292)" style="font-size:12.048px;font-weight:bold;line-height:100%;font-family:Timmons;fill:#000000" y="520.22833" x="272.94449" line-height="100%">
     <tspan y="520.22833" x="272.94449">A</tspan>
    </text>
    <text transform="matrix(.70468 .70952 -.70952 .70468 0 0)" style="font-size:12.048px;font-weight:bold;line-height:100%;font-family:Timmons;fill:#000000" y="-106.50712" x="692.05548" line-height="100%">
     <tspan y="-106.50712" x="692.05548">A</tspan>
    </text>
    <text transform="matrix(.98042 .19691 -.19691 .98042 0 0)" style="font-size:12.048px;font-weight:bold;line-height:100%;font-family:Timmons;fill:#000000" y="279.22458" x="566.35211" line-height="100%">
     <tspan y="279.22458" x="566.35211">A</tspan>
    </text>
    <text transform="rotate(-10.645)" style="font-size:12.048px;font-weight:bold;line-height:100%;font-family:Timmons;fill:#000000" y="465.51404" x="364.0047" line-height="100%">
     <tspan y="465.51404" x="364.0047">M</tspan>
    </text>
    <text transform="rotate(-5.9402)" style="font-size:12.048px;font-weight:bold;line-height:100%;font-family:Timmons;fill:#000000" y="432.15417" x="415.51254" line-height="100%">
     <tspan y="432.15417" x="415.51254">P</tspan>
    </text>
    <text transform="matrix(.99967 -.025524 .025524 .99967 0 0)" style="font-size:12.048px;font-weight:bold;line-height:100%;font-family:Timmons;fill:#000000" y="396.90561" x="470.32895" line-height="100%">
     <tspan y="396.90561" x="470.32895">P</tspan>
    </text>
    <text transform="rotate(29.499)" style="font-size:12.048px;font-weight:bold;line-height:100%;font-family:Timmons;fill:#000000" y="82.205162" x="647.96362" line-height="100%">
     <tspan y="82.205162" x="647.96362">P</tspan>
    </text>
    <text transform="matrix(.99340 .11468 -.11468 .99340 0 0)" style="font-size:12.048px;font-weight:bold;line-height:100%;font-family:Timmons;fill:#000000" y="325.60867" x="536.12518" line-height="100%">
     <tspan y="325.60867" x="536.12518">I</tspan>
    </text>
    <text transform="rotate(46.586)" style="font-size:12.048px;font-weight:bold;line-height:100%;font-family:Timmons;fill:#000000" y="-123.27893" x="696.74365" line-height="100%">
     <tspan y="-123.27893" x="696.74365">T</tspan>
    </text>
    <text transform="rotate(36.816)" style="font-size:12.048px;font-weight:bold;line-height:100%;font-family:Timmons;fill:#000000" y="-4.6858354" x="676.46729" line-height="100%">
     <tspan y="-4.6858354" x="676.46729">T</tspan>
    </text>
    <text transform="rotate(16.412)" style="font-size:12.048px;font-weight:bold;line-height:100%;font-family:Timmons;fill:#000000" y="227.43129" x="596.82245" line-height="100%">
     <tspan y="227.43129" x="596.82245">M</tspan>
    </text>
    <text transform="rotate(47.66)" style="font-size:12.048px;font-weight:bold;line-height:100%;font-family:Timmons;fill:#000000" y="-135.35019" x="677.89862" line-height="100%">
     <tspan y="-135.35019" x="677.89862">G</tspan>
    </text>
   </g>
   <path style="stroke:#fff700;stroke-width:.86059pt;stroke-linecap:round;fill:none" d="m558.28 184.38s12.855-2.471 26.327 13.721m-26.697-13.471s19.9 1.359 26.204 8.281m14.33 5.437c-0.123-0.123-11.989-14.215-40.666-13.968m0.132 0.129c0.123 0 35.227 3.091 38.688 7.54m-38.318-7.789 34.609 2.842m-34.738-2.842s35.969 0.247 36.587 1.112m-36.458-0.992s36.71-1.73 38.935 0.124m-38.814-0.244c0.124-0.124 34.609-2.967 34.609-2.967m-34.73 2.717c0.123-0.123 31.024-4.449 32.013-5.438m-32.762 6.058s5.191-4.45 8.9-4.574"/>
   <path style="fill-rule:evenodd;stroke:#000000;stroke-width:.86059pt;fill:url(#d)" d="m550.18 199.09s17.83 0.7 17.83 2.447c0 1.748-13.285 5.069-13.46 12.412-0.175 7.342 10.139 7.866 10.837 17.13 0.7 9.265-8.04 10.663-9.789 13.11-1.748 1.224-5.943 14.334-5.418 22.025 0.524 7.692 2.796 33.738 6.817 38.981 3.147 2.448 7.866 10.314 12.935 7.866 5.07-2.446 1.573-11.361 1.049-13.809-0.524-2.447 2.098-6.468 2.098-10.138 0-3.672-1.923-6.643-1.748-7.517 0.174-0.874 14.159 3.321 13.285 17.131-0.874 13.809-6.468 9.614-6.468 9.614s1.748 16.956-2.622 19.228c-7.866 4.195-13.634-0.874-13.634-0.874l0.739 3.449-5.984-3.099s-7.691-11.013-9.439-15.907-3.846-26.745-3.146-31.464c0.699-4.721 1.223-32.34 0.874-33.738-0.35-1.399-1.748-24.472-0.874-27.968s6.293-18.879 6.118-18.879z"/>
   <path style="fill-rule:evenodd;stroke:#000000;stroke-width:.86059pt;fill:#ff7000" d="m530.95 194.54s12.411-12.061 19.578-10.663c3.671 0 0.175 2.622 0.175 2.622s6.292 0.525 7.167 3.321c0.174 1.224-2.972 1.574-2.972 1.574s2.622 0.524 2.797 2.797c0.175 2.272-26.57 0.524-26.745 0.349z"/>
   <path style="stroke:#000000;stroke-width:.86059pt;fill:none" d="m545.11 190.35s9.789-0.35 9.789 1.049m-23.249 2.617s13.285-1.748 18.879-7.342"/>
   <path style="stroke-linejoin:round;fill-rule:evenodd;stroke:#000000;stroke-width:1.0757;fill:#ffffff" d="m579.9 333.34s8.391-1.923 10.663-4.894c1.399-1.049 8.741 11.012-10.663 4.894z"/>
   <path style="stroke:#ffffff;stroke-width:1.0757;stroke-linecap:round;fill:none" d="m562.24 242.97s-6.642 2.273-8.04 8.916m23.419 12.057s1.049 6.467-1.923 10.837c-1.573 1.748-6.293 4.72-6.293 6.818 0 2.097 1.748 4.894 1.399 7.342-0.35 2.447-2.972 4.895-2.797 6.992 0 2.097 2.971 13.285 2.622 13.46"/>
   <path style="fill-rule:evenodd;stroke:#000000;stroke-width:.86059pt;fill:#ffffff" d="m420.8 141.84c0-0.163-12.939 0-5.241 13.103-5.733 1.801-18.508-6.552-9.664-17.689-28.99-0.655-40.781-14.576-40.781-27.351 8.516 8.844 28.825 5.241 36.032 10.646-8.845-8.19-7.043-19.49-7.043-19.49s24.732 7.37 29.153 29.317c-1.474 4.258-2.129 11.792-2.456 11.464zm32.263 38.168s-13.593 11.792-21.291 8.025c-5.733 3.439-12.448-2.621-12.448-2.621s7.861 28.99 36.032 8.026c-0.491-6.387-1.966-12.939-2.293-13.43zm65.19-39.312c1.802-5.569 5.405-9.991 8.516-10.482-0.818-4.258 6.552-23.093 28.008-30.3 1.31 9.6628-9.173 19.163-9.173 19.163s31.611-5.405 37.998-13.43c-0.655 3.603-7.042 26.041-40.782 25.878 12.776 12.119-4.093 21.783-11.301 18.834 13.267-10.155-3.767-16.214-13.267-9.663zm-18.838 35.052s13.922 15.068 22.929 14.904c1.638 4.422-4.089 8.536-6.382 10.501-4.586-1.474-8.73 0.269-19.376-12.834 0.655-8.353 2.992-12.243 2.829-12.571z"/>
   <path style="fill-rule:evenodd;stroke:#000000;stroke-width:.86059pt;fill:#c75b00" d="m559.44 190.35s2.273 6.293 9.614 0.35c-4.719-6.467-9.614-0.175-9.614-0.35z"/>
   <path style="fill-rule:evenodd" d="m564.86 190.09c0 0.338-0.352 0.612-0.786 0.612-0.435 0-0.787-0.274-0.787-0.612s0.352-0.612 0.787-0.612c0.434 0 0.786 0.274 0.786 0.612z"/>
   <path style="fill-rule:evenodd;stroke:#000000;stroke-width:.86059pt;fill:#0000ff" d="m431.61 187.54c1.146-6.061 5.896-9.008 9.663-3.276 5.078 0.983 10.155-19.817-7.861-16.378 5.077-27.187-10.154-37.342-10.154-37.342s-5.405 30.136-2.948 35.705c2.456 5.568-3.604-10.319-23.093-14.74-0.328 22.766 21.783 33.411 21.783 33.411s6.223 5.733 12.611 2.621zm103.68-6.386s18.344-9.827 17.852-32.92c-15.559 0.328-21.127 20.473-21.127 20.473l3.275 12.447zm-19.492 19.983s17.36 4.75 19.326-20.145c-3.767-10.81-9.008-34.067-0.983-40.782-7.37-5.078-15.396 0.163-15.396 0.163-0.491 1.148-7.042 10.482 1.802 26.861-20.964-5.568-12.448 14.249-12.448 14.249 0.819-3.112 11.956-6.059 14.74 9.827 1.147 3.931-7.533 9.991-7.042 9.827z"/>
   <path style="fill-rule:evenodd;stroke:#cccccc;stroke-width:.81568;fill:#cccccd" d="m406.55 134.31s10.152-1.31 13.095 2.293c-3.973 0-5.297-0.983-11.036 1.147 1.619-0.819 1.178-2.293 2.06-2.293 0.883 0-3.678-1.147-4.119-1.147zm122.51-1.471c6.387-4.095 8.681-4.095 13.922-3.276-3.767 0.492-3.767 0.655-3.767 0.655s-0.328 0.492 1.966 2.621c-2.621-0.655-4.914-2.129-12.12 0z"/>
   <path style="fill-rule:evenodd;stroke:#000000;stroke-width:.86059pt;fill:#923f00" d="m457.16 54.873s5.569-4.9136 11.628-0.4914c-2.737 8.1812-12.611 5.0772-12.611 5.0772s0.328 4.0946-0.655 6.06c1.977 1.4856 3.603 6.3875 3.603 6.3875s10.155-2.4568 12.284 1.9654c3.889-0.5366 6.716 0 6.716 0s7.861-1.9654 10.645-1.9654 11.628 2.293 12.448 3.9308c0.818 1.6378 3.767 12.611 5.732 12.448 1.965-0.1638-4.75 2.6205-6.552-0.1638-1.801-2.7843-1.31 3.6032-1.31 3.6032s5.569 5.8962 6.224 7.2068c0.655 1.3097-3.439 11.956-0.327 19.327-2.728 0.251-2.949 3.111-2.949 3.111-0.15 3.245-4.258 4.094-4.258 4.094l-0.983-4.421-2.784 1.637 1.146-3.44s3.767-9.172 4.095-12.119c0.327-2.948-3.44-8.1887-6.387-8.1887-2.949 0-5.078 9.3357-5.078 9.3357s-1.474 7.042-0.982 7.697c0.491 0.656-1.966-2.293-1.966-2.293s-1.31 4.259-2.293 5.569c-0.982 1.31-3.112 1.802-3.112 1.802s-1.474-4.259-0.982-5.896c0.491-1.638 8.025-8.026 7.37-12.611-0.655-4.5865 0-3.4402-0.164-3.6037s-3.931-3.4395-4.094-5.2411c-0.164-1.8016-4.914 2.2929-11.137 0.9827-1.906 3.3289-2.129 11.628-2.129 11.628s-0.655 9.991 0.654 11.137c1.311 1.147-3.275 3.604-3.275 3.604l-3.276 4.421s-1.147-2.784-1.147-2.62c0 0.163-2.292 1.637-2.292 1.637l1.31-3.275c-0.08-2.479 3.184-9.251 3.184-14.985 0-5.732 0.419-11.876 0.419-11.876s-6.059-0.3275-5.896 5.8957c0.164 6.224-1.474 6.552-1.146 8.353 0.327 1.802 1.965 6.88 1.474 8.353-0.491 1.474-2.457 1.966-2.457 1.966l-0.491 0.819s-6.061 2.784-5.896 3.93c0.163 1.146-0.165-3.275-0.165-3.275l-0.327-4.75s3.604-2.293 3.604-8.026c0-5.732-0.831-6.547-0.667-7.8569 0.163-1.3107 0.994-6.0639 0.83-6.5553-0.163-0.4914-3.44 1.3102-4.422 1.3102-0.983 0 1.802-3.4393 2.129-5.8962 0.327-2.4568-3.276 2.2929-6.223-0.4914 1.37-3.0242 3.439-3.9307 3.766-6.2237 0.328-2.2929-2.293 1.9655-4.586 0.3276 0.187-2.1977 2.457-4.0946 2.457-4.0946s-1.866-0.2285-2.62 0c-1.474-0.4913 1.638-2.7843 1.801-6.0599 0.164-3.2757-1.801-4.586-1.801-4.7497 0-0.1638-3.276-2.9481-3.768-4.0945-0.491-1.1465-0.491-2.4569-0.491-2.4569s-5.405 3.9309-11.793-4.4221c5.85-4.9937 12.12-1.3102 12.12-1.3102s1.638-4.586 9.172-4.2584c7.534 0.3275 9.008 4.5859 8.681 4.0946z"/>
   <path style="fill-rule:evenodd;stroke:#000000;stroke-width:.86059pt;fill:#0000ff" d="m498.36 139.59c0.136 0 13.913 0.409 14.049 7.775s-4.229 5.456-4.365 5.456c-0.137 0-10.094-1.227-10.094-1.227l0.409-12.004z"/>
   <path style="fill-rule:evenodd;stroke:#000000;stroke-width:.86059pt;fill:#fffeff" d="m484.99 137.54s17.187-0.137 16.232 7.366c-0.955 7.502-5.319 6.002-5.319 6.002l-8.321-0.683-2.592-12.685z"/>
   <path style="fill-rule:evenodd;stroke:#000000;stroke-width:.86059pt;fill:#0000ff" d="m475.31 136.73 9.957 0.818s6.001 0.818 5.729 6.547c-0.273 5.729-6.138 5.865-6.138 5.865l-9.684-0.545 0.136-12.685z"/>
   <path style="fill-rule:evenodd;stroke:#000000;stroke-width:.86059pt;fill:#ffffff" d="m451.99 139.59c-0.137 0-13.914 0.409-14.049 7.775-0.136 7.366 4.228 5.456 4.364 5.456 0.137 0 10.094-1.227 10.094-1.227l-0.413-12.005z"/>
   <path style="fill-rule:evenodd;stroke:#000000;stroke-width:.86059pt;fill:#0000ff" d="m465.35 137.54s-17.187-0.137-16.232 7.366c0.955 7.502 5.319 6.002 5.319 6.002l8.321-0.683 2.592-12.685z"/>
   <path style="fill-rule:evenodd;stroke:#000000;stroke-width:.86059pt;fill:#ffffff" d="m475.04 136.73-9.957 0.818s-6.002 0.818-5.729 6.547 6.138 5.865 6.138 5.865l9.684-0.545-0.136-12.685z"/>
   <path style="fill-rule:evenodd;stroke:#000000;stroke-width:.86059pt;fill:#5e0043" d="m501.7 219.54s7.16-10.552 10.175-9.422c2.637 0.88 0.628 9.045-0.629 9.799l-9.547-0.377z"/>
   <path style="fill-rule:evenodd;stroke:#000000;stroke-width:.86059pt;fill:#5e0043" d="m452.62 221.43c-2.26-3.141-5.527-11.808-8.542-9.422-2.637 0.88-0.628 9.045 0.628 9.799l7.914-0.377z"/>
   <path style="fill-rule:evenodd;stroke:#000000;stroke-width:.86059pt;fill:#5e0043" d="m458.71 166.86 2.679-3.349 13.394 6.809 13.617-6.027 2.678 2.79-15.18 10.715-17.188-10.938z"/>
   <path style="fill-rule:evenodd;stroke:#000000;stroke-width:.86059pt;fill:#b4b6b9" d="m440.76 160.82 34.462 22.547 31.029-20.872s6.474-3.572 5.916-6.139c-0.559-2.567-2.791-1.563-3.907-1.116-1.115 0.447-32.48 22.658-32.48 22.658l-33.373-21.095s-2.456-0.782-2.902 0.781c-0.446 1.562 0.92 2.455 1.255 3.237z"/>
   <path style="stroke:#000000;stroke-width:.86059pt;fill:none" d="m475 148.66-0.06 21.155m-27.169 34.757s5.134 3.014 7.032 12.167c16.742-1.228 21.988 4.687 21.988 4.687s13.729-6.585 20.09-5.357c2.233-4.688 8.595-10.715 8.595-10.715m-48.11-4.801s13.952 8.595 18.529 8.818c4.576 0.223 19.086-11.162 19.086-11.162m-94.08-78.24c4.772 4.856 17.036 6.307 23.26 11.712m-5.003 54.373s3.931-6.387 12.448 1.802m-11.137-21.131s-1.966 7.043 2.293 17.034m10.642-16.053s-8.517 7.207-6.552 17.034m99.75-54.53s12.611-6.715 19.654-11.301m-71.031 64.348 2.178 44.64"/>
   <path style="stroke:#000000;stroke-width:.86059pt;fill:none" d="m492.78 122.4s-9.092 12.823-8.804 13.78m-25.267-12.438s-9.665 15.695-9.857 16.173m27.662-16.56s4.211 5.742 3.733 7.368c1.722 1.34 3.636 6.699 3.636 6.699"/>
   <path style="fill-rule:evenodd" d="m446.21 61.426c-0.206 0.7171-1.365 0.9947-2.588 0.62-1.223-0.3746-2.047-1.2593-1.841-1.9764 0.206-0.717 1.363-0.9949 2.586-0.6203 1.224 0.3747 2.049 1.2597 1.843 1.9767z"/>
   <path style="fill-rule:evenodd" d="m449.89 61.173c0.206 0.7171 1.365 0.9947 2.588 0.62 1.223-0.3746 2.047-1.2593 1.841-1.9764-0.206-0.717-1.363-0.9949-2.586-0.6203-1.224 0.3747-2.049 1.2597-1.843 1.9767z"/>
   <path style="stroke-linejoin:round;fill-rule:evenodd;stroke:#000000;stroke-width:.86059pt;fill:#ff7000" d="m556.28 326.79s-3.371 0.632-3.266 0.948-9.797 0.632-10.008 0.316c-0.21-0.316-1.474 1.685-1.474 1.685l1.58-0.947s2.422 2.528 3.16 2.317c0.737-0.211-0.316 0.948-0.105 1.158 0.211 0.211 0.947-0.42 0.947-0.42l16.371-0.275-7.205-4.782z"/>
   <path style="stroke-linejoin:round;fill-rule:evenodd;stroke:#000000;stroke-width:1.0757;fill:#ff7000" d="m562.38 331.88-13.371 0.387s-3.371 3.055-3.582 3.792c-0.21 0.737 2.213 0.948 2.213 0.948l0.737 2.528 1.686-0.631s11.369 1.69 21.806-0.633c5.268-1.843 6.189-4.056 2.502-5.398-3.687-1.344-11.886-0.941-11.991-0.993z"/>
   <path style="fill-rule:evenodd;stroke:#000000;stroke-width:.86059pt;fill:url(#c)" d="m516.59 359.32 24.072-1.072-4.483-3.801 65.101-2.631-2.242-5.165-72.898 2.924 8.771 4.093-19.686 0.584 0.585 2.047-5.165-0.195s5.75 2.242 5.945 3.216z"/>
   <path style="fill-rule:evenodd;stroke:#000000;stroke-width:.86059pt;fill:url(#b)" d="m543.58 226.35c-1.912-0.956-10.325-2.103-19.694 4.016l0.383 21.606s13.766-7.457 20.458-5.737c-0.382-6.692-0.382-15.296-1.147-19.885z"/>
   <path style="stroke:#000000;stroke-width:.86059pt;fill:none" d="m406.16 351.39-5.964 7.814m14.807-19.75-3.907 4.73m27.349-42.768c-0.617 0.411-22.211 28.997-22.211 28.997m24.887-24.066s-25.707 37.635-25.295 40.719m36.199-25.702-8.432 10.283m12.132 2.876-12.339 13.984m8.432 6.171 10.283-16.865m-5.765-12.344-25.295 31.672m-10.486-5.957 0.618 12.538m24.268-49.768-23.857 32.909m12.136-70.336-61.494 74.45m63.551-58.615-46.069 60.672m20.771-61.085-56.761 56.35"/>
   <path style="stroke:#000000;stroke-width:.86059pt;fill:none" d="m370.38 349.95 5.964-6.992"/>
   <path style="fill-rule:evenodd;stroke:#2b2b2b;stroke-width:.86059pt;fill:#8a9396" d="m407.68 205.33s-1.742 5.473 0 8.21c1.741 2.736 12.687 24.878 12.687 24.878s7.464-9.205 10.201-9.454 1.492 23.883 1.492 23.883-4.477 4.23-7.214 3.981c-2.737-0.248 6.717 9.454 6.468 17.664s-12.439 49.01-16.917 49.757c-4.478 0.746 1.99-7.464 1.741-9.703s-1.493-0.747-2.488-3.235 1.493-6.219 0.995-8.707c-0.497-2.488-2.736-1.99-2.985-3.732-0.249-1.741 1.493-2.239 1.244-4.228-0.249-1.991-2.985-1.494-2.737-3.235 0.249-1.741 0.498-0.995 0.249-4.229s-0.746 2.239-3.483 2.488c-2.737 0.248-4.976 6.468-4.976 6.468s-5.473 7.712-10.946 4.229c3.234 6.966 0.746 9.952-0.498 10.2-1.244 0.249 0.995 5.474-1.99 5.722-2.985 0.249 2.239 11.693-1.244 12.688 3.732 1.742 0.746 3.981 0.746 3.981s-8.624 0.716-6.717 11.942c-25.376-8.942-37.815-24.364-37.566-40.035 0.249-15.673 5.224-29.854 17.415-35.079 3.483-12.937 9.453-26.868 9.453-26.868s-0.995-5.722-0.249-9.454c0.747-3.732 4.23-7.463 4.23-7.463s-0.498-8.957-0.249-13.434c0.249-4.479 1.99-6.469 2.239-8.956 0.249-2.488-0.746-15.177 1.742-17.415 2.487-2.24 7.214-1.991 9.702-3.484 2.488-1.492 5.722-4.229 8.956-3.98 3.234 0.248 5.971 2.488 5.971 2.488s12.19 0 12.936 4.727c0.747 4.726-2.488 6.468-2.488 6.468s1.742 6.717-5.722 12.937z"/>
   <path style="fill-rule:evenodd;stroke:#2b2b2b;stroke-width:.86059pt;fill:#cecfcf" d="m396.85 188.1c0.39 0.722-0.499 1.959-1.987 2.764-1.487 0.805-3.009 0.874-3.4 0.152-0.39-0.721 0.499-1.959 1.987-2.764 1.487-0.805 3.01-0.873 3.4-0.152z"/>
   <path style="fill-rule:evenodd" d="m394.79 189.35c0 0.454-0.414 0.824-0.924 0.824-0.511 0-0.925-0.37-0.925-0.824 0-0.455 0.414-0.825 0.925-0.825 0.51 0 0.924 0.37 0.924 0.825z"/>
   <path style="stroke:#000000;stroke-width:.86059pt;fill:none" d="m414.1 186.93s-11.6 18.826-10.079 30.616"/>
   <path style="stroke:#000000;stroke-width:.86059pt;fill:none" d="m413.15 191.87-6.086 4.564"/>
   <path style="stroke:#2b2b2b;stroke-width:.53787;fill:none" d="m390.9 227.06s8.557-35.561 23.77-40.696m0.19 0s-15.403 9.128-18.255 38.984m19.016-37.082s3.233 2.282 3.994 4.563m-5.135-2.851c0.19 0 4.944 4.184 4.754 7.036m-5.325-5.323s5.896 7.797 5.135 17.495m-6.064-11.592s3.021 13.491-0.592 22.81"/>
   <path style="stroke:#2b2b2b;stroke-width:.86059pt;fill:none" d="m406.02 181.2s-3.438 0.937-3.906 2.344c-0.469 1.406-2.501 2.812-3.594 2.343-1.094-0.468-3.126-2.187-3.126-2.187"/>
   <path style="stroke-linejoin:round;fill-rule:evenodd;stroke:#2b2b2b;stroke-width:1.0757;fill:#2b2b2b" d="m386.49 193.23s-5.156 5.157-2.656 5.781c2.5 0.626 5.156-4.063 5.156-4.063s0 7.97 2.188 6.72 8.595-5.782 8.595-5.782 2.187-0.156 2.656 0 5.938 4.845 9.532 3.125c-2.031 5.314-4.375 5.938-4.375 5.938s-3.751 4.845-8.595 3.751-6.094-3.126-6.094-3.126-4.063 0.313-5.313-1.562-1.719-2.969-1.719-2.969-2.344 2.344-2.969 1.25 0-7.5 3.594-9.063z"/>
   <path style="stroke:#2b2b2b;stroke-width:.86059pt;fill:none" d="m415.71 186.05s-9.532-2.812-12.814 1.875c-3.281 4.688-2.5 7.344-0.781 7.813"/>
   <path style="fill-rule:evenodd" d="m417.18 185.78c0 1.124-0.804 2.035-1.797 2.035-0.992 0-1.797-0.911-1.797-2.035s0.805-2.035 1.797-2.035c0.993 0 1.797 0.911 1.797 2.035z"/>
   <path style="stroke-linejoin:round;fill-rule:evenodd;stroke:#2b2b2b;stroke-width:1.0757;fill:#2b2b2b" d="m388.4 333.06c4.186-1.122 22.423 10.464 26.534 13.379s12.707 1.047 12.707 1.047-3.961 2.391-6.428 2.989 7.325 0.598 7.325 0.598-23.321 6.429-47.016-6.054c-2.167-9.717 5.083-11.885 6.877-11.959z"/>
   <path style="fill-rule:evenodd;stroke:#2b2b2b;stroke-width:.86059pt;fill:#2b2b2b" d="m390.86 309.59c0-0.224-0.299-6.129-2.616-8.52-2.317-2.393-5.157-2.393-6.428-2.093-1.271 0.298 4.709 2.914 5.307 4.634 0.598 1.718 2.541 6.502 2.018 7.699-0.523 1.195-1.495-3.364-5.157-4.635-3.663-1.271-8.746-0.598-7.699 1.047 1.046 1.644 5.157 0.149 7.25 3.662s3.663 7.25 3.663 7.25l0.672-2.541 1.869-0.523 0.224-4.858 0.897-1.122zm-14.65-11.36s-4.186-0.08-6.055 0.822c-1.869 0.898-2.541 2.018-3.812 1.87-1.271-0.15-2.242-1.795-1.869-2.468 0.524-1.046 2.99-2.391 7.699-2.018 4.709 0.374 4.037 1.794 4.037 1.794zm16.892-9.793c0.07 0.08 2.915 0.822 7.699 0.822s7.325-2.093 7.325-2.093l-0.299-1.869 0.748-2.616s3.662 3.738 3.587 4.485c-0.08 0.748-1.495 1.046-1.495 1.046l-0.523-1.793-1.27 1.57s-6.952 5.531-10.764 4.709c-3.812-0.823-7.325-3.289-6.353-3.888 0.971-0.598 1.495-0.373 1.345-0.373zm-42.68-8.967s11.585-2.99 14.576-2.915c2.99 0.08 14.276 5.306 17.565 8.52 3.289 3.215 10.016 10.839 14.426 10.166s5.681-1.57 5.681-1.57l-1.719 3.289s-3.588 0.972-5.382 0.523c-1.794-0.448-5.307-1.569-8.82-5.007-3.513-3.439-14.351-12.707-23.545-12.035s-14.501 9.717-14.501 9.717 0.07-4.41 0.449-5.382c0.373-0.972-1.944 2.093-1.944 2.093l3.214-7.4zm64.656-30.353s-3.064-0.599-4.634-2.392c-1.57-1.794-3.812-6.204-6.129-8.073-2.318-1.869-13.903-8.222-18.089-7.774-4.186 0.449-5.457-0.448-5.98-0.972-0.523-0.523-2.242 0.225-1.943 2.393 0.299 2.167-3.214 6.951-1.944 9.194 1.271 2.241 7.251 11.361 8.447 11.66 1.196 0.298 0.448 5.306 0.448 5.306s5.307 5.382 6.653 5.681c1.345 0.299 2.691 1.271 2.541 2.541-0.15 1.271-5.83 8.222-5.83 8.222s-6.129 3.215-6.204 5.008c-0.07 1.794 1.495 5.532 6.353 6.727 4.859 1.197 17.939 0.225 18.612-0.896 0.673-1.122 1.719-7.849 1.271-8.521-0.449-0.673-3.663-2.691-5.307-2.393-1.645 0.3-3.14 1.645-2.99 1.944 0.149 0.299-2.317 1.57-2.317 0.374s4.858-6.578 5.307-6.129c0.448 0.448 7.325 1.121 8.596 4.559 1.27 3.438 1.27 5.905 4.858 5.531 3.588-0.373 8.596-3.662 9.045-10.539 0.448-6.876-4.037-11.511-5.158-12.183-1.122-0.672-4.859-2.915-5.158-3.961-0.299-1.047-1.046-4.485-0.448-5.307zm7.624-3.735s-10.913-15.173-14.053-15.996c-3.139-0.822 2.392-1.495 5.756 1.719 3.363 3.215-0.897-5.232-0.897-5.232l9.194 19.509zm-33.263-35.285s3.887 5.98 8.521 7.624c4.635 1.645-3.214 3.065-7.848-0.08-3.363-4.559-2.466-7.848-2.466-7.848s0.897-0.897 1.793 0.299zm31.12 28.933s8.178-10.268 10.079-9.888c1.901 0.381 1.331 23.771 1.331 23.771s-6.085 4.563-7.417 4.373c-1.331-0.19 6.846 11.029 6.656 15.214-0.19 4.184-0.38 4.184-0.38 4.184s0-2.473-1.902-6.466c-1.901-3.994-0.761-8.557-13.121-18.636-3.043-6.276 6.085 3.803 7.987 2.282 1.901-1.522-3.423-14.643-3.233-14.834z"/>
   <path style="stroke-linejoin:round;fill-rule:evenodd;stroke:#2b2b2b;stroke-width:1.0757;fill:#2b2b2b" d="m387.87 328.72-3.813-7.624s-1.195-4.859-4.41-6.204c-3.214-1.345-7.474-1.121-7.549 0.523-0.07 1.645 6.877 3.738 7.325 4.635 0.449 0.896 0.225 2.391-0.373 2.466-0.598 0.08-3.663-1.121-5.233-0.748-1.569 0.375-2.466 2.393-4.783 1.795-2.318-0.598-4.261-7.999-3.364-8.746s-1.719 1.345-2.242-0.598c-0.524-1.943 0.747-7.997-0.15-8.745-0.897-0.747-5.232-3.363-5.307-3.887-0.08-0.523 0.224-29.748 24.666-5.531-10.464-12.408-14.575-11.062-16.519-11.136-1.42 0-10.913 0.821-13.304 12.931-2.392 12.108-5.233 4.559-5.233 4.559s-0.523 5.233 2.019 6.727c2.541 1.495-1.196 5.83-1.196 5.83s-4.56-11.137-3.887-15.996c-0.897 3.888-0.822 13.53 4.933 24.068 6.727 7.101 13.081 13.679 29.974 21.079 8.895-13.604 8.446-15.248 8.446-15.398z"/>
   <path style="stroke-linejoin:round;fill-rule:evenodd;stroke:#2b2b2b;stroke-width:1.0757;fill:#8a9396" d="m371.88 328.8s4.933 0.598 6.278 3.139c1.346 2.541 1.944 6.428 1.944 6.428 0.822-1.644 1.196-3.065 2.84-4.26 1.645-1.196 2.841-1.346 2.766-2.243-0.08-0.897-5.232-6.353-7.849-6.652-2.616-0.299-7.175 2.841-7.175 2.841s-0.822 1.195 1.196 0.747z"/>
   <path style="stroke:#8a9396;stroke-width:1.0757;stroke-linecap:round;fill:none" d="m383.14 341.66s12.785 5.828 33.843 6.205"/>
   <path style="stroke:#2b2b2b;stroke-width:.86059pt;fill:none" d="m424.18 288.91s-2.475 7.701-9.351 13.476m10.995-20.076s-1.1 10.726-9.351 31.902"/>
  </g>
 </g>
</svg>
