<?xml version="1.0" encoding="UTF-8" standalone="no"?>
<svg
   xmlns:dc="http://purl.org/dc/elements/1.1/"
   xmlns:cc="http://creativecommons.org/ns#"
   xmlns:rdf="http://www.w3.org/1999/02/22-rdf-syntax-ns#"
   xmlns:svg="http://www.w3.org/2000/svg"
   xmlns="http://www.w3.org/2000/svg"
   xmlns:xlink="http://www.w3.org/1999/xlink"
   version="1.1"
   viewBox="0 0 640 480"
   id="Montenegro">
  <g
     id="flag">
    <rect
       style="fill:#d3ae3b"
       height="480"
       width="640"
       y="0"
       x="0"
       id="rect4139" />
    <rect
       style="fill:#c40308"
       height="448"
       width="608"
       y="16"
       x="16"
       id="rect4141" />
    <g
       transform="matrix(1.4008 0 0 1.4008 -127.22 14.979)"
       id="g4143">
      <path
         d="m389.64 157.4c1.874-0.529 8.39-2.433 12.981-6.158 4.591-3.726 5.487-6.711 5.858-8.323 0.368-1.612 0.527-2.88-0.66-1.955-1.187 0.923-4.749 3.725-7.176 5.073-2.429 1.347-4.672 1.982-5.991 2.353-1.319 0.368-2.375 0.606-1.107 0.104 1.265-0.501 5.409-1.956 8.602-5.152 3.192-3.197 5.714-7.988 5.768-10.93 0.05-2.941-0.157-2.732-1.103-1.996-0.946 0.735-4.308 4.886-6.198 6.461-1.891 1.577-4.938 3.678-6.461 4.57-1.524 0.894-3.677 1.892-0.683-0.157 2.994-2.047 8.666-6.881 10.979-13.132 2.311-6.251 1.89-9.927 1.838-10.558-0.05-0.63-0.578-1.891-1.103-0.734-0.525 1.154-4.309 8.719-7.354 11.975-3.048 3.257-2.312 2.627-2.995 3.152-0.682 0.525-1.839 1.471-0.366-0.369 1.471-1.837 4.517-6.093 6.094-10.294 1.574-4.203 1.995-8.406 2.047-10.822 0.05-2.416-0.997-5.777-1.471-6.774-0.472-1-0.945-1.734-1.104-0.58-0.156 1.156-2.573 8.615-3.887 12.239-1.313 3.625-3.938 7.723-4.465 8.511-0.524 0.788-1.89 2.416-0.42-0.315 1.471-2.732 4.307-10.769 4.676-18.385 0.367-7.617-0.683-11.819-1.734-13.92-1.05-2.102-1.96-2.847-1.96-2.847s0.18 5.2-1.372 12.67c-1.553 7.471-3.819 11.415-3.819 11.415s-0.954 1.076-0.3-0.717c0.443-1.206 1.354-3.86 1.771-8.358 0.439-4.719 0.491-10.088-0.887-14.659-1.5-4.978-4.104-7.523-4.104-7.523-0.726 7.142-0.582 16.344-3.199 23.803-0.49-0.438-1.138-1.248-1.396 0.401-0.478 2.451-1.433 7.053-4.654 12.91-3.224 5.857-4.535 6.634-4.535 6.634s-0.597-1.435-1.016-2.211c-0.417-0.777-0.656-1.196-1.194-0.12-0.535 1.076-2.326 5.2-6.266 9.742-3.938 4.542-6.146 6.753-6.026 10.159 0.12 3.407 1.909 5.141 4.296 6.694 2.388 1.555 2.807 2.39 2.447 4.243-0.358 1.854-2.507 2.51-4.355 2.57-1.852 0.06-4.179-0.12-5.014 0.358-0.836 0.479-0.895 1.673-1.731 2.509-0.834 0.838-1.192 1.314-1.969 1.436-0.273 0.04-0.495 0.07-0.667 0.09-0.172-8.985 3.31-12.991 3.31-12.991l-9.731-11.433c-0.503 0.247-1.005 0.478-1.509 0.696-0.07-0.132-0.162-0.276-0.285-0.432-1.295-1.654-1.719-3.056-1.719-5.176 0.484 0.05 1.455 0.398 2.337 0.221 0.882-0.176 0.22-1.061-0.04-1.901-0.265-0.842-0.53-3.76-0.354-4.866 0.177-1.106 0.264-1.549 0.264-1.549s1.413 1.549 2.294 1.549c0.884 0 0.794-0.884 0.927-1.858 0.199-1.467 0.889-3.319 2.028-4.335 0 0 1.543 1.063 3.309 1.063 1.763 0 4.144-0.487 6.04-2.3 1.897-1.813 1.853-2.256 1.853-2.256s3.527 1.238 6.218 1.372c2.69 0.132 5.557-0.311 6.924-3.141 1.367-2.831-0.398-5.44-0.705-5.883-0.31-0.443-1.191-0.797-1.191 0s0.05 2.919-1.588 3.981c-1.632 1.061-2.91 1.016-4.454 0.53-1.543-0.486-3.704-1.106-6.174-0.752-2.215 0.317-2.515 0.492-2.553 0.525 0.115-0.118 2.126-2.18 4.096-2.781 2.029-0.619 3.221 0.221 3.882 1.017s1.234 2.08 1.764 0.221c0.529-1.857 0.221-3.98-0.661-5.352-0.883-1.371-2.778-2.256-4.763-2.034-1.985 0.221-2.689 0.53-2.689 0.53s-1.016-2.874-3.573-3.405c-3.12-0.648-6.562 0.525-9.261 2.034 0 0-2.117 0.488-4.277-0.132-1.415-0.406-2.83-1.267-3.639-1.811 0.246-0.827 0.73-2.354 0.73-2.354s0.618-0.188 1.264-0.431c0.646-0.242 0.512-0.458 0.593-0.996 0.08-0.538-1.214-1.475-1.214-1.475s-0.187-1.617 1.94-2.726c2.126-1.109 1.895-0.924 1.895-0.924s1.247 0.231 1.756-0.139c0.508-0.37 0.508-0.601 0.508-0.601s0.942-0.309 1.288-0.877c0.345-0.567 0.409-1.387 0.156-2.049-0.25-0.663-0.567-0.789-0.219-1.105 0.345-0.315 0.66-1.072 0.691-1.608 0.03-0.538 0.03-0.662 0.03-0.662s0.723-0.254 0.69-1.357c-0.03-1.105-0.629-1.547-0.976-1.642-0.345-0.094-0.564-0.094-0.564-0.094s-0.06-0.663-0.629-1.545c-0.568-0.884-0.944-1.262-0.944-1.262s0.408-0.313 0.188-1.039-0.724-1.167-1.227-1.327c-0.503-0.157-1.037 0-1.037 0s-1.667-1.009-2.453-1.419c-0.787-0.41-0.976-0.504-0.976-0.504s-0.03-0.694-0.314-1.073c-0.283-0.379-0.944-0.537-1.29-0.537s-0.723 0.19-0.723 0.19-2.832-0.727-3.995-0.916c-1.164-0.189-1.228-0.284-1.228-0.284s-2.515-1.199-3.489-1.388c-0.976-0.189-1.258-0.283-1.258-0.283s1.018-1.232 1.08-2.651c0.06-1.42-0.879-2.759-1.885-3.358-0.568-0.337-0.873-0.393-1.058-0.509l-0.02-0.977 1.89 0.19 0.156-3.042-1.84 0.233 0.282-1.831-3.856-0.044 0.282 1.83-1.855-0.127 0.157 2.998 1.951-0.252-0.189 1.134s-0.714 0.121-1.319 0.567c-1.006 0.6-1.857 1.768-1.794 3.188 0.06 1.419 0.911 2.682 0.911 2.682s-0.251 0.063-1.226 0.251c-0.975 0.189-3.492 1.388-3.492 1.388s-0.06 0.094-1.227 0.284c-1.163 0.189-3.994 0.916-3.994 0.916s-0.377-0.19-0.724-0.19c-0.346 0-1.006 0.158-1.289 0.537-0.283 0.378-0.314 1.073-0.314 1.073s-0.189 0.095-0.976 0.504c-0.787 0.41-2.453 1.419-2.453 1.419s-0.536-0.157-1.039 0c-0.503 0.159-1.006 0.601-1.226 1.327s0.188 1.039 0.188 1.039-0.378 0.378-0.944 1.262c-0.565 0.882-0.628 1.545-0.628 1.545s-0.221 0-0.566 0.094c-0.346 0.095-0.944 0.537-0.975 1.642-0.03 1.103 0.692 1.357 0.692 1.357s0 0.125 0.03 0.662 0.347 1.293 0.692 1.608c0.346 0.316 0.03 0.442-0.22 1.105-0.251 0.662-0.189 1.482 0.157 2.049 0.346 0.568 1.287 0.877 1.287 0.877s0 0.231 0.508 0.601 1.756 0.139 1.756 0.139-0.23-0.185 1.895 0.924 1.94 2.726 1.94 2.726-1.294 0.938-1.213 1.475c0.08 0.538-0.05 0.754 0.592 0.996 0.646 0.243 1.265 0.431 1.265 0.431s0.483 1.526 0.729 2.354c-0.809 0.544-2.223 1.405-3.637 1.811-2.161 0.62-4.279 0.132-4.279 0.132-2.697-1.509-6.139-2.682-9.26-2.034-2.558 0.531-3.573 3.405-3.573 3.405s-0.705-0.309-2.689-0.53c-1.984-0.222-3.881 0.663-4.764 2.034-0.882 1.372-1.19 3.495-0.661 5.352 0.529 1.859 1.103 0.575 1.764-0.221 0.662-0.796 1.853-1.636 3.881-1.017 1.97 0.601 3.981 2.663 4.096 2.781-0.04-0.03-0.337-0.208-2.553-0.525-2.469-0.354-4.63 0.266-6.173 0.752s-2.822 0.531-4.454-0.53c-1.632-1.063-1.588-3.185-1.588-3.981s-0.882-0.443-1.19 0-2.073 3.053-0.706 5.883 4.233 3.273 6.923 3.141c2.69-0.134 6.218-1.372 6.218-1.372s-0.04 0.443 1.853 2.256c1.896 1.813 4.277 2.3 6.042 2.3s3.307-1.063 3.307-1.063c1.139 1.017 1.831 2.869 2.029 4.335 0.132 0.974 0.04 1.858 0.927 1.858 0.881 0 2.293-1.549 2.293-1.549s0.09 0.443 0.264 1.549c0.176 1.106-0.09 4.024-0.353 4.866-0.264 0.84-0.926 1.725-0.04 1.901 0.882 0.177 1.852-0.173 2.337-0.221 0 2.12-0.425 3.522-1.72 5.176-0.114 0.146-0.204 0.281-0.272 0.407-0.482-0.211-0.964-0.434-1.446-0.671l-9.731 11.433s3.498 4.025 3.309 13.059v-0.06c-0.177-0.02-0.413-0.05-0.708-0.09-0.777-0.121-1.134-0.598-1.97-1.436-0.835-0.836-0.895-2.03-1.73-2.509s-3.163-0.299-5.013-0.358c-1.851-0.06-3.998-0.717-4.357-2.57-0.357-1.854 0.06-2.688 2.447-4.243 2.387-1.554 4.177-3.287 4.297-6.694 0.119-3.406-2.088-5.618-6.027-10.159-3.939-4.542-5.729-8.666-6.266-9.742s-0.776-0.657-1.194 0.12c-0.418 0.776-1.014 2.211-1.014 2.211s-1.313-0.777-4.535-6.634c-3.223-5.857-4.178-10.458-4.655-12.91-0.259-1.649-0.908-0.838-1.396-0.401-2.62-7.459-2.475-16.662-3.2-23.803 0 0-2.604 2.545-4.104 7.523-1.377 4.57-1.325 9.94-0.886 14.659 0.417 4.498 1.327 7.153 1.769 8.358 0.656 1.793-0.298 0.717-0.298 0.717s-2.268-3.944-3.819-11.415c-1.552-7.47-1.373-12.67-1.373-12.67s-0.909 0.745-1.96 2.847c-1.05 2.101-2.1 6.303-1.733 13.92 0.368 7.617 3.205 15.653 4.676 18.385 1.471 2.731 0.105 1.103-0.421 0.315-0.525-0.788-3.151-4.885-4.465-8.511-1.313-3.624-3.729-11.083-3.887-12.239-0.158-1.155-0.63-0.42-1.104 0.58-0.473 0.998-1.523 4.359-1.471 6.774 0.05 2.416 0.473 6.619 2.049 10.822 1.576 4.202 4.622 8.457 6.093 10.294 1.471 1.84 0.315 0.894-0.368 0.369s0.05 0.104-2.994-3.152c-3.047-3.256-6.829-10.821-7.354-11.975-0.526-1.157-1.051 0.104-1.104 0.734-0.05 0.631-0.473 4.307 1.839 10.558 2.311 6.251 7.984 11.085 10.979 13.132 2.994 2.049 0.84 1.051-0.683 0.157-1.523-0.892-4.57-2.993-6.461-4.57-1.891-1.575-5.253-5.726-6.198-6.461-0.946-0.736-1.155-0.946-1.103 1.996 0.05 2.942 2.575 7.732 5.768 10.93 3.192 3.196 7.334 4.651 8.602 5.152 1.267 0.502 0.211 0.264-1.109-0.104-1.318-0.37-3.561-1.006-5.989-2.353-2.428-1.349-5.989-4.15-7.177-5.073-1.188-0.925-1.029 0.343-0.66 1.955 0.37 1.612 1.267 4.598 5.857 8.323 4.591 3.726 11.108 5.629 12.981 6.158 1.874 0.527 0.554 0.527 0.554 0.527s-0.739-0.104-4.538-0.952c-3.799-0.845-9.552-3.856-11.109-4.834-1.557-0.979-1.793-1.348-1.583 0.713 0.212 2.06 2.402 6.474 5.911 8.535s9.842 3.119 11.478 3.197c1.636 0.08 1.214 0.317 0.475 0.369-0.739 0.05-2.56 0.05-5.541-0.289-2.444-0.282-6.074-1.469-7.305-1.889-0.138-0.526-0.265-1.036-0.323-1.35-0.145-0.785-0.551-0.669-0.813-0.493-0.262 0.172-0.407 0.318-1.276 0.755-0.872 0.438-0.901-0.09-0.93-0.348-0.03-0.264-0.203-1.399-0.232-1.979-0.03-0.584-0.349-0.613-0.754-0.438-0.407 0.176-2.352 0.99-3.077 1.312-0.726 0.319-0.06 0.901 0.319 1.599 0.377 0.701 0.958 1.719 0.958 1.719s-1.829 0.495-2.41 0.641c-0.58 0.146-0.406 0.554-0.261 0.962 0.146 0.406 1.045 2.445 1.277 3.027s0.755 0.233 0.755 0.233l1.828-1.077 0.638 2.444c-0.03 0.04-0.845 0.194-1.77 0.843-0.924 0.648-0.693 1.483 0.416 1.808 1.108 0.324 2.403 0.881 3.835 3.476 1.432 2.597 1.802 7.276 2.68 14.647 0.878 7.367 5.591 11.122 6.238 11.586s0.277 0.834 0.277 0.834-0.647 0.929-0.369 2.365c0.277 1.435 1.524 2.271 2.171 2.502 0.646 0.23 0.462 0.88 0.462 0.88s-0.324 1.575 0 4.45c0.323 2.873 2.68 6.117 3.327 6.674 0.646 0.555 0.693 0.834 0.601 1.066-0.09 0.231-0.509 0.05-1.294 0.648-0.786 0.603-1.664 1.437-2.217 2.456-0.555 1.021-0.37 1.623-0.186 3.014 0.185 1.391 2.218 2.642 2.218 2.642s-0.37 0.09-0.461 1.112c-0.09 1.02 0.646 2.178 1.571 2.919 0.924 0.742 2.68 1.113 2.68 1.113s0.139 0.88 0.231 1.482c0.09 0.604 1.248 1.204 1.987 1.622 0.739 0.417 2.171 0.186 2.772-0.09 0.6-0.277 1.016 0.05 1.385 0.648 0.371 0.604 0.232 2.92 0.232 3.848 0 0.927-0.555 1.9-0.232 2.364 0.324 0.463 1.202 0.138 2.08-0.371 0.878-0.511 1.109-0.139 1.895 0.371 0.786 0.509 2.033 0.974 2.357 0.927 0.323-0.05 0.185-0.881 0.185-1.576s0.125-2.268 0.448-2.5c0.153-0.11 1.513-0.211 2.555-0.652 0.485-0.204 1.109-0.416 1.155-0.88 0.05-0.463-0.647-0.463-2.171-1.251-1.525-0.787-1.802-1.253-2.772-1.901-0.971-0.648-0.508-0.88-0.508-1.158 0-0.276 0.461-0.602 0.646-0.973s0.09-1.204 0.09-1.204 0.786-0.788 1.155-1.206c0.37-0.416 0.832-1.067 1.34-1.483s1.293-2.409 1.802-3.059c0.508-0.648 1.664-1.344 2.356-2.225 0.693-0.881 2.542-2.317 3.605-3.013 1.063-0.695 3.927-2.04 3.927-2.04s-0.05 1.715 0.693 2.549c0.739 0.836 1.709-0.647 4.99-2.966 3.281-2.317 5.776-3.151 5.776-3.151s0.693 1.065 1.57 2.178c0.878 1.113 1.664-0.05 5.684-5.607 3.171-4.388 7.348-8.399 8.97-9.898 0.299 0.133 0.595 0.266 0.89 0.402-0.08 0.214-0.16 0.456-0.244 0.721-0.369 1.152-0.967 1.89-1.75 3.5-0.783 1.611-1.979 1.979-3.361 4.145-1.381 2.164-1.565 3.636-1.704 5.847-0.138 2.21 1.105 2.671 1.105 2.671s-2.026 1.979-2.625 3.453c-0.598 1.473-0.921 4.467-0.921 4.467s-0.323 0.137-1.059 1.657c-0.737 1.521-2.073 1.749-4.006 3.684-1.935 1.934-4.098 2.763-5.111 3.359-1.013 0.601-0.737 1.198-0.46 1.981 0.275 0.782 1.657 1.565 3.269 2.164 1.612 0.598 2.164 0.368 3.27 0.322 1.105-0.04 0.23 0.829-0.23 1.288-0.46 0.462-1.059 2.072-0.967 3.868 0.09 1.797 1.428 1.381 3.086 1.105 1.657-0.275 3.591-1.105 3.591-1.105l-0.184 0.508c-0.184 0.506-0.276 0.873-0.276 2.303 0 1.427 0.23 2.117 0.645 2.484 0.415 0.369 1.244-0.413 1.842-0.597 0.599-0.187 1.612-0.783 3.085-1.105 1.473-0.323 2.025-0.967 2.025-0.967s-0.368 0.459-0.46 1.473c-0.09 1.014-0.05 2.532 0.185 3.408 0.229 0.873 0.874 1.933 1.887 2.854 1.013 0.922 1.243 0.507 1.979-0.644 0.737-1.152 2.256-2.626 2.256-2.626s0.09 0.369 1.105 3.638c1.013 3.27 4.328 5.986 4.328 5.986s3.315-2.717 4.328-5.986 1.104-3.638 1.104-3.638 1.521 1.474 2.257 2.626c0.737 1.15 0.968 1.565 1.98 0.644 1.013-0.921 1.657-1.98 1.888-2.854 0.23-0.876 0.276-2.395 0.186-3.408-0.09-1.014-0.462-1.473-0.462-1.473s0.553 0.644 2.026 0.967c1.473 0.322 2.486 0.919 3.084 1.105 0.599 0.184 1.429 0.966 1.843 0.597 0.414-0.367 0.645-1.058 0.645-2.484 0-1.43-0.09-1.797-0.276-2.303-0.185-0.508-0.185-0.508-0.185-0.508s1.935 0.83 3.592 1.105 2.992 0.691 3.086-1.105c0.09-1.796-0.508-3.406-0.968-3.868-0.461-0.459-1.335-1.333-0.23-1.288 1.104 0.05 1.657 0.275 3.269-0.322 1.611-0.599 2.993-1.382 3.27-2.164 0.276-0.783 0.553-1.381-0.46-1.981-1.013-0.597-3.178-1.426-5.111-3.359-1.933-1.935-3.27-2.163-4.007-3.684-0.735-1.521-1.057-1.657-1.057-1.657s-0.324-2.994-0.922-4.467c-0.599-1.475-2.625-3.453-2.625-3.453s1.244-0.461 1.105-2.671c-0.138-2.211-0.321-3.683-1.703-5.847-1.382-2.165-2.58-2.533-3.363-4.145-0.782-1.61-1.381-2.348-1.749-3.5-0.07-0.232-0.153-0.464-0.235-0.696 0.395-0.176 0.792-0.351 1.188-0.521 1.611 1.485 5.806 5.51 8.987 9.911 4.021 5.563 4.807 6.722 5.685 5.608 0.877-1.111 1.57-2.177 1.57-2.177s2.495 0.833 5.776 3.15c3.28 2.318 4.251 3.801 4.989 2.967 0.391-0.439 0.478-1.168 0.525-1.727 0 0 1.885 0.551 4.044 1.307 1.295 0.454 2.733 1.026 3.801 1.477 2.842 1.203 3.15 1.822 5.411 3.608s5.48 1.614 8.529 0.686c3.047-0.926 11.167-3.605 14.42-5.014 3.254-1.411 5.584-2.646 5.927-3.3 0.342-0.652 0.718-2.474 0.718-3.125 0-0.653-0.718-1.614-0.959-1.787-0.238-0.173-0.135-0.688-0.07-1.099 0.07-0.413-0.136-1.649-0.649-2.2-0.514-0.55-0.445-0.754-0.377-2.337 0.145-3.351-2.247-7.576-5.636-8.921 0 0-0.09-0.39-0.366-0.62-0.272-0.229-0.73-0.435-0.73-0.435s0.07-1.927 0.04-2.341c-0.02-0.413 0.16-0.365 0.391-0.252 0.228 0.114 0.593 0.574 1.142 0.712 0.549 0.137 0.892-0.254 1.007-0.872 0.113-0.619 0.571-1.858 0.777-2.478 0.207-0.618-0.05-0.711-0.298-0.779-0.251-0.07-1.074-0.16-1.464-0.254-0.388-0.09-0.388-0.114-0.297-0.32 0.09-0.205 0.229-0.526 0.731-1.308 0.504-0.78 0.05-0.803-0.435-0.962-0.48-0.161-2.651-0.826-3.246-0.919-0.596-0.09-0.733 0.413-0.733 0.665 0 0.254 0.02 1.354 0.05 1.767 0.02 0.413-0.365 0.298-0.594 0.184-0.23-0.114-0.755-0.437-1.166-0.758-0.412-0.32-0.709-0.02-0.87 0.437-0.16 0.458-0.662 2.341-0.822 2.891-0.16 0.551-0.115 0.986 0.114 1.077 0.229 0.09 1.303 0 1.944 0 0.639 0 0.273 0.368 0.273 0.368s-0.686 1.124-0.915 1.559c-0.228 0.437-0.617 0.506-1.143 0.506h-1.408s-3.514 0.132-6.101 2.056c-2.586 1.923-3.315 3.514-3.713 4.441-0.398 0.93-0.861 0.729-1.261 1.062-0.397 0.332-1.524 1.526-1.524 2.256 0 0.729 0.265 1.126-0.861 1.855-1.129 0.73-2.057 3.913-0.531 5.571 1.525 1.656 2.122 3.313 2.587 4.11 0.462 0.796 0 1.127-0.399 1.127-0.397 0-1.228-0.676-1.922-1.194-0.694-0.517-4.197-3.253-5.702-4.375-1.507-1.124-0.398-0.995-0.398-0.995s0.383 0.03 1.262-0.335c0.877-0.371 1.017-0.833 0.137-1.112-0.877-0.277-2.587-1.251-3.048-1.715-0.463-0.463-0.693-0.973 0.185-1.437 0.877-0.463 2.818-1.715 1.294-2.132-1.526-0.419-3.328-0.741-4.807-1.159-1.479-0.417-1.618-0.834-1.618-0.834l0.972-1.391s0.785-1.111-0.139-1.251-3.142-0.417-5.175-1.299c-4.061-1.759-6.605-4.742-7.548-8.383l0.07-0.09c0.759 1.501 2.525 4.306 5.188 4.393 3.64 0.12 4.057-1.017 3.222-2.212s-1.79-2.271-2.028-2.629c-0.24-0.359-0.3-0.838 0.655 0.06s2.773 3.944 8.264 3.586c5.489-0.358 5.462-1.435 5.462-1.733 0-1.054-1.118-1.221-1.777-1.882-0.344-0.345-0.553-0.846 0.555-0.423s3.824 0.924 7.52 0.131c1.458-0.311 5.324-1.999 5.698-3.962 0 0-2.454-0.134-4.168-0.873-1.716-0.741-2.745-1.347-0.924-0.977 1.821 0.369 5.357 1.108 8.47 0.05 1.819-0.618 4.17-2.09 4.169-4.783 0 0-3.377-0.713-4.617-1.163-1.24-0.449-1.636-0.792-1.636-0.792s4.826 1.531 9.208-0.688c4.38-2.219 4.564-5.257 4.564-5.971s-0.105-0.926-0.105-0.926-3.984 0.979-6.965 0.952c-2.982-0.03-3.906-0.291-3.906-0.291s8.339-0.238 12.533-2.801c4.195-2.563 4.434-7.611 4.434-7.611s-4.751 1.691-7.731 2.036c-2.981 0.342-4.803 0.342-5.541 0.289-0.739-0.05-1.16-0.289 0.475-0.369 1.638-0.08 7.968-1.137 11.478-3.197 3.51-2.062 5.699-6.476 5.911-8.535 0.211-2.061-0.03-1.691-1.584-0.713-1.557 0.978-7.308 3.989-11.107 4.834-3.799 0.848-4.538 0.952-4.538 0.952s-1.46-0.07 0.42-0.59zm-150.1 9.58c-0.406 0.233-1.683 0.96-1.683 0.96s-0.668-1.368-0.842-1.775c-0.174-0.408-0.09-0.583 0.144-0.583 0.233 0 0.93-0.203 1.481-0.261 0.08 0 0.151-0.02 0.215-0.04 0.184 0.525 0.426 1.094 0.744 1.665-0.02 0.02-0.04 0.03-0.06 0.04zm51.18 29.97c-1.017 1.902-3.789 3.895-5.822 4.775s-4.251 1.159-5.175 1.297c-0.924 0.139-0.139 1.252-0.139 1.252l0.97 1.392s-0.138 0.416-1.617 0.834c-1.479 0.416-3.28 0.74-4.805 1.158-1.525 0.416 0.416 1.668 1.293 2.133 0.878 0.462 0.647 0.973 0.185 1.436-0.462 0.464-2.171 1.437-3.049 1.715s-0.74 0.743 0.138 1.113c0.878 0.369 3.281 0.833 3.281 0.833s-0.05 0.09-1.524 1.206c-1.479 1.112-4.067 1.854-5.776 1.946-1.71 0.09-4.413 0.204-7.841 0.05-3.427-0.156-3.821-0.235-3.821-0.235s-0.118-1.144-0.355-2.838c-0.236-1.693-1.26-4.097-2.048-5.199-0.789-1.104-2.442-3.31-2.442-3.31s0.04-0.473 0.157-1.024c0.118-0.551 0.04-1.143-0.361-2.184-0.401-1.042-2.403-2.563-2.403-2.563s-0.08-1.121-0.08-2.163c0-1.041-0.72-5.126-1.362-7.048-0.64-1.922-3.764-6.968-5.206-9.371-1.442-2.402-2.298-5.964-2.734-8.729-0.436-2.766-0.261-3.668-0.116-4.396 0.06-0.319 0.2-0.609 0.328-0.867 0.592 0.765 1.35 1.489 2.318 2.082 4.195 2.563 12.533 2.801 12.533 2.801s-0.924 0.265-3.905 0.291c-2.981 0.03-6.965-0.952-6.965-0.952s-0.106 0.212-0.106 0.926 0.186 3.752 4.565 5.971c4.379 2.22 9.208 0.688 9.208 0.688s-0.396 0.343-1.636 0.792c-1.24 0.45-4.617 1.163-4.617 1.163 0 2.693 2.351 4.165 4.168 4.783 3.114 1.056 6.649 0.316 8.471-0.05 1.82-0.37 0.792 0.235-0.924 0.977-1.714 0.739-4.168 0.873-4.168 0.873 0.376 1.963 4.242 3.651 5.699 3.962 3.694 0.793 6.411 0.292 7.52-0.131s0.897 0.08 0.554 0.423c-0.659 0.661-1.777 0.828-1.777 1.882 0 0.299-0.03 1.375 5.462 1.733 5.49 0.358 7.308-2.688 8.263-3.586 0.955-0.897 0.895-0.419 0.656-0.06-0.238 0.357-1.193 1.434-2.028 2.629-0.836 1.195-0.418 2.332 3.222 2.212 2.681-0.09 4.455-2.932 5.204-4.424l0.05 0.07c0.05 0.07 0.1 0.133 0.147 0.196-0.34 0.88-0.93 2.32-1.58 3.54zm44.28-118.76c-0.496-0.945-0.759-1.39-0.759-1.39s2.068 0.97 3.299 2.361c1.23 1.393 1.203 2.127 1.387 2.811 0.184 0.683 0 1.942-0.183 3.124-0.184 1.181-0.184 1.891 0.05 2.311 0.235 0.42 0.445 0.63 0.445 0.63s-0.918 0.236-1.781 0.578c-0.864 0.342-1.989 0.656-2.617 0.131-0.629-0.525-0.785-0.893-0.392-1.234 0.392-0.342 1.857-0.762 2.041-3.282 0.18-2.521-0.99-5.094-1.49-6.04zm-11.28 6.857c0.472-1.197 0.666-2.34 0.305-4.792-0.303-2.061-0.703-3.826-0.805-6.047 0 0 1.528 0.335 3.723 2.341 2.193 2.006 2.695 4.068 2.695 5.072 0 1.002-0.529 2.229-0.612 3.205-0.08 0.975 0.277 1.839 0.277 1.839s-0.806 0.333-1.527 0.834c-0.722 0.502-1.222 0.809-2.333 0.753-1.112-0.056-1.779-0.557-2.418-0.892s-1.054-0.39-1.054-0.39 1.27-0.724 1.74-1.923zm-10.7-8.498c2.195-2.005 3.722-2.341 3.722-2.341-0.101 2.221-0.501 3.986-0.806 6.047-0.36 2.452-0.166 3.595 0.306 4.792 0.473 1.199 1.75 1.923 1.75 1.923s-0.416 0.056-1.056 0.39c-0.638 0.334-1.305 0.836-2.417 0.892-1.111 0.055-1.611-0.251-2.333-0.753-0.723-0.501-1.528-0.834-1.528-0.834s0.361-0.864 0.277-1.839c-0.08-0.975-0.61-2.202-0.61-3.205 0.01-1.004 0.51-3.066 2.7-5.072zm-7.91 12.197c-0.629 0.525-1.754 0.211-2.619-0.131-0.864-0.342-1.78-0.578-1.78-0.578s0.209-0.209 0.445-0.63c0.236-0.419 0.236-1.129 0.05-2.311-0.183-1.182-0.367-2.441-0.183-3.124 0.183-0.684 0.157-1.418 1.387-2.811 1.231-1.391 3.299-2.361 3.299-2.361s-0.262 0.445-0.759 1.39c-0.498 0.946-1.676 3.519-1.492 6.041 0.184 2.52 1.65 2.939 2.042 3.282 0.39 0.34 0.23 0.708-0.4 1.233zm29.24 21.078c-2.162 1.195-3.396 0.929-3.308 1.813 0.09 0.885 2.027 1.549 2.027 1.549s-1.984 2.123-3.528 3.097c-1.542 0.973-3.353 1.592-3.353 1.592s-0.616 0.09-0.264 1.062c0.354 0.973 0.971 1.636 1.455 1.902 0.485 0.265 0.751 0.354 0.751 0.354s-2.69 2.875-3.881 3.804-1.853 1.238-2.822 1.637c-0.971 0.398-0.484 1.99-0.265 2.699 0.22 0.706 1.058 1.68 1.544 1.813 0.483 0.133 0.661 0.486 0.04 1.46-0.462 0.726-2.001 2.657-2.735 3.722l-0.04 0.02c-0.729-1.058-2.289-3.014-2.753-3.745-0.617-0.974-0.441-1.327 0.04-1.46 0.485-0.133 1.324-1.106 1.544-1.813 0.219-0.709 0.705-2.301-0.267-2.699-0.969-0.399-1.631-0.708-2.821-1.637-1.191-0.929-3.881-3.804-3.881-3.804s0.265-0.09 0.75-0.354c0.486-0.266 1.103-0.929 1.456-1.902 0.352-0.973-0.265-1.062-0.265-1.062s-1.808-0.619-3.352-1.592c-1.542-0.974-3.528-3.097-3.528-3.097s1.94-0.664 2.029-1.549c0.09-0.885-1.147-0.619-3.308-1.813s-2.867-2.698-2.867-2.698 2.514-0.841 3.749-3.362c0.437-0.893 0.542-1.708 0.496-2.39l0.1 0.03c4.014 1.307 8.706 1.83 12.9 1.83 4.187 0 8.877-0.526 12.883-1.83l0.09-0.03c-0.05 0.682 0.06 1.497 0.495 2.39 1.235 2.521 3.75 3.362 3.75 3.362s-0.7 1.51-2.86 2.71z"
         style="fill:#b96b29"
         id="path4145" />
      <path
         style="fill:#d4af3a"
         d="m391.24 201.75a0.798 0.798 0 0 1 -0.798 0.798 0.798 0.798 0 0 1 -0.798 -0.798 0.798 0.798 0 0 1 0.798 -0.798 0.798 0.798 0 0 1 0.798 0.798zm-1.121 3.83a0.797 0.797 0 0 1 -0.797 0.797 0.797 0.797 0 0 1 -0.797 -0.797 0.797 0.797 0 0 1 0.797 -0.797 0.797 0.797 0 0 1 0.797 0.797zm-1.16 3.83a0.797 0.797 0 0 1 -0.797 0.797 0.797 0.797 0 0 1 -0.797 -0.797 0.797 0.797 0 0 1 0.797 -0.797 0.797 0.797 0 0 1 0.797 0.797zm8.38 1.67a0.797 0.797 0 0 1 -0.797 0.797 0.797 0.797 0 0 1 -0.797 -0.797 0.797 0.797 0 0 1 0.797 -0.797 0.797 0.797 0 0 1 0.797 0.797zm-12.769-2.71a0.798 0.798 0 0 1 -0.798 0.798 0.798 0.798 0 0 1 -0.798 -0.798 0.798 0.798 0 0 1 0.798 -0.798 0.798 0.798 0 0 1 0.798 0.798zm-4.411-1.07a0.777 0.777 0 0 1 -0.777 0.777 0.777 0.777 0 0 1 -0.777 -0.777 0.777 0.777 0 0 1 0.777 -0.777 0.777 0.777 0 0 1 0.777 0.777zm-145.77-47.84c-0.05 0-0.114 0.03-0.181 0.06-0.267 0.112-1.071 0.402-1.627 0.649-0.557 0.245-0.379 0.513-0.201 0.825 0.178 0.315 0.825 1.633 1.114 2.103 0.29 0.469 0.02 0.672-0.312 0.828-0.334 0.156-0.825 0.223-1.494 0.446-0.669 0.224-0.624 0.38-0.557 0.604 0.07 0.225 0.512 1.141 0.756 1.565 0.246 0.425 0.469 0.133 0.469 0.133s0.714-0.646 1.315-0.938c0.602-0.289 0.646-0.201 0.801 0.247 0.157 0.446 0.849 2.794 0.982 3.241 0.134 0.446 0.358 0.401 0.67 0.269 0.312-0.133 0.734-0.201 1.091-0.313 0.357-0.111 0.491-0.827 0.491-0.827s-1.315-2.369-1.672-2.974c-0.357-0.604 0-0.738 0.268-0.782 0.267-0.04 1.047-0.156 1.716-0.313 0.661-0.17 0.481-0.55 0.461-0.78v0.02c-0.02-0.223-0.468-1.006-0.578-1.409-0.112-0.4-0.514-0.155-0.514-0.155s-0.871 0.491-1.517 0.67-0.736-0.07-0.803-0.401c-0.07-0.338-0.222-1.387-0.333-2.125-0.08-0.552-0.192-0.664-0.354-0.64zm5.315 7.957c-0.249-0.02-0.564 0.193-0.878 0.506-0.42 0.419-0.859 1.194-1.036 1.747-0.177 0.555-0.177 0.753-0.177 0.753s-0.839-0.198-2.185-0.09c-1.346 0.11-1.985 0.222-2.03 0.509-0.04 0.288 0.177 0.51 1.147 0.931 0.971 0.419 1.589 0.596 2.073 1.172 0.486 0.575 1.729 3.466 2.107 4.86 0.379 1.396 1.19 5.18 1.518 8.15 0.329 2.97 1.332 6.568 2.734 9.573 0.459 0.99 2.969 5.67 5.088 4.729l0.632-3.951c-0.475-3.951-2.53-7.691-4.162-10.275-1.634-2.58-3.32-6.637-4.058-8.797-0.736-2.161-1.232-5.12-1.232-6.668 0-1.55 0.661-2.347 0.661-2.347s0.287-0.419 0.02-0.686c-0.07-0.06-0.142-0.1-0.225-0.108zm152.08 23.281c-0.182-0.01-0.269 0.06-0.269 0.22 0 0.222-0.05 1.37-0.05 1.814 0 0.441-0.04 0.707-0.618 0.728-0.574 0.02-0.928-0.312-1.391-0.819-0.464-0.507-0.662-0.309-0.707-0.109-0.04 0.199-0.42 1.659-0.508 2.057-0.109 0.39 0.11 0.369 0.44 0.319l0.03 0.01c0.331-0.04 0.465-0.09 1.479-0.221 1.018-0.134 0.641 0.839 0.464 1.216-0.177 0.374-0.486 1.128-0.904 1.834-0.422 0.711 0.131 0.821 0.418 0.931 0.287 0.112 0.706 0.154 1.523 0.376 0.818 0.22 0.662-0.377 0.685-0.686 0.02-0.311 0.06-1.925 0.156-2.499 0.09-0.574 0.616-0.42 0.815-0.31s0.706 0.397 1.127 0.617c0.418 0.224 0.618-0.02 0.707-0.263 0.09-0.243 0.285-0.686 0.463-1.327 0.177-0.641-0.22-0.509-0.619-0.509-0.396 0-0.973 0-1.634-0.02-0.663-0.02-0.243-0.663-0.243-0.663s0.487-0.795 0.862-1.393c0.376-0.597 0.243-0.686-0.135-0.798-0.373-0.111-1.544-0.375-1.874-0.462-0.08-0.02-0.156-0.04-0.217-0.04zm-3.503 8.333s-1.277 5.742-1.517 6.622c-0.239 0.876-0.8 0.875-1.716 0.715-0.918-0.159-7.538-1.713-7.538-1.713l-0.516 1.235c-0.519 1.235-0.758 2.713-0.758 3.47 0 0.756 0.269 0.74 1.299 0.97h0.02c1.038 0.238 9.573 1.874 10.29 2.033 0.72 0.159 1.316 0.317 1.516 0.118 0.201-0.198 0.319-0.317 1.078-0.599 0.758-0.277 0.718-1.036 0.718-1.036s0.199-0.718 0.277-1.435c0.08-0.718 0.481-0.958 1.317-0.08 0.839 0.875 0.998 2.153 1.157 3.39 0.16 1.237 2.114 1.555 2.87 1.675 0.759 0.12 1.116-0.12 1.557-0.836 0.439-0.719 0.678-2.156 0.797-3.074 0.119-0.916 0.04-0.836-0.917-1.074-0.958-0.239-5.384-1.236-6.182-1.438-0.796-0.199-0.639-0.717-0.519-1.274 0.119-0.558 1.874-6.184 1.874-6.184-1.25-0.772-3.004-1.232-5.103-1.475zm2.041 1.283a1.596 1.596 0 0 1 1.595 1.596 1.596 1.596 0 0 1 -1.595 1.597 1.596 1.596 0 0 1 -1.596 -1.597 1.596 1.596 0 0 1 1.596 -1.596zm-141.06 1.724c-0.576 0-1.082 0.145-1.396 0.429-1.234 1.113-0.489 3.89 1.294 3.89 0.646 0 1.4-0.108 1.867-0.555 0.419-0.391 0.51-1.04 0.51-1.621 0-1.22-1.058-2.142-2.274-2.142zm139.94 2.106a1.596 1.596 0 0 1 1.596 1.596 1.596 1.596 0 0 1 -1.596 1.597 1.596 1.596 0 0 1 -1.596 -1.597 1.596 1.596 0 0 1 1.596 -1.596zm-9.931 1.749a1.556 1.556 0 0 1 1.556 1.556 1.556 1.556 0 0 1 -1.556 1.557 1.556 1.556 0 0 1 -1.555 -1.557 1.556 1.556 0 0 1 1.555 -1.556zm-3.473 0.606c-0.279 0-0.437 0.239-0.639 0.557-0.199 0.318-0.759 0.4-0.957 1.316-0.2 0.911 0.08 0.951 0.281 0.991 0.198 0.04 0.955 0.278 0.955 0.278s0-1.116 0.16-1.874c0.159-0.756 0.479-1.275 0.2-1.275zm7.854 0.436a1.595 1.595 0 0 1 1.596 1.595 1.595 1.595 0 0 1 -1.596 1.595 1.595 1.595 0 0 1 -1.595 -1.595 1.595 1.595 0 0 1 1.595 -1.595zm-132.45 0.09c-0.221-0.01-0.439 0.06-0.666 0.182h-0.01c-0.915 0.511-0.882 4.249-0.475 6.187 0.407 1.939 2.305 4.354 2.882 5 0.576 0.646 0.711 0.646 1.018 0.476 0.306-0.169 0.439-0.169 0.439-0.169s0.813-0.272 1.424-0.748c0.609-0.477 0.373-1.667 0.271-2.721-0.102-1.056-0.915-3.165-2.406-5.61-1.11-1.838-1.809-2.567-2.474-2.602zm136.84 0.951a1.596 1.596 0 0 1 1.596 1.596 1.596 1.596 0 0 1 -1.596 1.597 1.596 1.596 0 0 1 -1.596 -1.597 1.596 1.596 0 0 1 1.596 -1.596zm3.871 1.436s-0.04 1.156-0.161 1.555c-0.12 0.399-0.397 0.998 0.08 1.157 0.479 0.16 0.916 0.357 1.193 0.279 0.281-0.08 0.16-0.638 0-1.116-0.158-0.479-0.397-1.079-0.757-1.476l-0.35-0.389v-0.01zm4.51 0.234a1.596 1.596 0 0 1 1.595 1.597 1.596 1.596 0 0 1 -1.595 1.595 1.596 1.596 0 0 1 -1.596 -1.595 1.596 1.596 0 0 1 1.596 -1.597zm-22.294 0.406c-0.25 0.02-0.54 0.131-0.884 0.373-0.916 0.649-0.993 1.606-1.107 2.372-0.115 0.764 0 1.646 0.915 2.754 0.917 1.108 1.871 2.217 2.216 3.363 0.344 1.147 1.374 2.908-0.08 2.983-1.45 0.08-2.098 0.115-3.206-0.954-1.108-1.072-5.424-4.017-6.605-4.974-1.184-0.955-1.681-1.262-1.681-1.262-1.996-0.03-3.997-0.856-5.993-2.216 0 0 1.145 2.944 1.372 4.052 0.23 1.11 0.192 1.72 0.192 1.72s4.352 2.218 6.071 3.06c1.718 0.841 5.192 2.83 6.871 3.861 1.682 1.034 3.094 2.641 6.072 2.029 2.979-0.612 9.01-2.448 10.957-3.022 1.948-0.574 7.332-1.912 9.317-3.287 1.985-1.377 2.177-1.3 2.519-2.677 0.341-1.35 0-2.111-0.879-2.692v-0.02c-0.88-0.575-1.528-0.727-1.986 0.345-0.459 1.07-0.496 2.639-1.642 3.747-1.147 1.109-2.749 2.256-4.353 2.142-1.603-0.115-2.522-0.498-2.141-2.333 0.384-1.835 2.828-2.408 3.4-3.364s0.42-2.066-0.421-2.792c-0.841-0.728-2.063-0.879-2.405-0.649-0.344 0.229-1.337 1.07-1.833 2.445-0.497 1.378-0.801 2.486-1.871 3.366-1.066 0.879-3.817 1.759-5.954 1.26-2.138-0.496-2.902-1.147-3.705-3.25-0.802-2.103-1.756-5.582-2.177-5.964-0.262-0.239-0.568-0.448-0.986-0.413zm25.281 2.145c-0.08 0.02-0.158 0.134-0.237 0.399-0.209 0.718-0.398 1.088-0.24 1.437 0.161 0.355 0.478 0.434 0.717 0.515 0.239 0.08 0.56 0.08 0.56-0.359 0-0.438 0.08-0.997-0.278-1.476-0.224-0.299-0.383-0.548-0.522-0.519zm-117.08 0.481c-0.03 0.01-2.733 1.305-3.597 1.537-0.87 0.237-1.071 0.237-1.071 0.237s-1.873 1.709-3.243 2.513c-1.441 0.848-3.094 1.464-4.75 1.646-2.141 0.233-8.024 0.166-10.666 0.07-2.642-0.1-4.279 0.537-5.417 1.811-1.137 1.275-1.405 3.119 0.03 4.528 1.437 1.408 3.043 0.706 3.579-0.166 0.534-0.874 0.266-1.981 0.03-2.483-0.233-0.504 0.47-0.671 1.205-0.705 0.736-0.03 1.972 0.07 3.109 0.234 1.137 0.167 3.143 0.838 4.013 1.308 0.869 0.471 0.368 0.538-0.234 0.437-0.603-0.101-1.27-0.336-2.342-0.736-1.07-0.403-1.972-0.604-2.64-0.639-0.669-0.03-0.437 0.336-0.302 0.57 0.134 0.235 0.501 0.805 0.601 1.074 0.102 0.269-0.199 1.271-0.199 1.271l0.334 0.64s0.401-0.638 0.535-0.971c0.133-0.337-0.03-0.974 0.1-1.276 0.134-0.302 0.702-0.302 1.136 0.202 0.435 0.502 0.938 1.106 1.172 2.378 0.233 1.275-0.203 2.183-0.203 2.183s0.538 0.437 0.638 0.736c0.1 0.303-0.135 1.511-0.135 1.511s0.369 0.234 0.704-0.471c0.334-0.703 0.735-1.945 0.835-2.382 0.1-0.436 0.4-1.24 0.935-0.636 0.535 0.602 0.903 1.342 1.004 1.712 0.1 0.368 0.1 0.671 0.1 0.671s1.205-1.175 1.605-1.846c0.401-0.672 1.237-1.678 2.375-2.616 1.137-0.94 3.109-2.818 4.079-3.455 0.97-0.638 3.443-1.978 4.213-2.447 0.769-0.469 0.903-0.503 1.037-1.813 0.134-1.309 0.771-2.48 1.071-3.387 0.29-0.91 0.36-1.24 0.36-1.24zm-23.634 9.655s-0.07 0.669-0.133 1.039c-0.07 0.369-0.1 0.436-0.1 0.436s0.267 0.27 0.501 0.37c0.23 0.09 0.63 0.3 0.66-0.14 0.03-0.436-0.135-0.905-0.436-1.207-0.3-0.302-0.502-0.502-0.502-0.502zm-7.241 0.24c-0.209 0-0.475 0.111-0.742 0.327-0.536 0.437-1.239 0.838-1.239 2.113 0 1.273 0.469 2.783 2.241 3.318 1.77 0.54 1.74 0.14 1.64-0.429-0.1-0.571 0-1.142-0.436-1.577-0.435-0.437-0.969-1.309-1.169-2.013s0.165-1.04 0.1-1.442c-0.03-0.202-0.184-0.301-0.392-0.297zm10.686 1.934s-0.201 0.804-0.568 1.509c-0.368 0.704-0.737 1.073-0.737 1.073s0.871 0.234 1.205 0.234c0.335 0 0.71 0.01 0.71-0.86v-0.01c0-0.873-0.601-1.944-0.601-1.944zm-3.906 0.207s-0.268 0.872-0.635 1.308c-0.367 0.437-0.802 0.737-0.769 1.308 0.03 0.56-0.04 1.161 0.901 0.961v0.01c0.936-0.201 1.438-0.57 1.839-0.905s0.636-1.241 0.368-1.71c-0.267-0.472-0.936-0.973-1.203-0.973h-0.502zm-3.287 2.503c-0.112-0.02-0.247 0-0.33 0.176-0.167 0.335-0.134 0.504 0.335 1.24 0.468 0.737 0.769 0.907 1.303 1.241 0.536 0.336 0.167-0.335 0.1-0.537-0.07-0.202 0-0.467-0.132-0.636-0.134-0.169-0.202-0.37-0.202-0.906 0-0.529-0.871-0.499-0.871-0.499s-0.09-0.06-0.205-0.07zm5.654 0.87c-0.246 0.02-0.438 0.09-0.538 0.245-0.201 0.304-0.57 0.706-1.271 0.94-0.702 0.234-0.803 0.47-1.237 0.604-0.435 0.135-0.102 0.404-0.469 0.706-0.367 0.3-0.868 0-1.437-0.17-0.568-0.167-0.602-0.267-1.237-0.302-0.635-0.03-2.307-0.132-2.307-0.132s-0.07-0.03-0.434-0.03c-0.368 0-0.401 0.07-0.568 0.47-0.166 0.402 0.03 1.408 0.436 1.912 0.401 0.501 1.704 0.737 2.573 1.006 0.87 0.267 1.306 0.369 2.042 0.502 0.759 0.13 0.859-0.01 1.189-0.511h-0.02c0.334-0.505 0.636-0.639 1.437-1.006 0.802-0.369 2.274-0.57 2.775-0.604 0.502-0.03 1.639-1.005 1.471-2.013-0.167-1.006-0.902-1.409-1.538-1.542-0.317-0.07-0.619-0.101-0.866-0.08zm5.487 0.312s-0.502 1.544-0.737 1.946c-0.219 0.411-0.189 0.469 0.111 0.74h-0.01c0.3 0.27 0.635 0.639 0.904 0.201 0.268-0.435 0.701-1.341 0.4-1.877-0.302-0.536-0.668-1.007-0.668-1.007zm-2.14 3.352c-0.503 0-0.77 0-1.038 0.234s-0.634 0.571-1.37 0.806c-0.735 0.234-1.305 0.502-2.308 0.905-1.003 0.401-1.304 1.072-1.738 1.343-0.436 0.267-1.271 0-1.271 0s-0.603-0.169-0.803 0c-0.201 0.165 0 0.501 0.4 0.937 0.402 0.438 1.171 0.403 2.04 0.672 0.87 0.268 1.037 0.07 1.372-0.168 0.334-0.234 0.601-0.736 1.204-1.107 0.601-0.367 1.906-0.435 2.541-0.502 0.65-0.07 1.79-0.27 2.491-0.74h-0.02c0.702-0.469 0.3-1.275 0.134-1.777-0.167-0.504-1.136-0.604-1.638-0.604zm1.443 4.406c-0.112-0.04-0.282 0.01-0.626 0.126-0.689 0.229-1.666 0.201-2.411 0.23-0.746 0.03 0.09 0.86 0.602 1.636 0.517 0.774 0.344 3.384 0.344 3.384s0 0.231-0.115 0.606c-0.115 0.371-0.03 0.63 0.172 0.716 0.2 0.09 0.315-0.09 0.832-0.69 0.517-0.602 1.464-2.179 1.464-2.179s0.144 0.03 0.946 0.229c0.803 0.202 2.095 0.09 2.756-0.115 0.679-0.2 0.36-0.689-0.13-0.779h-0.01c-0.488-0.09-0.774-0.285-1.492-0.772-0.718-0.488-1.866-1.494-2.067-1.982-0.101-0.244-0.152-0.372-0.263-0.411zm0.357 5.146c-0.1 0.02-0.18 0.07-0.267 0.18-0.17 0.232-0.314 0.663-0.399 0.891-0.09 0.23-0.06 0.432 0.143 0.604 0.201 0.173 0.488 0.373 0.488 0.373s0.287 0.316 0.576 0.458c0.287 0.145 0.342-0.286 0.342-0.603 0-0.314 0.172-0.888 0.172-1.261s-0.299-0.551-0.65-0.601h-0.01c-0.172-0.03-0.294-0.05-0.394-0.04zm55.08-168.49a0.847 0.817 0 0 1 -0.847 0.817 0.847 0.817 0 0 1 -0.847 -0.817 0.847 0.817 0 0 1 0.847 -0.817 0.847 0.817 0 0 1 0.847 0.817zm0.119 4.085a0.966 0.931 0 0 1 -0.966 0.931 0.966 0.931 0 0 1 -0.966 -0.931 0.966 0.931 0 0 1 0.966 -0.931 0.966 0.931 0 0 1 0.966 0.931zm0.04 4.273a1.004 0.968 0 0 1 -1.004 0.968 1.004 0.968 0 0 1 -1.004 -0.968 1.004 0.968 0 0 1 1.004 -0.968 1.004 0.968 0 0 1 1.004 0.968zm-3.375-10.867s-0.23 4.1262-0.519 6.5205c-0.289 2.3965-1.068 4.618-0.433 6.7247 0.64 2.1059 1.73 2.6841 1.73 2.6841s0.781-0.8659 1.068-1.4149c0.29-0.5482 0.525-1.0386 0.525-1.0386s0.234 0.4904 0.523 1.0386c0.289 0.5476 1.068 1.4149 1.068 1.4149s1.098-0.5782 1.731-2.6841c0.637-2.1067-0.147-4.3297-0.434-6.7247-0.289-2.3943-0.519-6.5205-0.519-6.5205-0.831 0.4754-1.616 0.6782-2.37 0.691-0.754-0.014-1.541-0.2163-2.372-0.691zm2.372 1.1336a1.738 1.677 0 0 1 1.737 1.6769 1.738 1.677 0 0 1 -1.737 1.6762 1.738 1.677 0 0 1 -1.739 -1.6762 1.738 1.677 0 0 1 1.739 -1.6769zm0 4.017a1.822 1.759 0 0 1 1.823 1.7575 1.822 1.759 0 0 1 -1.823 1.7597 1.822 1.759 0 0 1 -1.822 -1.7597 1.822 1.759 0 0 1 1.822 -1.7575zm0 4.2161a1.894 1.828 0 0 1 1.894 1.8275 1.894 1.828 0 0 1 -1.894 1.8297 1.894 1.828 0 0 1 -1.894 -1.8297 1.894 1.828 0 0 1 1.894 -1.8275zm0.468 8.8824a0.451 0.451 0 0 1 -0.46 0.451 0.451 0.451 0 0 1 -0.45 -0.451 0.451 0.451 0 0 1 0.45 -0.451 0.451 0.451 0 0 1 0.451 0.451zm-0.471-3.912s-0.202 0.847-0.473 1.206c-0.271 0.36-0.476 0.681-0.398 1.119 0.08 0.437 0.578 0.729 0.871 0.729 0.292 0 0.793-0.292 0.87-0.729 0.08-0.438-0.126-0.759-0.397-1.119-0.26-0.359-0.47-1.206-0.47-1.206zm3.63-18.888h-2.726v-2.325c-0.26-0.053-0.528-0.079-0.805-0.079-0.244 0-0.481 0.021-0.712 0.063v2.342h-2.82c-0.1 0.295-0.146 0.61-0.146 0.935 0 0.133 0 0.265 0.03 0.396h7.301c0.02-0.131 0.03-0.263 0.03-0.396-0.01-0.326-0.07-0.64-0.16-0.936zm-2.21-7.937-2.52-0.023 0.44 1.914-2.22-0.211v1.751l2.2-0.256-0.12 1.891 2.03-0.164-0.19-1.774 2.18 0.303 0.09-1.751-2.29 0.211zm1.01 36.204-2.43-1.138-2.34 1.138 2.4 1.222zm-3.537-2.115c-2.095-0.01-6.651 0.016-9.559 0.3333-3.875 0.4234-4.496 1.1465-4.496 1.1465s-0.174 0.2235 0.894 0.4976c1.069 0.2741 3.006 0.8224 3.081 1.0722 0.07 0.2492 0.423 0.8467-0.02 1.0708-0.448 0.2228-2.163 1.4449-2.46 1.6941-0.298 0.2498-0.323 0.6482 0.149 0.6731 0.472 0.024 0.479 0.018 1.812-0.2491 3.989-0.7931 7.743-1.0158 11.728-1.0708 3.982 0.055 7.736 0.2777 11.726 1.0708 1.332 0.2656 1.341 0.2734 1.814 0.2491 0.47-0.025 0.449-0.4233 0.149-0.6731h-0.01c-0.3-0.2492-2.014-1.4713-2.461-1.6941-0.447-0.2248-0.1-0.8216-0.02-1.0708 0.07-0.2498 2.012-0.7981 3.081-1.0722 1.067-0.2741 0.893-0.4976 0.893-0.4976s-0.621-0.7231-4.498-1.1465c-3.874-0.4226-10.68-0.3248-10.68-0.3248s-0.425-0.01-1.124-0.01zm1.109 0.434s1.499 0.6411 2.187 0.9659c0.679 0.3269 1.01 0.4776 1.171 0.9023 0.163 0.4283 0.273 0.7039-0.316 0.9787-0.586 0.277-3.013 1.4056-3.013 1.4056s-2.451-1.2542-2.79-1.4056c-0.342-0.1499-0.599-0.3498-0.361-0.9144 0.239-0.5654 0.139-0.4526 0.914-0.841 0.774-0.389 2.2-1.0915 2.2-1.0915zm9.288 7.027c-2.659-0.315-4.347-0.659-9.27-0.615-4.922 0.043-6.609 0.3-9.27 0.615 1.675 0.672 4.384 1.01 9.27 1.01 4.89 0 7.6-0.34 9.27-1.007zm-9.29 1.497c-3.766 0.06-8.184-0.456-10.615-1.361-0.864 0.191-1.728 0.381-2.592 0.571 4.007 1.509 7.355 2.094 13.207 2.153 5.853-0.06 9.2-0.644 13.206-2.153-0.864-0.19-1.729-0.38-2.593-0.571-2.43 0.901-6.85 1.421-10.62 1.361zm0.05 147.87s-0.3 0.525-1.201 1.58c-0.905 1.053-3.009 2.709-3.009 2.709s0.187 2.782 1.203 4.286c0.856 1.27 1.675 2.43 3.007 3.311 1.333-0.881 2.155-2.041 3.011-3.311 1.017-1.504 1.203-4.286 1.203-4.286s-2.11-1.659-3.01-2.709c-0.902-1.054-1.204-1.578-1.204-1.578zm-0.57 2.795h1.067s-0.03 1.549-0.11 2.195c-0.09 0.645-0.03 2.28-0.422 2.28-0.39 0-0.34-1.634-0.42-2.28-0.08-0.649-0.11-2.199-0.12-2.189zm-15.4-23.525c0.942-0.829 1.427-1.286 1.427-1.286s0.685-0.57 0.514 0.515c-0.172 1.084-0.543 3.311-0.314 4.28 0.228 0.971 0.342 1.798 1.541 1.084 1.199-0.713 1.484-1.142 2.055-1.74 0.57-0.6 1.17-0.855 1.027 0.09-0.144 0.941-0.571 2.368-0.371 4.28 0.2 1.911 1.142 2.196 2.368 0.57 1.228-1.626 1.969-3.109 2.34-3.909 0.371-0.799 1.113-1.483 1.113 0 0 3.192 0.732 7.835 4.251 9.074 3.521-1.239 4.253-5.882 4.253-9.074 0-1.483 0.74-0.799 1.11 0 0.372 0.8 1.113 2.283 2.341 3.909 1.227 1.626 2.169 1.341 2.368-0.57 0.199-1.912-0.229-3.339-0.371-4.28s0.457-0.686 1.028-0.09c0.57 0.599 0.854 1.027 2.054 1.74 1.199 0.714 1.313-0.113 1.541-1.084 0.228-0.97-0.143-3.196-0.313-4.28-0.172-1.085 0.513-0.515 0.513-0.515s0.485 0.457 1.428 1.286c0.94 0.827 2.233 0.877 2.233 0.877s0.605-3.351-0.791-5.352-1.909-2.652-1.909-2.652-0.79-0.05-1.395-0.278c-0.604-0.233-1.192-0.67-1.192-0.67v1.368 0.486s1.711 1.626 2.111 2.111c0.398 0.483 1.198 1.312 0.03 0.513-1.17-0.799-2.141-1.598-2.141-1.598s-0.229 1.684-0.714 2.112c-0.484 0.427-1.17 0.483-1.454 0.37l-0.285-0.115-0.09 0.658s1.055 1.969 1.197 2.768c0.144 0.799-0.09 0.712-0.57-0.315-0.485-1.025-1.426-2.339-1.854-3.052s-1.056-1.199-0.999-0.285c0.06 0.913-0.313 2.567-0.628 3.166-0.313 0.6-0.513 0.799-0.513 0.799s0.655 2.313 0.741 2.74c0.09 0.428 0.03 0.913-0.342 0.37-0.371-0.542-1.428-2.824-1.428-2.824s-1.398-0.06-1.797-0.457c-0.399-0.4-1.027-1.938-1.027-1.938s-0.572 1.964-1.046 2.595c-0.473 0.63-1.575 1.259-1.575 1.259s-0.08 3.416-0.156 4.02c-0.08 0.604-0.105 0.866-0.361 0.866-0.255 0-0.282-0.263-0.361-0.866-0.08-0.604-0.156-4.02-0.156-4.02s-1.104-0.629-1.577-1.259c-0.472-0.631-1.045-2.595-1.045-2.595s-0.627 1.538-1.027 1.938c-0.399 0.4-1.797 0.457-1.797 0.457s-1.056 2.282-1.427 2.824c-0.371 0.543-0.428 0.06-0.342-0.37 0.09-0.428 0.742-2.74 0.742-2.74s-0.2-0.199-0.514-0.799c-0.314-0.599-0.685-2.253-0.627-3.166 0.06-0.914-0.572-0.428-1 0.285s-1.369 2.026-1.854 3.052c-0.485 1.027-0.713 1.114-0.57 0.315s1.198-2.768 1.198-2.768l-0.08-0.658-0.285 0.115c-0.286 0.113-0.97 0.06-1.456-0.37-0.485-0.429-0.713-2.112-0.713-2.112s-0.97 0.799-2.14 1.598-0.371-0.03 0.03-0.513c0.399-0.485 2.11-2.111 2.11-2.111v-0.486-1.368s-0.586 0.437-1.191 0.67c-0.605 0.232-1.396 0.278-1.396 0.278s-0.512 0.651-1.908 2.652-0.791 5.352-0.791 5.352 1.3-0.04 2.24-0.86zm6.79-23.465c-0.183 0.415-1.52 3.421-2.967 5.23-0.718 0.899-1.71 1.579-2.414 2.442-0.818 1.003-1.316 2.205-1.603 3.512-0.521 2.42-0.421 3.781 0.309 4.03l-0.03 0.01c0.729 0.243 2.091-0.289 2.772-1.116 0.679-0.827 0.925-2.095 1.41-2.823 0.487-0.729 0.838-1.27 0.838-1.27s-0.103 1.202-0.748 2.813c-0.615 1.536-0.722 3.636-0.576 4.537 0.292 1.799 1.459 2.091 2.14 1.847 0.517-0.184 1.3-0.981 2.019-2.176 0.227-0.379 0.386-0.904 0.608-1.325 0.462-0.875 0.875-2.308 1.079-2.268 0.451 0.09 0.162 1.1 0 1.781-0.341 1.361-1.021 3.356-1.071 4.572-0.05 1.217 0.101 3.403 1.314 3.502 1.216 0.1 1.847-0.974 2.528-3.454 0.681-2.479 0.829-3.259 1.119-3.259 0.292 0 0.292 1.702 0.292 2.432 0 0.251 0 0.942 0.109 1.636 0.189 1.33 0.578 2.927 0.962 3.277 0.582 0.536 1.069 0.437 1.069 0.437s0.486 0.101 1.071-0.437c0.583-0.535 1.068-4.184 1.068-4.913s0-2.432 0.291-2.432c0.294 0 0.437 0.779 1.118 3.259 0.683 2.48 1.314 3.55 2.529 3.454 1.217-0.101 1.365-2.285 1.315-3.502-0.05-1.216-0.728-3.211-1.07-4.572-0.342-1.362 0.145-1.265 1.07 0.486 0.289 0.547 0.587 1.217 0.881 1.685 0.647 1.031 1.277 1.649 1.745 1.816 0.68 0.244 1.848-0.05 2.14-1.846 0.292-1.801-1.069-6.956-1.069-6.956s0.1 0.145 0.582 0.875c0.486 0.729 0.729 1.994 1.412 2.821 0.679 0.827 2.043 1.361 2.773 1.118 0.729-0.243 0.826-1.605 0.29-4.038-0.536-2.432-2.724-3.792-4.279-5.738-1.432-1.789-2.536-4.937-2.702-5.43-1.96 0.97-3.677 2.071-5.229 3.692-3.219 3.358-3.918 4.197-3.918 4.197s-0.7-0.839-3.918-4.197c-1.563-1.631-3.291-2.733-5.264-3.709zm9.229 15.255c0.18 0 0.349 0.125 0.244 0.717-0.14 0.788-0.21 2.132-0.23 2.688-0.02 0.558-0.05 0.855-0.163 0.835-0.117-0.02-0.254-0.05-0.254-0.463 0-0.417-0.09-2.41-0.09-2.757 0-0.35 0.116-0.948 0.323-0.998 0.05-0.01 0.114-0.02 0.173-0.02zm-4.673-71.024c-0.579 0-1.187 0.127-1.736 0.262-0.732 0.174-0.592 0.805-0.592 0.805s-0.559 0.03-1.152 0.103c-0.592 0.07-1.29 0.314-1.847 0.454-0.558 0.141-0.768 0.21-0.768 0.489 0 0.281 0.105 0.736 0.105 0.736s0.453 0 0.698 0.14c0.243 0.141 0.102 0.384-0.177 0.489-0.278 0.106-0.382 0.14-0.382 0.489 0 0.351 0.141 0.421 0.419 0.421s0.871 0 1.568 0.313c0.698 0.314 0.873 0.942 0.802 1.292-0.07 0.351-1.047 0.806-1.535 0.806s-0.628 0.106-0.628 0.42c0 0.315 0.594 0.282 0.594 0.282s0.592 0.03 1.744 0.173c1.15 0.14 1.324 0.385 1.848 0.839 0.522 0.455 0.14 0.559-0.104 0.698-0.245 0.142-0.629 0.456-1.011 0.597-0.384 0.139-0.629 0.42-0.978 0.488-0.349 0.07-1.222 0.04-2.824 0.666-1.604 0.629-2.162 2.729-2.162 2.729s0.209-0.07 0.942-0.457c0.731-0.384 1.639-0.804 2.476-1.328 0.836-0.522 0.835 0.246 0.417 0.98s0.385 0.593 0.628 0.384c0.244-0.211 0.558-0.421 1.359-0.841 0.803-0.419 0.524 0.246 0.524 0.246s-0.245 0.489-0.314 1.645c-0.07 1.154 1.15 0.07 1.708-0.665 0.558-0.734 0.802 0.001 0.383 0.84-0.417 0.841-1.22 1.502-1.672 1.502-0.454 0-0.802-0.488-0.837-0.768-0.04-0.28 0.139-1.12-0.14-1.329-0.28-0.208-1.082 0.03-1.674 0.384-0.593 0.35-0.732 0.07-0.872-0.244-0.14-0.316 0.209-0.42 0.07-0.629-0.14-0.211-0.454 0-0.699 0.104-0.244 0.105-0.801 0.42-1.881 0.979-1.082 0.56-1.011 0.872-1.011 1.678 0 0.805 0.2 0.99 0.65 2.039l0.02-0.04c0.453 1.051 1.604-0.594 2.65-1.924 1.045-1.329 1.012-0.314 0.872 0.77-0.139 1.084 0.277 2.239 0.697 2.974 0.418 0.732 0.768 0.313 0.941-0.212 0.175-0.522 0.313-1.607 0.662-2.132s0.697-0.07 0.732 0.385c0.04 0.454 0.593 1.469 1.115 2.062 0.522 0.596 0.768-0.209 0.942-0.942 0.173-0.734 0.383-1.855 0.523-2.311 0.139-0.454 0.626-0.07 0.626-0.07s0.349 0.35 1.047 1.014c0.694 0.666 0.767-0.385 0.837-0.907 0.07-0.526-0.105-1.679 0.104-1.855 0.209-0.174 0.8 0.245 1.708 0.701 0.906 0.453 0.872-0.42 0.768-0.91-0.106-0.488-0.627-1.609-1.359-2.238-0.732-0.63-0.837-1.364-0.593-1.68 0.243-0.313 1.115-0.03 1.672-0.103 0.559-0.07 0.838-0.139 1.256-0.208 0.418-0.07 0.418-0.493 0.418-0.493s-0.313-0.522-0.906-1.046c-0.594-0.526-0.94-0.944-1.673-1.12-0.733-0.175-1.743 0-1.743 0l-0.104-0.211c-0.105-0.209-0.314-0.209-0.454 0-0.14 0.21-0.488 0.49-0.768 0.734-0.278 0.245-0.453 0.385-0.627 0.278-0.175-0.103 0.139-0.349 0.139-0.349s0.385-0.278 0.734-0.979c0.347-0.7 0.453-1.365 0.174-1.679-0.279-0.316-1.046 0-1.464 0-0.419 0-0.663 0.07-0.698-0.139-0.04-0.21 0.419-0.105 0.942-0.177 0.524-0.07 0.837-0.698 1.011-1.223s0.313-0.456 0.627-0.141c0.313 0.315 0.594 0.246 0.662 0.03 0.07-0.21 0.35-0.733 0.698-1.26 0.349-0.524 0.558-1.257 0.174-1.746-0.384-0.491-1.325-0.423-1.708-0.105-0.383 0.313-0.628 0.628-0.732 1.397-0.105 0.77-0.314 0.35-0.314 0.105s-0.313-0.631-0.174-0.944c0.14-0.313 0-0.665 0-0.665s-0.07-0.664-0.803-0.805c-0.183-0.04-0.372-0.05-0.565-0.05zm-0.365 0.901a0.977 0.962 0 0 1 0.976 0.962 0.977 0.962 0 0 1 -0.976 0.963 0.977 0.962 0 0 1 -0.978 -0.963 0.977 0.962 0 0 1 0.978 -0.962zm20.041 1.827c-2.097-0.03-2.843 0.72-3.818 1.062-0.976 0.346-3.586 0.605-4.361 2.297-0.77 1.699 0.12 2.5 1.76 3.59h-0.01c1.636 1.088 6.83 1.146 9.269 1.635 2.439 0.487 2.269 2.353 1.521 3.328-0.746 0.977-4.177 1.095-4.792 1.177 0.332 0.23 0.833 0.946 0.833 0.946s0.373-0.03 1.404-0.115c1.033-0.09 2.842-0.342 4.076-1.377 1.234-1.031 1.147-2.697 0.06-3.815-1.091-1.12-2.899-1.235-4.736-1.435-1.836-0.201-3.271-0.345-5.337-0.689s-3.071-1.175-3.071-2.381 1.12-1.837 1.923-2.066c0.803-0.23 2.095-0.572 3.244-0.145 1.147 0.432 2.495 0.488 4.762 0.203 2.268-0.288 2.785-1.867 2.785-1.867s-0.288 0.145-1.435 0.173c-1.148 0.03-1.981-0.488-4.074-0.519zm-28.194 0.07s-0.584 1.075 0.494 2.278c1.09 1.2 2.87 1.201 3.43 1.141h-0.01c0.554-0.06 0.801-0.338 0.801-0.645 0-0.309-0.279-0.648-0.985-0.586-1.736 0.154-3.418-0.467-3.728-2.186zm-5.146 0.162c-0.06 0-0.132 0.01-0.209 0.02-0.308 0.03-0.309 0.309-0.09 0.618 0.215 0.307 0.09 0.86 0.09 0.86s-0.678-0.491-0.955-0.615c-0.277-0.122-0.926 0.124-0.988 0.493-0.06 0.369 0.248 1.323 0.833 1.816 0.585 0.494 0.585 1.51 0.4 1.973-0.184 0.46-1.048 0.399-1.233 0.185-0.185-0.216-0.553-0.277-0.8 0-0.25 0.28-0.5 0.44 0.09 1.05 0.586 0.615 1.018 0.803 1.911 0.711 0.893-0.09 1.109 0.554 1.262 1.262 0.155 0.709 0.155 2.372 0.803 3.912 0.645 1.541 2.802 1.633 2.802 1.633 0.06-0.743 0.319-1.742 0.647-2.557 0.06-0.147 0.338-0.833-0.432-0.833-0.771 0-0.738-0.307-1.201-1.046-0.46-0.74-1.355-2.71-1.57-3.974-0.215-1.263 0.186-3.142 0.401-3.819 0.215-0.678 0.247-1.141 0-1.263-0.247-0.125-0.739 0-0.739 0s0.184 0.585-0.03 0.677c-0.215 0.09-0.399-0.308-0.552-0.739-0.117-0.324-0.249-0.369-0.438-0.36zm33.779 0.523c0.17 0 0.338 0 0.5 0.02 1.29 0.12 2.41 0.261 2.41 0.261s-0.919 0.603-2.182 0.373c-1.262-0.232-2.038-0.201-2.468-0.17-0.431 0.03-0.746-0.231-0.746-0.231s1.297-0.263 2.487-0.252zm-7.381 11.642c-0.356 0-0.704 0.03-1.054 0.06-1.401 0.13-3.148 0.326-4.119 0.237-0.95-0.12-0.8 0.16-0.451 0.72l-0.03 0.03c0.346 0.562 0.173 0.668-0.324 0.776-0.494 0.107-1.033 0.195-1.811 0.13-0.774-0.06-0.754 0.04-0.774 0.431-0.02 0.389-0.09 1.208-0.541 1.811-0.452 0.604-1.013 0.367-1.357 0.13-0.345-0.237-0.541-0.172-0.669 0.26-0.13 0.431-0.367 0.733-0.733 1.379-0.367 0.647-0.604 0.668-0.863 0.603-0.259-0.06-0.497-0.452-0.755-0.474-0.259-0.02-0.669-0.538-1.057-1.165-0.388-0.625-0.581 0.06-0.84 0.605-0.26 0.538-0.517 0.928-1.015 0.861-0.495-0.06-1.055-0.991-1.336-1.552-0.28-0.562-0.452-1.1-0.883-1.078-0.432 0.02-1.143 0.928-1.618 1.164-0.475 0.238-0.605 0.151-0.82-0.149-0.214-0.303-0.495 0.107-0.775 0.818-0.28 0.712 0.02 1.313 0.41 1.508 0.388 0.194 1.164-0.366 1.682-0.711 0.517-0.344 0.754-0.257 1.293-0.257s0.497 0.884 0.734 2.176c0.237 1.294 0.992 1.466 0.992 1.466s0.26 0.217 0.841-0.775c0.582-0.991 0.646-1.963 1.208-1.963 0.56 0 0.604 0.129 1.164 0.905 0.561 0.776 1.035 1.359 1.358 0.777 0.323-0.583 0.604-1.445 0.971-1.746 0.366-0.303 0.711-0.389 0.323 0.172-0.389 0.561-0.561 1.164 0.237 0.929 0.798-0.237 3.838-1.469 5.067-1.704 0 0 1.444-0.237 3.105-0.322 1.66-0.09 2.069-0.196 2.717-0.196 0.646 0 0.667-0.06 0.711-0.496 0.04-0.432-0.302-0.344-1.509-0.344-1.208 0-2.049 0.15-2.89 0.28-0.84 0.129-1.227 0.107-1.079-0.108 0.152-0.216 0.388-0.367 1.36-0.517 0.969-0.151 2.954-0.261 3.988-0.281 1.035-0.02 0.712 0.302 0.625 0.992-0.09 0.689 0.09 1.704 0.152 2.351 0.06 0.646 0.08 0.841 0.646 1.746 0.561 0.904 2.499 1.467 3.062 1.769 0.561 0.302 0.475 0 0.453-0.54-0.02-0.537 0.431-0.517 0.927-0.237 0.495 0.282 1.314 0.518 1.897 0.67 0.581 0.148 0.669 0.258 0.669 0.56s0.06 0.97 0.13 1.596c0.06 0.626 0.04 0.819-0.217 1.208-0.259 0.389-1.358 1.509-1.358 1.509s-0.496 0-1.553 0.26c-1.057 0.259-1.381 0.754-1.488 1.185s0.196 0.562 0.239 0.734c0.02 0.09 0 0.328 0 0.518h0.244c0.09-0.15 0.215-0.349 0.379-0.561 0.368-0.474 1.296-0.583 1.897-0.303 0.397 0.185 0.402 0.599 0.36 0.863h2.415c0.326-0.629 1.1-2.133 1.302-2.589 0.258-0.581 0.409-0.948 0.432-1.746 0.02-0.798 0.106-3.881-0.04-4.054-0.152-0.173 0.04-0.691 0-1.554-0.04-0.862 0-1.509-1.597-1.659-1.597-0.151-2.092-0.818-2.631-1.359-0.541-0.538-0.409-1.788-0.839-3.298-0.432-1.509-1.489-1.748-3.365-2.115-1.408-0.274-2.536-0.365-3.603-0.34zm-1.519 7.485c-0.789 0-2.28 0.18-2.844 0.564-0.565 0.386-0.837 1.767-0.837 2.49 0 0.724 0.114 0.838 0.317 0.838s0.542-0.52 0.542-0.52 0.745 0.974 1.197 1.654c0.452 0.679 0.247 0.95 0.05 1.469-0.205 0.521-0.949 1.903-1.536 2.198-0.589 0.295-1.039 0.02-1.738-0.09-0.7-0.114-1.084 0.09-1.489 0.498-0.407 0.407-0.02 0.726 0.225 0.726 0.249 0 0.587-0.02 0.858 0.316 0.188 0.235 0.06 0.771-0.03 1.081h3.458c0.59-0.262 0.997-1.072 1.156-1.514 0.182-0.497 0.926-1.153 1.288-1.492 0.36-0.34 0.406-0.566 0.406-1.313s-0.202-1.177-0.476-1.697c-0.27-0.521-0.473-1.269-0.383-1.698 0.06-0.46 0.81-0.93 1.369-1.34l0.03 0.03c0.563-0.409 0.474-0.521 0.495-0.951 0.02-0.431 0.02-0.566-0.204-0.724-0.226-0.16-1.059-0.521-1.85-0.521zm-18.124 0.212c-0.108 0-0.211 0.01-0.297 0.02-0.342 0.03-0.395 0.579-0.447 1.106-0.05 0.525-0.289 2.082-0.551 3.426-0.263 1.343-1.787 3.136-2.207 3.53-0.421 0.396-0.762 0.553-1.051 0.553-0.29 0-0.919 0-1.235 0.186-0.313 0.185-0.629 0.686-0.657 1.079-0.03 0.396 0.606 0.606 0.606 0.606s0.499-0.29 0.683-0.527 0.603-0.289 1.024-0.368c0.419-0.08 0.472 0.08 0.315 0.289-0.16 0.2-0.11 0.25 0.21 0.81 0.09 0.154 0.196 0.247 0.306 0.305h2.658c0.453-0.128 0.457-0.544 0.478-0.831 0.03-0.343 0.29-1.318 0.657-3.084 0.369-1.766 0.999-3.029 1.261-3.742 0.262-0.711-0.262-0.948-0.446-1.397-0.184-0.447-0.474-1.236-0.553-1.631-0.06-0.297-0.429-0.342-0.754-0.334zm25.973 10.564c-0.265 0.134-0.436 0.306-0.541 0.452h1.653v-0.191c-0.05-0.26-0.55-0.54-1.1-0.26zm-2.92 0.11c-0.164 0.106-0.273 0.232-0.346 0.342h1.63c0-0.14 0-0.297-0.16-0.472-0.24-0.3-0.72-0.13-1.12 0.13zm-10.59-0.06c0-0.247-0.09-0.474-0.271-0.451-0.18 0.02-0.474 0.339-0.722 0.521-0.138 0.1-0.241 0.235-0.317 0.336h1.174c0.07-0.14 0.14-0.291 0.14-0.411zm-1.56-0.859c-0.204 0-0.385 0.182-0.679 0.385-0.293 0.204-0.383 0.521-0.428 0.771v0.108h0.794c0.03-0.03 0.05-0.06 0.05-0.108 0-0.228 0.09-0.432 0.43-0.726 0.35-0.3 0.03-0.43-0.17-0.43zm-16.22 0.77c-0.212 0.114-0.468 0.303-0.598 0.489h1.87c0.07-0.174 0.09-0.407-0.142-0.594-0.42-0.35-0.84-0.06-1.13 0.1zm-2.36 0.05c-0.201 0.07-0.348 0.272-0.439 0.437h1.737c-0.02-0.141-0.07-0.31-0.168-0.437-0.21-0.259-0.77-0.129-1.13 0zm19.29-29.605c-0.699 0-1.481 1.05-1.77 1.235s-0.124 0.37-0.124 0.37 0.206 0.433 0.287 0.844c0.08 0.413 0.104 1.113 0.104 1.113s0.103 0.04 0.514 0.04c0.413 0 0.659-0.207 1.051-0.495s0.7-0.392 1.256-0.495c0.557-0.102 0.823-0.205 1.44-0.534 0.619-0.329-0.329-0.906-0.987-1.441-0.66-0.51-1.07-0.62-1.77-0.62zm0.23-0.63c0.247 0 0.515-0.145 0.515-0.145s0.451-0.227 0.865-0.37c0.411-0.145 0.576-0.207 0.822-0.701 0.247-0.494-0.268-0.494-0.987-0.678-0.721-0.188-1.071 0.06-1.152 0.328-0.08 0.268-0.06 0.576-0.351 1.092-0.29 0.51 0.04 0.47 0.29 0.47zm-2.52-2.5c0.227-0.144 0.639-0.309 0.639-0.309s0.515-0.123 0.988-0.186c0.473-0.06 0.391-0.33 0.287-0.555-0.102-0.229-0.287-0.31-0.903-0.31-0.619 0-1.011 0.31-1.36 0.452-0.351 0.145-0.762 0.248-0.762 0.248s0.08 0.103 0.309 0.433c0.22 0.35 0.57 0.39 0.79 0.24zm-14.08 1.85c0.03-0.308-0.09-0.646-0.09-0.646s0 0.369-0.154 0.586c-0.154 0.215-0.123 0.154 0.03 0.339 0.15 0.19 0.18 0.03 0.21-0.28zm-2.3-0.37c-0.03 0.277 0.03 0.401 0.277 0.277s0.339-0.462 0.215-0.709c-0.123-0.246-0.4-0.43-0.4-0.43l-0.185-0.125c-0.02 0 0.11 0.71 0.08 0.98zm-1.61 1.3c0.278-0.123 0.493-0.186 0.278-0.493-0.216-0.308-0.401-0.647-0.617-0.709-0.216-0.06-0.4-0.03-0.4-0.03s0.246 0.556 0.307 0.895c0.06 0.34 0.16 0.459 0.43 0.34zm-1.29 4.28s-0.339-0.276-0.462-0.43c-0.123-0.156-0.37-0.495-0.37-0.495s-0.06 0.154-0.06 0.524 0.4 0.771 0.4 0.771l0.49-0.37zm-4.79 26.69c0.09 0.512 0.212 1.031 0.361 1.553h51.785c0.149-0.521 0.27-1.041 0.36-1.553h-52.506zm26.251-45.535c-6.597 3.356-14.009 3.166-22.096 0.04l-8.495 9.73s3.123 4.291 3.123 11.077-1.312 11.819-2.08 15.102c-0.766 3.284-1.422 9.411 0.328 13.79 1.751 4.376 3.612 8.208 11.163 11.382 7.551 3.173 11.491 4.813 14.118 7.003 2.626 2.187 3.939 3.939 3.939 3.939s1.314-1.753 3.941-3.939c2.625-2.189 6.565-3.83 14.117-7.003 7.55-3.174 9.41-7.006 11.161-11.382 1.75-4.379 1.094-10.506 0.328-13.79-0.76-3.28-2.07-8.31-2.07-15.099 0-6.786 3.122-11.077 3.122-11.077l-8.493-9.731c-8.089 3.128-15.5 3.318-22.098-0.04zm0.03 2.562c6.776 3.117 14.572 3.541 20.174 0.393l7.271 8.501s-3.737 5.708-2.672 12.189v-0.01c1.07 6.48 3.37 16.73 2.8 20.929-0.574 4.184-3.527 9.025-6.563 11.568-3.034 2.543-7.547 4.677-10.747 5.825-3.198 1.149-6.315 3.363-7.792 4.512s-2.462 2.134-2.462 2.134-0.983-0.986-2.459-2.134c-1.477-1.149-4.595-3.364-7.796-4.512-3.198-1.148-7.71-3.282-10.746-5.825-3.034-2.543-5.988-7.384-6.562-11.568-0.574-4.182 1.722-14.438 2.79-20.917 1.067-6.482-2.67-12.19-2.67-12.19l7.27-8.501c5.601 3.148 13.401 2.723 20.174-0.393z"
         id="path4147" />
      <path
         style="fill:#6d8c3e"
         d="m294.42 185.72c1.25 3.571 3.826 7.187 7.748 9.549 5.45 3.282 7.804 2.849 12.944 6.193 5.141 3.344 4.831 3.902 4.893 3.902 0.06 0-0.248-0.559 4.894-3.902 5.14-3.345 7.493-2.911 12.943-6.193 3.923-2.362 6.498-5.978 7.747-9.549h-51.158z"
         id="path4149" />
      <g
         id="a">
        <path
           d="m289.99 113.28c-0.848-0.498-3.128-1.473-5.556-1.679-2.426-0.205-4.302 0.16-6.316 0.704-1.443 0.39-2.612 0.45-3.768 0.14-1.737-0.463-3.084-2.031-3.542-3.952 0 0-1.602 2.054 0.04 4.283 0.787 1.072 1.812 1.742 2.856 1.953 3.399 0.685 6.733-1.39 9.564-1.571 2.719-0.177 4.854 1.547 4.854 1.547s0.643 0.534 1.549 0c0.908-0.53 1.171-0.934 0.323-1.432z"
           style="fill:#c52126"
           id="path4152" />
        <path
           style="fill:#b96b29"
           d="m 314.93,94.716 a 2.146,2.069 0 0 1 -2.146,2.069 2.146,2.069 0 0 1 -2.146,-2.069 2.146,2.069 0 0 1 2.146,-2.069 2.146,2.069 0 0 1 2.146,2.069 z m 0.584,126.51 c 0.24,-0.527 0.24,-0.551 0.24,-0.551 0,0 0.432,-1.392 0.432,-1.68 0,-0.287 -0.144,-0.623 -0.503,0.1 -0.361,0.721 -0.384,1.415 -0.457,1.728 -0.07,0.312 -0.479,1.392 -0.36,1.488 0.12,0.1 0.408,-0.551 0.648,-1.081 z m -4.2,-3.38 c 0.216,-0.745 0.337,-1.24 0.337,-1.24 0,0 0.217,-0.72 0.1,-0.768 -0.12,-0.05 -0.673,0.447 -1.057,1.67 -0.385,1.225 -0.96,2.999 -0.84,3.071 0.119,0.07 1.247,-1.989 1.463,-2.733 z m -5.33,-0.96 c 0.552,-1.128 1.176,-2.496 1.68,-3.19 0.503,-0.697 0.863,-1.489 0.863,-1.489 0,0 -1.344,1.224 -1.872,2.088 -0.527,0.863 -0.863,1.703 -1.104,2.64 -0.238,0.935 -0.119,1.078 0.433,-0.05 z"
           id="path4154" />
        <ellipse
           style="fill:#d4af3a"
           rx="1.295"
           ry="1.237"
           cy="94.278"
           cx="312.78"
           id="ellipse4156" />
        <path
           d="m 316.296,69.9315 c -0.226,-0.014 -0.491,0.028 -0.758,0.086 -0.451,0.099 -1.287,0.3713 -2.539,1.0259 l 0.02,0 c 0.868,0 1.544,0.5561 1.544,1.2757 0,0.721 -0.791,1.5048 -1.659,1.5048 -0.87,0 -1.461,-0.756 -1.461,-1.477 0,-0.1685 0.04,-0.3319 0.111,-0.4811 -0.371,0.2291 -0.768,0.4818 -1.19,0.7674 -2.772,1.8674 -3.423,2.7698 -4.792,5.3233 -1.37,2.5506 -1.869,5.3533 -1.278,7.0031 0.591,1.649 2.772,1.9924 2.803,1.9924 0.03,0 -0.251,-0.2492 -0.283,-0.559 -0.03,-0.3127 0.06,-0.469 0.157,-1.0915 0.09,-0.6211 0.03,-1.3678 0.03,-1.3678 0,0 0.499,-0.064 0.778,0.2799 0.281,0.3419 0.688,0.7467 0.966,1.0879 0.281,0.3419 1.028,0.9966 1.028,0.9966 0,0 0.436,-0.6232 0.436,-1.3707 0,-0.746 -0.498,-1.5541 -0.592,-2.8619 -0.09,-1.3085 0.59,-3.6443 1.865,-5.354 1.277,-1.7126 3.675,-3.2688 4.391,-3.6115 0.716,-0.3412 0.84,-0.873 0.872,-1.1836 0.03,-0.3112 0.09,-0.5275 0.154,-1.3063 0.04,-0.4855 -0.226,-0.6554 -0.601,-0.6782 z m -3.443,1.4798 c -0.49,0 -0.888,0.3291 -0.888,0.7317 0,0.4034 0.332,0.8296 0.824,0.8296 0.49,0 0.935,-0.4405 0.935,-0.8445 0,-0.4055 -0.38,-0.7168 -0.871,-0.7168 z m -2.636,0.4126 c 0,0 -2.206,0.5426 -3.458,0.9438 l 0,0.064 c 0,0.851 -0.676,1.5406 -1.51,1.5406 -0.318,0 -0.615,-0.1028 -0.859,-0.2749 -0.68,0.1321 -2.945,1.4863 -3.524,1.9689 0.144,0.2363 0.229,0.5132 0.229,0.8116 0,0.8488 -0.677,1.5406 -1.512,1.5406 -0.249,0 -0.484,-0.064 -0.692,-0.1728 -0.07,0.1078 -0.131,0.2178 -0.193,0.3291 -0.474,0.8731 -0.825,1.7104 -1.083,2.4771 0.387,0.2677 0.646,0.766 0.646,1.3364 0,0.8459 -0.574,1.5334 -1.282,1.5405 -0.05,0.4976 -0.05,0.8467 -0.03,0.9952 0.06,0.499 0.248,0.8109 1.119,1.0601 0.872,0.2484 2.055,1.7732 2.055,1.7732 0.08,0 0.707,-1.1193 0.25,-2.8947 -0.374,-1.774 -0.31,-3.705 1.371,-6.1636 1.682,-2.46 4.606,-3.4551 4.606,-3.4551 0,0 0.09,-0.1877 1.028,-1.1822 0.934,-0.9972 2.833,-2.2408 2.833,-2.2408 z m -4.846,0.6511 c -0.186,0.014 -0.381,0.082 -0.541,0.212 -0.317,0.2599 -0.372,0.6553 -0.12,0.8809 0.252,0.2263 0.712,0.2006 1.029,-0.064 0.32,-0.2577 0.373,-0.6539 0.12,-0.8795 -0.125,-0.1135 -0.301,-0.1628 -0.488,-0.1521 z m 3.921,2.4065 c 0.318,0 0.63,0.084 0.897,0.2634 0.711,0.4804 0.821,1.4477 0.247,2.1601 -0.579,0.7125 -1.623,0.9038 -2.333,0.4248 -0.712,-0.4769 -0.822,-1.4449 -0.246,-2.1595 0.362,-0.4454 0.906,-0.6867 1.435,-0.6888 z m -0.199,0.4268 c -0.363,0.029 -0.725,0.2306 -0.904,0.5326 -0.238,0.4026 0,0.8309 0.623,0.9552 1.121,0.2284 1.654,-1.1786 0.636,-1.4571 -0.114,-0.028 -0.234,-0.043 -0.355,-0.028 z m -9.41,0.7139 c -0.21,0.014 -0.43,0.1042 -0.609,0.2677 -0.359,0.3241 -0.42,0.8174 -0.137,1.1015 0.283,0.2849 0.802,0.2506 1.161,-0.074 0.357,-0.3263 0.421,-0.8188 0.137,-1.1044 -0.142,-0.142 -0.342,-0.2049 -0.552,-0.1906 z m 7.425,3.4587 a 1.77497,1.75898 0 0 1 1.776,1.7597 1.77497,1.75898 0 0 1 -1.776,1.7583 1.77497,1.75898 0 0 1 -1.774,-1.7583 1.77497,1.75898 0 0 1 1.774,-1.7597 z m -0.07,0.5483 a 1.03097,0.982999 0 0 0 -1.032,0.983 1.03097,0.982999 0 0 0 1.032,0.983 1.03097,0.982999 0 0 0 1.03,-0.983 1.03097,0.982999 0 0 0 -1.03,-0.983 z m -10.3,1.2243 a 0.870993,0.856002 0 0 0 -0.871,0.8559 0.870993,0.856002 0 0 0 0.871,0.8559 0.870993,0.856002 0 0 0 0.87,-0.8559 0.870993,0.856002 0 0 0 -0.87,-0.8559 z m -40.682,1.0608 c -2.16,2.173 -3.765,7.8925 -4.052,13.3015 -0.214,4.0748 0.444,7.8462 0.635,9.3752 0.378,3.028 0.904,5.393 1.697,7.04 0.477,0.99 0.998,1.737 1.374,2.382 0.568,0.974 0.888,1.605 0.888,1.605 0,0 0.114,-0.343 0.02,-0.929 -0.09,-0.584 -0.179,-1.394 -0.02,-2.361 0.08,-0.518 0.196,-1.035 0.168,-1.495 -0.03,-0.523 -0.209,-0.975 -0.281,-1.273 -0.135,-0.564 -0.74,-3.015 -1.033,-4.748 -0.292,-1.732 -0.606,-4.208 -0.584,-6.3923 0.02,-2.1831 0.337,-1.0801 0.337,-0.022 0,1.0587 0.112,2.6788 0.449,5.1758 0.337,2.498 1.393,6.3 1.393,6.3 0,0 0.07,-0.584 0.383,-1.417 0.315,-0.833 0.831,-1.778 1.235,-2.814 0.404,-1.035 0.262,-1.208 0.262,-1.208 0,0 -1.477,-7.0647 -1.864,-10.4049 -0.389,-3.3388 -1.01,-12.1165 -1.01,-12.1165 z m 51.512,2.475 c 0,0 0,0.8238 -0.04,1.3385 -0.04,0.5161 0.22,1.2735 0.771,1.4805 0.552,0.2049 1.269,0.1142 1.269,0.1142 0,0 0.218,-0.9508 -0.307,-1.4148 -0.525,-0.4619 -1.001,-0.7967 -1.309,-1.1058 -0.308,-0.3098 -0.384,-0.4126 -0.384,-0.4126 z m -10.172,1.7704 c 0,0 -0.398,1.0415 -0.174,1.6833 0.225,0.6417 0.693,0.8138 1.263,0.7959 0.571,-0.014 1.418,-0.3112 1.176,-0.7445 -0.241,-0.4319 -0.518,-0.7453 -1.122,-1.1794 -0.605,-0.4333 -1.143,-0.5553 -1.143,-0.5553 z m 13.336,0.9722 c -0.367,0.043 -0.42,0.097 -0.42,0.097 0,0 -0.152,1.0259 0.645,1.4699 0.798,0.4433 1.239,0.1727 1.53,-0.1842 0.292,-0.3555 0.344,-0.5183 0.344,-0.5183 0,0 -0.754,-0.2705 -1.119,-0.4868 -0.367,-0.2149 -0.615,-0.4205 -0.98,-0.3777 z m 7.275,0.1421 c -0.257,-0.014 -0.511,0.043 -0.704,0.1506 -0.389,0.2156 -1.261,0.831 -1.261,0.831 0,0 0.193,0.3241 0.862,0.5939 0.668,0.272 1.421,0.1185 1.776,-0.1185 0.355,-0.2377 0.475,-0.8431 0.05,-1.1893 -0.21,-0.1728 -0.471,-0.2541 -0.728,-0.2677 z m -10.891,0.2063 c -0.351,-0.014 -0.483,0.1956 -0.608,0.3698 -0.167,0.232 -0.526,0.6046 -0.526,0.6046 0,0 0.436,0.014 0.795,0.2692 0.359,0.2584 0.822,0.4761 1.245,0.4254 0.423,-0.05 0.604,-0.4511 0.513,-0.7331 -0.09,-0.2834 -0.294,-0.5775 -0.987,-0.8367 -0.173,-0.064 -0.315,-0.094 -0.432,-0.099 z m 2.293,0.3976 a 0.393999,0.372997 0 0 0 -0.365,0.372 0.393999,0.372997 0 0 0 0.393,0.374 0.393999,0.372997 0 0 0 0.395,-0.374 0.393999,0.372997 0 0 0 -0.395,-0.372 0.393999,0.372997 0 0 0 -0.03,0 z m -8.658,0.4876 c -0.283,0 -0.549,0.071 -0.484,0.5525 0.09,0.6418 0.744,0.9531 1.383,0.9702 0.64,0.014 0.968,-0.2249 1.349,-0.4169 0.38,-0.1899 0.311,-0.2591 -0.241,-0.4669 -0.554,-0.2084 -1.383,-0.6068 -1.729,-0.6246 -0.09,0 -0.184,-0.014 -0.278,-0.014 z m 13.445,0.1828 c 0,0 -0.273,1.165 -0.644,1.4862 -0.371,0.3241 -1.661,0.3727 -2.225,-0.05 -0.564,-0.4212 -1.079,-0.9381 -1.176,-0.8731 -0.1,0.064 0,0.4847 0.581,0.9859 0.579,0.4997 0.98,0.8102 1.916,0.8102 l 5.318,0 c 0,0 1.081,0.064 1.388,-0.5847 0.305,-0.646 0.319,-1.0501 0.177,-1.2114 -0.145,-0.1606 -0.241,0.1135 -0.483,0.4869 -0.241,0.3719 -0.42,0.5982 -1.161,0.6303 -0.742,0.029 -1.548,-0.014 -2.032,-0.5026 -0.484,-0.484 -0.821,-1.1636 -0.821,-1.1636 l -0.838,-0.014 z m -9.318,0.439 c -0.166,1.1972 -0.905,1.8189 -2.04,2.0459 l 0.104,0.05 c 0,0 1.055,0.539 2.3,0.7274 0.563,0.086 1.064,-0.014 1.669,-0.132 0.73,-0.1485 1.551,-0.3562 1.995,-0.6304 0.813,-0.5018 0.571,-1.8025 0.571,-1.8025 0,0 -0.12,0.9859 -1.469,1.1079 -1.348,0.1214 -3.13,-1.3692 -3.13,-1.3692 z m -57.533,0.2134 c 0,0 -2.031,1.527 -2.708,9.2711 -0.678,7.7452 1.355,15.1502 2.37,17.9772 1.016,2.825 2.541,6.331 2.541,6.331 0.07,-1.599 0.435,-2.811 1.466,-3.166 0,0 -0.912,-1.601 -1.71,-3.883 -0.546,-1.563 -0.995,-3.566 -1.225,-5.104 -0.564,-3.787 -1.015,-7.689 0.113,-1.301 1.128,6.387 2.484,8.649 2.484,8.649 l 1.637,2.656 c -0.242,-1.167 -0.282,-1.987 -0.219,-3.262 0.06,-1.275 0.225,-3.002 0.613,-4.369 0,0 -1.976,-3.956 -3.216,-8.706 -1.242,-4.75 -1.953,-9.0689 -1.978,-11.6438 -0.112,-2.4879 -0.168,-3.4495 -0.168,-3.4495 z m 51.709,0.105 a 0.466,0.335997 0 0 0 -0.432,0.3355 0.466,0.335997 0 0 0 0.466,0.3362 0.466,0.335997 0 0 0 0.465,-0.3362 0.466,0.335997 0 0 0 -0.465,-0.3355 0.466,0.335997 0 0 0 -0.04,0 z m 6.124,4.6052 -1.7,1.3577 2.1,0.9188 2.25,-1.5977 -2.65,-0.6788 z m -14.63,5.8251 c -1.098,0.02 -2.126,0.241 -2.949,0.699 -1.646,0.919 -1.784,2.065 -1.555,2.523 0.126,0.257 0.429,0.341 0.784,0.332 1.088,-0.03 1.672,-0.541 2.874,-0.425 1.417,0.138 3.336,0.965 5.668,2.203 1.824,0.824 4.232,1.235 6.549,0.57 0.649,-0.187 1.291,-0.542 1.912,-0.892 2.835,-1.606 2.148,-4.77 2.148,-4.77 -2.091,1.509 -4.678,2.319 -7.086,2.155 0,0 0.182,0.138 0.594,0.551 0.412,0.413 1.165,0.893 0.916,1.102 -0.25,0.207 -1.282,-0.781 -2.151,-1.422 -0.868,-0.644 -2.148,-1.514 -4.343,-2.155 -1.097,-0.322 -2.264,-0.494 -3.361,-0.471 z m -8.688,3.044 c -0.846,-0.02 -1.646,0.138 -2.447,0.506 -1.601,0.733 -2.378,2.935 -2.378,4.587 0,1.65 0.87,0.963 1.052,0.732 0.183,-0.229 0.55,-1.421 2.561,-1.742 2.012,-0.322 3.841,0.643 6.127,2.522 2.286,1.881 2.789,2.019 3.932,3.211 1.143,1.193 0.228,1.833 -1.738,2.475 -1.966,0.644 -4.481,-0.64 -4.573,-0.594 -0.378,0.19 0.849,1.939 2.544,2.6 1.697,0.66 3.865,0.231 5.551,-0.445 1.143,-0.458 1.355,0.02 1.69,0.367 1.857,1.952 2.34,3.781 2.652,6.009 0.949,-0.292 1.607,-1.24 1.738,-2.018 0.06,-0.373 0.183,-1.194 0.824,-0.596 0.639,0.597 1.142,3.897 1.142,5.411 0,1.514 -0.456,3.532 -0.456,3.532 l 0.456,-0.05 c 0.276,-0.05 0.824,-0.367 1.555,-0.779 0.731,-0.414 0.778,0.05 0.778,0.871 0,0.825 0.274,2.385 1.372,5.182 1.098,2.799 2.698,3.715 2.698,3.715 0,0 0.32,-0.551 0.64,-1.651 0.319,-1.101 0.549,-3.256 0.549,-5.137 0,-1.88 -0.503,-5.917 -0.503,-5.917 0,0 2.287,2.798 4.664,3.487 2.378,0.688 4.756,0.276 5.762,-0.871 1.005,-1.146 0.09,-1.65 -0.415,-1.789 -0.503,-0.138 -1.371,-0.275 -2.514,-1.33 -1.144,-1.054 -3.887,-4.082 -4.208,-4.632 -0.32,-0.551 -0.182,-1.056 0.595,-1.378 0.778,-0.319 1.327,-1.33 1.327,-1.33 0,0 -1.692,-0.642 -2.835,-1.468 -1.144,-0.824 -3.796,-3.21 -4.162,-3.806 -0.366,-0.596 -0.182,-0.689 0.367,-0.871 0.55,-0.184 0.687,-0.551 0.687,-0.551 0,0 -1.235,-0.779 -2.377,-1.696 -1.144,-0.916 -2.698,-2.431 -2.698,-2.431 -1.713,0.688 -4.401,0.397 -5.853,0.137 -2.561,-0.457 -4.435,-1.514 -4.435,-1.514 0,0 -0.09,0.414 -0.412,1.194 -0.319,0.779 -1.509,1.24 -2.697,0.459 -1.19,-0.78 -0.917,-2.476 -0.917,-2.476 0,0 -0.959,-0.597 -2.925,-1.33 -0.983,-0.367 -1.874,-0.574 -2.72,-0.597 z m -42.322,0.403 c -0.251,-0.04 -0.504,0.779 -0.755,1.756 -0.403,1.564 -0.956,3.782 -0.604,7.108 0.352,3.328 1.157,7.41 3.725,12.603 2.568,5.193 6.193,8.117 6.193,8.117 0,0 -0.477,-1.29 -0.688,-2.177 -0.208,-0.888 -0.05,-1.892 -0.05,-1.892 0,0 -0.909,-1.167 -2.591,-3.757 -1.681,-2.592 -2.568,-6.42 -2.568,-6.42 0,0 1.564,3.828 2.778,5.86 1.215,2.031 2.617,3.688 2.617,3.688 0,0 0.488,-1.796 0.839,-1.891 0.35,-0.09 0.608,0.189 0.91,0.584 0.305,0.397 0.562,0.36 0.562,0.36 0,0 -0.414,-0.856 -1.052,-1.884 -0.29,-0.468 -0.713,-0.972 -1.012,-1.444 -0.958,-1.512 -3.021,-4.384 -4.079,-7.258 -1.058,-2.875 -3.373,-10.084 -3.775,-12.203 -0.151,-0.794 -0.302,-1.126 -0.454,-1.15 z m 49.8,1.075 a 1.19202,1.09201 0 0 0 -1.193,1.093 1.19202,1.09201 0 0 0 1.193,1.092 1.19202,1.09201 0 0 0 1.192,-1.092 1.19202,1.09201 0 0 0 -1.192,-1.093 z m -29.143,0.655 c -0.141,0 -0.252,0.129 -0.252,0.129 0,0 -0.444,0.179 -1.471,2.769 -1.023,2.592 -1.204,4.961 -1.114,7.014 0.09,2.054 2.364,5.987 3.659,8.087 1.293,2.101 1.651,2.947 1.429,3.081 -0.224,0.135 -0.76,-0.937 -1.474,-1.874 -0.714,-0.938 -2.097,-3.129 -3.257,-4.781 -1.16,-1.654 -2.855,-5.583 -3.079,-5.941 -0.222,-0.358 -0.311,-0.581 -0.889,-0.135 -0.58,0.447 -1.697,4.781 -0.357,7.73 1.337,2.948 3.345,5.089 4.191,6.118 0.848,1.028 1.964,2.636 1.783,2.771 -0.177,0.134 -0.489,-0.269 -1.515,-1.34 -1.026,-1.073 -2.721,-2.905 -3.836,-4.245 -0.906,-1.088 -2.136,-3.299 -2.566,-4.088 -0.162,-0.299 -0.371,-0.219 -0.528,-0.06 -0.367,0.368 -0.953,1.227 -0.697,3.57 0.357,3.261 2.052,5.137 3.568,6.789 1.517,1.654 3.034,3.038 2.811,3.262 -0.223,0.223 -1.784,-1.162 -2.854,-2.19 -1.071,-1.025 -3.706,-3.573 -4.285,-4.289 -0.581,-0.715 -1.424,-0.356 -1.38,2.459 0.04,2.815 3.165,5.675 4.459,7.238 1.295,1.563 2.899,2.498 2.766,2.812 -0.134,0.312 -1.427,-0.491 -2.274,-1.072 -0.847,-0.582 -4.016,-2.636 -4.64,-3.083 -0.624,-0.446 -0.937,0.401 -0.134,3.083 0.803,2.679 3.123,4.825 4.505,5.807 1.383,0.983 3.614,2.187 3.48,2.503 -0.133,0.312 -1.07,-0.09 -2.363,-0.717 -1.294,-0.625 -2.856,-1.206 -3.973,-1.518 -1.115,-0.314 -1.112,0.49 -1.112,0.49 0,0 -0.225,2.278 1.426,4.109 1.652,1.832 3.524,2.547 5.308,2.859 1.784,0.313 2.053,0.404 2.008,0.671 -0.04,0.269 -0.225,0.313 -0.626,0.313 -0.401,0 -2.051,0.18 -3.568,0.18 -1.517,0 -2.32,0.355 -2.32,1.026 0,0.671 -0.04,1.564 2.231,3.083 2.273,1.52 4.816,1.742 5.888,1.966 1.07,0.223 1.114,0.312 0.892,0.626 -0.223,0.312 -0.713,0.268 -2.409,0.446 -1.696,0.178 -2.722,0.849 -2.945,1.295 -0.223,0.447 0.136,1.788 1.52,2.725 1.382,0.939 3.163,1.252 5.84,1.073 2.677,-0.18 3.347,-0.224 3.436,0.225 0.09,0.446 -0.802,0.58 -2.14,0.804 -1.339,0.222 -2.364,0.222 -3.122,0.848 -0.76,0.626 -0.179,1.921 1.114,2.859 1.292,0.938 4.506,0.938 5.845,0.85 1.338,-0.09 3.389,-0.582 3.523,-0.225 0.134,0.357 -0.981,0.894 -2.363,1.385 -1.384,0.492 -1.786,0.804 -2.051,1.386 -0.269,0.579 -0.05,1.115 1.605,1.741 1.649,0.626 4.058,0.627 5.306,0.04 1.25,-0.579 1.918,-0.806 2.142,-0.579 0.222,0.224 0,0.447 -0.268,0.759 -0.267,0.314 -1.337,1.16 -2.72,1.519 -1.384,0.357 -1.518,0.356 -2.009,1.474 -0.49,1.116 0.759,2.012 3.257,2.102 2.498,0.09 5.843,-0.894 6.915,-1.521 1.071,-0.626 1.472,-0.76 1.65,-0.536 0.178,0.222 0.134,0.358 -0.401,0.759 -0.536,0.404 -2.232,1.609 -3.079,1.833 -0.847,0.222 -0.937,0.849 -0.937,1.43 0,0.579 -0.224,1.741 2.006,2.278 2.231,0.536 4.863,0.135 7.272,-1.564 0.776,-0.547 1.229,-0.997 1.483,-1.388 -0.196,-2.281 -0.101,-3.85 0.18,-5.297 -0.481,-0.05 -1.368,-0.184 -2.286,-0.553 -1.339,-0.535 -1.875,-1.786 -2.187,-2.457 -0.314,-0.67 -0.758,-0.67 -1.294,-0.492 -0.536,0.181 -1.071,0.404 -1.829,0.359 -0.759,-0.04 -2.365,-0.447 -3.525,-1.833 -1.16,-1.385 -0.936,-2.725 -0.981,-3.396 -0.05,-0.671 -1.115,-0.177 -1.65,-0.177 -0.536,0 -2.099,-0.225 -3.524,-1.207 -1.429,-0.983 -1.427,-2.322 -1.561,-2.859 -0.134,-0.535 -0.714,-0.892 -1.16,-1.072 -0.446,-0.179 -1.161,-0.357 -2.143,-1.162 -0.981,-0.804 -1.336,-2.367 -1.382,-2.903 -0.04,-0.536 -0.625,-0.581 -2.632,-1.609 -2.007,-1.026 -1.829,-3.172 -1.739,-4.019 0.09,-0.85 1.025,-1.564 1.025,-1.878 0,-0.314 -0.668,-0.402 -1.337,-0.803 -0.669,-0.402 -2.365,-1.073 -2.408,-3.574 -0.05,-2.502 1.606,-2.769 1.606,-2.769 0,0 -0.313,-0.136 -0.981,-0.537 -0.669,-0.403 -2.499,-1.653 -2.499,-3.127 0,-1.475 0.669,-2.145 1.16,-2.503 0.491,-0.357 1.828,-0.714 1.828,-0.714 0,0 -0.846,-0.538 -1.203,-1.7 -0.357,-1.161 -0.493,-2.588 0.354,-3.616 0.848,-1.028 2.275,-1.028 3.034,-1.028 0.759,0 1.428,0.4 1.697,0.179 0.267,-0.224 0.31,-0.401 0.04,-0.983 -0.267,-0.58 -0.312,-2.011 -0.09,-2.5 0.223,-0.493 0.268,-1.474 2.186,-2.1 1.917,-0.625 3.925,0.671 4.549,1.029 0.626,0.358 0.357,-0.495 0.357,-1.119 0,-0.623 -1.294,-2.188 -2.766,-4.422 -1.472,-2.235 -2.14,-3.395 -3.791,-6.79 -1.65,-3.396 -2.722,-7.773 -2.944,-8.89 -0.112,-0.559 -0.28,-0.706 -0.419,-0.711 z m 38.37,6.034 c 0.164,0 0.485,0.176 0.683,0.373 0.395,0.395 1.318,1.384 2.404,3.128 1.086,1.744 1.678,5.693 1.678,5.693 0,0 -0.658,-0.394 -1.316,-0.856 -0.658,-0.461 -1.381,-0.856 -2.632,-1.777 -1.25,-0.92 -1.976,-1.612 -2.634,-2.337 -0.658,-0.724 0.164,-0.855 0.625,-0.723 0.46,0.13 1.579,0.954 2.172,1.448 0.592,0.492 0.987,0.492 1.548,0.757 0.557,0.263 0.359,-0.954 0.03,-1.941 -0.328,-0.988 -1.447,-2.173 -2.302,-3.127 -0.427,-0.477 -0.421,-0.641 -0.256,-0.638 z m -64.16,5.843 c 0,0 -0.957,5.949 2.668,12.503 3.624,6.553 7.199,8.671 8.155,9.377 0.956,0.706 2.366,1.663 2.366,1.663 0,0 -0.223,-0.521 -0.363,-1.146 -0.142,-0.625 -0.202,-1.911 -0.202,-1.911 0,0 -1.125,-0.99 -1.91,-1.674 -0.784,-0.684 -1.77,-1.57 -3.719,-3.986 -1.951,-2.417 -0.382,-0.967 1.205,0.765 1.588,1.733 4.626,4.249 4.626,4.249 0,0 0,-0.04 0.02,-0.563 0.02,-0.523 0.182,-0.906 0.463,-1.268 0.282,-0.362 0.134,-0.415 -1.579,-1.725 -1.71,-1.31 -6.142,-6.301 -7.954,-9.277 -1.813,-2.975 -3.775,-7.007 -3.775,-7.007 z m 28.476,3.598 c 0.07,0.02 0.203,0.11 0.395,0.331 0.511,0.584 2.006,2.697 2.263,3.028 0.256,0.324 0.801,1.531 -0.221,0.253 -1.021,-1.277 -1.131,-1.53 -1.131,-1.53 0,0 -0.983,-1.316 -1.239,-1.681 -0.159,-0.225 -0.191,-0.424 -0.07,-0.398 z m 45.947,2.335 c 0,0 0.106,0.294 1.17,1.517 l 0,0 c 1.063,1.223 3.668,2.392 3.668,2.392 l 0.05,0.213 c 0,0 -1.035,-0.186 -2.073,-0.771 -1.037,-0.585 -2.553,-1.913 -2.872,-2.444 -0.322,-0.533 0.05,-0.907 0.05,-0.907 z m -36.714,0.104 c 0,0 -0.919,1.209 -0.919,2.417 0,1.209 0.459,2.474 0,2.82 -0.46,0.345 -0.632,-0.518 -2.47,-1.324 -1.839,-0.806 -3.334,-0.919 -4.481,0.405 -1.15,1.321 0,3.622 1.033,4.717 1.035,1.093 1.896,1.9 1.609,2.303 -0.287,0.403 -1.839,-0.633 -2.355,-0.979 -0.517,-0.346 -1.724,-1.668 -3.506,-1.496 -1.782,0.172 -2.414,0.691 -2.586,2.188 -0.172,1.497 1.608,2.818 2.758,3.395 1.148,0.574 1.61,1.093 1.322,1.322 -0.289,0.23 -0.576,0 -1.094,-0.172 -0.516,-0.173 -1.951,-0.345 -2.87,0 -0.92,0.345 -2.415,1.61 -1.036,3.165 1.378,1.554 4.252,2.128 4.826,2.244 0.574,0.115 0.863,-0.06 0.919,0.401 0.06,0.462 -1.206,0.462 -2.758,0.52 -1.55,0.06 -2.01,1.552 -1.78,2.704 0.23,1.151 2.816,2.417 4.251,2.649 1.438,0.228 1.953,0 2.07,0.4 0.115,0.402 -0.173,0.574 -0.978,0.806 -0.804,0.229 -2.355,0.403 -2.644,1.669 -0.287,1.265 -0.344,1.841 0.863,2.936 1.208,1.093 3.161,0.919 3.735,0.804 0.573,-0.114 1.265,-0.748 1.838,-0.171 0.574,0.574 -0.517,1.035 -1.494,1.726 -0.977,0.692 -0.919,2.015 0.747,2.936 1.666,0.923 3.334,0.574 4.023,0.345 0.689,-0.229 1.608,-1.323 2.067,-0.633 0.461,0.69 -1.438,0.921 -2.241,1.899 -0.806,0.977 -0.517,2.588 1.092,3.566 1.61,0.981 4.252,0.288 4.712,-0.114 0.458,-0.402 1.032,-0.575 1.377,-0.228 0.344,0.342 -0.171,1.263 -0.515,2.068 -0.344,0.806 -0.978,3.167 1.435,4.087 2.415,0.92 4.599,-1.15 5,-1.554 0.402,-0.402 0.803,-0.462 1.15,-0.287 0.342,0.172 0.172,0.516 -0.117,0.92 -0.287,0.402 -0.918,2.129 0.805,3.337 1.177,0.825 2.46,0.765 3.156,0.645 0.359,-1.348 0.827,-2.788 1.303,-4.805 l -0.36,0 c -0.231,0 -0.276,0.345 -0.276,0.482 0,0.138 0.07,0.254 -0.139,0.254 -0.207,0 -0.23,0.115 -0.529,0.324 -0.299,0.207 -0.575,0.458 -0.737,0.344 -0.161,-0.115 0.622,-0.531 0.829,-0.783 0.209,-0.261 0.62,-0.643 0.645,-0.92 0.02,-0.277 0.161,-0.438 0.575,-0.783 0.13,-0.107 0.23,-0.235 0.31,-0.358 0.277,-1.342 0.547,-2.914 0.794,-4.816 0.167,-1.291 0.262,-2.508 0.3,-3.644 l -0.756,-0.04 c -1.15,-0.06 -2.643,-0.689 -3.792,-2.358 -1.147,-1.669 -2.871,-2.072 -5.86,-2.015 -2.988,0.06 -4.367,-1.381 -5.114,-3.452 -0.748,-2.073 0.113,-4.433 3.159,-5.929 3.044,-1.496 4.426,-3.164 4.54,-5.753 0.115,-2.59 -3.043,-5.812 -6.204,-9.436 -3.161,-3.625 -5.632,-8.749 -5.632,-8.749 z m -13.031,2.336 c 0.109,-0.07 0.438,0.621 0.438,0.621 0,0 1.167,1.495 1.751,2.225 0.583,0.729 0.911,0.875 0.766,1.021 -0.147,0.146 -0.328,-0.03 -0.657,-0.436 -0.329,-0.402 -0.949,-1.314 -1.423,-1.788 -0.475,-0.476 -0.984,-1.573 -0.875,-1.643 z m 46.047,0.999 c 0.128,-0.02 0.381,0.01 0.381,0.55 0,0.719 0.266,5.558 0.266,5.558 0.01,0.221 0.09,1.693 0.471,1.89 -0.192,0.03 -0.566,0.1 -0.68,-0.664 -0.133,-0.904 -1.04,-7.076 -1.04,-7.076 l 0.531,-0.24 c 0,0 0.03,-0.01 0.07,-0.02 z m -38,3.125 c 0.186,-0.02 0.632,0.401 0.632,0.401 0,0 0.401,0.22 0.876,0.622 0.473,0.401 1.13,0.985 0.802,1.167 -0.329,0.182 -0.984,-0.767 -1.35,-1.096 -0.365,-0.328 -1.129,-0.874 -1.02,-1.059 0,-0.02 0.03,-0.03 0.06,-0.03 l 0,0 z m 41.903,0.326 c 0,0 0.327,3.853 -0.263,6.217 -0.591,2.363 -0.723,2.67 -0.723,2.67 0,0 3.109,0.546 6.567,-0.417 3.458,-0.964 3.72,-1.271 3.72,-1.27 0,0 0.415,-0.109 -0.131,-0.832 -0.547,-0.721 -1.576,-2.385 -1.925,-3.281 -0.352,-0.898 -0.569,-1.4 -0.569,-1.4 -1.459,0.292 -4.227,-0.394 -5.429,-1.117 0,0 1.095,2.23 2.188,2.998 1.095,0.766 1.248,0.809 1.248,0.809 0,0 -1.094,0.177 -2.561,-1.268 -1.466,-1.445 -2.122,-3.109 -2.122,-3.109 z m -53.482,0 c 0.07,-0 0.245,0.09 0.382,0.23 0.277,0.276 0.744,1.019 0.744,1.019 0,0 0.191,0.194 0.521,0.579 0.328,0.386 0.497,0.524 0.358,0.661 -0.138,0.138 -0.44,-0.275 -0.688,-0.577 -0.247,-0.305 -0.574,-0.826 -1.101,-1.462 -0.26,-0.315 -0.288,-0.439 -0.216,-0.45 z m -22.713,0.859 c -0.08,0.03 -0.132,0.152 -0.147,0.372 -0.03,0.442 -0.176,0.736 0.264,2.739 0.444,2.001 2.298,6.183 6.504,9.511 4.204,3.329 7.819,4.358 8.438,4.624 0.616,0.266 0.559,-0.09 0.44,-0.44 -0.118,-0.354 -0.206,-1.502 -0.206,-1.502 0,0 -1.5,-0.855 -3.176,-1.827 -1.676,-0.973 -3.528,-2.297 -4.763,-3.15 -1.235,-0.854 -0.501,-0.796 -0.119,-0.474 0.382,0.324 2.089,1.327 3.795,2.387 1.705,1.061 4.292,2.592 4.292,2.592 0,0 0.06,-0.559 0.411,-0.913 0.354,-0.354 1.235,-0.264 1.235,-0.264 0,0 -0.441,-0.442 -0.706,-0.854 -0.264,-0.414 -1.647,-0.855 -3.206,-1.592 -1.558,-0.735 -4.352,-2.796 -6.41,-4.535 -2.058,-1.736 -6.058,-6.095 -6.322,-6.449 -0.132,-0.177 -0.242,-0.251 -0.324,-0.225 z m 69.159,3.164 c 0,0 -0.721,1.596 -1.115,2.165 -0.394,0.569 -0.569,0.658 -0.569,0.658 0,0 0.721,0.612 1.772,0.94 1.052,0.328 1.993,0.526 1.993,0.526 0,0 -1.183,-1.622 -1.598,-2.758 -0.416,-1.138 -0.483,-1.531 -0.483,-1.531 z m -40.315,0.638 c 0.08,0 0.3,0.103 0.464,0.193 0.329,0.184 0.695,0.364 0.695,0.364 0,0 0.327,0.256 0.986,0.548 0.654,0.292 1.056,0.472 0.837,0.729 -0.22,0.256 -0.547,-0.07 -0.948,-0.292 -0.402,-0.219 -0.912,-0.511 -1.678,-1.13 -0.384,-0.31 -0.438,-0.412 -0.356,-0.412 z m -7.843,0.854 c 0,0 0.468,0.249 0.854,0.551 0.384,0.304 0.632,0.55 0.935,0.936 0.302,0.387 0.991,0.798 0.797,0.992 -0.192,0.192 -0.439,-0.193 -0.771,-0.551 -0.329,-0.358 -0.604,-0.604 -0.904,-0.881 -0.304,-0.275 -0.911,-1.047 -0.911,-1.047 z m 6.954,5.371 c 0.32,0 0.941,0.107 0.941,0.107 0,0 0.933,0.187 1.457,0.304 0.521,0.108 1.672,0.06 1.676,0.411 0,0.353 -0.551,0.215 -1.236,0.106 -0.688,-0.11 -1.596,-0.387 -2.201,-0.495 -0.605,-0.112 -0.854,-0.251 -0.824,-0.386 0,-0.03 0.08,-0.05 0.187,-0.05 z m -28.777,0.861 c -0.123,0.03 0,0.314 0.06,0.554 0.09,0.382 0.677,2.15 2.029,4.093 1.353,1.944 1.794,2.533 6.058,5.538 4.264,3.004 9.26,4.107 10.32,4.24 0.239,-0.278 -0.258,-1.276 -0.03,-1.885 0.276,-0.729 0.736,-0.736 1.765,-0.794 1.029,-0.06 0.353,-0.267 0.119,-0.267 -0.235,0 -0.294,-0.03 -2,-0.471 -1.706,-0.44 -3.441,-0.707 -5.793,-1.591 -2.353,-0.883 -3.057,-1.531 -2.999,-1.708 0.06,-0.176 1.088,0.56 3.265,1.385 2.176,0.823 4.705,1.148 6.086,1.444 1.382,0.292 0.176,-0.296 -0.471,-0.679 -0.647,-0.384 -1.559,-1.798 -1.559,-1.798 0,0 -1.529,-0.263 -4.028,-1.028 -2.5,-0.766 -4.587,-1.622 -6.675,-2.799 -0.716,-0.406 -1.411,-0.929 -2.159,-1.467 -1.431,-1.026 -2.868,-2.073 -3.427,-2.478 -0.32,-0.232 -0.483,-0.306 -0.557,-0.289 z m 21.431,0.1 c 0.138,0.04 0.344,0.212 0.529,0.398 0.248,0.247 0.606,0.522 0.963,0.771 0.358,0.248 1.075,0.715 1.513,0.935 0.436,0.221 0.606,0.4 0.497,0.62 -0.113,0.222 -0.886,0.06 -1.412,-0.499 -0.524,-0.554 -0.966,-0.97 -1.215,-1.107 -0.248,-0.14 -1.068,-1.018 -0.978,-1.108 0.02,-0.02 0.06,-0.02 0.103,-0 z m 12.489,5.591 c 0.149,0 0.273,0.04 0.328,0.166 0.112,0.249 -0.138,0.332 -0.886,0.47 -0.746,0.14 -1.049,0.334 -1.795,0.334 -0.749,0 -0.72,-0.195 -0.306,-0.306 0.414,-0.111 1.052,-0.276 1.052,-0.276 0,0 0.829,-0.224 1.133,-0.304 0.152,-0.04 0.325,-0.09 0.474,-0.09 z m -11.063,1.963 c 0.263,0.02 0.746,0.212 0.746,0.212 0,0 0.609,0.08 1.05,0.109 0.439,0.03 0.389,0.139 0.389,0.36 0,0.224 -0.167,0.304 -0.362,0.194 -0.193,-0.109 -0.608,-0.215 -0.94,-0.275 -0.332,-0.06 -1.11,-0.388 -1.05,-0.555 0.02,-0.04 0.08,-0.05 0.167,-0.04 z m -20.502,2.834 c -0.151,0.05 -0.08,0.407 0.05,0.903 0.206,0.797 0.177,1.796 2.089,4.034 1.911,2.239 2.852,3.21 7.674,4.978 4.825,1.767 10.235,1.532 10.235,1.532 0,0 -0.147,-0.206 -0.352,-0.913 -0.207,-0.708 0.382,-1.237 0.382,-1.237 0,0 -0.795,-0.235 -3.383,-0.559 -2.588,-0.325 -2.733,-0.53 -4.322,-0.884 -1.589,-0.354 -2.647,-0.825 -2.617,-1.002 0.03,-0.176 0.528,0.09 1.469,0.441 0.941,0.355 4.911,0.766 6.587,1.003 1.676,0.235 2.617,0.412 2.911,0.234 0.294,-0.177 1.323,-0.442 1.323,-0.442 0,0 -0.706,-0.203 -1.588,-0.353 -0.883,-0.147 -1.675,-0.531 -2.146,-0.854 -0.471,-0.324 -0.618,-0.414 -2.735,-0.648 -2.118,-0.235 -3.823,-0.913 -7.617,-2.297 -3.792,-1.386 -6.645,-3.032 -7.41,-3.651 -0.286,-0.231 -0.458,-0.314 -0.549,-0.285 z m 33.91,0.355 c 0.06,-0 0.121,-0 0.162,0 0.06,0.02 0.09,0.05 0.09,0.123 0,0.277 0,0.361 -0.471,0.499 -0.469,0.139 -1.271,0.553 -1.658,0.692 -0.386,0.138 -0.972,0.278 -0.911,0.138 0.06,-0.138 0.552,-0.387 0.552,-0.387 0,0 0.775,-0.609 1.382,-0.803 0.342,-0.112 0.651,-0.23 0.854,-0.262 z m -12.188,3.887 0,0 c 0.292,0 0.921,0.128 1.625,0.128 0.941,0 1.741,-0.03 1.77,0.277 0.03,0.304 -0.08,0.444 -0.689,0.414 -0.608,-0.03 -1.494,-0.08 -1.965,-0.25 -0.471,-0.164 -0.973,-0.386 -0.913,-0.525 0,-0.04 0.07,-0.05 0.172,-0.05 z m 17.548,0.49 c 0.121,-0.03 0.211,0 0.306,0.09 0.195,0.167 0.08,0.414 -0.47,0.749 -0.551,0.33 -1.518,0.776 -1.879,1.078 -0.359,0.306 -1.052,0.471 -1.162,0.304 -0.11,-0.165 0.305,-0.442 0.636,-0.608 0.332,-0.166 0.774,-0.333 0.774,-0.333 0,0 0.859,-0.608 1.301,-0.969 0.221,-0.18 0.373,-0.277 0.494,-0.308 z m 4.959,4.209 c 0.03,0 0.06,0 0.09,0 0.249,0.08 0.06,0.747 -0.249,0.969 -0.305,0.223 -0.968,0.443 -1.189,0.637 -0.222,0.195 -0.443,0.278 -0.94,0.667 -0.498,0.382 -0.774,0.381 -1.189,0.441 -0.415,0.06 -0.637,-0.08 -0.138,-0.278 l 0.47,-0.194 c 0,0 1.798,-1.189 2.324,-1.578 0.458,-0.338 0.622,-0.652 0.823,-0.674 z m -13.663,2.525 c 0.06,0 0.108,0.03 0.141,0.06 0.139,0.14 -0.06,0.39 -0.609,0.471 -0.553,0.08 -1.328,0.331 -2.488,0.192 -1.163,-0.138 -1.962,-0.11 -1.962,-0.249 l 0.607,-0.136 c 0,0 1.079,0.03 1.576,0.06 0.498,0.03 1.356,-0.139 1.88,-0.251 0.394,-0.08 0.678,-0.165 0.855,-0.142 z m -25.465,0.144 c -0.326,0.04 -0.31,0.224 -0.31,0.224 0,0 -0.207,0.352 1.146,2.471 1.353,2.123 4,3.507 6.235,4.153 2.235,0.649 5.293,1.093 8.763,1.122 3.47,0.03 4.764,-1.002 4.764,-1.002 0,0 0,-0.177 -0.469,-0.883 -0.472,-0.706 -0.383,-1.915 -0.383,-1.915 0,0 -0.823,0.148 -2.264,0.355 -1.441,0.205 -3.118,0.412 -4.97,0.09 -1.854,-0.324 -1.058,-0.53 0.412,-0.354 1.471,0.177 4.293,-0.354 5.205,-0.678 0.911,-0.324 0.528,-0.617 -0.09,-0.825 -0.616,-0.204 -2.292,-1.267 -2.292,-1.267 0,0 -4.205,0.532 -8.116,0.09 -3.911,-0.444 -6.383,-1.445 -7.176,-1.563 -0.199,-0.03 -0.346,-0.03 -0.455,-0.01 z m 45.154,1.617 c 0.07,0 0.132,0.02 0.194,0.07 0.248,0.194 -0.165,0.58 -0.498,0.886 -0.332,0.303 -1.023,0.912 -1.494,1.106 -0.469,0.194 -0.608,0.306 -0.802,0.499 -0.191,0.192 -0.774,0.276 -0.222,-0.166 0.554,-0.441 0.692,-0.472 0.692,-0.472 0,0 1.023,-1.078 1.41,-1.439 0.292,-0.265 0.52,-0.474 0.72,-0.482 z m -15.412,2.966 c 0.09,0 0.168,0.04 0.232,0.112 0.247,0.304 -0.278,0.556 -0.748,0.636 -0.47,0.08 -0.906,0.276 -1.687,0.306 -0.774,0.03 -1.106,-0.03 -1.549,0.03 -0.441,0.06 -0.61,0.252 -0.69,0.06 -0.08,-0.19 0.415,-0.253 0.415,-0.253 0,0 1.05,-0.194 1.494,-0.194 0.442,0 0.856,-0.05 1.437,-0.276 0.436,-0.168 0.824,-0.425 1.096,-0.415 l 0,-0 z m -6.891,3.685 c -0.399,0.01 -1.15,0.277 -2.495,0.588 -1.795,0.417 -5.511,1.058 -8.362,1.058 -2.851,0 -5.509,-0.481 -5.958,-0.578 -0.449,-0.1 -0.929,0.161 0.449,2.472 1.377,2.309 6.214,3.56 9.577,3.528 3.363,-0.03 6.727,-1.83 8.713,-2.6 1.986,-0.769 1.444,-2.728 1.444,-2.76 0,-0.03 -1.219,0.385 -2.338,0.802 -1.124,0.419 -3.878,1.22 -4.967,1.25 -1.088,0.03 -1.088,-0.126 -1.121,-0.287 -0.03,-0.159 0.834,0 2.402,-0.289 1.57,-0.288 4.325,-1.732 4.805,-2.052 0.48,-0.324 0.415,-0.388 -0.288,-0.451 -0.706,-0.06 -1.314,-0.385 -1.571,-0.609 -0.06,-0.06 -0.157,-0.08 -0.29,-0.07 z m 12.181,0.216 c 0.03,0.02 0.06,0.05 0.09,0.124 0.11,0.276 -0.499,0.572 -0.97,0.971 -0.469,0.385 -1.38,0.996 -1.656,1.106 -0.277,0.112 -0.584,0.442 -0.664,0.305 -0.08,-0.138 -0.11,-0.25 0.386,-0.499 0.499,-0.25 0.746,-0.442 0.746,-0.442 0,0 1.273,-0.861 1.605,-1.193 0.245,-0.242 0.369,-0.409 0.462,-0.372 z m 4.462,4.502 c 0.05,-0.02 0.1,0 0.13,0.107 0.14,0.389 -0.304,0.666 -0.609,0.888 -0.304,0.22 -1.133,0.828 -1.741,0.941 -0.608,0.109 -1.19,0.303 -1.19,0.109 0,-0.197 0.498,-0.167 0.498,-0.167 0,0 1.052,-0.249 1.853,-0.857 0.601,-0.458 0.892,-0.961 1.059,-1.021 z m -12.901,0.286 c 0,0 -1.055,0.962 -5.316,2.79 -4.261,1.83 -7.882,2.31 -7.882,2.31 0,0 0.45,2.183 2.5,2.922 1.699,0.737 4.037,1.185 8.618,0.1 4.58,-1.09 7.719,-3.015 7.719,-3.015 0,0 -0.32,-0.225 -1.281,-0.834 -0.962,-0.608 -0.673,-2.437 -0.673,-2.437 0,0 -0.255,0.191 -0.961,0.673 -0.706,0.481 -1.506,1.025 -2.467,1.411 -0.961,0.386 -1.442,0.642 -2.05,0.834 -0.609,0.193 -0.447,-0.06 0.06,-0.353 0.513,-0.288 0.673,-0.449 1.956,-0.962 1.28,-0.514 3.843,-2.759 3.843,-2.759 0,0 -0.609,-0.06 -1.666,-0.101 -1.057,-0.03 -2.404,-0.577 -2.404,-0.577 z m 19.036,4.208 c 0.03,0 0.07,0.03 0.113,0.08 0.164,0.167 -0.03,0.277 -0.472,0.666 -0.441,0.387 -1.825,1.357 -2.293,1.497 -0.475,0.138 -0.554,0.03 -0.554,0.03 0,0 0.109,-0.251 0.554,-0.417 0.442,-0.167 0.856,-0.443 0.856,-0.443 0,0 1.327,-0.996 1.493,-1.188 0.125,-0.142 0.203,-0.243 0.303,-0.214 l 0,-0 z m -10.082,1.511 c -0.737,-0.04 -2.146,0.613 -6.35,3.139 -4.805,2.888 -7.626,2.985 -7.626,2.985 0,0 2.148,2.6 7.979,2.406 5.83,-0.19 7.943,-2.983 8.295,-4.778 0.351,-1.796 -0.671,-3.046 -0.671,-3.046 0,0 -0.225,0.127 -0.865,0.706 -0.641,0.577 -1.572,1.669 -3.364,2.566 -1.794,0.897 -2.435,0.834 -0.705,-0.1 1.731,-0.931 4.261,-3.561 4.261,-3.561 l -0.672,-0.257 c -0.08,-0.03 -0.176,-0.05 -0.282,-0.06 z m 13.319,1.666 c 0,0 -0.641,0.896 -1.506,1.474 -0.865,0.578 -3.17,0.931 -3.17,0.931 0,0 -0.102,0.257 -0.546,0.834 -0.449,0.579 -1.441,1.959 -2.466,2.697 -1.024,0.738 -2.627,1.217 -2.723,1.025 -0.101,-0.193 0.929,-0.577 1.922,-1.187 0.993,-0.608 1.89,-1.734 2.563,-2.503 0.673,-0.771 -0.289,-0.641 -0.289,-0.641 0,0 -1.216,0.03 -2.338,-0.06 -1.121,-0.1 -0.897,0 -1.217,0.545 -0.32,0.546 -0.769,1.026 -1.602,1.989 -1.016,1.175 -1.982,2.239 -2.947,3.4 -0.641,0.771 -0.161,0.994 -0.161,0.994 0,0 0.29,0.483 2.883,0.771 1.602,0.18 3.338,-0.02 5.164,-1.076 1.13,-0.656 2.298,-1.695 3.488,-2.998 3.106,-3.399 2.943,-6.192 2.945,-6.192 z m 0.77,2.176 c -0.286,0.923 -1.173,3.63 -2.275,5.391 -1.344,2.149 -2.53,2.918 -1.761,3.494 0.77,0.578 2.274,0.708 3.973,-0.127 1.64,-0.804 2.113,-2.211 2.346,-3.346 -0.288,-0.446 -0.557,-0.909 -0.807,-1.394 -0.212,0.131 -0.52,0.375 -0.866,0.825 -0.641,0.835 -0.994,1.19 -0.994,1.19 0,0 0.449,-1.382 0.833,-2.024 0.205,-0.342 0.427,-0.666 0.592,-0.893 -0.429,-0.964 -0.781,-1.999 -1.041,-3.116 z m 3.698,7.138 c -0.198,0.807 -0.844,2.771 -2.755,4.91 -2.497,2.797 -7.495,4.214 -7.495,4.214 0,0 -1.752,0.187 -0.335,0.559 1.417,0.374 2.424,1.008 5.184,0.522 2.759,-0.483 2.946,-0.595 3.318,-0.705 0.374,-0.114 1.38,-0.04 0,0.483 -1.378,0.521 -4.586,1.005 -5.816,0.895 -1.232,-0.11 -2.911,-0.374 -1.158,0.559 1.753,0.933 2.5,1.306 3.58,1.306 1.083,0 1.53,0.335 2.575,0.335 1.043,0 1.341,-0.187 2.088,-0.335 0.746,-0.149 1.23,0.111 1.23,0.41 0,0.297 -1.006,1.118 -0.969,3.17 0.04,2.051 0.186,3.394 0.372,3.988 0.188,0.599 0.635,1.567 0.933,2.128 0.298,0.559 0.411,1.117 0.708,-0.08 0.298,-1.194 0.97,-2.909 1.232,-4.064 0.26,-1.156 0.409,-1.194 0.521,-1.791 0.111,-0.597 0.746,-1.043 0.447,0.04 -0.299,1.081 -0.634,2.462 -0.857,3.431 -0.225,0.97 -0.746,2.758 0.148,1.341 0.895,-1.415 4.251,-5.182 4.81,-5.853 0.559,-0.671 1.006,-1.306 1.417,-1.864 0.41,-0.56 1.566,-1.306 2.126,-2.126 0.506,-0.742 1.988,-2.187 2.624,-2.704 -0.949,-0.402 -1.95,-0.825 -3.006,-1.297 -0.192,-0.09 -0.39,-0.177 -0.59,-0.27 -0.05,0 -0.103,0.03 -0.146,0.05 -0.374,0.187 -2.312,1.493 -3.096,2.762 -0.783,1.267 -1.565,1.38 -0.708,0 0.858,-1.382 1.492,-2.165 2.163,-2.762 0.259,-0.229 0.491,-0.422 0.677,-0.569 -1.56,-0.751 -3.255,-1.662 -4.894,-2.804 -0.212,0.424 -0.618,1.174 -1.079,1.66 -0.671,0.708 -2.164,1.306 -2.164,1.306 0,0 1.194,-1.231 1.605,-2.164 0.261,-0.595 0.433,-1.236 0.521,-1.621 -1.141,-0.889 -2.235,-1.902 -3.211,-3.065 z m -11.05,12.193 c 0,0 -2.882,1.215 -3.96,1.485 -1.078,0.27 -1.724,0.431 -0.673,0.945 1.05,0.514 1.938,0.676 2.45,0.999 0.511,0.325 2.1,0.838 3.071,0.838 0.968,0 2.612,0.03 1.966,0.702 -0.646,0.677 -1.374,1.974 -2.074,3.943 -0.7,1.975 -0.728,3.729 -0.728,4.595 0,0.865 0.107,1.729 0.107,1.729 0,0 1.186,-1.322 4.365,-3.322 3.177,-2 4.363,-2.675 4.956,-2.946 0.592,-0.269 0.89,-0.269 0.781,-1.025 -0.106,-0.756 -0.429,-2.621 -0.429,-3 l 0,-0.405 -0.54,-1.161 c 0,0 -0.628,0.397 -1.241,1.031 -0.789,0.818 -1.638,1.969 -2.017,2.455 -0.674,0.863 -1.617,1.674 -0.809,0.295 0.808,-1.378 1.077,-1.969 1.723,-2.89 0.647,-0.918 1.133,-1.324 1.053,-1.379 -0.08,-0.05 -0.594,-0.134 -2.291,-0.35 -1.696,-0.218 -2.748,-0.864 -3.529,-1.324 -0.781,-0.459 -2.181,-1.215 -2.181,-1.215 z m -4.667,4.904 c -0.193,0.01 -0.385,0.09 -0.535,0.259 -0.302,0.336 -2.742,1.777 -2.742,1.777 l 4.047,0 c 1.404,0 2.339,-1.307 2.339,-1.307 0,0 -0.334,-0.03 -0.802,-0.102 -0.467,-0.07 -1.471,-0.402 -1.772,-0.537 -0.15,-0.06 -0.343,-0.107 -0.535,-0.09 z m 27.847,17.449 c 0,0 -0.815,0.759 -2.049,1.407 -1.233,0.648 -1.74,0.336 -1.74,0.336 l -0.31,-1.236 c 0,0 -0.532,1.126 -1.289,2.446 -0.758,1.322 -2.805,2.786 -4.262,3.884 -1.46,1.098 -3.059,2.25 -4.266,2.672 -1.205,0.422 -0.503,0.988 -0.503,0.988 0,0 1.205,1.205 4.318,1.769 3.114,0.563 4.602,-0.701 5.443,-1.235 0.841,-0.534 1.571,-1.127 3.478,-2.393 1.907,-1.267 2.608,-2.673 2.608,-2.673 l -0.673,0 c -0.365,0 -0.673,-0.508 -0.701,-1.014 -0.03,-0.507 0,-1.546 0.139,-2.756 0.14,-1.209 -0.193,-2.195 -0.193,-2.195 z m 4.299,4.277 c 0,0 -0.363,0.309 -0.785,0.816 -0.42,0.506 -1.376,0.618 -1.376,0.618 0,0 -0.14,0.421 -0.561,1.096 -0.42,0.676 -0.953,1.495 -2.02,2.168 -1.065,0.676 -2.299,1.463 -3.112,2.139 -0.814,0.676 -1.767,1.464 -2.833,2.054 -1.066,0.591 -2.02,1.548 -2.386,3.122 -0.363,1.575 -0.08,2.081 1.151,1.998 1.233,-0.09 1.375,0.03 3.366,-0.478 1.991,-0.507 4.823,-2.729 6.899,-4.051 2.078,-1.322 3.593,-3.939 3.593,-3.939 -1.113,-0.117 -1.777,-0.538 -1.991,-1.745 -0.143,-0.787 0.06,-3.798 0.06,-3.798 z m -7.33,1.034 0.562,0.34 c 0,0 -0.898,1.069 -1.571,1.66 -0.672,0.591 -0.925,0.928 -1.963,1.547 -1.038,0.616 -1.29,0.647 -1.29,0.647 0,0 -0.589,0.338 -0.757,0.196 -0.169,-0.14 0.168,-0.282 1.037,-0.731 0.87,-0.45 1.431,-1.04 1.795,-1.519 0.364,-0.479 0.898,-0.677 1.375,-1.182 0.477,-0.506 0.812,-0.958 0.812,-0.958 z m 12.736,0.451 c 0,0 -0.281,0.759 -0.954,2.191 -0.674,1.437 -1.823,1.773 -1.823,1.773 0,0 -0.06,0.619 -1.009,1.829 -0.954,1.209 -2.356,2.334 -3.788,3.18 -1.432,0.843 -3.283,1.997 -4.293,3.431 -1.008,1.435 -1.094,2.925 -0.615,3.573 0.477,0.646 1.149,-0.09 2.103,-0.564 0.954,-0.478 3.675,-0.899 7.433,-2.925 3.757,-2.025 4.992,-6.61 4.992,-6.61 0,0 -0.841,-1.068 -1.15,-2.28 -0.309,-1.21 -0.896,-3.598 -0.896,-3.598 z m -7.416,4.195 c 0.143,-0.02 0.268,0.03 0.381,0.143 0.224,0.227 -0.195,0.509 -0.589,0.931 -0.392,0.419 -1.348,1.321 -1.992,1.77 -0.646,0.45 -1.122,0.675 -1.122,0.675 0,0 -1.205,0.535 -1.624,0.675 -0.421,0.141 -0.816,0.34 -0.816,0.34 0,0 -0.474,-0.03 0.03,-0.312 0.504,-0.281 1.542,-0.843 2.019,-1.209 0.477,-0.365 0.868,-0.619 1.344,-1.042 0.477,-0.422 1.517,-1.406 1.881,-1.715 0.183,-0.154 0.343,-0.239 0.487,-0.256 z m 9.943,2.199 c 0,0 -0.616,1.293 -1.287,2.503 -0.675,1.21 -1.013,1.633 -2.415,2.926 -1.402,1.295 -3.31,2.561 -4.125,3.939 -0.812,1.378 -0.363,4.135 0.171,5.063 0.531,0.928 1.289,0.618 2.074,-0.14 0.786,-0.759 1.037,-0.957 2.412,-2.139 1.374,-1.181 3.283,-2.701 4.32,-4.248 1.038,-1.547 1.207,-5.315 1.207,-5.315 0,0 -0.364,-0.254 -0.87,-0.678 -0.504,-0.423 -1.487,-1.911 -1.487,-1.911 z m -4.87,2.039 c 0.118,0 0.128,0.129 -0.04,0.465 -0.337,0.676 -1.011,1.069 -1.765,1.716 -0.758,0.645 -1.235,1.01 -1.573,1.04 -0.336,0.03 -0.701,0.141 -0.701,0.141 0,0 -0.869,0.507 -1.121,0.619 -0.254,0.111 -0.503,0.112 -0.533,-0.03 -0.03,-0.14 -0.03,-0.308 0.588,-0.617 0.617,-0.311 1.235,-0.508 1.964,-1.014 0.728,-0.505 1.988,-1.884 2.55,-2.108 0.279,-0.114 0.511,-0.219 0.63,-0.212 z m 4.304,3.278 c 0,0 0.165,0.337 -0.06,0.957 -0.225,0.619 -1.178,1.658 -1.767,2.024 -0.591,0.367 -2.188,1.941 -2.188,1.941 0,0 -0.421,0.507 -0.616,0.844 -0.197,0.338 -0.646,0.621 -0.786,0.479 -0.14,-0.14 0.14,-0.73 0.561,-1.575 0.422,-0.845 2.019,-2.109 2.944,-2.673 0.926,-0.563 1.907,-1.997 1.907,-1.997 z"
           style="fill:#d4af3a"
           id="path4158" />
      </g>
      <path
         style="fill:#1d5e91"
         d="m378.27 211.96c-1.075-0.199-1.475-0.319-1.475-0.319s0.678 2.591 1.795 4.028c1.116 1.436 2.353 2.155 4.666 2.194 2.313 0.04 4.067-1.236 4.347-2.233 0.279-0.998 0.758-1.754 0.758-1.754s-4.188-0.561-5.903-0.959c-1.74-0.4-3.13-0.76-4.21-0.96zm7.02-6.26c0.677 0.12 0.598-0.16 0.837-1.077 0.239-0.916 1.435-5.463 1.435-5.463s-3.029-0.12-5.662 1.155c-2.633 1.276-3.789 3.629-3.789 3.629s0.679 0.279 2.474 0.679c1.8 0.39 4.03 0.95 4.71 1.07zm13.68 2.15c-0.545-2.306-2.034-5.155-4.905-6.582 0 0-1.077 3.79-1.396 4.987-0.32 1.195-0.32 1.156 0.598 1.396 0.916 0.238 3.867 0.876 4.466 1.036s1.6 0.67 1.24-0.85zm-2.35 8.26c-0.839-0.199-1.195-0.518-1.195-0.518s-0.359-0.04-0.641 0.479c-0.276 0.517-1.354 1.195-1.354 1.195s-1.515 0.4-1.715 1.438c-0.199 1.036 0.519 1.395 1.236 1.275 0.72-0.12 2.474-0.479 3.229-1.395 0.758-0.918 0.878-1.437 1.037-1.797 0.14-0.35 0.23-0.47-0.61-0.67zm-59.87-39.51c-0.105-0.468-0.06-0.53-0.34-0.596-0.276-0.06-0.743-0.148-1.146-0.317-0.403-0.17-0.361 0.913-0.361 0.913s-0.957 0.104-2.039-0.02c-1.083-0.128-2.357-1.104-2.804-1.424-0.445-0.318-0.935-1.04-0.935-1.04s-0.34 0.318-0.68 0.51-0.531 0.871-0.594 1.551c-0.06 0.68 0.786 1.507 0.849 2.187 0.06 0.681-0.743 2.04-1.147 2.592-0.275 0.379-0.632 1.186-0.829 1.657h3.914c0.08-0.201 0.216-0.455 0.42-0.658 0.402-0.404 1.084-0.489 1.084-0.489s0-0.17 0.148-0.53c0.147-0.361 0.552-0.786 1.528-1.169 0.978-0.382 2.146-0.446 2.146-0.446s0.466-0.382 0.807-0.913c0.34-0.53 0.09-1.33-0.02-1.8zm-13.01-0.22c-0.316-0.498-0.407-0.452-0.77-0.135-0.361 0.316-0.725-0.771-0.77-1.449-0.05-0.677 0.271-2.759 0.271-2.759s-1.765 0.362-2.714 0.678c-0.949 0.317-1.854 0.408-2.623 0.59s-1.176 0.36-1.583 0.271c-0.407-0.09-1.267-0.136-1.945-0.136s-0.632 0.136-1.312 0.814c-0.678 0.677-0.859 1.039-1.402 2.307-0.543 1.265-0.724 2.441-0.904 3.979-0.119 1.007-0.314 1.702-0.436 2.064h8.108c0.1-0.26 0.223-0.587 0.333-0.829 0.212-0.468 0.658-0.765 0.977-0.914s0.596-0.149 0.743-0.508c0.148-0.362 0.553-0.66 0.978-0.851s1.168-0.09 1.849 0.106c0.679 0.19 0.913-0.276 1.103-0.531 0.191-0.255 0.277-0.616 0.639-1.082 0.361-0.469 0.09-0.894 0.09-0.894s-0.33-0.22-0.65-0.72zm20.36-14.31c-1.053-6.998 2.104-12.635 2.104-12.635l-6.563-7.308c-5.547 2.849-12.289 2.113-19.634-0.434-7.344 2.547-14.085 3.282-19.633 0.434l-6.564 7.308s3.159 5.637 2.106 12.635-2.663 14.924-2.354 19.57c0.02 0.319 0.06 0.644 0.101 0.972h5.978s0.346-0.403 1.012-0.687c0.664-0.287 0.854-0.478 0.854-0.478s0.127-1.207 0.855-1.461c0.728-0.255 1.045-0.255 1.33-0.255s0.507-0.06 0.855-0.413c0.349-0.349 1.297-1.206 1.709-2.413s0.666-1.684 0.666-2.478c0-0.793 0.285-2.063 0.285-2.063s-0.159-0.381-0.76-0.158c-0.602 0.222-0.697-0.381-0.759-0.985-0.06-0.604-0.03-1.841 0.316-2.413 0.348-0.572 0.475-0.763 0.475-0.763l-0.254-0.951s-3.799 0.761-4.463-2.192c-0.665-2.953-0.792-4.384-0.887-4.699-0.1-0.319-0.19-0.479-0.697-0.445-0.507 0.03-1.583-0.317-2.343-1.843-0.76-1.524-0.823-2.159-0.602-2.762 0.222-0.604 0.634-0.381 0.76-0.191 0.126 0.191 1.14 1.652 1.552 1.238 0.411-0.413 0.19-0.413-0.38-1.556s-0.38-1.523-0.317-2.097c0.06-0.571-0.189-1.334-0.189-1.651 0-0.316 0.348-0.571 0.696-0.413 0.349 0.159 0.665 0.413 0.823 0.604 0.158 0.19 0.222 0.478 0.539 0.287s0.126-1.24 0.126-1.588c0-0.35 0.412-0.604 0.919-0.318 0.506 0.286 0.759 0.825 0.759 1.206 0 0.382 0.03 0.731 0.222 0.731 0.19 0 0.412-0.572 0.443-0.954 0.03-0.379 0.253-0.952 0.602-0.475 0.349 0.475 0.475 1.176 0.349 1.905-0.127 0.729 0.126 0.35-0.127 1.62-0.252 1.271-0.379 1.842-0.348 2.795 0.03 0.952 0.06 1.492 0.538 2.668 0.475 1.175 0.854 2.539 1.741 2.571 0.887 0.03 1.14 0.03 1.14 0.03s0.981-1.905 1.742-2.35c0.76-0.444 1.836-0.509 2.596-0.604 0.76-0.1 1.076-0.318 1.076-0.509s-0.253-0.253-1.171-0.381c-0.917-0.126-1.677-0.35-1.708-1.048-0.03-0.698 0.157-1.302-0.444-1.333-0.601-0.03-2.089-0.511-2.627-1.493-0.538-0.985-0.412-1.208-0.348-1.746 0.06-0.54 0.759-1.621 1.203-0.604s0.729 1.143 1.108 1.365c0.38 0.224 0.886 0.287 0.634-0.413-0.254-0.698-0.412-1.142-0.349-1.649 0.06-0.51 0.412-0.73 0.824-0.826 0.411-0.1 1.646-0.478 2.279-0.604 0.632-0.126 0.665-0.189 0.665-0.189s0.06-0.445 0.886-0.699c0.823-0.254 1.361-0.285 1.963-0.285 0.601 0 1.044 0.09 1.836-0.287 0.792-0.38 1.424-0.443 1.931-0.412 0.506 0.03 0.887 0.223 1.267 0.476 0.38 0.255 0.253 0.604 0.253 0.953 0 0.35 0.06 0.54 0.601 0.54 0.54 0 1.015 0 1.521 0.19 0.508 0.191 1.204 0.476 0.76 1.016-0.442 0.541-0.473 1.144-0.76 1.112-0.283-0.03-0.252 0.286-0.38 0.477-0.126 0.189-0.221 0.349 0.1 0.54 0.314 0.19 0.347 0.381 0.791 0.793 0.442 0.413 1.107 0.858 0.442 1.525-0.663 0.666-1.835 1.207-1.835 1.207s-0.666 0.316 0.09 0.763c0.76 0.443 1.109 1.365 1.394 1.523 0.284 0.159 0.57 0.413 0.76 0.508 0.189 0.1 0.158 0.73 0.158 0.73s-0.411 0.287-0.981 0.509c-0.57 0.223-1.172 0.477-1.709 0.477-0.539 0-0.824 0-0.602 0.508 0.221 0.507 0.602 1.049 0.696 1.333 0.09 0.286 0.222 0.795 0.222 0.795s0.885 0.189 1.678 0.189c0.791 0 1.14 0.03 2.881-0.158 1.741-0.189 2.249-0.254 3.927-0.06 1.679 0.19 1.93 0.128 2.374 0.286 0.443 0.159 0.886 0.383 0.886 0.383s2.375-0.03 3.673-0.318c1.298-0.286 1.616-1.113 1.427-1.556-0.19-0.445-0.16-1.111-2.439-1.43-2.278-0.319-3.197-0.191-5.003-0.541-1.804-0.349-4.623-1.27-5.128-3.524-0.508-2.255 1.329-3.207 2.248-3.651 0.918-0.446 2.912-1.144 3.831-1.524 0.917-0.382 2.597-0.762 4.369-0.509 1.772 0.255 2.785 0.73 3.482 0.318 0.696-0.413 1.267-0.1 1.14 0.539-0.125 0.635-0.823 1.938-2.818 2.541-1.994 0.604-4.399 0.667-5.698 0.318-1.299-0.351-2.279-0.858-3.071-0.573-0.791 0.286-1.678 1.271-0.824 2.445 0.857 1.177 5.226 1.525 6.396 1.651 1.172 0.129 5.509-0.19 6.744 1.969 1.234 2.161 0.252 4.573-1.203 5.114-1.456 0.539-2.691 0.89-3.799 1.048l-1.108 0.158s0.506 1.144 0.506 1.621c0 0.476-0.06 1.365 0.476 1.713 0.538 0.351 1.299 0.604 2.217 0.509 0.918-0.09 2.026 0.54 2.09 1.366 0.06 0.825 0.316 1.968 0.41 3.62 0.1 1.651 0 3.017 0 3.017s-0.06 0.636-0.284 1.238c-0.222 0.604-1.362 2.943-1.362 2.943h6.375c0.05-0.328 0.08-0.652 0.102-0.972 0.26-4.71-1.35-12.63-2.4-19.63zm-25.53-98.422c-0.791 0.323-1.434 0.892-1.809 1.598h1.809v-1.598zm3.01 0v1.598h1.808c-0.37-0.706-1.01-1.275-1.81-1.598zm-1.5 6.384c1.621 0 2.997-0.954 3.485-2.276h-6.972c0.49 1.323 1.87 2.276 3.49 2.276z"
         id="path4160" />
      <use
         xlink:href="#a"
         transform="matrix(-1,0,0,1,640,0)"
         height="320"
         width="640"
         y="0"
         x="0"
         id="use4162" />
    </g>
  </g>
</svg>
