<?xml version="1.0" encoding="UTF-8" standalone="no"?>
<svg
   xmlns:dc="http://purl.org/dc/elements/1.1/"
   xmlns:cc="http://creativecommons.org/ns#"
   xmlns:rdf="http://www.w3.org/1999/02/22-rdf-syntax-ns#"
   xmlns:svg="http://www.w3.org/2000/svg"
   xmlns="http://www.w3.org/2000/svg"
   xmlns:xlink="http://www.w3.org/1999/xlink"
   xmlns:sodipodi="http://sodipodi.sourceforge.net/DTD/sodipodi-0.dtd"
   xmlns:inkscape="http://www.inkscape.org/namespaces/inkscape"
   width="640"
   height="480"
   id="svg4343"
   version="1.1"
   inkscape:version="0.91 r"
   sodipodi:docname="pt.svg">
  <metadata
     id="metadata4461">
    <rdf:RDF>
      <cc:Work
         rdf:about="">
        <dc:format>image/svg+xml</dc:format>
        <dc:type
           rdf:resource="http://purl.org/dc/dcmitype/StillImage" />
        <dc:title></dc:title>
      </cc:Work>
    </rdf:RDF>
  </metadata>
  <defs
     id="defs4459" />
  <sodipodi:namedview
     pagecolor="#ffffff"
     bordercolor="#666666"
     borderopacity="1"
     objecttolerance="10"
     gridtolerance="10"
     guidetolerance="10"
     inkscape:pageopacity="0"
     inkscape:pageshadow="2"
     inkscape:window-width="2560"
     inkscape:window-height="1393"
     id="namedview4457"
     showgrid="false"
     inkscape:zoom="1.77661"
     inkscape:cx="229.909"
     inkscape:cy="218.723"
     inkscape:window-x="-4"
     inkscape:window-y="-4"
     inkscape:window-maximized="1"
     inkscape:current-layer="svg4343" />
  <rect
     style="fill:#ff0000"
     y="5.68434e-014"
     x="0"
     width="640"
     height="480"
     id="rect4345" />
  <rect
     style="fill:#006600"
     y="5.68434e-014"
     x="0"
     width="256"
     height="480"
     id="rect4347" />
  <g
     id="g4604">
    <path
       inkscape:connector-curvature="0"
       d="M 339.457,305.994 C 307.233,305.023 159.467,212.788 158.454,198.1 l 8.16,-13.607 c 14.657,21.297 165.718,110.997 180.555,107.819 l -7.712,13.678"
       id="path4351"
       style="fill:#ffff00;fill-rule:evenodd;stroke:#000000;stroke-width:0.611202;stroke-linecap:round;stroke-linejoin:round" />
    <path
       inkscape:connector-curvature="0"
       d="m 164.897,182.644 c -2.891,7.78 38.559,33.406 88.43,63.738 49.869,30.33 92.869,49.073 96.056,46.385 0.196,-0.347 1.568,-2.71 1.443,-2.691 -0.598,0.9 -2.052,1.184 -4.321,0.53 -13.474,-3.886 -48.614,-20.016 -92.133,-46.407 -43.518,-26.392 -81.381,-50.713 -87.265,-61.047 -0.409,-0.716 -0.701,-2.023 -0.641,-3.038 l -0.143,0 -1.254,2.19 -0.171,0.343 0,0 z M 340.214,306.42 c -0.546,0.992 -1.564,1.024 -3.5,0.812 -12.054,-1.333 -48.629,-19.12 -91.907,-45.027 -50.357,-30.144 -91.947,-57.611 -87.435,-64.79 l 1.228,-2.169 0.242,0.07 c -4.058,12.166 82.078,61.417 87.149,64.557 49.839,30.877 91.856,48.908 95.575,44.222 l -1.353,2.327 0,0 z"
       id="path4353"
       style="fill:#ffff00;fill-rule:evenodd;stroke:#000000;stroke-width:0.611202;stroke-linecap:round;stroke-linejoin:round" />
    <path
       inkscape:connector-curvature="0"
       d="m 256.182,206.996 c 32.253,-0.255 72.054,-4.407 94.958,-13.536 l -4.935,-8.018 c -13.538,7.493 -53.558,12.42 -90.296,13.157 -43.452,-0.4 -74.123,-4.446 -89.49,-14.757 l -4.658,8.539 c 28.249,11.954 57.198,14.492 94.421,14.616"
       id="path4355"
       style="fill:#ffff00;fill-rule:evenodd;stroke:#000000;stroke-width:0.611202;stroke-linecap:round;stroke-linejoin:round" />
    <path
       inkscape:connector-curvature="0"
       d="m 352.47,193.641 c -0.788,1.261 -15.725,6.412 -37.731,10.214 -14.92,2.275 -34.383,4.22 -58.671,4.243 -23.075,0.02 -41.925,-1.621 -56.196,-3.555 -23.1,-3.623 -35.022,-8.662 -39.43,-10.443 0.421,-0.837 0.692,-1.426 1.099,-2.208 12.688,5.052 24.665,8.097 38.697,10.256 14.178,1.92 32.801,3.586 55.762,3.565 24.175,-0.02 43.423,-2.116 58.257,-4.323 22.565,-3.641 34.892,-8.325 36.623,-10.499 l 1.594,2.75 0,0 z m -4.33,-8.131 c -2.446,1.965 -14.633,6.287 -36.074,9.711 -14.309,2.05 -32.504,3.886 -55.749,3.908 -22.085,0.02 -40.128,-1.466 -53.851,-3.465 -21.775,-2.844 -33.365,-7.973 -37.543,-9.469 0.415,-0.719 0.839,-1.433 1.274,-2.148 3.251,1.637 14.435,6.177 36.508,9.303 13.568,1.925 31.638,3.358 53.613,3.336 23.136,-0.02 41.123,-1.895 55.342,-3.934 21.552,-2.965 33.149,-8.478 34.91,-9.857 l 1.571,2.614 0,0 z"
       id="path4357"
       style="fill:#ffff00;fill-rule:evenodd;stroke:#000000;stroke-width:0.611202;stroke-linecap:round;stroke-linejoin:round" />
    <path
       inkscape:connector-curvature="0"
       d="m 150.272,245.855 c 19.838,10.67 63.899,16.047 105.594,16.417 37.964,0.06 87.423,-5.869 105.918,-15.669 l -0.509,-10.68 c -5.787,9.042 -58.788,17.717 -105.82,17.361 -47.033,-0.355 -90.708,-7.619 -105.267,-17.023 l 0.09,9.591"
       id="path4359"
       style="fill:#ffff00;fill-rule:evenodd;stroke:#000000;stroke-width:0.611202;stroke-linecap:round;stroke-linejoin:round" />
    <path
       inkscape:connector-curvature="0"
       d="m 362.796,244.319 0,2.546 c -2.78,3.324 -20.209,8.348 -42.066,11.885 -16.635,2.55 -38.323,4.475 -65.347,4.475 -25.673,0 -46.147,-1.831 -62.024,-4.268 -25.098,-3.656 -41.152,-10.056 -44.374,-11.966 l 0.01,-2.971 c 9.68,6.437 35.905,11.144 44.711,12.585 15.774,2.421 36.126,4.238 61.672,4.238 26.897,0 48.463,-1.911 64.993,-4.444 15.681,-2.266 38.021,-8.156 42.419,-12.079 l 0,0 z m 0.01,-9.058 0,2.546 c -2.78,3.322 -20.21,8.346 -42.067,11.883 -16.634,2.55 -38.322,4.474 -65.346,4.474 -25.674,0 -46.147,-1.829 -62.025,-4.269 -25.097,-3.652 -41.151,-10.052 -44.373,-11.963 l 0.01,-2.971 c 9.68,6.435 35.906,11.144 44.712,12.582 15.774,2.424 36.126,4.242 61.672,4.242 26.897,0 48.463,-1.912 64.993,-4.447 15.681,-2.266 38.02,-8.157 42.418,-12.079 l 0,0 z"
       id="path4361"
       style="fill:#ffff00;fill-rule:evenodd;stroke:#000000;stroke-width:0.611202;stroke-linecap:round;stroke-linejoin:round" />
    <path
       inkscape:connector-curvature="0"
       d="m 255.777,304.159 c -45.624,-0.272 -84.716,-12.436 -92.971,-14.447 l 6.019,9.423 c 14.581,6.135 52.719,15.275 87.389,14.263 34.671,-1.012 64.971,-3.698 86.324,-14.092 l 6.172,-9.766 c -14.551,6.854 -64.072,14.549 -92.933,14.619"
       id="path4363"
       style="fill:#ffff00;fill-rule:evenodd;stroke:#000000;stroke-width:0.611202;stroke-linecap:round;stroke-linejoin:round" />
    <path
       style="fill:#ffff00;fill-rule:evenodd;stroke:#000000;stroke-width:0.586668;stroke-linecap:round;stroke-linejoin:round"
       inkscape:connector-curvature="0"
       d="m 344.854,297.119 c -0.906,1.386 -1.831,2.754 -2.769,4.084 -10.071,3.552 -25.94,7.28 -32.637,8.367 -13.679,2.82 -34.842,4.901 -53.625,4.91 -40.416,-0.591 -73.499,-8.503 -89.063,-15.252 l -1.257,-2.159 0.206,-0.324 2.129,0.825 c 27.678,9.903 58.764,13.853 88.212,14.562 18.707,0.06 37.435,-2.144 52.578,-4.852 23.223,-4.653 32.613,-8.16 35.494,-9.749 l 0.732,-0.412 0,0 z m 5.352,-8.827 c 0.02,0.03 0.04,0.05 0.06,0.09 -0.677,1.145 -1.377,2.309 -2.093,3.48 -5.371,1.92 -19.949,6.185 -41.236,9.162 -14.026,1.91 -22.744,3.761 -50.645,4.303 -52.283,-1.33 -86.133,-11.553 -94.175,-14.075 l -1.191,-2.286 c 30.299,7.91 61.25,13.432 95.368,13.996 25.527,-0.544 36.387,-2.423 50.296,-4.32 24.823,-3.86 37.329,-7.947 41.083,-9.126 -0.04,-0.06 -0.107,-0.139 -0.164,-0.213 l 2.691,-1.006 0,0 z"
       id="path4365" />
    <path
       inkscape:connector-curvature="0"
       d="m 350.753,237.428 c 0.148,30.013 -15.211,56.946 -27.582,68.827 -17.502,16.81 -40.707,27.623 -67.807,28.121 -30.261,0.555 -58.795,-19.173 -66.448,-27.839 -14.963,-16.944 -27.146,-38.461 -27.536,-67.46 1.854,-32.756 14.712,-55.573 33.352,-71.22 18.64,-15.647 43.46,-23.267 64.13,-22.722 23.848,0.629 51.706,12.328 70.956,35.554 12.611,15.217 18.072,31.731 20.935,56.739 z M 255.621,134.663 c 58.118,0 105.916,47.294 105.916,105.284 0,57.988 -47.798,105.284 -105.916,105.284 -58.117,0 -105.519,-47.295 -105.519,-105.284 0,-57.99 47.402,-105.284 105.519,-105.284"
       id="path4367"
       style="fill:#ffff00;fill-rule:evenodd;stroke:#000000;stroke-width:0.611202;stroke-linecap:round;stroke-linejoin:round" />
    <path
       inkscape:connector-curvature="0"
       d="m 255.905,134.303 c 58.17,0 105.612,47.448 105.612,105.623 0,58.174 -47.443,105.622 -105.612,105.622 -58.17,0 -105.612,-47.446 -105.612,-105.622 0,-58.175 47.443,-105.623 105.612,-105.623 z M 152.617,239.926 c 0,56.811 46.652,103.299 103.288,103.299 56.637,0 103.289,-46.488 103.289,-103.299 0,-56.813 -46.653,-103.3 -103.289,-103.3 -56.636,0 -103.288,46.49 -103.288,103.3 z"
       id="path4369"
       style="fill:#ffff00;fill-rule:evenodd;stroke:#000000;stroke-width:0.611202;stroke-linecap:round;stroke-linejoin:round" />
    <path
       inkscape:connector-curvature="0"
       d="m 255.99,143.081 c 53.047,0 96.74,43.543 96.74,96.752 0,53.209 -43.694,96.75 -96.74,96.75 -53.045,0 -96.739,-43.541 -96.739,-96.75 0,-53.209 43.695,-96.752 96.739,-96.752 z m -94.416,96.75 c 0,51.931 42.644,94.426 94.416,94.426 51.772,0 94.416,-42.495 94.416,-94.426 0,-51.931 -42.643,-94.426 -94.416,-94.426 -51.772,0 -94.416,42.495 -94.416,94.426 z"
       id="path4371"
       style="fill:#ffff00;fill-rule:evenodd;stroke:#000000;stroke-width:0.611202;stroke-linecap:round;stroke-linejoin:round" />
    <path
       inkscape:connector-curvature="0"
       d="m 260.246,133.876 -9.051,0 0.01,212.225 9.082,0 z"
       id="path4373"
       style="fill:#ffff00;fill-rule:evenodd;stroke:#000000;stroke-width:0.611202;stroke-linecap:round;stroke-linejoin:round" />
    <path
       inkscape:connector-curvature="0"
       d="m 259.339,132.666 2.304,0 0.02,214.668 -2.305,0 -0.02,-214.668 z m -8.982,0 2.321,0 0,214.668 -2.323,0 0,-214.668 z"
       id="path4375"
       style="fill:#ffff00;fill-rule:evenodd;stroke:#000000;stroke-width:0.611202;stroke-linecap:round;stroke-linejoin:round" />
    <path
       inkscape:connector-curvature="0"
       d="m 361.59,244.015 0,-7.845 -6.389,-5.952 -36.267,-9.6 -52.266,-5.334 -62.934,3.2 -44.8,10.667 -9.046,6.699 0,7.847 22.913,-10.279 54.4,-8.534 52.267,0 38.4,4.267 26.666,6.4 z"
       id="path4377"
       style="fill:#ffff00;fill-rule:evenodd;stroke:#000000;stroke-width:0.611202;stroke-linecap:round;stroke-linejoin:round" />
    <path
       inkscape:connector-curvature="0"
       d="m 255.947,223.572 c 24.942,-0.04 49.142,2.363 68.337,6.101 19.807,3.959 33.746,8.913 38.512,14.475 l 0,2.755 c -5.747,-6.922 -24.505,-11.997 -38.953,-14.899 -19.048,-3.705 -43.086,-6.098 -67.89,-6.052 -26.174,0.05 -50.546,2.528 -69.317,6.19 -15.061,2.989 -35.148,8.926 -37.655,14.782 l 0,-2.869 c 1.377,-4.053 16.334,-10.11 37.316,-14.311 18.911,-3.688 43.328,-6.124 69.656,-6.172 z m 0.01,-9.058 c 24.942,-0.04 49.142,2.365 68.336,6.1 19.807,3.962 33.747,8.913 38.512,14.476 l 0,2.755 c -5.747,-6.921 -24.504,-11.998 -38.952,-14.897 -19.049,-3.708 -43.086,-6.1 -67.891,-6.052 -26.173,0.04 -50.427,2.528 -69.2,6.188 -14.534,2.756 -35.441,8.928 -37.773,14.784 l 0,-2.871 c 1.377,-4.008 16.637,-10.283 37.318,-14.311 18.911,-3.688 43.328,-6.122 69.655,-6.172 z"
       id="path4379"
       style="fill:#ffff00;fill-rule:evenodd;stroke:#000000;stroke-width:0.611202;stroke-linecap:round;stroke-linejoin:round" />
    <path
       inkscape:connector-curvature="0"
       d="m 255.446,168.308 c 39.306,-0.196 73.59,5.496 89.275,13.531 l 5.722,9.897 c -13.633,-7.347 -50.62,-14.986 -94.939,-13.844 -36.111,0.222 -74.696,3.976 -94.055,14.304 l 6.83,-11.423 c 15.888,-8.239 53.357,-12.419 87.168,-12.463"
       id="path4381"
       style="fill:#ffff00;fill-rule:evenodd;stroke:#000000;stroke-width:0.611202;stroke-linecap:round;stroke-linejoin:round" />
    <path
       inkscape:connector-curvature="0"
       d="m 255.969,176.479 c 22.418,-0.06 44.08,1.205 61.308,4.313 16.044,2.986 31.344,7.468 33.532,9.878 l 1.696,2.997 c -5.321,-3.474 -18.562,-7.343 -35.562,-10.566 -17.073,-3.209 -38.72,-4.272 -61.014,-4.214 -25.303,-0.09 -44.962,1.249 -61.833,4.191 -17.844,3.339 -30.223,8.108 -33.277,10.375 l 1.662,-3.168 c 5.934,-3.029 15.349,-6.678 31.171,-9.526 17.447,-3.187 37.315,-4.143 62.318,-4.28 l 0,0 z m 0,-9.05 c 21.454,-0.05 42.637,1.139 59.149,4.107 13.023,2.535 25.902,6.494 30.617,10.016 l 2.482,3.941 c -4.218,-4.688 -20.092,-9.129 -34.106,-11.618 -16.385,-2.826 -36.688,-3.945 -58.142,-4.124 -22.515,0.06 -43.323,1.442 -59.469,4.382 -15.404,2.932 -25.344,6.402 -29.55,9.113 l 2.181,-3.293 c 5.804,-3.055 15.181,-5.861 26.99,-8.156 16.266,-2.962 37.201,-4.305 59.849,-4.368 z"
       id="path4383"
       style="fill:#ffff00;fill-rule:evenodd;stroke:#000000;stroke-width:0.611202;stroke-linecap:round;stroke-linejoin:round" />
    <path
       inkscape:connector-curvature="0"
       d="m 308.428,283.828 c -19.433,-3.627 -38.901,-4.154 -52.499,-3.994 -65.501,0.768 -86.66,13.449 -89.243,17.289 l -4.895,-7.979 c 16.677,-12.088 52.345,-18.867 94.494,-18.173 21.885,0.358 40.772,1.811 56.66,4.888 l -4.518,7.972"
       id="path4385"
       style="fill:#ffff00;fill-rule:evenodd;stroke:#000000;stroke-width:0.611202;stroke-linecap:round;stroke-linejoin:round" />
    <path
       style="fill:#ffff00;fill-rule:evenodd;stroke:#000000;stroke-width:0.586668;stroke-linecap:round;stroke-linejoin:round"
       inkscape:connector-curvature="0"
       d="m 255.553,278.708 c 18.221,0.272 36.106,1.024 53.368,4.244 l -1.25,2.207 c -16.033,-2.959 -33.125,-4.092 -52.056,-4 -24.174,-0.189 -48.624,2.069 -69.911,8.178 -6.717,1.87 -17.836,6.187 -18.97,9.755 l -1.243,-2.051 c 0.358,-2.109 7.078,-6.486 19.641,-10.016 24.382,-6.982 47.189,-8.159 70.421,-8.319 l 0,0 z m 0.826,-9.169 c 18.878,0.352 38.374,1.226 57.323,4.98 l -1.301,2.296 c -17.112,-3.396 -33.46,-4.529 -55.91,-4.875 -24.25,0.04 -49.974,1.774 -73.363,8.573 -7.552,2.201 -20.583,6.956 -21.018,10.721 l -1.243,-2.203 c 0.282,-3.42 11.564,-7.881 21.715,-10.834 23.569,-6.852 49.36,-8.614 73.799,-8.658 z"
       id="path4387" />
    <path
       inkscape:connector-curvature="0"
       d="m 349.42,290.356 -7.871,12.213 -22.615,-20.085 -58.667,-39.466 -66.133,-36.267 -34.336,-11.744 7.317,-13.568 2.486,-1.355 21.333,5.333 70.4,36.267 40.534,25.6 34.133,24.534 13.867,16 z"
       id="path4389"
       style="fill:#ffff00;fill-rule:evenodd;stroke:#000000;stroke-width:0.611202;stroke-linecap:round;stroke-linejoin:round" />
    <path
       inkscape:connector-curvature="0"
       d="m 158.56,195.327 c 6.023,-4.084 50.282,15.632 96.593,43.556 46.188,28.005 90.322,59.649 86.338,65.572 l -1.311,2.06 -0.6,0.475 c 0.129,-0.1 0.792,-0.904 -0.06,-3.1 -1.968,-6.475 -33.275,-31.457 -85.221,-62.821 -50.64,-30.197 -92.844,-48.396 -97.064,-43.194 l 1.331,-2.548 0,0 z m 192.47,94.856 c 3.808,-7.523 -37.243,-38.447 -88.141,-68.557 -52.067,-29.511 -89.594,-46.882 -96.448,-41.702 l -1.523,2.772 c -0.01,0.153 0.05,-0.188 0.377,-0.437 1.246,-1.088 3.312,-1.014 4.245,-1.031 11.802,0.177 45.511,15.689 92.806,42.803 20.724,12.069 87.543,54.924 87.288,66.975 0.02,1.036 0.08,1.25 -0.304,1.762 l 1.7,-2.584 0,0 z"
       id="path4391"
       style="fill:#ffff00;fill-rule:evenodd;stroke:#000000;stroke-width:0.611202;stroke-linecap:round;stroke-linejoin:round" />
  </g>
  <g
     id="g4661">
    <path
       style="fill:#ffffff;stroke:#000000;stroke-width:0.715064"
       inkscape:connector-curvature="0"
       d="m 192.641,251.562 c 0,17.355 7.107,33.053 18.62,44.525 11.536,11.496 27.213,18.751 44.597,18.751 17.473,0 33.33,-7.097 44.817,-18.549 11.487,-11.45 18.606,-27.255 18.609,-44.672 l 0,0 0,-84.468 -126.656,-0.151 0.01,84.564 0,0 z"
       id="path4395" />
    <path
       style="fill:#ff0000;stroke:#000000;stroke-width:0.541164"
       inkscape:connector-curvature="0"
       d="m 195.009,251.679 0,0.04 c 0,16.594 6.87,31.705 17.893,42.676 11.044,10.992 26.255,17.826 42.895,17.826 16.727,0 31.906,-6.785 42.904,-17.734 10.995,-10.95 17.81,-26.062 17.812,-42.714 l 0,0 0,-81.948 -121.43,-0.02 -0.07,81.865 m 97.09,-57.331 0,52.151 -0.04,5.517 0,0 c 0,1.451 -0.09,3.106 -0.257,4.515 -0.986,8.245 -4.778,15.431 -10.394,21.022 -6.575,6.545 -15.649,10.605 -25.651,10.605 -9.948,0 -18.815,-4.201 -25.417,-10.774 -6.774,-6.741 -10.699,-15.985 -10.699,-25.543 l -0.01,-57.625 72.47,0.13 0,0 z"
       id="path4397" />
    <g
       transform="matrix(1.06667,0,0,1.06667,0,26.4836)"
       id="castle3">
      <g
         style="fill:#ffff00;stroke:#000000;stroke-width:0.5"
         id="castle">
        <path
           style="stroke:none"
           inkscape:connector-curvature="0"
           d="m 190.19,154.43 c 0.135,-5.521 4.052,-6.828 4.081,-6.847 0.03,-0.02 4.231,1.407 4.217,6.898 l -8.298,-0.05"
           id="path4401" />
        <path
           inkscape:connector-curvature="0"
           d="m 186.81,147.69 -0.682,6.345 4.141,0 c 0.04,-5.25 3.974,-6.123 4.069,-6.103 0.09,0 3.989,1.16 4.093,6.103 l 4.151,0 -0.75,-6.394 -15.022,0.04 0,0 z"
           id="path4403" />
        <path
           inkscape:connector-curvature="0"
           d="m 185.85,154.06 16.946,0 c 0.357,0 0.649,0.353 0.649,0.784 0,0.43 -0.292,0.781 -0.649,0.781 l -16.946,0 c -0.357,0 -0.649,-0.351 -0.649,-0.781 0,-0.431 0.292,-0.784 0.649,-0.784 z"
           id="path4405" />
        <path
           inkscape:connector-curvature="0"
           d="m 192.01,154.03 c 0.02,-3.313 2.262,-4.25 2.274,-4.248 0,0 2.342,0.966 2.36,4.248 l -4.634,0"
           id="path4407" />
        <path
           inkscape:connector-curvature="0"
           d="m 186.21,145.05 16.245,0 c 0.342,0 0.623,0.318 0.623,0.705 0,0.387 -0.281,0.704 -0.623,0.704 l -16.245,0 c -0.342,0 -0.623,-0.315 -0.623,-0.704 0,-0.387 0.281,-0.705 0.623,-0.705 z"
           id="path4409" />
        <path
           inkscape:connector-curvature="0"
           d="m 186.55,146.47 15.538,0 c 0.327,0 0.595,0.317 0.595,0.704 0,0.388 -0.268,0.704 -0.595,0.704 l -15.538,0 c -0.327,0 -0.595,-0.316 -0.595,-0.704 0,-0.387 0.268,-0.704 0.595,-0.704 z"
           id="path4411" />
        <path
           inkscape:connector-curvature="0"
           d="m 191.57,135.88 1.227,0 0,0.871 0.895,0 0,-0.89 1.257,0 0,0.887 0.897,0 0,-0.891 1.258,0 0,2.012 c 0,0.316 -0.254,0.52 -0.549,0.52 l -4.411,0 c -0.296,0 -0.57,-0.237 -0.571,-0.526 l 0,-1.988 0,0 z"
           id="path4413" />
        <path
           inkscape:connector-curvature="0"
           d="m 196.19,138.57 0.277,6.451 -4.303,-0.01 0.285,-6.453 3.741,0.02"
           id="path4415" />
        <path
           inkscape:connector-curvature="0"
           id="cp1"
           d="m 190.94,141.56 0.131,3.477 -4.125,0 0.116,-3.479 3.879,0 0,0 z" />
        <use
           height="100%"
           width="100%"
           y="0"
           xlink:href="#cp1"
           x="10.609"
           id="use4418" />
        <path
           inkscape:connector-curvature="0"
           id="cp2"
           d="m 186.3,139.04 1.199,0 0,0.872 0.878,0 0,-0.892 1.229,0 0,0.889 0.88,0 0,-0.893 1.23,0 0,2.012 c 0,0.314 -0.249,0.518 -0.536,0.518 l -4.317,0 c -0.29,0 -0.559,-0.235 -0.559,-0.525 l 0,-1.989 0,0 z" />
        <use
           height="100%"
           width="100%"
           y="0"
           xlink:href="#cp2"
           x="10.609"
           id="use4421" />
        <path
           style="fill:#000000;stroke:none"
           inkscape:connector-curvature="0"
           d="m 193.9,140.61 c -0.03,-0.627 0.877,-0.634 0.866,0 l 0,1.536 -0.866,0 0,-1.536"
           id="path4423" />
        <path
           style="fill:#000000;stroke:none"
           inkscape:connector-curvature="0"
           id="cp3"
           d="m 188.57,142.84 c 0,-0.606 0.837,-0.618 0.826,0 l 0,1.187 -0.826,0 0,-1.187" />
        <use
           height="100%"
           width="100%"
           y="0"
           xlink:href="#cp3"
           x="10.641"
           id="use4426" />
      </g>
      <use
         height="100%"
         width="100%"
         x="0"
         xlink:href="#castle"
         y="46.3198"
         id="use4428" />
      <use
         height="100%"
         width="100%"
         y="0"
         x="0"
         xlink:href="#castle"
         transform="matrix(0.704609,-0.709596,0.709596,0.704609,-35.3415,275.109)"
         id="use4430" />
    </g>
    <use
       transform="matrix(1.06667,0,0,1.06667,0,26.4836)"
       height="100%"
       width="100%"
       y="0"
       xlink:href="#castle"
       x="45.7138"
       id="use4432" />
    <use
       height="100%"
       width="100%"
       y="0"
       x="0"
       xlink:href="#castle3"
       transform="matrix(-1,0,0,1,511.78,0)"
       id="use4434" />
    <g
       transform="matrix(1.06667,0,0,1.06667,0,26.4836)"
       style="fill:#ffffff"
       id="quina">
      <path
         style="fill:#003399"
         inkscape:connector-curvature="0"
         d="m 232.636,202.406 0,0 c 0,2.212 0.849,4.227 2.212,5.689 1.365,1.467 3.245,2.378 5.302,2.378 2.067,0 3.944,-0.905 5.303,-2.365 1.358,-1.459 2.202,-3.472 2.202,-5.693 l 0,-10.768 -14.992,-0.01 -0.03,10.766"
         id="path4437" />
      <circle
         cx="236.074"
         cy="195.735"
         r="1.486"
         id="circle4439" />
      <circle
         cx="244.392"
         cy="195.742"
         r="1.486"
         id="circle4441" />
      <circle
         cx="240.225"
         cy="199.735"
         r="1.486"
         id="circle4443" />
      <circle
         cx="236.074"
         cy="203.916"
         r="1.486"
         id="circle4445" />
      <circle
         cx="244.383"
         cy="203.905"
         r="1.486"
         id="circle4447" />
    </g>
    <use
       height="100%"
       width="100%"
       x="0"
       xlink:href="#quina"
       y="-26.016"
       id="use4449" />
    <use
       height="100%"
       width="100%"
       y="0"
       xlink:href="#quina"
       x="-20.799"
       id="use4451" />
    <use
       height="100%"
       width="100%"
       y="0"
       xlink:href="#quina"
       x="20.745"
       id="use4453" />
    <use
       height="100%"
       width="100%"
       x="0"
       xlink:href="#quina"
       y="25.784"
       id="use4455" />
  </g>
</svg>
